<svg xmlns="http://www.w3.org/2000/svg" xmlns:xlink="http://www.w3.org/1999/xlink" width="50" height="50" viewBox="0 0 50 50">
  <defs>
    <path id="ansible-a" d="M25.0125446,10.0353116 C33.2559138,10.0353116 39.9377922,16.7178952 39.9377922,24.9605593 C39.9377922,33.203811 33.2559138,39.8856306 25.0125446,39.8856306 C16.7698805,39.8856306 10.0872969,33.203811 10.0872969,24.9605593 C10.0872969,16.7178952 16.7698805,10.0353116 25.0125446,10.0353116 Z M25.263804,15.9532865 C24.8514534,15.9532865 24.4876422,16.1714792 24.3180478,16.5838298 L17.7973017,32.2665521 L20.0279441,32.2665521 L22.6092344,25.8005157 L30.3123813,32.0237372 C30.6221879,32.2742503 30.8457282,32.3875482 31.1363187,32.3875482 C31.7182638,32.3875482 32.2269295,31.9512805 32.2269295,31.3215599 C32.2269295,31.2190746 32.1907305,31.0564144 32.125208,30.8814724 L26.1841151,16.5838298 C26.0145208,16.1714792 25.6753907,15.9532865 25.263804,15.9532865 Z M25.263804,19.1527795 L29.1261608,28.6855011 L23.2921368,24.0899982 L25.263804,19.1527795 Z"/>
  </defs>
  <use xlink:href="#ansible-a"/>
</svg>
