<svg xmlns="http://www.w3.org/2000/svg" xmlns:xlink="http://www.w3.org/1999/xlink" width="50" height="50" viewBox="0 0 50 50">
  <defs>
    <path id="arachni-a" d="M46.9000033,31.8584677 L46.9000033,37.4094266 L45.5293962,37.4094266 C45.5215837,36.8306878 45.508837,36.2518804 45.5069867,35.6731415 C45.5034917,34.5478045 45.5060958,33.4224675 45.5061644,32.2971306 L45.5061644,31.8584677 L46.9000033,31.8584677 Z M31.5487922,29.3424442 C31.6834544,29.4543543 31.7547945,29.5137016 31.7927603,29.5452256 C32.2430733,29.2698706 32.7423169,29.5058206 33.2478653,29.3729402 L33.2478653,32.0691301 C33.5559778,32.0088919 33.8207106,31.942623 34.0894181,31.9071243 C35.233738,31.7562205 36.2427105,32.0617288 37.0636356,32.8774456 C38.2220728,34.0286186 38.1168101,35.8814738 36.8491356,37.0974765 C36.7455862,37.1967769 36.6508087,37.305192 36.5519194,37.4094266 L35.8666159,37.4094266 C35.8762101,37.3770118 35.8941651,37.3445969 35.8941651,37.3121135 C35.896358,35.910051 35.9012237,34.5079884 35.8882715,33.1060629 C35.8873806,33.0086127 35.7716328,32.8583257 35.6764441,32.8242661 C34.9445399,32.562206 34.201945,32.557683 33.4696981,32.8226213 C33.3756059,32.8566809 33.2610917,33.0051177 33.2604749,33.1012658 C33.2508121,34.5372509 33.2586931,35.973373 33.2624623,37.4094266 L32.6456891,37.4094266 C31.810304,36.631333 31.535977,35.6445644 31.5453657,34.5369767 C31.5587976,32.9619436 31.5487922,31.3866362 31.5487922,29.811466 L31.5487922,29.3424442 Z M22.2786155,32.2045049 C22.3188428,32.223899 22.3614001,32.2382219 22.419788,32.2616592 C22.4348647,32.1500918 22.4482281,32.0515452 22.4693355,31.8959127 C22.5978984,32.0167318 22.7099455,32.1058212 22.8027356,32.2118377 C23.6129701,33.1374772 23.8728372,34.222861 23.7298143,35.4252261 C23.6548421,36.0559795 23.6581316,36.0563222 24.0122279,36.6302639 C23.786626,36.8862248 23.5560899,37.1478737 23.3255537,37.4094541 L22.9143716,37.4094541 C22.845293,37.3009705 22.7762144,37.1925555 22.7005569,37.0737924 C22.5196367,37.2025609 22.3743524,37.3059732 22.229068,37.4094541 L19.2822627,37.4094541 C18.9715461,37.18255 18.6284146,36.9889518 18.3555952,36.7231225 C17.0914157,35.4913579 17.2827525,33.496028 18.7800037,32.5010358 C19.8754615,31.7731063 21.0541836,31.6161718 22.2786155,32.2045049 Z M8.91207094,32.2559918 C8.92701055,32.1494271 8.94147046,32.046426 8.96230369,31.8977836 C9.61162882,32.4595269 10.0084196,33.1303706 10.1525389,33.9206627 C10.2393669,34.3968116 10.2569792,34.9007153 10.2079115,35.3821411 C10.1611737,35.8406092 10.1778266,36.2450068 10.5148589,36.606573 C10.2779495,36.8823391 10.0514566,37.1459069 9.82510088,37.4094061 L9.41391874,37.4094061 C9.3411395,37.3004428 9.26836026,37.1915481 9.18817974,37.0714829 C9.01568884,37.1982641 8.87211774,37.3038693 8.72861517,37.4094061 L5.78180983,37.4094061 C4.84609634,36.9248279 4.23131051,36.1874413 4.00002056,35.1479043 L4.00002056,34.4626007 C4.17107233,33.7482403 4.46225782,33.0987781 5.06895706,32.6470945 C6.26063144,31.7597635 7.53584431,31.6026234 8.91207094,32.2559918 Z M44.7940517,34.0817913 C45.112992,35.3495343 44.626495,36.3809162 43.7145615,37.2485105 C43.6576128,37.302718 43.5995676,37.355829 43.5420021,37.4094198 L42.9252289,37.4094198 C42.9283128,35.9828234 42.9361252,34.5562269 42.9250233,33.1297675 C42.9242695,33.022449 42.8109888,32.8549608 42.7124421,32.819325 C41.9917769,32.558567 41.2585706,32.5545237 40.538111,32.8198047 C40.4394273,32.8561944 40.3260781,33.022449 40.3251872,33.1294249 C40.3127832,34.5560213 40.3192936,35.9827548 40.3210753,37.4094198 L39.7043021,37.4094198 C38.9250434,36.7469368 38.4335437,35.9364283 38.3666581,34.8906551 C38.2985389,33.827201 38.8507565,32.5162838 39.648587,31.9430959 C39.6682552,32.0961927 39.6862101,32.235789 39.6978603,32.3265918 C40.2175945,32.1785662 40.7196479,31.9767443 41.240136,31.8986882 C42.6138955,31.6927545 44.3827325,32.4469996 44.7940517,34.0817913 Z M30.5684038,33.1628129 C30.6496808,33.2698573 30.7170461,33.3873183 30.8195675,33.5436361 C30.4242159,33.5591239 30.1172684,33.6207327 29.7852389,33.333522 C28.8764578,32.5474103 27.8124555,32.4633235 26.7015099,32.8403776 C26.6112554,32.8710106 26.5094878,33.0330164 26.5081857,33.1351951 C26.4942055,34.2307214 26.4932461,35.3265218 26.5086654,36.4220481 C26.5102416,36.5322449 26.620507,36.7057638 26.7185739,36.7397548 C27.7743526,37.1061867 28.8015541,37.0486897 29.6867607,36.3256259 C30.0296866,36.0455423 30.3537667,35.9943502 30.7809849,36.0447885 C30.4812332,36.7001443 29.9373077,37.0736347 29.3562388,37.4094335 L26.2723728,37.4094335 C26.0488268,37.2568164 25.8153438,37.1167403 25.6033109,36.9495263 C24.2475749,35.8803156 24.1681482,33.9721564 25.4247208,32.7878833 C26.8774273,31.4188524 29.3827601,31.6007319 30.5684038,33.1628129 Z M15.5081246,32.067965 C16.0735001,32.2636192 16.5734975,32.5650157 17.0053073,33.1070908 C16.5416309,33.101814 16.1595057,33.1917258 15.7661414,32.9785964 C14.9726969,32.548774 14.131898,32.5396595 13.2758168,32.7885617 C13.0562455,32.852432 12.9788062,32.958517 12.9805195,33.1976194 C12.9907305,34.6014638 12.9806565,36.0054452 12.9775041,37.4094266 L12.3607309,37.4094266 C11.7383382,36.8798926 11.2793904,36.2489336 11.0894928,35.4367803 C10.8118763,34.2494234 11.3527179,32.6460871 12.3004927,31.9410468 C12.3210519,32.0946234 12.3398292,32.2346994 12.3633351,32.4097259 C13.376762,31.8414037 14.419657,31.6912537 15.5081246,32.067965 Z M7.31075122,32.6260471 C6.93699522,32.6253019 6.56311072,32.6944147 6.19212164,32.834902 C6.10077067,32.8695098 5.99989399,33.0213731 5.99633041,33.1221127 C5.97721044,33.6686423 5.98721587,34.2161998 5.98721587,34.7634147 C5.98721587,35.3106296 5.99948281,35.8582557 5.98104814,36.4048538 C5.97378392,36.6200392 6.0602007,36.7137887 6.24434177,36.7736157 C6.60851209,36.8917963 6.97259674,36.9539019 7.33521655,36.9518974 L7.55259587,36.9429523 C7.84218871,36.9205708 8.1306741,36.8561194 8.41735029,36.745484 C8.51870669,36.7063532 8.63671596,36.5444159 8.63822363,36.4378512 C8.65357443,35.343627 8.65240941,34.2489916 8.63616772,33.1547674 C8.63452299,33.0442965 8.5268618,32.8731762 8.4286578,32.8363068 C8.20635218,32.7529602 7.98292402,32.6942105 7.75902096,32.6603852 L7.53498357,32.6348802 L7.31075122,32.6260471 Z M20.8417806,32.6288723 C20.4732586,32.625737 20.1034345,32.6876714 19.7331308,32.8127393 C19.5589266,32.8716068 19.4825152,32.9552824 19.4883403,33.1536093 C19.5040338,33.689174 19.4936857,34.225424 19.4936857,34.7614685 C19.4936172,35.308889 19.5016352,35.8565151 19.4892998,36.4036614 C19.4850509,36.5918458 19.5404234,36.6955322 19.7216862,36.7581004 C20.09665,36.8875543 20.4709114,36.953806 20.8438536,36.9515873 L21.0674489,36.9420145 C21.3653608,36.9181736 21.6623494,36.8498352 21.958099,36.734293 C22.0447214,36.7003705 22.1463519,36.5636524 22.1473798,36.473535 C22.1595097,35.3560104 22.1595782,34.2382803 22.1446386,33.1208243 C22.1433366,33.021935 22.0354698,32.8697976 21.9426111,32.8353954 C21.7235539,32.7542897 21.5037318,32.6972999 21.2833225,32.6640095 L21.0627241,32.6386036 L20.8417806,32.6288723 Z M26.5872698,32.3626524 C25.8500545,32.6163665 25.2636958,33.0291507 25.0006478,33.7747211 L24.9457621,33.9527623 C25.2277783,33.3629626 25.7091355,32.9850917 26.2103961,32.6287997 L26.3989514,32.4958299 L26.5872698,32.3626524 Z M5.83814179,32.4574025 C5.31103369,32.5557116 4.65879953,33.1690912 4.49427847,33.67328 L4.46671229,33.7794216 C4.70721529,33.5475534 4.97050758,33.2937633 5.23392727,33.0398471 L5.49655008,32.7866962 L5.83814179,32.4574025 Z M19.2924737,32.5013099 C18.736576,32.7071271 18.3160662,33.0610994 18.0492791,33.5826108 L17.9660687,33.7626796 L18.6329204,33.1285254 L19.2924737,32.5013099 Z M12.0302775,32.4147972 L11.514381,33.3205629 L11.5503595,33.3390661 L11.5863379,33.3575693 L12.1484239,32.4818199 L12.0893507,32.4483085 L12.0302775,32.4147972 Z M39.4353205,32.4514198 L39.1243297,32.8592354 L38.8717268,33.3010934 L38.9411481,33.3388537 C39.1253577,33.0543841 39.3094987,32.7699146 39.4937083,32.4855137 L39.4353205,32.4514198 L39.3769326,32.417326 Z M36.3430115,15.0251849 C36.2843495,15.5561581 36.1964251,16.0234666 36.1903944,16.4918031 C36.1832672,17.0497772 36.2524829,17.6082996 36.2762629,18.1672332 C36.2870222,18.4204529 36.2746182,18.6753858 36.2569374,18.9284684 C36.2533053,18.9813739 36.1901203,19.0580593 36.1381743,19.0755346 C35.4697292,19.30004 35.0498437,19.8362901 34.5745856,20.3043524 C34.189445,20.6836679 33.7987535,21.0574325 33.4064172,21.4375704 C33.6298261,21.5018519 33.879071,21.6226023 34.1342096,21.6367881 C34.6936229,21.668038 35.2584501,21.6119801 35.8167669,21.6517277 C36.8750126,21.7271111 37.9316137,21.8330591 38.9857476,21.9542207 C39.2133369,21.9803308 39.4274943,22.1243816 39.6844146,22.2289589 C39.5975181,22.304685 39.5263836,22.3667735 39.4551806,22.4287249 C40.2299848,22.3427193 40.8967166,22.6759825 41.5902438,23.040701 C41.5224673,23.1133432 41.4621606,23.1780359 41.386366,23.2592443 C41.880607,23.5430971 42.3520273,23.8138605 42.8439382,24.0963426 C42.6024372,24.3327724 42.4071257,24.424603 42.065913,24.2436144 C41.1503475,23.7578712 40.2047656,23.3285285 39.2685039,22.8821903 C39.1811277,22.8405238 39.0464655,22.7873443 38.9831435,22.8242136 C38.6732492,23.0050652 38.3855588,22.8655374 38.0936195,22.7964588 C37.572309,22.6729671 37.0584684,22.5080146 36.53147,22.4207069 C35.9957682,22.3319601 35.4465659,22.328465 34.906067,22.2637724 C34.5457344,22.2206668 34.1741628,22.0399522 33.8376102,22.097038 C33.5161343,22.1515882 33.2304997,22.4298214 32.9341745,22.6176631 C32.2692244,23.0391933 31.4958594,23.0838066 30.8774414,23.2154534 C30.7714935,23.4158362 30.7070064,23.5376832 30.6490983,23.6471947 C30.7342815,23.6662461 30.8431077,23.6928359 30.9529619,23.7144915 C31.0253299,23.7286773 31.1344303,23.7717829 31.1667766,23.7402589 C31.4057419,23.506776 31.599957,23.6544589 31.8021215,23.791177 C32.1867824,24.0512497 32.56274,24.3259879 32.9604216,24.564542 C33.645314,24.9755186 34.4138134,25.1528066 35.1877267,25.3047384 C35.2648919,25.3198836 35.3447983,25.3246122 35.4236768,25.3262569 C35.5984977,25.3298205 35.7851744,25.2121539 35.9106535,25.4827117 C35.9522514,25.5722809 36.2240428,25.5793395 36.3912569,25.5820808 C37.0410617,25.592703 37.6911407,25.5863982 38.3842567,25.65253 C38.2110805,25.7581353 38.0380413,25.8637405 37.8448543,25.9815442 C38.1054067,26.0620674 38.3808987,26.1472506 38.6674927,26.2358604 C38.5092561,26.4838717 38.3301177,26.606404 38.0365337,26.5225228 C37.8185386,26.4601602 37.5894416,26.4207553 37.3631544,26.4074604 C37.1226814,26.3934117 36.8776168,26.4466597 36.6383773,26.4260321 C36.3471918,26.40095 36.0468233,26.3671645 35.7733872,26.2715647 C34.5451176,25.842222 33.2871744,25.6127824 31.9848235,25.6177851 C31.7043287,25.6188816 31.4236284,25.5746795 31.1144879,25.4719525 C31.2740951,25.3708017 31.4336338,25.2696509 31.6372375,25.1406082 C30.9687239,24.9853184 30.4015666,24.5613211 29.7166057,24.6375269 C29.7020773,24.6772059 29.6875488,24.7169535 29.6730204,24.7567697 C30.0900962,25.0239695 30.5127229,25.2830828 30.9225344,25.5611105 C31.2575793,25.7884257 31.5757658,26.0462369 32.008535,25.6959097 C32.269293,26.3757994 32.6782136,26.8883379 33.3197948,27.2602521 C33.3424784,27.2525767 33.4368447,27.2208472 33.6200263,27.1591699 C33.3938761,27.3681875 33.2313906,27.5184745 33.0667122,27.6706804 C33.1585429,27.8555068 33.2267991,27.9929102 33.2879282,28.1159907 C33.6232472,28.1836987 33.9578124,28.2512696 34.2924462,28.3188406 C34.301081,28.344608 34.3097158,28.3703069 34.3183506,28.3960743 C34.224464,28.4517895 34.1368822,28.5311476 34.0353203,28.5582171 C33.8415164,28.6099575 33.6355827,28.6164679 33.442053,28.6688936 C32.8289119,28.8351483 32.2189917,29.0131216 31.6083862,29.1883537 C31.4700919,29.2280328 31.3194622,29.2507163 31.1989859,29.3223306 C30.2456601,29.888734 29.2231871,30.3114977 28.2250425,30.7856593 C27.8472346,30.9651403 27.520756,31.2494042 27.1563116,31.4607518 C26.8136598,31.6593528 26.4488042,31.8193712 26.0993679,32.0068017 C25.8700653,32.1297452 25.6494661,32.2692044 25.4271536,32.4049631 C25.0254287,32.6503703 24.6253485,32.8985187 24.1923737,33.1156914 C24.1966911,32.8942698 24.4246916,32.7075931 24.1984043,32.4878163 C25.058803,31.8670683 25.9513423,31.2493357 26.815236,30.5937057 C27.9863513,29.7049356 29.3947186,29.2616812 30.6378593,28.5113423 C30.9435047,28.3268586 31.244353,28.1343568 31.6390193,27.8884699 C30.7858849,27.3097311 30.0008011,26.7771817 29.2127705,26.2427134 C29.2649907,26.1654797 29.3004894,26.113054 29.3458565,26.0460313 C29.0779713,25.8960869 28.818721,25.7531325 28.5615951,25.6063405 C28.3724513,25.4983367 28.1906403,25.3765582 27.9962882,25.2793822 C27.9265243,25.2445002 27.8259217,25.2451855 27.7458097,25.2612216 C26.9426339,25.4220624 26.168515,25.3282443 25.4105693,25.0276016 C25.1283613,24.9156916 24.8336807,24.835374 24.5109713,24.7295631 C24.5210452,24.6634999 24.5383834,24.5498765 24.5658641,24.3702585 C23.9294227,24.5276727 23.3379372,24.6765206 22.744944,24.8195435 C22.4458775,24.8916374 22.1425622,24.9462561 21.844181,25.0209542 C21.3547372,25.1434865 20.8134159,25.1086045 20.4110056,25.5027911 C20.3336349,25.5785857 20.2135011,25.6408798 20.1070735,25.6519817 C19.3910683,25.7264742 18.9716626,26.2934259 18.4225973,26.6440957 C18.3055475,26.7188623 18.1741063,26.7710139 18.027931,26.8442729 C17.9782465,26.6947396 17.9474764,26.6022237 17.8997792,26.4585155 C17.4425447,26.7255098 17.0112832,26.9772903 16.5800902,27.2290708 L16.6444402,27.2804686 C16.6075708,27.3753831 16.5972228,27.5022328 16.5287609,27.5590445 C16.354077,27.7039177 16.1666465,27.8471461 15.9609184,27.9380859 C15.3250937,28.2193345 15.0470661,28.7925224 14.7569086,29.3577608 C14.5758514,29.7106236 14.4137771,30.0732862 14.236352,30.4280679 C14.0064326,30.8877695 13.7335447,31.2906595 13.1610421,31.3815307 C13.0069859,31.405859 12.8719126,31.5496357 12.7040817,31.6534592 C12.625683,31.6098053 12.5202833,31.5511434 12.3673921,31.4660287 C12.6541916,31.1507205 12.9480498,30.8777641 13.1781747,30.5588238 C13.3638235,30.3014923 13.4727867,29.9887883 13.6147131,29.7000699 C13.6244444,29.6801961 13.6371225,29.6458624 13.6281451,29.6348975 C13.2070945,29.1210569 13.8835577,29.163066 13.9967013,28.9199888 C14.0469341,28.8121221 14.1659028,28.736259 14.2536901,28.645936 C14.2325828,28.6228412 14.2114754,28.599678 14.1904366,28.5765832 C13.8001562,28.7855323 13.4098759,28.9944813 13.0195955,29.2034989 C12.998077,29.1691652 12.9765584,29.1348315 12.9550399,29.1004293 C13.4148786,28.7577775 13.8746487,28.4151257 14.4108988,28.0155252 C14.2314863,28.0534225 14.142808,28.0721313 14.0539927,28.0908401 C14.0448782,28.08385 14.0276085,28.0712404 14.0280197,28.0706236 C14.1014157,27.963168 14.1548694,27.8263814 14.2549922,27.7559322 C14.4866934,27.5928985 14.741078,27.4620055 15.0732447,27.2669681 C14.8860197,27.2978068 14.7965876,27.3125408 14.707224,27.3272748 C14.6938606,27.2950656 14.6804972,27.2628563 14.6671338,27.2307156 C15.3422263,26.8008246 16.0746788,26.4853109 16.8379699,26.1941254 C16.836051,25.9886028 16.830226,25.9860672 16.4808582,26.0406859 L15.9566695,26.1185364 L15.9202799,26.0190303 C16.1882336,25.8899877 16.4454965,25.7272966 16.7261284,25.6378645 C17.7020006,25.3269422 18.6857539,25.040828 19.666903,24.7463531 C20.2527005,24.5705727 20.83514,24.381703 21.4262143,24.225865 C22.4107214,23.9662035 23.4014648,23.7305961 24.3875481,23.4765541 C24.4558043,23.4589418 24.550856,23.3769109 24.5568181,23.317221 C24.5747045,23.1379456 24.5819002,22.9479794 24.5380408,22.7763794 C24.5152887,22.6875641 24.3824083,22.5763393 24.2877679,22.5641409 C23.0544956,22.4048764 21.8171115,22.2761764 20.585621,22.1047134 C20.2402965,22.0566051 19.9183409,21.8488896 19.5728794,21.7927632 C18.4471997,21.6098557 17.315695,21.4632693 16.1865203,21.3020859 C16.121485,21.2928343 16.0572035,21.2778261 15.9925794,21.2654907 C15.983739,21.2188215 15.9747615,21.1721523 15.9658526,21.1254831 C16.2309965,21.0712071 16.4978537,20.9629291 16.7608047,20.9714954 C18.271625,21.0209058 19.7824452,21.0825146 21.2914151,21.1715355 C22.1901222,21.2245095 23.0854028,21.335186 24.082451,21.4294153 C23.9278465,21.5573614 23.8495163,21.6221226 23.7110164,21.7367739 C24.181957,21.773095 24.5761437,22.0893626 25.0178903,21.743764 C25.0956038,21.6829776 25.2615158,21.7351292 25.4137902,21.7351292 C25.3068143,21.3219597 25.1958637,20.8939191 25.0662042,20.3933048 C24.8807611,20.3196347 24.6917544,19.9902778 24.3171674,20.118224 C24.2962657,20.1253511 24.2593963,20.0872482 24.2305451,20.0693618 C23.5583308,19.653177 22.8861851,19.2369236 22.1908075,18.8062788 C22.2078031,18.7957251 22.2631071,18.7612544 22.3250585,18.7227403 C22.2862703,18.6923814 22.2631071,18.6613371 22.2335019,18.6531135 C21.8495949,18.5463432 21.466099,18.437517 21.0795878,18.3407521 C20.8724891,18.2888746 20.6535346,18.1518824 20.4639796,18.4023609 C20.4349227,18.4406694 20.3048521,18.4340904 20.2376924,18.4075007 C18.6910307,17.7939484 17.0605565,17.542442 15.3808775,17.3052584 C15.5859203,17.0772579 15.7505987,16.9753533 16.0502134,17.0297664 C17.5537695,17.3028598 19.0621912,17.5503915 20.571024,17.793126 C21.6785431,17.9713049 22.7894202,18.1281024 24.0078214,18.3108043 C23.7579597,18.4238794 23.5944463,18.4979607 23.4309329,18.572042 L23.434702,18.639613 C23.5574399,18.639613 23.7082067,18.6852542 23.7973647,18.630567 C24.009055,18.5006334 24.158177,18.5690952 24.3184695,18.7037574 C24.8623264,19.1608549 25.4083763,19.6154853 25.9517535,20.0694303 C25.9517535,20.0342057 25.9620331,19.9481316 25.9498347,19.8653469 C25.9148842,19.6284375 26.010347,19.4959683 26.2458858,19.454713 C26.6615909,19.3818653 26.7838491,19.0443533 26.955312,18.6766879 C26.7877553,18.7123237 26.6715278,18.7370631 26.4583299,18.7823617 C26.8557374,18.2788692 27.4110389,18.1629158 27.9050743,17.8221829 L27.53083,17.8221829 C27.5596127,17.7798997 27.5685217,17.7589979 27.583941,17.7453604 C27.9436569,17.4270368 28.4884047,17.5688947 28.8544253,17.1268054 C29.150545,16.7691454 29.6951557,16.6013831 30.1505399,16.3958606 C30.6059241,16.190338 31.0836493,16.0314161 31.5584276,15.8724942 C32.0336171,15.7133667 32.5096975,15.5412185 32.9990727,15.4441795 C33.6325674,15.3185634 34.279631,15.2616832 34.9398524,15.230913 L34.6110438,15.4222498 C35.2513914,15.6801981 35.7129434,15.1420977 36.3430115,15.0251849 Z M46.9000033,30.0766785 L46.9000033,31.1731642 L45.5250787,31.1731642 L45.5250787,30.0766785 L46.9000033,30.0766785 Z M32.7948433,25.292769 C32.5900009,25.1694561 32.3817139,25.0477496 32.1072187,25.3294093 L32.1072187,25.3294093 L32.8562555,25.3294093 Z M30.8586093,20.2681067 C30.3801852,20.498636 30.8041139,21.117191 30.3990995,21.3888453 L30.5074095,21.3407591 C30.9196219,21.1086112 30.6218222,20.5808744 30.8586093,20.2681067 Z M29.8036872,20.9484898 L29.4343086,21.0319512 L29.0667803,21.11495 C29.1352574,21.1529176 29.1956584,21.1849272 29.2494271,21.2106607 C29.3664738,21.2666482 29.4520826,21.2929258 29.5211598,21.2861914 L29.5688266,21.2753908 C29.6591896,21.2418403 29.7220518,21.1362735 29.8036872,20.9484898 Z M34.9839175,15.6771416 C34.7426906,15.7496193 34.5054385,15.8273327 34.2646914,15.892231 C33.0893272,16.2089783 31.910468,16.5129789 30.7383933,16.8413764 C30.2736204,16.9716526 29.8450316,17.1898533 29.4330956,17.599048 L29.5676624,17.5701672 C29.6792568,17.5461994 29.7711087,17.5264851 29.8563797,17.5081756 L29.9809958,17.4813814 C29.4772977,17.7838059 28.9615382,18.0425765 28.4337174,18.2737979 C27.924811,18.4967957 27.863819,18.5996598 28.042272,19.1376231 L29.4428269,18.6620224 C29.4574924,18.683678 29.4721579,18.7053336 29.4868234,18.7270577 C29.410275,18.7625564 29.3337266,18.7980552 29.2954867,18.8158045 C29.6014062,18.9774676 29.8837513,19.0764255 30.100924,19.2547415 C30.3558569,19.4641017 30.6052388,19.5369495 30.9343216,19.5364012 C31.3876499,19.5355789 31.8412524,19.6254907 32.3459099,19.6823024 C32.2612749,19.7908544 32.217484,19.8469808 32.1607409,19.91976 C32.2826564,19.9739676 32.3913455,20.0222129 32.4824224,20.0627144 L32.4824224,20.5692222 C32.8117793,20.3394399 33.2329668,20.519058 33.5138042,20.191757 C33.6713555,20.0082327 33.9179963,19.89831 34.0642401,19.7086865 C34.2305632,19.4930215 34.303274,19.2058108 34.4665818,18.9869248 C34.5591492,18.862902 34.6958158,18.7717995 34.8288204,18.6779407 L34.9588353,18.5818008 C34.9797371,18.6080205 35.0005703,18.6343361 35.0214036,18.6605833 C35.0070122,18.7432994 34.9925523,18.825947 34.9683611,18.9642413 L35.0031592,18.8937255 C35.117722,18.5482606 34.945298,17.4828269 34.7943625,17.239154 C34.8641949,16.6639102 34.9234052,16.1760426 34.9839175,15.6771416 Z M28.9956047,19.7408821 C28.8960986,19.8259283 28.7966611,19.911043 28.7103813,19.9848502 C28.8161874,20.0605679 28.9083199,20.1264905 28.9992107,20.1915185 C29.1151225,20.2744112 29.2290214,20.3559073 29.3666897,20.4544339 L29.4217878,20.4245623 C29.4854257,20.3900789 29.5727328,20.3427864 29.6659758,20.2922916 L29.7605405,20.2410852 L29.724425,20.1389749 C29.4622279,20.1101922 29.1999622,20.0814094 28.8943168,20.0478296 C28.9768959,19.9476382 29.0263748,19.8876056 29.0758537,19.827573 C29.0490584,19.7986532 29.0223315,19.7697334 28.9956047,19.7408821 Z"/>
  </defs>
  <use fill-rule="evenodd" xlink:href="#arachni-a"/>
</svg>
