<svg xmlns="http://www.w3.org/2000/svg" xmlns:xlink="http://www.w3.org/1999/xlink" width="50" height="50" viewBox="0 0 50 50">
  <defs>
    <path id="artifactory-a" d="M25,11 C32.7319865,11 39,17.2680135 39,25 C39,32.7319865 32.7319865,39 25,39 C17.2680135,39 11,32.7319865 11,25 C11,17.2680135 17.2680135,11 25,11 Z M31.2447521,27.0964571 C31.00005,27.2770286 30.7230287,27.302498 30.4163266,27.2326204 C30.1205074,27.1650286 29.8088585,27.1196408 29.5071032,27.1330286 C28.7858585,27.164702 28.2901883,27.6995592 28.2901883,28.2376816 C28.2901883,28.7036408 28.4125394,29.0618449 28.8650074,29.2858449 C28.7812415,29.3322122 28.7281457,29.3589878 28.6780181,29.3903347 C28.4313372,29.5441306 28.3304223,29.7518041 28.3874755,29.9859265 C28.4524436,30.2543347 28.6097521,30.3875592 28.9157947,30.4202122 C29.1189436,30.4420898 29.3234117,30.4505796 29.5272202,30.4682122 C29.7313585,30.4855184 29.939784,30.4874776 30.138316,30.5318857 C30.42655,30.5958857 30.5129543,30.8949878 30.297933,31.0964571 C30.0347628,31.3420082 29.708933,31.3292735 29.3827734,31.2437224 C29.1123479,31.1728653 29.1014649,30.9599673 29.1083904,30.7379265 C29.10905,30.7153959 29.0938798,30.6915592 29.0754117,30.6376816 C28.8534649,30.6376816 28.6226138,30.6216816 28.3970394,30.6474776 C28.3271245,30.6549878 28.2357734,30.7656816 28.2130181,30.8453551 C28.1160606,31.1875592 28.2733691,31.5444571 28.5955713,31.766498 C29.1651138,32.1599673 30.3576245,32.1531102 30.9156245,31.7456 C31.2975181,31.4664163 31.4393266,31.0807837 31.3545713,30.6265796 C31.2675074,30.1586612 30.9621245,29.8804571 30.4944862,29.8014367 C30.2689117,29.7632327 30.0334436,29.7841306 29.8032521,29.7697633 C29.7003585,29.7632327 29.598784,29.7361306 29.4681883,29.7132735 C29.6215394,29.4899265 29.7999543,29.4523755 30.0070606,29.4504163 C30.5897947,29.4435592 31.0610606,29.0971102 31.1451564,28.5798857 C31.1801138,28.364702 31.1210819,28.134498 31.1019543,27.8745796 C31.1365819,27.8745796 31.1867096,27.8771918 31.2368372,27.8742531 C31.7371245,27.8435592 31.8466138,27.6505796 31.5966351,27.2420898 C31.5831138,27.2202122 31.5738798,27.1963755 31.5616777,27.1741714 C31.4854968,27.0314776 31.4079968,26.9756408 31.2447521,27.0964571 Z M19.8110287,25.9470694 C19.5772096,25.9444571 19.4997096,26.0110694 19.5020181,26.2497633 C19.5132309,27.4112327 19.5006989,28.5736816 19.509933,29.7358041 C19.51455,30.3428245 19.5003691,30.9331918 18.8741032,31.302498 C18.9713904,31.420049 19.0568053,31.5033143 19.1184755,31.6009469 C19.2592947,31.8246204 19.4172628,31.8210286 19.6332734,31.6953143 C20.2404117,31.3413551 20.4969862,30.8107429 20.4950188,30.1305796 C20.4917096,28.9599673 20.4940181,27.7893551 20.4940181,26.6190694 C20.4940181,25.9454367 20.4940181,25.9542531 19.8110287,25.9470694 Z M25.3600287,27.8762122 C25.037167,28.5253551 25.021667,29.2012735 25.28055,29.8749061 C25.6908053,30.9423347 27.0983372,31.0804571 27.7447202,30.3216 C28.0857202,29.9219265 28.1925713,29.4572735 28.2060926,28.9501714 C28.1823479,28.7490286 28.1711351,28.5456 28.1332096,28.3473959 C28.013167,27.7194776 27.5023266,27.2153143 26.9093691,27.1258449 C26.2481457,27.0262531 25.6436457,27.3054367 25.3600287,27.8762122 Z M24.248316,27.4987429 C24.163011,27.2166204 24.0096282,27.1122802 23.7881676,27.1857224 L23.367784,27.3067236 C23.3660252,27.7538657 23.3660252,28.0503619 23.367784,28.1962122 C23.3756989,28.8146612 23.364816,29.4337633 23.3720713,30.0522122 C23.3813053,30.8378449 23.243784,30.7059265 24.0738585,30.726498 C24.2819543,30.7313959 24.3366989,30.6497633 24.3340606,30.4567837 C24.3254862,29.7873959 24.3301032,29.1176816 24.3310926,28.4479673 C24.3314223,28.1769469 24.5438053,27.9313959 24.8089543,27.9852735 C25.1248904,28.0492735 25.1680926,27.8807837 25.2178904,27.6649469 C25.2370181,27.5826612 25.2673585,27.5033143 25.2917628,27.4226612 C25.362667,27.1852735 25.3191351,27.1346612 25.0632202,27.1026612 C24.7126564,27.0589061 24.4920287,27.2744163 24.248316,27.4987429 Z M20.9088904,26.2393143 C20.9069117,26.935151 20.9082309,27.6313143 20.9079011,28.327151 C20.9079011,28.8874776 20.9029543,29.4478041 20.9092202,30.0081306 C20.918784,30.8554776 20.7865394,30.7039673 21.6495926,30.7261714 C21.8576883,30.7310694 21.91705,30.6451918 21.9127628,30.4531918 C21.9035287,30.0460082 21.9097947,29.638498 21.9101245,29.2309878 C21.9101245,28.6331102 21.9101245,28.6331102 22.515284,28.6331102 C23.1089011,28.6331102 23.1049436,28.6334367 23.0673479,28.0365388 C23.0561351,27.8605388 22.9997415,27.772702 22.8054968,27.7838041 C22.5832202,27.7965388 22.3592947,27.7766204 22.1370181,27.7896816 C21.9510181,27.8007837 21.8959436,27.7253551 21.9074862,27.5529469 C21.9190287,27.3838041 21.9210074,27.2130286 21.9071564,27.0442122 C21.892316,26.8577633 21.9529968,26.7856 22.1505394,26.7944163 C22.4757096,26.8087837 22.8025287,26.8094367 23.1273691,26.7891918 C23.2055287,26.7842939 23.3202947,26.6902531 23.3446989,26.6141714 C23.4334117,26.3346612 23.3905394,26.3082122 23.0406351,26.2608653 C22.4315181,26.1779265 21.8237202,26.0855184 21.2172415,25.9865796 C20.931316,25.9398857 20.90955,25.9447837 20.9088904,26.2393143 Z M26.4892673,28.0000311 C26.7086925,27.9979381 26.8510651,28.1013927 26.9049701,28.2972387 C27.0327568,28.7633823 27.0333909,29.2322168 26.8964088,29.6965663 C26.8409183,29.8843393 26.7232785,30.009322 26.4895844,29.9994549 C26.2527194,29.9895879 26.1233474,29.8678942 26.0859309,29.6612841 C26.0472462,29.448395 26.0298063,29.2322168 26,28.9921185 C26.0310747,28.7741463 26.0501,28.534048 26.1036879,28.3008268 C26.1449094,28.1208278 26.2745985,28.0018252 26.4892673,28.0000311 Z M29.4983427,28.0000247 C29.8129632,28.0024641 30.0058814,28.2000533 29.9998632,28.5143839 C29.9945136,28.791427 29.7651516,29.0071373 29.4829628,28.9998192 C29.1897405,28.9921526 28.9934788,28.782715 29.0001657,28.4851115 C29.0068527,28.176008 29.1900748,27.9975853 29.4983427,28.0000247 Z M31.6500606,23.1999673 C31.7856032,24.1635592 31.2144117,24.6935184 30.493167,25.0824163 C29.9869436,25.3553959 29.4309223,25.5418449 28.8877628,25.7429878 C28.6143691,25.8445388 28.3208585,25.8928653 28.0369117,25.9653551 C28.0379011,25.9872327 28.0388904,26.0087837 28.0402096,26.0309878 L28.162182,26.0703407 C28.1825677,26.0757224 28.2030145,26.079532 28.2235713,26.0802939 C29.0318798,26.1119673 29.8335926,26.0610286 30.607933,25.8138449 C31.2177096,25.6189061 31.7928585,25.3534367 32.1651883,24.7986612 C32.5325713,24.2513959 32.3000713,23.478498 31.6500606,23.1999673 Z M30.1511777,22.518498 C30.4430394,23.2558041 30.1053372,23.5601306 29.6931032,23.8690286 C29.5044649,24.0100898 29.2835074,24.1168653 29.0641989,24.2089469 C28.1229862,24.604702 27.1266989,24.7483755 26.1152415,24.7898449 C24.7301351,24.8469878 23.364816,24.7353143 22.0555606,24.2324571 C21.1427096,23.8820898 20.8666777,23.5392327 20.8501883,22.7183347 C20.2569011,22.9211102 20.015167,23.6247837 20.3700181,24.1188245 C20.6279117,24.4783347 21.00255,24.6837224 21.3943372,24.8590694 C22.4054649,25.3116408 23.4858479,25.4925388 24.5787628,25.5588245 C25.9994862,25.6443755 27.4188904,25.596702 28.805316,25.2189061 C29.4754436,25.036702 30.1402947,24.8319673 30.6663053,24.3516408 C31.2246351,23.8419265 31.1995713,23.2953143 30.6069436,22.823151 C30.4644755,22.7098449 30.3035394,22.6193959 30.1511777,22.518498 Z M18.8134223,18.7823347 C18.6979968,18.8084571 18.5080394,18.9436408 18.5182628,18.9994776 C18.5459649,19.1460898 18.6379755,19.3047837 18.7514223,19.4076408 C19.054167,19.6816 19.3879117,19.9216 19.6985713,20.1870694 C20.6018585,20.9593143 21.3333266,21.8722939 21.9404649,22.8868245 C22.2303479,23.3710694 22.6524755,23.6992327 23.1860713,23.8987429 C23.9267734,24.1746612 24.6988053,24.2308245 25.5753798,24.2572735 C25.8200819,24.2409469 26.1670181,24.2497633 26.500433,24.1883755 C27.1111989,24.076049 27.720316,23.943151 28.31855,23.7776 C28.7044011,23.6708245 28.9956032,23.4164571 29.1037734,23.0073143 C29.1449968,22.8518857 29.1852309,22.6954776 29.2145819,22.5377633 C29.3511138,21.8060082 29.6990394,21.2613551 30.4799755,21.068049 C30.5719862,21.0451918 30.6976351,20.9139265 30.6983043,20.8319673 C30.699284,20.7173551 30.6240926,20.572049 30.5337309,20.4940082 C30.3642202,20.3477224 30.2144968,20.4205388 30.0199223,20.6425796 C29.7531245,20.9465796 29.5024862,21.2874776 29.1733585,21.5082122 C28.7888266,21.7655184 28.3347096,21.9284571 27.8974117,22.0985796 C27.4188904,22.284702 26.9364117,22.3451102 26.4902096,21.9833143 C26.2896989,21.820702 26.0654436,21.830498 25.8434968,21.9620898 C25.6011032,22.1057633 25.3587096,22.2504163 25.1110394,22.3842939 C24.1394862,22.9090286 23.1547415,22.7245388 22.4542734,21.9549061 C22.0341245,21.4931918 21.7016989,20.951151 21.3451989,20.4349061 C21.2432947,20.2873143 21.1852521,20.2089469 20.9857309,20.3101714 C20.8620606,20.3735184 20.6648479,20.3741714 20.5322734,20.3222531 C20.3466032,20.2500898 20.1777521,20.1175184 20.0250606,19.9842939 C19.7157202,19.7152327 19.4337521,19.4233143 19.2721564,19.0321306 C19.1956457,18.8466612 19.0169011,18.7366204 18.8134223,18.7823347 Z M20.6635287,21.9186612 C20.1955606,22.0123755 19.7698053,22.2007837 19.3931883,22.5021714 C18.5835606,23.1500082 19.0241564,23.9356408 19.7411138,24.2347429 C19.7002202,24.1214367 19.6748266,24.0538449 19.6514117,23.9852735 C19.5109223,23.575151 19.536316,23.1741714 19.8011351,22.828049 C19.9785606,22.5955592 20.2117202,22.4042122 20.4254223,22.2004571 C20.5108372,22.119151 20.6110926,22.0531918 20.7047521,21.9803755 C20.6909011,21.9594776 20.67705,21.9392327 20.6635287,21.9186612 Z M21.4081883,18.7989878 C21.3310181,18.8130286 21.2479117,18.9198041 21.2116351,19.004049 C21.1014862,19.2610286 21.214933,19.4533551 21.5493372,19.6162939 C21.9454117,19.8092735 22.1706564,20.3140898 21.9721245,20.6830694 C21.8514223,20.9073959 21.921667,21.0494367 22.0446777,21.2055184 C22.1498798,21.3387429 22.2564011,21.4775184 22.3886457,21.580049 C22.453284,21.6300082 22.6115819,21.6479673 22.6716032,21.6045388 C23.4109862,21.0667429 24.2077521,21.0726204 25.0121032,21.3870694 C25.3850926,21.5323755 25.6779436,21.5150694 25.9829968,21.2646204 C26.2082415,21.0801306 26.4710819,20.9900082 26.7728372,21.0873143 C27.1774862,21.2179265 27.5903798,21.3253551 27.9887628,21.4716408 C28.2212628,21.5575184 28.4474968,21.6002939 28.6513053,21.4638041 C28.9735074,21.2482939 29.3082415,21.0337633 29.5750394,20.7588245 C29.9447309,20.3780898 30.2943053,19.9875592 30.7843691,19.7514776 C30.8671457,19.7119673 30.9456351,19.6502531 31.0056564,19.5813551 C31.1141564,19.4562939 31.1609862,19.3129469 31.0369862,19.1676408 C30.9189223,19.0295184 30.761284,18.9599673 30.6082628,19.0781714 C30.4585394,19.1944163 30.3091457,19.3367837 30.220433,19.500049 C29.9252734,20.0443755 29.4685181,20.4189061 28.9527309,20.7297633 C28.6153585,20.9331918 28.4356245,20.8394776 28.3482309,20.4593959 C28.3211883,20.3421714 28.2826032,20.2278857 28.2370926,20.0708245 C28.0890181,20.172702 28.0105287,20.2396408 27.9211564,20.2860082 C27.4449436,20.5325388 26.870784,20.5201306 26.6874223,19.8422531 C26.6346564,19.6463347 26.6020074,19.4448653 26.5456138,19.2499265 C26.5037309,19.1065796 26.4463479,18.854498 26.3820394,18.8505796 C26.16405,18.8358857 26.1937309,19.0683755 26.153167,19.2104163 C25.9971777,19.7586612 25.7716032,19.9447837 25.2017309,19.9346612 C24.6598904,19.9248653 24.1299223,19.9529469 23.60655,20.1263347 C23.0752628,20.3020082 22.605316,20.1550694 22.2478266,19.7260082 C22.0361032,19.4722939 21.8606564,19.1891918 21.6545394,18.9305796 C21.5988053,18.8610286 21.4810713,18.7856 21.4081883,18.7989878 Z M31.2833372,20.0336 C31.1936351,20.1302531 31.0376457,20.2246204 31.0336883,20.3245388 C31.0303904,20.4182531 31.1876989,20.5181714 31.3304968,20.6788245 C31.4455926,20.5152327 31.5887202,20.3924571 31.5656351,20.326498 C31.5250713,20.2105796 31.382933,20.1292735 31.2833372,20.0336 Z M20.4115713,19.1986612 C20.2809755,19.3622531 20.1365287,19.4709878 20.1540074,19.5385796 C20.1803904,19.6404571 20.3083479,19.7508245 20.4158585,19.7834776 C20.4748904,19.8017633 20.6595713,19.6535184 20.650667,19.6045388 C20.6289011,19.4860082 20.5273266,19.3821714 20.4115713,19.1986612 Z M31.6286245,18.0489469 C31.3727096,18.0496 31.1346032,18.2693551 31.1369117,18.5057633 C31.1385606,18.6853551 31.21705,18.7937633 31.4132734,18.796702 C31.6800713,18.8006204 31.9432415,18.5795592 31.942912,18.3464163 C31.9425819,18.1776 31.8063798,18.0489469 31.6286245,18.0489469 Z M17.4936138,18.0087837 C17.4049011,18.1828245 17.4820713,18.2987429 17.6186032,18.3976816 C17.7149011,18.4675592 17.8055926,18.5521306 17.9127734,18.5968653 C18.004784,18.6353959 18.1432947,18.6713143 18.2138691,18.6295184 C18.3161032,18.5694367 18.3751351,18.4381714 18.4110819,18.391151 C18.4061351,18.0352327 18.2237628,17.8517224 17.9173904,17.7805388 C17.6974223,17.7296 17.5829862,17.8340898 17.4936138,18.0087837 Z M20.8402947,18.0414367 C20.7984117,18.0897633 20.7215713,18.1785796 20.6450606,18.2670694 C20.7684011,18.3689469 20.8841564,18.4842122 21.0223372,18.5593143 C21.0474011,18.5730286 21.2179011,18.4264163 21.2284543,18.3428245 C21.2512096,18.1550694 21.1222628,18.0561306 20.8402947,18.0414367 Z M26.1600926,18.1609469 C26.1821883,18.2902531 26.2873904,18.4055184 26.3556564,18.5269878 C26.463167,18.4417633 26.5703479,18.3562122 26.73755,18.2229878 C26.5940926,18.0904163 26.5179117,17.9666612 26.4146883,17.9376 C26.2636457,17.8954776 26.13305,18.0048653 26.1600926,18.1609469 Z"/>
  </defs>
  <g fill="none" fill-rule="evenodd">
    <mask id="artifactory-b" fill="#fff">
      <use xlink:href="#artifactory-a"/>
    </mask>
    <g fill="#000" mask="url(#artifactory-b)">
      <rect width="50" height="50"/>
    </g>
  </g>
</svg>
