<svg xmlns="http://www.w3.org/2000/svg" width="50" height="50" viewBox="0 0 50 50">
  <path d="M6.65942383,26.3764648 L9.76391602,26.3764648 L8.23657227,21.5620117 L6.65942383,26.3764648 Z M6.81713867,18.7646484 L9.70581055,18.7646484 L14.0388184,31 L11.2663574,31 L10.4777832,28.4848633 L5.97045898,28.4848633 L5.1237793,31 L2.45092773,31 L6.81713867,18.7646484 Z M23.2277832,18.7646484 L23.2277832,20.9311523 L19.5671387,20.9311523 L19.5671387,31 L16.9938965,31 L16.9938965,20.9311523 L13.3166504,20.9311523 L13.3166504,18.7646484 L23.2277832,18.7646484 Z M27.2038574,20.8896484 L27.2038574,28.875 L29.5612793,28.875 C30.7676655,28.875 31.608803,28.2801166 32.0847168,27.090332 C32.3448092,26.437334 32.4748535,25.6598352 32.4748535,24.7578125 C32.4748535,23.5126891 32.2797871,22.5567253 31.8896484,21.8898926 C31.4995098,21.2230598 30.7233945,20.8896484 29.5612793,20.8896484 L27.2038574,20.8896484 Z M29.9929199,18.7646484 C30.7510617,18.7757162 31.3819148,18.864257 31.885498,19.0302734 C32.7432497,19.3125014 33.4377415,19.8299116 33.9689941,20.5825195 C34.395103,21.1912465 34.6856275,21.8497686 34.8405762,22.5581055 C34.9955249,23.2664423 35.072998,23.9415658 35.072998,24.5834961 C35.072998,26.2104574 34.7465039,27.5883733 34.0935059,28.7172852 C33.2080848,30.2391027 31.8412365,31 29.9929199,31 L24.7219238,31 L24.7219238,18.7646484 L29.9929199,18.7646484 Z M39.4807129,20.8896484 L39.4807129,28.875 L41.8381348,28.875 C43.044521,28.875 43.8856584,28.2801166 44.3615723,27.090332 C44.6216647,26.437334 44.751709,25.6598352 44.751709,24.7578125 C44.751709,23.5126891 44.5566426,22.5567253 44.1665039,21.8898926 C43.7763652,21.2230598 43.00025,20.8896484 41.8381348,20.8896484 L39.4807129,20.8896484 Z M42.2697754,18.7646484 C43.0279172,18.7757162 43.6587703,18.864257 44.1623535,19.0302734 C45.0201052,19.3125014 45.714597,19.8299116 46.2458496,20.5825195 C46.6719585,21.1912465 46.9624829,21.8497686 47.1174316,22.5581055 C47.2723803,23.2664423 47.3498535,23.9415658 47.3498535,24.5834961 C47.3498535,26.2104574 47.0233594,27.5883733 46.3703613,28.7172852 C45.4849402,30.2391027 44.1180919,31 42.2697754,31 L36.9987793,31 L36.9987793,18.7646484 L42.2697754,18.7646484 Z"/>
</svg>
