<svg xmlns="http://www.w3.org/2000/svg" xmlns:xlink="http://www.w3.org/1999/xlink" width="50" height="50" viewBox="0 0 50 50">
  <defs>
    <path id="aws-a" d="M9.57218536,27.588078 C14.0649001,30.1947002 19.6066213,31.7735079 25.3390709,31.7735079 C29.2066201,31.7735079 33.4556262,30.96821 37.3655595,29.3152301 C37.9483409,29.0503295 38.4463541,29.696687 37.8741687,30.120528 C34.3880764,32.6953621 29.3231764,34.0622494 24.96821,34.0622494 C18.8648995,34.0622494 13.3655624,31.805296 9.2119205,28.0543031 C8.88344372,27.7576144 9.18013243,27.3549654 9.57218536,27.588078 Z M40.8092677,27.3231773 C41.1907246,27.7999985 40.7033075,31.0741703 38.838407,32.642382 C38.5523144,32.8860906 38.2768177,32.7589383 38.40397,32.4410575 C38.827811,31.392051 39.7708573,29.0291374 39.3258242,28.4675481 C38.8807911,27.8953627 36.3801292,28.1920514 35.2463545,28.3297997 C34.9072817,28.3721838 34.8543016,28.0754951 35.1615863,27.8529786 C37.153639,26.4543033 40.4278108,26.8569522 40.8092677,27.3231773 Z M36.2211888,15.010596 C36.4543014,15.010596 36.6980099,15.0211921 36.9311225,15.0529801 C37.1748311,15.0847682 37.3973476,15.1271523 37.6198641,15.1695364 C37.8317846,15.2225165 38.0331091,15.2754967 38.2238376,15.3390728 C38.414566,15.402649 38.5629104,15.4662251 38.6688706,15.5298013 C38.817215,15.6145695 38.9231752,15.6993377 38.9867514,15.7947019 C39.0503275,15.8794701 39.0821156,15.9960264 39.0821156,16.1443707 L39.0821156,16.6423839 C39.0821156,16.8649004 38.9973474,16.9814567 38.838407,16.9814567 C38.7536388,16.9814567 38.6158905,16.9390726 38.4357581,16.8543044 C37.8317846,16.5788078 37.153639,16.4410594 36.4013212,16.4410594 C35.7973478,16.4410594 35.3205267,16.5364237 34.9920499,16.7377481 C34.6635731,16.9390726 34.4940367,17.2463573 34.4940367,17.6807944 C34.4940367,17.9774831 34.5999969,18.2317877 34.8119175,18.4331122 C35.023838,18.6344367 35.4158909,18.8357611 35.9774802,19.0158936 L37.4821158,19.4927147 C38.2450296,19.7364233 38.7960229,20.0754961 39.1244997,20.5099331 C39.4529765,20.9443702 39.6119169,21.4423833 39.6119169,21.9933766 C39.6119169,22.4490057 39.5165527,22.8622507 39.3364202,23.2225156 C39.1456918,23.5827804 38.8913872,23.9006612 38.5629104,24.1549658 C38.2344336,24.4198664 37.8423807,24.6105949 37.3867516,24.7483432 C36.9099304,24.8966876 36.4119173,24.9708597 35.87152,24.9708597 C35.3205267,24.9708597 34.7695334,24.9072836 34.2397321,24.7801313 C33.7099308,24.652979 33.2966858,24.5152307 33.0211892,24.3562903 C32.8516528,24.260926 32.7350965,24.1549658 32.6927124,24.0596016 C32.6503283,23.9642373 32.6291363,23.8582771 32.6291363,23.7629129 L32.6291363,23.2225156 C32.6291363,22.999999 32.7139045,22.8940388 32.8728448,22.8940388 C32.936421,22.8940388 32.9999971,22.9046348 33.0635733,22.9258269 C33.1271494,22.9470189 33.2225137,22.989403 33.3284739,23.0317871 C33.6887388,23.1907275 34.0807917,23.3178798 34.4940367,23.402648 C34.9178777,23.4874162 35.3311227,23.5298003 35.7549637,23.5298003 C36.4225133,23.5298003 36.9417185,23.413244 37.3019834,23.1801315 C37.6622482,22.9470189 37.8529767,22.6079461 37.8529767,22.1735091 C37.8529767,21.8768204 37.7576125,21.6331118 37.566884,21.4317873 C37.3761556,21.2304628 37.0158907,21.0503304 36.4966855,20.880794 L34.9602618,20.4039729 C34.186752,20.1602643 33.6145666,19.7999994 33.2648978,19.3231783 C32.9152289,18.8569532 32.7350965,18.3377479 32.7350965,17.7867546 C32.7350965,17.3417216 32.8304607,16.9496686 33.0211892,16.6105958 C33.2119176,16.271523 33.4662222,15.9748343 33.784103,15.7417218 C34.1019838,15.4980132 34.4622486,15.3178808 34.8860896,15.1907285 C35.3099306,15.0635762 35.7549637,15.010596 36.2211888,15.010596 Z M14.3721848,15.0317881 C15.6331118,15.0317881 16.554966,15.3178808 17.1483434,15.8900661 C17.7311248,16.4622515 18.0278135,17.3311255 18.0278135,18.4966883 L18.0278135,21.9298005 L18.0490055,21.9298005 C18.0490055,22.3218534 18.0913896,22.6397342 18.1655618,22.8728467 C18.25033,23.1059593 18.3562903,23.3602639 18.5046346,23.6357606 C18.5576148,23.7205288 18.5788068,23.805297 18.5788068,23.8794691 C18.5788068,23.9854294 18.5152307,24.0913896 18.3774823,24.1973499 L17.7099327,24.642383 C17.6145685,24.7059591 17.5192043,24.7377472 17.4344361,24.7377472 C17.3284758,24.7377472 17.2225156,24.6847671 17.1165553,24.5894028 C16.968211,24.4304625 16.8410587,24.260926 16.7350984,24.0913896 C16.6291382,23.9112572 16.5231779,23.7099327 16.4066216,23.4662242 C15.5801317,24.4410585 14.5417212,24.9284756 13.2913902,24.9284756 C12.4013241,24.9284756 11.6913904,24.674171 11.1721852,24.1655618 C10.6529799,23.6569526 10.3880793,22.978807 10.3880793,22.131125 C10.3880793,21.2304628 10.7059601,20.4993371 11.3523176,19.9483438 C11.9986751,19.3973505 12.8569532,19.1218538 13.9483438,19.1218538 C14.3086086,19.1218538 14.6794695,19.1536419 15.0715225,19.206622 C15.4635754,19.2596021 15.8662243,19.3443703 16.2900654,19.4397346 L16.2900654,18.6662247 C16.2900654,17.8609268 16.120529,17.2993375 15.7920522,16.9708607 C15.4529794,16.6423839 14.880794,16.4834435 14.0649001,16.4834435 C13.6940392,16.4834435 13.3125823,16.5258276 12.9205293,16.6211919 C12.5284764,16.7165561 12.1470195,16.8331124 11.7761586,16.9814567 C11.6066222,17.0556289 11.4794699,17.098013 11.4052977,17.119205 C11.3311255,17.1403971 11.2781454,17.1509931 11.2357613,17.1509931 C11.087417,17.1509931 11.0132448,17.0450329 11.0132448,16.8225163 L11.0132448,16.3033111 C11.0132448,16.1337747 11.0344368,16.0066224 11.087417,15.9324502 C11.1403971,15.858278 11.2357613,15.7841059 11.3841057,15.7099337 C11.7549666,15.5192052 12.1999996,15.3602649 12.7192049,15.2331126 C13.2384101,15.0953642 13.7894034,15.0317881 14.3721848,15.0317881 Z M20.337747,15.2860927 C20.5390715,15.2860927 20.6768198,15.3178808 20.750992,15.3920529 C20.8357602,15.4556291 20.8993363,15.6039734 20.9629125,15.8052979 L22.7430447,22.8198666 L24.3960247,15.8052979 C24.4490048,15.5933774 24.5125809,15.4556291 24.5973491,15.3920529 C24.6821173,15.3284768 24.8304617,15.2860927 25.0211901,15.2860927 L25.8688722,15.2860927 C26.0701966,15.2860927 26.207945,15.3178808 26.2927132,15.3920529 C26.3774814,15.4556291 26.4516535,15.6039734 26.4940376,15.8052979 L28.1682096,22.9046348 L30.001322,15.8052979 C30.0648982,15.5933774 30.1390703,15.4556291 30.2132425,15.3920529 C30.2980107,15.3284768 30.435759,15.2860927 30.6264875,15.2860927 L31.6119178,15.2860927 C31.7814542,15.2860927 31.8768185,15.3708609 31.8768185,15.5509933 C31.8768185,15.6039734 31.8662224,15.6569536 31.8556264,15.7205297 C31.8450304,15.7841059 31.8238383,15.8688741 31.7814542,15.9854303 L29.2278122,24.1761578 C29.164236,24.3880784 29.0900638,24.5258267 29.0052956,24.5894028 C28.9205274,24.652979 28.7827791,24.6953631 28.6026467,24.6953631 L27.6913885,24.6953631 C27.490064,24.6953631 27.3523157,24.663575 27.2675475,24.5894028 C27.1827793,24.5152307 27.1086071,24.3774823 27.066223,24.1655618 L25.4238391,17.3311255 L23.7920512,24.1549658 C23.7390711,24.3668863 23.6754949,24.5046346 23.5907267,24.5788068 C23.5059585,24.652979 23.3576142,24.6847671 23.1668857,24.6847671 L22.2556276,24.6847671 C22.0648991,24.6847671 21.9377468,24.652979 21.8529786,24.5788068 C21.7682104,24.5152307 21.6940382,24.3668863 21.6304621,24.1655618 L19.1403961,15.9748343 C19.07682,15.7629138 19.0450319,15.6251655 19.0450319,15.5509933 C19.0450319,15.3814569 19.1298001,15.2860927 19.2993365,15.2860927 L20.337747,15.2860927 Z M14.3403967,20.3827808 C13.630463,20.3827808 13.1112578,20.5205291 12.761589,20.8066218 C12.4119201,21.0927145 12.2423837,21.4953635 12.2423837,22.0251647 C12.2423837,22.5231779 12.369536,22.8940388 12.6344367,23.1483434 C12.8887413,23.413244 13.2596021,23.5403963 13.7470193,23.5403963 C14.0966881,23.5403963 14.456953,23.4768202 14.8384099,23.3496679 C15.2198668,23.2225156 15.5589396,22.989403 15.8450323,22.6715223 C16.0145687,22.4701978 16.141721,22.2476813 16.2052972,21.9933766 C16.2688733,21.739072 16.3112574,21.4317873 16.3112574,21.0715225 L16.3112574,20.6264894 C16.0039727,20.5523172 15.6754959,20.4887411 15.3364231,20.446357 C14.9973503,20.4039729 14.6688735,20.3827808 14.3403967,20.3827808 Z"/>
  </defs>
  <use xlink:href="#aws-a"/>
</svg>
