<svg xmlns="http://www.w3.org/2000/svg" xmlns:xlink="http://www.w3.org/1999/xlink" width="50" height="50" viewBox="0 0 50 50">
  <defs>
    <path id="awsapigateway-a" d="M24.2531087,9.0014646 L28.2175484,10.9834256 L28.217,15.2664646 L33.7844753,13.7604696 L33.7844753,13.7670961 L37.5062174,15.628226 L37.5062174,23.1251369 L31.0710048,23.3917522 L28.217,23.2094646 L28.217,26.9174646 L31.0710048,26.7353665 L37.5062174,27.0020853 L37.5062174,34.4988926 L33.7844753,36.3600226 L33.7844753,36.3667527 L28.217,34.8594646 L28.2175484,39.0157178 L24.2531087,40.9976788 L20.288669,39.0157178 L20.288,34.8594646 L14.7217421,36.3667527 L14.7217421,36.3600226 L11,34.4988926 L11,27.0020853 L17.4352126,26.7353665 L20.288,26.9174646 L20.288,23.2094646 L17.4352126,23.3917522 L11,23.1251369 L11.109,23.1024646 L11,23.1140581 L11,15.594472 L14.7217421,13.7364483 L14.737,13.7644646 L20.288,15.2664646 L20.288669,10.9834256 L24.2531087,9.0014646 Z"/>
  </defs>
  <use xlink:href="#awsapigateway-a"/>
</svg>
