<svg xmlns="http://www.w3.org/2000/svg" xmlns:xlink="http://www.w3.org/1999/xlink" width="50" height="50" viewBox="0 0 50 50">
  <defs>
    <path id="awscognito-a" d="M33.3785571,16.6679668 L35.8943452,16.0201545 L35.9130884,16.0477812 L35.9766396,31.2382759 L35.8943452,31.3208631 L35.3759782,31.3430231 L33.4080386,31.0366887 L33.3785571,30.9591777 L33.3785571,16.6679668 M35.8943452,16.0201545 L37.9909491,17.032288 L37.9909491,34.1170184 L25.4954746,40.149404 L18.8284555,36.910538 L18.8284555,32.376145 L21.5539333,31.8903834 L25.5064081,32.8444324 L33.3785571,30.9591777 L35.8943452,31.3208631 L35.8943452,16.0201545 Z M25.4954746,11 L32.1624936,14.2387684 L32.1624936,18.7731614 L29.4370158,19.2590206 L25.484541,18.3049716 L17.6123921,20.1901287 L17.6123921,34.4814372 L15.096604,35.0887368 L13,34.1170184 L13,17.032288 L25.4954746,11 Z M25.4954746,22.0119298 L29.9821309,22.5383017 L29.9821309,28.6111023 L25.4954746,29.1373766 L21.0088182,28.6111023 L21.0088182,22.5383017 L25.4954746,22.0119298 Z"/>
  </defs>
  <use xlink:href="#awscognito-a"/>
</svg>
