<svg xmlns="http://www.w3.org/2000/svg" xmlns:xlink="http://www.w3.org/1999/xlink" width="50" height="50" viewBox="0 0 50 50">
  <defs>
    <path id="awsdynamodb-a" d="M29.7367162,13 L34.7367702,15.4982369 L37.3540248,18.565017 L37.3540248,21.2249713 L36.5765239,21.3100214 L36.5765239,21.9387284 L36.129,21.7 L37.3540248,22.3550721 L37.3540248,25.0300455 L36.5765239,25.0412225 L36.5765239,26.159535 L37.25,26.169 L37.3540248,26.159535 L37.3540248,28.8358182 L36.5765239,29.2539957 L36.5765239,29.8900375 L37.342,29.974 L37.3540248,29.9653077 L37.3540248,32.6251747 L34.7367702,35.6916929 L29.7367162,38.1920255 L22.6129426,38.1920255 L17.6171673,35.6916929 L15,32.6251747 L15,29.9478436 L15.0325705,29.9722934 L15.7775009,29.8900375 L15.7775009,29.2409849 L15,28.8228948 L15,26.1574393 L15.1241696,26.1693149 L15.7775009,26.159535 L15.7775009,25.0412225 L15.0202583,25.0300455 L15,25.0321412 L15,22.3677335 L15.7775009,21.9516518 L15.7775009,21.3100214 L15.0202583,21.2274163 L15,21.2420861 L15,18.5643185 L17.6171673,15.4982369 L22.6129426,13 L29.7367162,13 Z"/>
  </defs>
  <use xlink:href="#awsdynamodb-a"/>
</svg>
