<svg xmlns="http://www.w3.org/2000/svg" xmlns:xlink="http://www.w3.org/1999/xlink" width="50" height="50" viewBox="0 0 50 50">
  <defs>
    <path id="awsecs-a" d="M19,18 L19,33 C20.1653617,32.814352 21.2971868,32.6309433 22.4301398,32.4544693 C23.3491649,32.3112964 23.3498416,32.3149804 23.3498416,31.4268316 L23.3498416,28.3412456 C24.5838558,28.258607 25.787717,28.1779187 27,28.0967248 L27,23.0474594 C25.7719262,22.967927 24.5693433,22.8900559 23.3498416,22.8111736 L23.3498416,22.3750813 C23.3497664,21.2574368 23.3414199,20.13972 23.3559324,19.0221477 C23.3593161,18.7645521 23.2820163,18.6653712 23.0119183,18.6351041 C22.5411266,18.5822269 22.0755985,18.4871636 21.6074386,18.4124709 C20.7471403,18.2753659 19.8866163,18.140139 19,18 L19,18 Z M39.9743297,32.5372956 C39.1898189,32.7741065 38.4188905,33.08293 37.6186909,33.2196666 C37.1447595,33.3005715 36.6240523,33.1147818 36.1257161,33.0398536 C35.613507,32.9628117 35.1028959,32.874691 34.5501575,32.7846751 C34.5501575,33.1759342 34.541732,33.5482426 34.5536439,33.9197493 C34.5596724,34.1075799 34.501348,34.1917647 34.3113396,34.2470133 C33.1881403,34.57384 32.0748918,34.9362358 30.9460271,35.2410505 C30.7037228,35.3065033 30.4038205,35.2120414 30.1436485,35.1420695 C29.7703866,35.0416308 29.4241443,35.0543861 29.0481224,35.1621136 C24.5774057,36.4436183 20.1030574,37.7120034 15.6271111,38.974849 C15.4813363,39.0158845 15.2887858,39.0072109 15.1528892,38.945111 C14.6265166,38.7040726 14.1085695,38.4427716 13.6017352,38.1628843 C13.4962719,38.1045744 13.4001056,37.939266 13.3893559,37.8154305 C13.3603026,37.4799302 13.3794051,37.1402024 13.3794051,36.7638123 C12.8664697,36.8821084 12.3902867,37.0074746 11.9074214,37.095158 C11.7323028,37.126864 11.5236277,37.1108288 11.3605662,37.0429707 C10.993914,36.8905633 10.653555,36.6748169 10.2882102,36.5186923 C10.0588346,36.4207317 10.0011639,36.2821729 10.0025439,36.0459451 C10.0121315,34.4698298 10.0075556,32.8936417 10.0075556,31.3175264 C10.0075556,25.5584081 10.010243,19.7993627 10,14.0403902 C9.99949333,13.7306191 10.1087336,13.593591 10.3629497,13.4274079 C11.1865372,12.8887706 12.0281377,12.738477 12.9496347,13.1214269 C13.0686804,13.1709174 13.2063203,13.1756551 13.3794051,13.2098393 C13.3794051,12.8653009 13.390518,12.5422643 13.3753377,12.2204668 C13.3656775,12.0144144 13.4247282,11.8953894 13.6226536,11.803843 C14.1264372,11.5710409 14.6110457,11.2958913 15.1175168,11.069649 C15.2748403,10.9993857 15.4927398,10.9782483 15.6575444,11.0248962 C20.1092312,12.284389 24.5589569,13.5507332 29.0045425,14.8318007 C29.5057114,14.9762633 29.9779722,15.0321679 30.4845159,14.8759704 C30.6753233,14.8170774 30.9148675,14.8327482 31.1109044,14.8890901 C32.2557484,15.2185408 33.3942732,15.5701492 34.5498669,15.9187692 L34.5498669,17.2974327 C35.1196015,17.2090204 35.6602828,17.127168 36.2003104,17.0405778 C36.56965,16.9813933 36.9370286,16.9093807 37.3071672,16.8563916 C37.4353648,16.838024 37.5769994,16.832193 37.6990958,16.8673976 C38.3942678,17.0680564 39.087624,17.275931 39.7752422,17.5007884 C39.8682127,17.5311824 39.9894374,17.6703971 39.9901638,17.7601214 C40.0031651,19.3472427 39.9995335,20.9345097 39.9995335,22.5543574 C37.3893153,22.6728722 34.8015409,22.7904394 32.184931,22.9092458 L32.184931,27.184597 C34.7762645,27.2997589 37.3630948,27.4146293 39.9743297,27.5305931 L39.9743297,32.5372956 Z"/>
  </defs>
  <use fill-rule="evenodd" xlink:href="#awsecs-a"/>
</svg>
