<svg xmlns="http://www.w3.org/2000/svg" width="50" height="50" viewBox="0 0 50 50">
  <path d="M22.6596694,26.3123437 L22.6596694,23.6657812 L24.0612908,22.9626562 L24.0612908,25.6092187 L22.6596694,26.3123437 Z M19.8564267,22.9626562 L21.2580481,23.6657812 L21.2580481,26.3123437 L19.8564267,25.6092187 L19.8564267,22.9626562 Z M16.3523732,29.8279687 L16.3523732,27.1814062 L17.7539946,26.4782812 L17.7539946,29.1248437 L16.3523732,29.8279687 Z M13.5491304,26.4782812 L14.9507518,27.1814062 L14.9507518,29.8279687 L13.5491304,29.1248437 L13.5491304,26.4782812 Z M10.0450769,26.3123437 L10.0450769,23.6657812 L11.4466983,22.9626562 L11.4466983,25.6092187 L10.0450769,26.3123437 Z M7.24183418,22.9626562 L8.64345558,23.6657812 L8.64345558,26.3123437 L7.24183418,25.6092187 L7.24183418,22.9626562 Z M9.34426624,21.2048437 L10.5804963,21.825 L9.34426624,22.4451562 L8.10803616,21.825 L9.34426624,21.2048437 Z M15.6515625,24.7204687 L16.8877926,25.340625 L15.6515625,25.9607812 L14.4153324,25.340625 L15.6515625,24.7204687 Z M21.9588588,21.2048437 L23.1950888,21.825 L21.9588588,22.4451562 L20.7226287,21.825 L21.9588588,21.2048437 Z M25.0753639,21.1964062 L22.2721211,19.7901562 C22.0751933,19.6910156 21.8425242,19.6910156 21.6455964,19.7901562 L18.8423536,21.1964062 C18.6047788,21.3152344 18.4548053,21.5585156 18.4548053,21.825 L18.4548053,24.5545312 L15.9648249,23.3057812 C15.7678971,23.2066406 15.5352279,23.2066406 15.3383001,23.3057812 L12.8483197,24.5545312 L12.8483197,21.825 C12.8483197,21.5585156 12.6983462,21.3152344 12.4607714,21.1964062 L9.65752861,19.7901562 C9.4606008,19.6910156 9.22793168,19.6910156 9.03100388,19.7901562 L6.22776108,21.1964062 C5.99018625,21.3152344 5.84021278,21.5585156 5.84021278,21.825 L5.84021278,26.04375 C5.84021278,26.3102344 5.99018625,26.5535156 6.22776108,26.6730469 L9.03100388,28.0792969 C9.12911737,28.1285156 9.23704221,28.153125 9.34426624,28.153125 C9.45149027,28.153125 9.55941511,28.1285156 9.65752861,28.0792969 L12.147509,26.8298438 L12.147509,29.559375 C12.147509,29.8258594 12.2974825,30.0691406 12.5350573,30.1886719 L15.3383001,31.5949219 C15.4364136,31.6441406 15.5443385,31.66875 15.6515625,31.66875 C15.7587865,31.66875 15.8667114,31.6441406 15.9648249,31.5949219 L18.7680677,30.1886719 C19.0056425,30.0691406 19.155616,29.8258594 19.155616,29.559375 L19.155616,26.8298438 L21.6455964,28.0792969 C21.7437099,28.1285156 21.8516347,28.153125 21.9588588,28.153125 C22.0660828,28.153125 22.1740076,28.1285156 22.2721211,28.0792969 L25.0753639,26.6730469 C25.3129387,26.5535156 25.4629122,26.3102344 25.4629122,26.04375 L25.4629122,21.825 C25.4629122,21.5585156 25.3129387,21.3152344 25.0753639,21.1964062 L25.0753639,21.1964062 Z M30.76875,13.4507813 C30.76875,17.0388281 22.9799399,18.9745313 15.6515625,18.9745313 C8.32318509,18.9745313 0.534375,17.0388281 0.534375,13.4507813 C0.534375,11.7203906 2.41885498,10.2051563 5.84091359,9.18492188 L6.2403757,10.5328125 C3.58500396,11.3245312 1.9359964,12.4425 1.9359964,13.4507813 C1.9359964,15.3942188 7.80178191,17.5682813 15.6515625,17.5682813 C23.5013431,17.5682813 29.3671286,15.3942188 29.3671286,13.4507813 C29.3671286,12.4425 27.718121,11.3245312 25.0627493,10.5328125 L25.4622114,9.18492188 C28.88427,10.2051563 30.76875,11.7203906 30.76875,13.4507813 L30.76875,13.4507813 Z M15.6515625,2.1825 L21.3099081,4.246875 L15.6515625,6.31125 L9.99321694,4.246875 L15.6515625,2.1825 Z M21.8866752,13.843125 C20.7927098,14.3353125 18.9656963,14.9090625 16.3523732,14.9997656 L16.3523732,7.55226563 L22.6596694,5.2509375 L22.6596694,12.6232031 C22.6596694,13.1533594 22.3562184,13.6321875 21.8866752,13.843125 L21.8866752,13.843125 Z M8.64345558,12.6232031 L8.64345558,5.2509375 L14.9507518,7.55226563 L14.9507518,14.9997656 C12.3374287,14.9090625 10.5104152,14.3353125 9.41644976,13.843125 C8.94690661,13.6321875 8.64345558,13.1533594 8.64345558,12.6232031 L8.64345558,12.6232031 Z M8.8424858,15.1263281 C10.1579074,15.7183594 12.406809,16.4242969 15.6515625,16.4242969 C18.896316,16.4242969 21.1452176,15.7183594 22.4606392,15.1263281 C23.4333645,14.6889844 24.0612908,13.7067187 24.0612908,12.6232031 L24.0612908,4.246875 C24.0612908,3.9515625 23.8769776,3.6871875 23.6001574,3.5859375 L15.8912397,0.7734375 C15.7363606,0.7171875 15.5667644,0.7171875 15.4118853,0.7734375 L7.7029676,3.5859375 C7.42614736,3.6871875 7.24183418,3.9515625 7.24183418,4.246875 L7.24183418,12.6232031 C7.24183418,13.7067187 7.86976052,14.6889844 8.8424858,15.1263281 L8.8424858,15.1263281 Z" transform="translate(10 9)"/>
</svg>
