<svg xmlns="http://www.w3.org/2000/svg" width="50" height="50" viewBox="0 0 50 50">
  <path d="M10.9481229,17.3047973 L12.8243291,15.4511412 C12.9419046,15.3349382 13.0081972,15.1771009 13.0088314,15.0124281 C13.0094481,14.8477554 12.9437808,14.6892967 12.8268306,14.5724723 L10.9506245,12.6976884 L10.0638044,13.5738717 L10.8686968,14.3785934 L8.00560631,14.3785934 L8.00560631,15.6214066 L10.8787033,15.6214066 L10.066306,16.4236426 L10.9481229,17.3047973 Z M25.2673281,17.3613453 L27.7689363,15.4958825 C27.9252868,15.3784366 28.0184717,15.1945003 28.0184717,14.9993786 C28.0184717,14.8036355 27.9252868,14.6190778 27.7683109,14.5016319 L25.2667027,12.6386548 L24.5162202,13.6329054 L25.5168635,14.3785934 L23.0152553,14.3785934 L23.0152553,15.6214066 L25.5162381,15.6214066 L24.5155949,16.3670946 L25.2673281,17.3613453 Z M15.0051059,15 C15.0051059,16.3192463 14.7768342,17.5633024 14.35031,18.6457928 C15.4754083,18.2132938 16.7443491,17.9970443 18.012039,17.9970443 C19.2797289,17.9970443 20.5486697,18.2132938 21.6731426,18.6457928 C21.2472438,17.5633024 21.018972,16.3192463 21.018972,15 C21.018972,13.6807537 21.2472438,12.437319 21.6731426,11.3542072 C19.4235714,12.2185838 16.6005066,12.2185838 14.35031,11.3542072 C14.7768342,12.437319 15.0051059,13.6807537 15.0051059,15 L15.0051059,15 Z M11.9412614,21.0319943 C11.8193079,20.9108201 11.7580186,20.7517399 11.7580186,20.5926598 C11.7580186,20.4335798 11.8193079,20.2744996 11.9412614,20.1533253 C13.0763661,19.0254723 13.7543019,17.0984903 13.7543019,15 C13.7543019,12.9015098 13.0763661,10.9745278 11.9412614,9.84667469 C11.8193079,9.72550038 11.7580186,9.56642025 11.7580186,9.40734019 C11.7580186,9.24826006 11.8193079,9.08917994 11.9412614,8.96800569 C12.1857936,8.72503569 12.5810476,8.72503569 12.8255798,8.96800569 C15.2490128,11.3759564 20.7750653,11.3759564 23.1984981,8.96800569 C23.4430303,8.72503569 23.8382844,8.72503569 24.0828166,8.96800569 C24.20477,9.08917994 24.2660594,9.24826006 24.2660594,9.40734019 C24.2660594,9.56642025 24.20477,9.72550038 24.0828166,9.84667469 C22.9477119,10.9745278 22.2697761,12.9015098 22.2697761,15 C22.2697761,17.0984903 22.9477119,19.0254723 24.0828166,20.1533253 C24.20477,20.2744996 24.2660594,20.4335798 24.2660594,20.5926598 C24.2660594,20.7517399 24.20477,20.9108201 24.0828166,21.0319943 C23.9608633,21.1531686 23.8007603,21.2140665 23.6406574,21.2140665 C23.4805544,21.2140665 23.3204516,21.1531686 23.1984981,21.0319943 C20.7750653,18.6240436 15.2490128,18.6240436 12.8255798,21.0319943 C12.5810476,21.2749643 12.1857936,21.2749643 11.9412614,21.0319943 L11.9412614,21.0319943 Z M34.2506031,15.0031071 C34.2506031,14.4239561 34.0235821,13.8796038 33.6114422,13.4700968 C33.1861688,13.0469189 32.6270594,12.8362621 32.0685753,12.8362621 C31.5100913,12.8362621 30.9509819,13.0469189 30.5257085,13.4700968 C29.6745363,14.3152099 29.6745363,15.6903828 30.5257085,16.5361173 C31.3762552,17.3812302 32.7596446,17.3818517 33.6114422,16.5361173 C34.0235821,16.1266102 34.2506031,15.582258 34.2506031,15.0031071 L34.2506031,15.0031071 Z M34.4957607,17.4147863 C33.8265805,18.0796914 32.9478906,18.4121439 32.0685753,18.4121439 C31.1892601,18.4121439 30.3105702,18.0796914 29.64139,17.4147863 C28.3024042,16.084976 28.3024042,13.9212381 29.64139,12.5914278 C30.9803757,11.2603748 33.1580257,11.2616176 34.4957607,12.5914278 C35.8347464,13.9212381 35.8347464,16.084976 34.4957607,17.4147863 L34.4957607,17.4147863 Z M6.11251431,15.0173994 C6.11251431,14.4382484 5.88549337,13.8938962 5.47335338,13.4843892 C5.06121344,13.0748822 4.51336125,12.8493116 3.93048656,12.8493116 C3.34823725,12.8493116 2.80038506,13.0748822 2.38761975,13.4843892 C1.97547975,13.8938962 1.74908425,14.4382484 1.74908425,15.0173994 C1.74908425,15.595929 1.97547975,16.1402812 2.38761975,16.5504096 C3.212525,17.3688021 4.6490735,17.3688021 5.47335338,16.5504096 C5.88549337,16.1402812 6.11251431,15.595929 6.11251431,15.0173994 L6.11251431,15.0173994 Z M6.35767187,17.4290786 C5.68849169,18.0939837 4.80980181,18.4264363 3.93048656,18.4264363 C3.05179669,18.4264363 2.17310681,18.0939837 1.50330125,17.4290786 C0.16556625,16.0992684 0.16556625,13.9355304 1.50330125,12.6057202 C2.842287,11.2759099 5.0193115,11.2759099 6.35767187,12.6057202 C7.69603225,13.9355304 7.69603225,16.0992684 6.35767187,17.4290786 L6.35767187,17.4290786 Z M27.3098912,24.2850581 C24.8132862,26.7663349 21.4930267,28.1321867 17.9620068,28.1321867 C14.4297361,28.1321867 11.110102,26.7663349 8.61349706,24.2850581 C6.90114625,22.5842681 5.95866538,20.551647 5.469601,19.1466466 L4.28759113,19.5530465 C4.81980825,21.0817069 5.84859463,23.2957788 7.72917856,25.1637271 C10.4621855,27.8798956 14.0957714,29.375 17.9620068,29.375 C21.8276169,29.375 25.4612027,27.8798956 28.1942097,25.1637271 C29.7733498,23.5959182 31.0310333,21.6024456 31.7371123,19.5511823 L30.5538516,19.1485108 C29.9084367,21.0239161 28.7564461,22.848366 27.3098912,24.2850581 L27.3098912,24.2850581 Z M5.46897556,10.8539748 L4.28821656,10.4463321 C5.044953,8.28135131 6.26823938,6.28787881 7.732931,4.83316581 C10.4646871,2.119483 14.0970222,0.625 17.9620068,0.625 C21.8269914,0.625 25.4593266,2.119483 28.1904573,4.83316581 C29.7320733,6.36493319 31.0247793,8.41060388 31.7358614,10.4463321 L30.5551024,10.8539748 C29.9028081,8.98975488 28.718922,7.11559244 27.3061388,5.71183481 C24.81141,3.23242231 21.4924014,1.86781331 17.9620068,1.86781331 C14.4309869,1.86781331 11.1126036,3.23242231 8.6172495,5.71183481 C7.28389231,7.03729519 6.16567344,8.86360938 5.46897556,10.8539748 L5.46897556,10.8539748 Z" transform="translate(7 10)"/>
</svg>
