<svg xmlns="http://www.w3.org/2000/svg" xmlns:xlink="http://www.w3.org/1999/xlink" width="50" height="50" viewBox="0 0 50 50">
  <defs>
    <path id="awssecretmanager-a" d="M17.7919,22.8468 C17.7919,23.2316 17.8335,23.5423 17.9063,23.7698 C17.9895,23.9986 18.0935,24.2482 18.2391,24.5186 C18.2911,24.6005 18.3119,24.6837 18.3119,24.7565 C18.3119,24.8605 18.2495,24.9645 18.1143,25.0685 L17.4604,25.504 C17.3813666,25.5609855 17.2873502,25.5935297 17.19,25.5976 C17.086,25.5976 16.982,25.5456 16.8793,25.452 C16.7396495,25.3017886 16.614712,25.1385428 16.5062,24.9645 C16.3899893,24.7651251 16.2824228,24.5608356 16.1838,24.3522 C15.3752,25.3064 14.3573,25.7835 13.1327,25.7835 C12.2617,25.7835 11.5662,25.5352 11.0579,25.0373 C10.5496,24.5381 10.2909,23.8751 10.2909,23.0444 C10.2909,22.163 10.6016,21.4454 11.2347,20.9072 C11.8678,20.3677 12.7076,20.0973 13.7762,20.0973 C14.1298,20.0973 14.4925,20.1285 14.876,20.1805 C15.2608,20.2325 15.656,20.3157 16.0694,20.4093 L16.0694,19.6514 C16.0694,18.8623 15.9043,18.3124 15.5819,17.9913 C15.2504,17.6689 14.6901,17.5142 13.8919,17.5142 C13.5279,17.5142 13.1535,17.5545 12.77,17.6481 C12.3865,17.7417 12.0121,17.8561 11.6494,18.0017 C11.5311424,18.0546503 11.4095498,18.0998132 11.2854,18.1369 C11.2319332,18.1541324 11.1764144,18.164187 11.1203,18.1668 C10.9747,18.1668 10.9019,18.0628 10.9019,17.8457 L10.9019,17.3374 C10.9019,17.171 10.9227,17.0462 10.9747,16.9734 C11.0532277,16.8790183 11.1530273,16.8046141 11.2659,16.7563 C11.6286,16.5691 12.0641,16.4131 12.5724,16.2883 C13.1015246,16.1528391 13.6460352,16.0868511 14.1922,16.092 C15.4272,16.092 16.3294,16.3728 16.9105,16.9331 C17.4812,17.4921 17.7711,18.3436 17.7711,19.485 L17.7711,22.8468 L17.7919,22.8468 Z M13.5799,24.425 C13.9218,24.425 14.2741,24.3626 14.6485,24.2378 C15.0216,24.113 15.3544,23.8855 15.6339,23.5748 C15.8003,23.3772 15.9251,23.1588 15.9875,22.9092 C16.0486,22.6609 16.0915,22.3593 16.0915,22.007 L16.0915,21.5715 C15.7765609,21.4947258 15.4575586,21.4356996 15.136,21.3947 C14.8126168,21.3536141 14.4869824,21.3327735 14.161,21.3323 C13.4655,21.3323 12.9572,21.4675 12.614,21.7483 C12.2721,22.0278 12.107,22.4217 12.107,22.9404 C12.107,23.4279 12.2305,23.7919 12.4905,24.0402 C12.7388,24.3002 13.1015,24.425 13.5799,24.425 L13.5799,24.425 Z M21.9129,25.5456 C21.7257,25.5456 21.6009,25.5144 21.5177,25.4416 C21.4345,25.3792 21.3617,25.2336 21.2993,25.0373 L18.8618,17.015 C18.8143847,16.8804865 18.7829685,16.740859 18.7682,16.599 C18.7682,16.4326 18.8514,16.339 19.0165,16.339 L20.0344,16.339 C20.2307,16.339 20.3659,16.3715 20.4374,16.443 C20.5219,16.5054 20.5843,16.651 20.6454,16.8486 L22.39,23.7178 L24.0085,16.8486 C24.0605,16.6406 24.1229,16.5054 24.2048,16.443 C24.3295281,16.3665115 24.4747511,16.3302057 24.6208,16.339 L25.4502,16.339 C25.6478,16.339 25.783,16.3715 25.8662,16.443 C25.9481,16.5054 26.0222,16.651 26.0625,16.8486 L27.7018,23.801 L29.4971,16.8486 C29.5595,16.6406 29.6323,16.5054 29.7051,16.443 C29.8255193,16.366547 29.9670362,16.3301439 30.1094,16.339 L31.0753,16.339 C31.2404,16.339 31.3353,16.4235 31.3353,16.599 C31.3353,16.651 31.3236,16.703 31.3132,16.7654 C31.2969163,16.8541062 31.272548,16.9411358 31.2404,17.0254 L28.7405,25.0464 C28.6781,25.2544 28.6053,25.3883 28.5221,25.4507 C28.4049689,25.5258477 28.2671609,25.5622326 28.1282,25.5547 L27.2351,25.5547 C27.0388,25.5547 26.9036,25.5235 26.8191,25.4507 C26.7372,25.3779 26.6644,25.2427 26.6241,25.0347 L25.0147,18.3423 L23.4157,25.0243 C23.3637,25.2323 23.3026,25.3675 23.2207,25.4403 C23.1362,25.5131 22.9906,25.5443 22.8047,25.5443 L21.9129,25.5456 Z M35.2457,25.8251 C34.7062,25.8251 34.1667,25.7627 33.648,25.6392 C33.1293,25.5144 32.725,25.3792 32.4546,25.2232 C32.2882,25.1309 32.1751,25.0269 32.1335,24.9333 C32.0929629,24.8415356 32.0717232,24.7424174 32.0711,24.6421 L32.0711,24.113 C32.0711,23.8959 32.1543,23.7919 32.309,23.7919 C32.3714,23.7919 32.4338,23.8023 32.4962,23.8231 C32.5586,23.8439 32.6522,23.8855 32.7562,23.9271 C33.1085,24.0831 33.492,24.2066 33.8976,24.2898 C34.3123,24.373 34.7166,24.4146 35.1326,24.4146 C35.7852,24.4146 36.2948,24.3002 36.6471,24.0714 C36.9908881,23.8636938 37.1968346,23.4875313 37.1866,23.086 C37.1942857,22.8161495 37.0936325,22.5544511 36.9071,22.3593 C36.7199,22.163 36.3663,21.9862 35.858,21.8198 L34.3539,21.3518 C33.596,21.1139 33.0357,20.7616 32.6938,20.2949 C32.3591748,19.8641872 32.1763531,19.3349182 32.1738,18.7895 C32.1738,18.354 32.2687,17.9705 32.4546,17.6377 C32.6418,17.3062 32.8901,17.015 33.2021,16.7875 C33.5141,16.5483 33.8651,16.3715 34.2811,16.248 C34.6971,16.1232 35.1326,16.0712 35.5889,16.0712 C35.8164,16.0712 36.0556,16.0816 36.2844,16.1128 C36.5223,16.144 36.7394,16.1856 36.9578,16.2272 C37.1658,16.2792 37.3634,16.3312 37.5493,16.3923 C37.7365,16.4547 37.8821,16.5171 37.9861,16.5795 C38.1086102,16.6411733 38.2153458,16.7301196 38.2981,16.8395 C38.3651079,16.9404515 38.3975008,17.060442 38.3904,17.1814 L38.3904,17.6689 C38.3904,17.8873 38.3072,18.0017 38.1512,18.0017 C38.0130864,17.9858635 37.8793344,17.9434866 37.7573,17.8769 C37.1303968,17.5999626 36.4509666,17.4620365 35.7657,17.4726 C35.1742,17.4726 34.7062,17.5649 34.3851,17.7625 C34.0627,17.9601 33.8976,18.2604 33.8976,18.6855 C33.8976,18.9767 34.0016,19.2263 34.2096,19.4226 C34.4163,19.6202 34.7998,19.8178 35.3497,19.9946 L36.8239,20.46 C37.5701,20.6992 38.1109,21.032 38.432,21.4571 C38.7531,21.8822 38.9091,22.3697 38.9091,22.9092 C38.9091,23.3551 38.8155,23.7607 38.64,24.113 C38.4528,24.4666 38.2032,24.7773 37.8821,25.0269 C37.5597,25.2869 37.1762,25.4728 36.7303,25.608 C36.2623,25.7523 35.7761,25.8251 35.2457,25.8251 L35.2457,25.8251 Z M37.2074,30.8691 C33.7936,33.3911 28.8328,34.7288 24.5688,34.7288 C18.5914,34.7288 13.2068,32.5188 9.1378,28.845 C8.8167,28.5551 9.1066,28.1599 9.4914,28.3887 C13.8906,30.9406 19.3181,32.4876 24.9315,32.4876 C28.7197,32.4876 32.8797,31.6985 36.7095,30.08 C37.2802,29.82 37.7677,30.4531 37.2074,30.8691 Z M38.6296,29.2493 C38.1928,28.6903 35.7436,28.9802 34.6334,29.1154 C34.3019,29.157 34.2499,28.8658 34.5515,28.6474 C36.5015,27.2785 39.7086,27.6724 40.0817,28.1287 C40.4548,28.5967 39.9777,31.8025 38.1512,33.3378 C37.8717,33.577 37.6013,33.4522 37.7261,33.1415 C38.1421,32.1145 39.0651,29.8005 38.6296,29.2493 L38.6296,29.2493 Z"/>
  </defs>
  <use xlink:href="#awssecretmanager-a"/>
</svg>
