<svg xmlns="http://www.w3.org/2000/svg" xmlns:xlink="http://www.w3.org/1999/xlink" width="50" height="50" viewBox="0 0 50 50">
  <defs>
    <path id="axure-a" d="M16.9843199,14.34944 L18.6067197,14.34944 C18.7679997,14.34944 19.2057596,14.34944 19.5666287,14.7420742 L19.6550395,14.8486399 L26.4940786,24.3583985 L18.7564797,35.041277 C18.5789864,35.3518903 18.2634427,35.5638962 17.8974997,35.6071739 L17.7580798,35.615357 L16.08576,35.615357 C15.6864001,35.615357 15.3369601,35.415677 15.1622402,35.091197 C15.0069335,34.8027704 15.0093987,34.4551793 15.1871659,34.1185447 L15.2620802,33.9929572 L22.1759992,24.3334385 L16.16064,15.9967997 C15.9110401,15.6223998 15.8860801,15.2230398 16.0608,14.8735999 C16.2161067,14.5851733 16.4897422,14.395354 16.8466462,14.3567328 L16.9843199,14.34944 L18.6067197,14.34944 Z M28.6156783,27.4284781 L33.4579176,34.0678372 C33.6575976,34.4422371 33.6575976,34.8415971 33.4329576,35.116157 C33.2332776,35.415677 32.9087977,35.590397 32.5094377,35.590397 L32.5094377,35.590397 L30.887038,35.590397 C30.737278,35.590397 30.587518,35.565437 30.412798,35.490557 L30.412798,35.490557 L30.312958,35.440637 L26.4940786,30.3487977 L28.6156783,27.4284781 Z M30.0134381,14.32448 L31.6857578,14.32448 C32.0629311,14.32448 32.38094,14.5019733 32.5696636,14.7868391 L32.6342377,14.8985599 L32.6525515,14.9436515 C32.72241,15.1261082 32.8101392,15.4927714 32.5225823,15.9075481 L32.4345577,16.0217597 L28.6655983,21.413119 L26.5190386,18.4678394 L28.9900782,14.8735999 C29.1453849,14.5629866 29.4584633,14.3707022 29.8591928,14.331807 L30.0134381,14.32448 L31.6857578,14.32448 Z"/>
  </defs>
  <use xlink:href="#axure-a"/>
</svg>
