<?xml version="1.0" encoding="UTF-8"?>
<svg id="Ebene_1" xmlns="http://www.w3.org/2000/svg" viewBox="0 0 50 50">
  <path d="M22.91,30.87c0,.78.63,1.41,1.41,1.41s1.41-.63,1.41-1.41-.63-1.41-1.41-1.41-1.41.63-1.41,1.41Z"/>
  <path d="M37.07,21.69c-.26-6.14-5.41-10.92-11.55-10.73-4.88-.11-9.3,2.87-11.04,7.43-5.22.63-9.18,5.01-9.28,10.27.23,5.94,5.21,10.57,11.15,10.36h1.21v-9.46c0-.24-.2-.44-.44-.44h-1.94c-.21.89-.9,1.59-1.8,1.8-1.29.3-2.58-.51-2.87-1.8-.3-1.29.51-2.58,1.8-2.87,1.29-.3,2.58.51,2.87,1.8h1.94c.84,0,1.52.68,1.52,1.52v9.46h12.12v-17.24c0-.24-.2-.44-.44-.44h-2.35c-.26,1.08-1.22,1.85-2.34,1.85-1.32,0-2.4-1.08-2.4-2.4s1.08-2.4,2.4-2.4c1.12,0,2.09.77,2.33,1.87h2.27c.84,0,1.52.68,1.52,1.52v7.74h4.4c.26,0,.46-.21.46-.46v-.44c-1.08-.26-1.83-1.22-1.84-2.32,0-1.32,1.06-2.4,2.39-2.41.03,0,.06,0,.09,0,1.32,0,2.4,1.07,2.4,2.4,0,1.12-.78,2.09-1.87,2.33v.44c0,.85-.69,1.54-1.54,1.54h-4.4v8.42h3.54c.16.02.32.02.48,0,4.86-.05,8.81-3.94,8.93-8.8-.1-4.37-3.39-8-7.72-8.53ZM23.33,24.8c.85,0,1.54.69,1.54,1.54v2.09c1.08.26,1.85,1.22,1.85,2.34,0,1.32-1.08,2.4-2.4,2.4s-2.4-1.08-2.4-2.4c0-1.12.77-2.09,1.87-2.33v-2.2c0-.26-.21-.46-.46-.46h-3.41c-.84,0-1.52-.68-1.52-1.52v-11l.57-.31.51-.26v11.68c0,.24.2.44.44.44h3.41Z"/>
  <path d="M24.23,20.79c0,.78.63,1.41,1.41,1.41s1.41-.63,1.41-1.41-.63-1.41-1.41-1.41-1.41.63-1.41,1.41Z"/>
  <path d="M38.55,26.29s0-.01,0-.02c-.01-.78-.65-1.4-1.43-1.39-.78.01-1.4.65-1.39,1.43.01.78.65,1.4,1.43,1.39.77-.01,1.39-.64,1.39-1.41Z"/>
  <path d="M11.43,28.58c0,.78.63,1.41,1.41,1.41s1.41-.63,1.41-1.41-.63-1.41-1.41-1.41-1.41.63-1.41,1.41Z"/>
</svg>