<?xml version="1.0" encoding="UTF-8"?>
<svg id="Ebene_1" xmlns="http://www.w3.org/2000/svg" viewBox="0 0 50 50">
  <g>
    <path d="M19.75,27.41l-11.14,11.14c-.83.83-.83,2.17,0,3l.21.21c.83.83,2.17.83,3,0l11.44-11.33c-1.28-.83-2.57-1.82-3.5-3.02Z"/>
    <path d="M28.36,7.62c-7.54,0-13.66,6.11-13.66,13.66,0,3.16,1.08,6.06,2.88,8.37l2.15-2.15s.04-.02.05-.04c-1.35-1.8-2.19-4.01-2.19-6.43,0-5.92,4.8-10.73,10.73-10.73s10.73,4.8,10.73,10.73-4.8,10.73-10.73,10.73c-1.89,0-3.63-.53-5.17-1.38-.07.11-.12.23-.22.33l-2.02,2.02c2.14,1.39,4.69,2.21,7.43,2.21,7.54,0,13.66-6.11,13.66-13.66s-6.11-13.66-13.66-13.66Z"/>
  </g>
  <path d="M17.94,23.69s2.94-14.69,16.65-11.36c-3.77-2.79-8.93-2.75-12.65.1-3.55,2.55-5.15,7.04-4,11.26Z"/>
</svg>