<svg xmlns="http://www.w3.org/2000/svg" width="50" height="50" viewBox="0 0 50 50">
  <g fill-rule="evenodd" transform="translate(13 12)">
    <path fill-rule="nonzero" d="M0,7.035678 L0,12.563694 L3.517826,16.18591 L5.025462,14.57391 L9.548383,19.09674 L8.040747,20.60448 L11.55856,24.12228 L17.08655,24.12228 C17.64165,24.12228 18.09171,23.67222 18.09171,23.11712 L18.09171,15.07636 L9.045829,6.030596 L1.0050937,6.030596 C0.4499963,6.030596 0,6.480591 0,7.035678 Z"/>
    <path d="M23.11712,-1.0658141e-14 C23.67222,-1.0658141e-14 24.12215,0.4499924 24.12215,1.0050872 L24.12215,9.981062 C24.12215,10.652694 23.78675,11.279957 23.22814,11.652888 L10.882144,19.89533 C10.48346,20.16144 9.952306,20.10905 9.613344,19.77014 L4.352101,14.50891 C4.013152,14.16987 3.960736,13.63869 4.226898,13.24011 L12.469314,0.894036 C12.842245,0.3354403 13.46956,-1.0658141e-14 14.14114,-1.0658141e-14 L23.11712,-1.0658141e-14 Z M18.09171,3.015454 C16.42641,3.015454 15.07636,4.365439 15.07636,6.030726 C15.07636,7.696026 16.42641,9.046011 18.09171,9.046011 C19.75701,9.046011 21.10693,7.696026 21.10693,6.030726 C21.10693,4.365439 19.75701,3.015454 18.09171,3.015454 Z"/>
    <polygon points="5.013 17.623 12.687 9.949 14.173 11.435 6.499 19.109"/>
  </g>
</svg>
