<svg xmlns="http://www.w3.org/2000/svg" xmlns:xlink="http://www.w3.org/1999/xlink" width="50" height="50" viewBox="0 0 50 50">
  <defs>
    <path id="azure-a" d="M24.028245,32.9319274 C27.3686413,32.3458991 30.1276179,31.8609608 30.1593052,31.8542872 L30.2169192,31.8421529 L27.0632558,28.1167786 C25.3287422,26.0678223 23.9095939,24.3834593 23.9095939,24.3737498 C23.9095939,24.3553667 27.1660177,15.4495783 27.1843243,15.4178724 C27.190445,15.4073013 29.4065403,19.2070049 32.5562847,24.628627 C35.5051331,29.7044466 37.9363156,33.8894782 37.9589127,33.9286952 L38,34 L27.9773977,33.9987161 L17.9547972,33.9974374 L24.028245,32.931931 L24.028245,32.9319274 Z M12,31.7958677 C12,31.7906226 13.4859909,29.2288071 15.3022019,26.1029424 L18.6044034,20.4195524 L22.4527374,17.2122428 C24.5693211,15.4482229 26.3067712,14.0027772 26.313737,14.0000686 C26.3207028,13.9975054 26.2928596,14.067101 26.2518632,14.1547988 C26.2108668,14.2424967 24.3304297,18.2480857 22.0731141,23.0561074 L17.9689048,31.7979647 L14.9844524,31.8016807 C13.343004,31.8037266 12,31.8011066 12,31.7958656 L12,31.7958677 Z"/>
  </defs>
  <use xlink:href="#azure-a"/>
</svg>
