<svg xmlns="http://www.w3.org/2000/svg" width="50" height="50" viewBox="0 0 50 50">
  <path d="M10.8615723,20.8896484 L10.8615723,23.5874023 L13.8664551,23.5874023 C14.4032416,23.5874023 14.8390283,23.4864105 15.1738281,23.2844238 C15.508628,23.0824371 15.6760254,22.7241237 15.6760254,22.2094727 C15.6760254,21.6394828 15.4546734,21.2631845 15.0119629,21.0805664 C14.630125,20.9532871 14.1431507,20.8896484 13.5510254,20.8896484 L10.8615723,20.8896484 Z M10.8615723,25.612793 L10.8615723,28.875 L13.8664551,28.875 C14.4032416,28.875 14.8210434,28.8030606 15.119873,28.6591797 C15.6621935,28.3935534 15.9333496,27.8844439 15.9333496,27.1318359 C15.9333496,26.4954395 15.6704942,26.0582694 15.1447754,25.8203125 C14.8514797,25.6874993 14.4392116,25.6183269 13.907959,25.612793 L10.8615723,25.612793 Z M14.364502,18.7646484 C15.8641839,18.786784 16.9266733,19.2211872 17.552002,20.0678711 C17.9283059,20.588056 18.1164551,21.2106084 18.1164551,21.9355469 C18.1164551,22.6826209 17.9283059,23.2830381 17.552002,23.7368164 C17.3417144,23.991375 17.0318217,24.2237945 16.6223145,24.434082 C17.2476431,24.6609712 17.7193995,25.0206681 18.0375977,25.5131836 C18.3557959,26.0056991 18.5148926,26.6033494 18.5148926,27.3061523 C18.5148926,28.0310909 18.3322772,28.6813122 17.967041,29.2568359 C17.734618,29.6386738 17.4440935,29.9596341 17.095459,30.2197266 C16.7025534,30.5185562 16.2390977,30.7233067 15.7050781,30.8339844 C15.1710585,30.944662 14.5913931,31 13.9660645,31 L8.42114258,31 L8.42114258,18.7646484 L14.364502,18.7646484 Z M23.1384277,20.8896484 L23.1384277,28.875 L25.4958496,28.875 C26.7022358,28.875 27.5433733,28.2801166 28.0192871,27.090332 C28.2793796,26.437334 28.4094238,25.6598352 28.4094238,24.7578125 C28.4094238,23.5126891 28.2143574,22.5567253 27.8242188,21.8898926 C27.4340801,21.2230598 26.6579648,20.8896484 25.4958496,20.8896484 L23.1384277,20.8896484 Z M25.9274902,18.7646484 C26.685632,18.7757162 27.3164851,18.864257 27.8200684,19.0302734 C28.67782,19.3125014 29.3723118,19.8299116 29.9035645,20.5825195 C30.3296734,21.1912465 30.6201978,21.8497686 30.7751465,22.5581055 C30.9300952,23.2664423 31.0075684,23.9415658 31.0075684,24.5834961 C31.0075684,26.2104574 30.6810742,27.5883733 30.0280762,28.7172852 C29.1426551,30.2391027 27.7758068,31 25.9274902,31 L20.6564941,31 L20.6564941,18.7646484 L25.9274902,18.7646484 Z M35.4152832,20.8896484 L35.4152832,28.875 L37.7727051,28.875 C38.9790913,28.875 39.8202287,28.2801166 40.2961426,27.090332 C40.556235,26.437334 40.6862793,25.6598352 40.6862793,24.7578125 C40.6862793,23.5126891 40.4912129,22.5567253 40.1010742,21.8898926 C39.7109355,21.2230598 38.9348203,20.8896484 37.7727051,20.8896484 L35.4152832,20.8896484 Z M38.2043457,18.7646484 C38.9624875,18.7757162 39.5933406,18.864257 40.0969238,19.0302734 C40.9546755,19.3125014 41.6491673,19.8299116 42.1804199,20.5825195 C42.6065288,21.1912465 42.8970533,21.8497686 43.052002,22.5581055 C43.2069506,23.2664423 43.2844238,23.9415658 43.2844238,24.5834961 C43.2844238,26.2104574 42.9579297,27.5883733 42.3049316,28.7172852 C41.4195105,30.2391027 40.0526622,31 38.2043457,31 L32.9333496,31 L32.9333496,18.7646484 L38.2043457,18.7646484 Z"/>
</svg>
