<svg xmlns="http://www.w3.org/2000/svg" xmlns:xlink="http://www.w3.org/1999/xlink" width="50" height="50" viewBox="0 0 50 50">
  <defs>
    <path id="browserify-a" d="M22.544701,10.0009904 C22.6887655,9.99859037 22.8274734,10.0149421 22.9499706,10.0635745 C23.0287588,10.0950909 23.1091208,10.1225213 23.1907359,10.1457561 C25.1158718,10.045954 26.8571916,11.3597321 27.9055358,12.2424444 C28.3298354,12.5997864 28.5495972,13.1836564 28.9964509,13.5600284 C29.3375821,13.8473117 29.8115007,15.647977 30.1751861,15.9542903 C30.2920447,16.0526827 30.1148538,16.4991135 30.2318533,16.5975059 C30.3037446,16.6579791 30.5314004,17.3980365 30.6512192,18.0567581 L30.6511663,18.0581149 L30.8064028,18.2140177 C31.0599736,18.4812378 31.2964787,18.79308 31.6400768,19.0824072 C32.0343512,19.4145167 32.2335324,21.0812669 32.5920021,21.3830694 C32.8245289,21.57881 33.0709115,23.7015504 33.3881706,25.7033262 L33.4250952,25.933647 L33.4024001,25.9591614 C33.3524991,26.0090624 33.4365133,26.1483341 33.4365133,26.1830111 C33.4365133,26.2767517 33.5117877,27.0289319 33.5327912,27.0500764 C33.7173122,27.2345974 34.27891,27.3172019 34.3007593,27.3390512 C34.3314893,27.3699222 34.5009272,27.4505532 34.6066497,27.443787 C35.3310602,27.6744029 36.3337322,27.8449685 36.5730879,28.0841833 C36.6717622,28.1828576 36.9593274,28.0803773 37.091551,28.1464891 C37.337391,28.2694091 38.1761227,28.4547758 38.3213149,28.599968 C38.4357771,28.7142893 38.5954885,28.8043649 38.7660542,28.8889428 C39.5809631,29.1624117 40.2640713,29.5707824 40.718396,30.0251071 C41.0004636,30.3071747 41.7609607,30.3565119 42.0784101,30.6739613 C42.1111135,30.7065238 42.1817362,30.7386634 42.2739262,30.7702392 C42.5710768,31.0101588 42.8290397,31.2684035 42.9850861,31.5806373 C43.0703689,31.7512029 42.5985647,33.1316566 42.5317481,33.1986142 C42.3723186,33.3579027 42.1997795,33.5346707 42.132258,33.7227158 C41.7448909,34.0469314 41.375426,34.3547953 41.106609,34.6237533 C40.8046656,34.9255557 40.4280116,35.0445287 40.1348079,35.3377324 C39.7207987,35.7516007 38.6112764,35.6315 38.1937431,36.0490333 C38.1387674,36.104009 36.9644021,36.3539369 36.0034552,36.5703156 C35.1354031,36.9968706 34.3161243,37.2786563 33.7226688,37.2786563 C33.2235177,37.2786563 32.8392517,37.3305308 32.3399597,37.3409621 C32.077486,37.2272047 31.8355929,37.1540447 31.7166199,37.2135312 C31.5095448,37.3169983 31.2021038,37.1789952 31.0024997,37.2787972 C30.5282992,37.5158975 29.8468825,37.5304168 29.5149139,37.8623853 C29.3863554,37.9909439 28.8010757,37.8963575 28.6082379,37.9927764 C28.3860797,38.1037145 27.7408906,37.8881816 27.5713118,38.0579015 C27.3405548,38.2886584 24.4705418,38.5346394 24.0095918,38.3809894 C23.3101318,38.1476951 22.3770957,38.6140017 21.6776357,38.3809894 C21.3284058,38.2644123 20.945958,38.2284273 20.5826299,38.1512112 C20.6290694,37.6916643 20.68377,37.2667488 20.7086539,37.2418649 C20.7833644,37.1671543 20.6339433,36.8690169 20.7086539,36.7941654 C20.854269,36.6485503 21.0287816,33.6305258 21.0287816,33.2042527 C21.0287816,33.1323614 21.2127387,32.6826885 21.0940476,32.5638564 C21.0933428,32.5631516 20.9877613,32.3206947 20.8446835,32.085004 C21.0561285,32.1006509 21.2343061,32.1261653 21.2867444,32.1784627 C21.380767,32.2726262 23.2777103,32.1784627 23.5930452,32.1784627 C24.8456452,32.1784627 26.8161713,32.0814799 27.5683515,31.9206408 C27.8683215,31.8565025 28.5794814,31.80054 28.9793943,31.6005131 C29.2117018,31.4843593 30.02943,31.404997 30.1723668,31.3682056 C30.4776933,31.2894071 31.4590799,31.0532935 31.7335355,30.778838 C31.9370865,30.575146 32.6333043,29.8699065 32.8895756,29.7417709 C33.1785504,29.5972835 33.3237426,29.0840361 33.4931805,28.8463719 C33.5148889,28.6704497 33.9883846,28.2106274 33.8954898,28.0246968 C33.7899083,27.5953225 33.7240784,27.15157 33.5554863,27.1349363 C33.4821854,27.3868378 33.0233498,28.1941347 32.8300891,28.3873954 C32.5815708,28.6359137 32.3678704,28.8948633 32.1500821,29.1127926 C31.9957272,29.2671474 31.5550759,29.6624085 31.4246849,29.7927996 C31.1413486,30.0761359 30.9751529,29.9702724 30.6540384,30.2913868 C30.4947499,30.4506754 30.1743403,30.4537766 30.0192806,30.6088362 C29.8791631,30.7489537 28.7541349,30.8333908 28.4779878,30.9715348 C28.4110302,31.0049431 28.2114262,30.9206471 28.1605384,30.9715348 C27.9620621,31.1698702 26.3938452,31.2421844 26.3471864,31.2887023 C26.1071259,31.5289037 25.4678572,31.2524747 25.1232019,31.4248728 C24.8174525,31.577677 24.2107464,31.470122 23.8538273,31.470122 C23.6560558,31.470122 23.1309674,31.466457 22.5900912,31.4532064 C22.4623785,31.4350222 22.3617307,31.4207849 22.3577837,31.4248728 C22.3549644,31.4275511 22.3427006,31.4400969 22.3350886,31.4474269 C22.233595,31.4443258 22.1356255,31.4400969 22.037656,31.4361499 C21.9968706,31.4206439 21.9544563,31.4090849 21.9151328,31.4109122 L21.8505977,31.4276921 L21.8505977,31.4276921 C21.4285535,31.4072524 21.0840392,31.3773682 20.9977696,31.3340924 C20.642965,31.1567606 20.2619412,31.1074234 19.8190344,31.1074234 C19.1256359,31.1074234 17.5904045,30.2878627 17.0534752,30.0194686 C16.9712936,29.9783073 16.7433559,29.7392335 16.620013,29.6736856 C16.6190263,29.6263219 16.6173347,29.5831871 16.6002782,29.5661306 C16.4738341,29.4396865 16.4184355,29.157337 16.328219,28.976763 C16.2905818,28.9014886 16.328219,28.6257643 16.328219,28.6593136 C16.328219,28.6608642 16.4192813,28.296756 16.4188584,28.296756 C16.3411876,28.296756 15.9349313,28.8260732 15.7841006,28.976763 C15.782691,28.9781726 15.7869199,28.9863485 15.7897391,28.9936786 C15.7048792,29.1106781 15.6453927,29.2854726 15.6453927,29.549074 C15.6453927,30.4475742 16.1408787,30.4952198 16.6059167,30.9601168 C16.720097,31.0742971 16.9643864,30.9984588 17.0534752,31.0876886 C17.1445375,31.1786099 17.2781707,31.2595229 17.4360496,31.3312732 C17.238701,31.447145 16.8581001,31.4757606 16.7333475,31.6005131 C16.6114143,31.7224464 16.0458695,32.0731631 15.8351293,32.1784627 C15.7956596,32.1981975 15.6039495,32.2199059 15.5801267,32.2437287 C14.3825024,33.441353 13.0309461,34.2148187 11.924948,35.3208168 C11.917696,35.3280689 11.9108003,35.3421446 11.9042494,35.3620447 C11.2899436,35.1983322 10.5684503,35.0292303 10.1485283,34.8192694 C10.1183622,34.8041863 10.0736768,34.7951646 10.0237758,34.7881165 C9.83037415,34.6602628 9.2918943,34.8750908 9.13119612,34.7145336 C8.74946747,34.3325231 8.04817499,34.2716269 7.66644635,33.8898983 C7.5367601,33.760212 6.71268858,32.6477296 7.11668943,32.2437287 C7.52322762,31.8371905 7.8391264,31.4276921 8.2160623,31.0508972 C8.40875915,30.8582003 8.81416963,30.7275273 9.04055671,30.5011402 C9.0828457,30.4588512 9.26017755,30.528769 9.31543517,30.5011402 C9.81388144,30.2519171 10.2818796,30.087272 10.5990471,29.7701045 C10.7058973,29.6632543 11.0389936,29.783496 11.1457028,29.6766458 C11.283283,29.5392066 11.5581615,29.5390656 11.6954597,29.4017674 C11.7708543,29.3274032 11.8409439,29.2478459 11.9052131,29.1636803 C13.2917283,28.6970918 14.9374749,28.3745677 15.5885845,28.2116141 C15.9228085,28.1449385 16.2079773,28.0356919 16.4869437,27.908543 C17.4555026,26.5299218 18.2220611,23.9728473 19.0341507,21.930007 C19.0087773,21.8234388 18.9915798,21.7029151 18.9915798,21.5673084 C18.9915798,21.426768 19.00624,21.2325205 19.0992758,21.1394848 C19.1745502,21.0642104 19.3606217,20.9856938 19.4194034,20.9269121 C19.4536575,20.892799 19.0285122,19.9325569 19.9209509,19.6547182 C19.7004843,19.3623603 19.5731944,18.7226688 19.878521,18.2549525 C19.7375576,17.726763 19.5679788,17.2325456 19.4137649,16.8752036 C19.3397592,16.7033693 19.1995007,16.4239801 19.0227327,16.0817211 C18.9491498,16.212817 18.8852935,16.3451816 18.8358153,16.4699341 C18.5242864,17.253972 18.2898644,18.1858805 17.8355397,18.7253471 C17.4497231,19.1834778 16.2161531,19.5828269 16.0816741,19.7425383 C15.8317462,20.0394071 14.9807507,19.9107076 14.7811466,19.7425383 C14.4880839,19.4957116 14.8657246,18.2264779 14.9567869,17.9971306 C15.2825531,17.177147 15.2797339,16.0642417 15.4782102,15.2403111 C15.6995578,14.3209367 16.2915303,13.2132293 17.0475044,12.2668092 L17.2575901,12.0129561 L17.2632286,12.001679 C17.5035711,11.6279853 17.7055715,11.2108748 17.9233598,10.9929456 C18.1902034,10.726102 18.7635012,10.7025611 19.0227327,10.4431887 C19.0322394,10.433629 19.0408287,10.4231991 19.048388,10.4120358 C19.0564229,10.407384 19.0657265,10.4028731 19.0737614,10.3979394 C19.229836,10.3024227 19.4304775,10.2466914 19.6433524,10.2199919 L19.8047971,10.2052426 L19.8190344,10.2052426 C20.085737,10.1907234 20.3582191,10.2138413 20.5810821,10.2676893 C21.1397197,10.4020274 21.9206565,10.0128277 22.544701,10.0009904 Z M18.0991411,31.8243628 C18.0858905,31.9145794 18.1012555,31.9997212 18.1670854,32.0707667 C18.210784,32.1181304 18.3666894,32.0245307 18.422088,32.0538511 C18.7984601,32.2534552 19.9459014,32.6814198 20.2836495,32.2692431 C20.3449685,32.3856788 20.3934599,32.503665 20.4536513,32.5638564 C20.6786287,32.7886929 20.5027065,33.8739694 20.3885262,34.1024709 C19.9576014,34.9641797 19.7303685,37.4523231 19.3627362,37.8198144 C19.3487378,37.8338129 19.3446246,37.8741653 19.3472685,37.9296628 C19.0140045,37.8015461 18.6730115,37.6608097 18.3087535,37.5392974 C18.0131534,37.440905 17.6438296,37.5104 17.3396307,37.4090473 C16.61226,37.1665904 15.7936861,37.0707354 15.0729407,36.8904433 C14.3034889,36.6981949 13.6784637,36.1221126 12.9786106,35.7488933 C13.0718912,35.4897622 13.2085664,35.2556358 13.4012568,35.0629949 C14.4593274,34.0049243 15.9679168,33.521984 16.9260444,32.5638564 C17.2076891,32.2822117 17.7237558,32.1322267 18.0991411,31.8243628 Z M20.9301073,21.3892718 C20.1146345,21.5365784 19.4753659,21.7574679 19.3654145,22.0315006 C20.5755845,21.6845899 21.9191059,22.4590423 22.4694266,23.1948708 C22.698351,23.5007612 22.3453789,23.9643895 22.4699905,24.3394929 C22.4981831,24.4246347 22.5207373,24.9686122 22.4227678,25.0419131 C22.2179481,25.1949992 22.2382468,25.7295321 22.0689499,25.9735396 C21.6704466,26.5475422 21.322831,26.967049 20.9842372,27.4547821 C20.635212,27.9577392 19.701612,28.058387 19.1806116,28.23149 C19.0655855,28.26955 18.9205343,28.1901877 18.7993058,28.2303622 C18.7705493,28.2399477 18.737141,28.2416393 18.7037327,28.2368466 C18.7154327,28.2500971 18.7291061,28.2627838 18.7386916,28.2757524 C18.7826722,28.3343932 18.9969364,28.2785717 19.0595241,28.3219884 C19.4643707,28.6030692 21.0664188,28.4952323 21.5105942,28.3477847 C21.7868823,28.2561585 22.0434355,28.1205518 22.3197236,28.0287847 C22.6741054,27.9112213 23.0229895,27.3600548 23.2775693,27.0762956 C24.1529515,26.1002656 24.5531463,24.4098336 24.120107,23.1053591 C23.9024597,22.4495978 23.3326859,22.0565921 22.8476312,21.7196898 C22.6818583,21.6046637 22.398663,21.4824485 22.1291412,21.4338162 C21.9674563,21.4047777 21.8092954,21.4030862 21.6852477,21.4442474 C21.4787365,21.5127556 21.1457811,21.3503659 20.9301073,21.3892718 Z M25.5318546,23.3720617 C25.528109,23.3721825 25.4306372,23.5962106 25.3367309,23.7033584 L25.2931835,23.7427635 L25.2815082,23.7237956 C25.2687922,23.7059914 25.2496979,23.6837575 25.2342213,23.675399 L25.2149691,23.6755557 C25.2091543,23.6818286 25.2093922,23.6878812 25.2134118,23.6937972 L25.1960258,23.6833439 C25.0434028,23.598863 24.7755081,23.496266 24.7392179,23.6201571 C24.7007349,23.7515349 24.9926699,24.0681385 24.9992952,24.2484306 C25.0014096,24.2753546 24.6993253,24.6969759 24.8335223,24.6919012 C25.0524384,24.6838663 25.3471926,24.4724213 25.3538179,24.4722803 C25.4548886,24.4684743 25.5135293,24.7260143 25.5655448,24.7742238 C25.6083977,24.8139754 25.6893106,24.8971438 25.733996,24.8954522 C25.7462598,24.8950293 25.7786813,24.8853029 25.7703645,24.8940426 C25.7637392,24.9012317 25.8036318,24.8062224 25.7999668,24.7107903 C25.7947512,24.5679944 25.7176442,24.4516997 25.7138382,24.3495013 C25.7117238,24.3022786 25.9756071,24.2567474 26.0009805,24.2294006 C26.056426,24.1697261 26.1228354,24.115001 26.1566457,24.0897842 L26.1731835,24.0777635 L26.1516409,24.085044 C26.1158205,24.0736361 26.0744787,23.9869155 26.0279045,23.9732702 L25.8872592,23.9383068 C25.8018726,23.9154978 25.7114418,23.8838995 25.6949491,23.8399189 C25.6619637,23.7519578 25.6082567,23.3692424 25.5318546,23.3720617 Z M26.1752105,24.0767882 L26.1731835,24.0777635 L26.1774665,24.0771602 C26.1798864,24.0745524 26.1789075,24.0745563 26.1752105,24.0767882 Z M25.2931835,23.7427635 C25.2964684,23.7492908 25.2955437,23.7502945 25.2905254,23.7456145 L25.2931835,23.7427635 Z M25.2131835,23.6937635 L25.253367,23.7177277 L25.2871835,23.7427635 L25.2647445,23.7283244 C25.2546811,23.7226198 25.2438577,23.7169461 25.2345453,23.7112194 L25.2131835,23.6937635 Z M24.0814831,20.1740228 C24.0296086,20.1723355 24.0224194,20.6827636 24.0183315,20.9260663 C23.9938039,20.9274759 23.9949316,20.958065 24.0014159,20.9928829 C23.7383784,21.1097415 23.1655035,21.3437406 23.209484,21.3905404 C23.2115985,21.3916681 23.2117394,21.3930778 23.2127262,21.3939235 C23.1920046,21.3949103 23.1702962,21.4019585 23.1693095,21.430574 C23.167336,21.4684931 23.2451477,21.4326885 23.2829259,21.4339571 C23.343963,21.4360716 23.8766634,21.6324335 24.0883903,21.7215223 C24.1146094,21.9226769 24.1919983,22.0429186 24.1919983,22.2728298 C24.1919983,22.4161895 24.220191,22.6136791 24.2286488,22.6136791 C24.2318909,22.6136791 24.2376704,22.6094502 24.2420403,22.6070538 C24.2482427,22.6318633 24.2552908,22.6465235 24.2654402,22.637079 C24.3070244,22.5981731 24.3824397,22.4937193 24.4592647,22.3764378 C24.4626479,22.3713631 24.4661719,22.368121 24.4691322,22.3630463 C24.604316,22.1958638 24.7585298,21.9817406 24.8903305,21.7881979 C25.145897,21.8254122 25.3798961,21.8551555 25.4383959,21.8551555 C25.4665886,21.8551555 26.4374029,22.0219151 26.1570269,21.7413981 C26.1399703,21.7243415 26.1200945,21.7098223 26.1002186,21.6945983 C26.106421,21.6896646 26.1099451,21.6847309 26.1100861,21.6779646 C26.1122005,21.6238347 25.5701966,21.3746116 25.4818126,21.2803071 C25.4391007,21.234635 25.3774997,21.2055966 25.3347879,21.1599244 C25.3235108,21.1479426 25.3446553,21.1145343 25.3782046,21.0663248 L25.3782046,21.0630826 C25.4536199,20.9799143 25.533969,20.8939267 25.5920459,20.8357088 C25.6199566,20.8079391 25.7767078,20.5143125 25.6279916,20.5337654 C25.5276257,20.546734 25.199604,20.5675966 24.7700888,20.6933359 C24.7700888,20.6933359 24.654217,20.5416594 24.6533712,20.5420822 C24.5600535,20.5040222 24.2958883,20.1812162 24.0814831,20.1740228 Z M22.2881835,19.3977635 C22.3149308,19.447925 22.1743904,19.4467973 22.137458,19.4947248 C22.0912221,19.5544933 21.9699936,19.7571985 21.891759,19.7562118 C21.7978774,19.7548022 21.4219283,19.6652904 21.3966958,19.7374637 C21.3948834,19.7410884 21.5683028,19.9134204 21.6339556,20.0399027 L21.6551835,20.0937635 L21.6328252,20.0987132 C21.611595,20.1040585 21.5839188,20.1137342 21.5704833,20.1250789 L21.5635964,20.1430151 C21.5673319,20.1507681 21.5730674,20.1527856 21.5800516,20.1512174 C21.4409301,20.262693 21.2335449,20.4847384 21.3387599,20.566046 C21.4468788,20.6496373 21.8482013,20.4933089 22.018485,20.5527955 C22.0438584,20.5616761 22.3267718,20.9955612 22.3710342,20.8688352 C22.4433484,20.662042 22.3538367,20.3106205 22.3560921,20.3041362 C22.3895004,20.208845 22.6507054,20.2478918 22.7144209,20.2171618 C22.7671411,20.1917884 22.8741323,20.1466802 22.8887925,20.1043912 C22.8927394,20.0931141 22.8956997,20.0592829 22.9009153,20.0701371 C22.9051442,20.0790178 22.8311385,20.0071265 22.740922,19.9756917 C22.606161,19.9286099 22.4697086,19.9580712 22.3730077,19.9242401 C22.3286043,19.9087341 22.3823113,19.6466833 22.3659596,19.613134 C22.3306247,19.5398331 22.303873,19.4579491 22.2927213,19.4172263 L22.2881835,19.3977635 Z M21.6564912,20.0983297 C21.633197,20.1095363 21.6010045,20.1465128 21.5800516,20.1512174 L21.6216073,20.119506 L21.6564912,20.0983297 Z M21.6572502,20.0942756 L21.6564912,20.0983297 L21.6551835,20.0937635 L21.6572502,20.0942756 Z M22.2873921,19.3951793 L22.2881835,19.3977635 L22.2885707,19.3932313 C22.2870201,19.3900126 22.2866638,19.390921 22.2873921,19.3951793 Z"/>
  </defs>
  <use xlink:href="#browserify-a"/>
</svg>
