<svg xmlns="http://www.w3.org/2000/svg" xmlns:xlink="http://www.w3.org/1999/xlink" width="50" height="50" viewBox="0 0 50 50">
  <defs>
    <path id="cicd-a" d="M8.562,31.204 C10.942,31.204 12.336,30.014 13.203,28.654 L11.503,27.787 C10.959,28.739 9.871,29.436 8.562,29.436 C6.403,29.436 4.737,27.719 4.737,25.339 C4.737,22.959 6.403,21.242 8.562,21.242 C9.871,21.242 10.959,21.956 11.503,22.891 L13.203,22.024 C12.353,20.664 10.942,19.474 8.562,19.474 C5.298,19.474 2.697,21.854 2.697,25.339 C2.697,28.824 5.298,31.204 8.562,31.204 Z M16.79,31 L16.79,19.661 L14.801,19.661 L14.801,31 L16.79,31 Z M19.323,31.34 L23.352,19.321 L22.026,19.321 L17.997,31.34 L19.323,31.34 Z M29.914,31.204 C32.294,31.204 33.688,30.014 34.555,28.654 L32.855,27.787 C32.311,28.739 31.223,29.436 29.914,29.436 C27.755,29.436 26.089,27.719 26.089,25.339 C26.089,22.959 27.755,21.242 29.914,21.242 C31.223,21.242 32.311,21.956 32.855,22.891 L34.555,22.024 C33.705,20.664 32.294,19.474 29.914,19.474 C26.65,19.474 24.049,21.854 24.049,25.339 C24.049,28.824 26.65,31.204 29.914,31.204 Z M40.369,31 C43.905,31 46.302,28.671 46.302,25.339 C46.302,22.007 43.905,19.661 40.369,19.661 L36.153,19.661 L36.153,31 L40.369,31 Z M40.369,29.249 L38.142,29.249 L38.142,21.412 L40.369,21.412 C42.902,21.412 44.262,23.146 44.262,25.339 C44.262,27.481 42.834,29.249 40.369,29.249 Z"/>
  </defs>
  <use xlink:href="#cicd-a"/>
</svg>
