<svg xmlns="http://www.w3.org/2000/svg" xmlns:xlink="http://www.w3.org/1999/xlink" width="50" height="50" viewBox="0 0 50 50">
  <defs>
    <path id="contentful-a" d="M26.9507214,9 C31.3371698,9 35.3248502,10.7944562 38.2159184,13.5858324 C39.6116065,14.9815205 39.6116065,17.1747447 38.2159184,18.5704328 C36.8202303,19.966121 34.6270061,19.966121 33.2313179,18.5704328 C31.6362458,16.9753607 29.4430216,15.9784406 26.9507214,15.9784406 C24.4584211,15.9784406 22.265197,16.9753607 20.6701248,18.6701248 C20.5408945,18.7901245 20.4048265,18.899013 20.2631872,18.9967905 C18.8477102,20.5569551 17.9784406,22.6234478 17.9784406,24.9507214 C17.9784406,27.4430216 18.9753607,29.6362458 20.6701248,31.2313179 C20.7904068,31.3608524 20.8995254,31.4972566 20.9974805,31.6392555 C22.5578379,33.0541038 24.6239449,33.9230021 26.9507214,33.9230021 C29.4430216,33.9230021 31.6362458,32.9260821 33.2313179,31.2313179 C34.6270061,29.9353218 36.8202303,29.9353218 38.2159184,31.2313179 C39.6116065,32.6270061 39.6116065,34.8202303 38.2159184,36.2159184 C35.3248502,39.1069866 31.3371698,40.9014428 26.9507214,40.9014428 C22.5642731,40.9014428 18.5765927,39.1069866 15.6855244,36.3156104 C15.491481,36.121567 15.3244156,35.9121076 15.1843282,35.6915189 C12.5884443,32.8516981 11,29.0777036 11,24.9507214 C11,20.5642731 12.7944562,16.5765927 15.5858324,13.6855244 C15.7799074,13.4914494 15.9894034,13.3243612 16.2100317,13.1842598 C19.0498404,10.588404 22.8237916,9 26.9507214,9 Z"/>
  </defs>
  <use xlink:href="#contentful-a"/>
</svg>
