<svg xmlns="http://www.w3.org/2000/svg" width="50" height="50" viewBox="0 0 50 50">
  <path d="M1.20581055,24.9819336 C1.20581055,22.8458552 1.77855873,21.1995501 2.92407227,20.0429688 C3.920171,19.0358023 5.18741093,18.5322266 6.72583008,18.5322266 C8.78443412,18.5322266 10.2896274,19.20735 11.2414551,20.5576172 C11.7671739,21.315759 12.0493976,22.0766563 12.0881348,22.840332 L9.53149414,22.840332 C9.36547769,22.2537406 9.15242643,21.8110367 8.89233398,21.512207 C8.42748791,20.9809544 7.73852996,20.715332 6.82543945,20.715332 C5.8957473,20.715332 5.16251896,21.0902469 4.62573242,21.8400879 C4.08894588,22.5899289 3.82055664,23.6510348 3.82055664,25.0234375 C3.82055664,26.3958402 4.10416383,27.4237433 4.67138672,28.1071777 C5.23860961,28.7906121 5.9593869,29.1323242 6.83374023,29.1323242 C7.73022909,29.1323242 8.41365325,28.8390329 8.8840332,28.2524414 C9.14412565,27.9370101 9.3599438,27.4638703 9.53149414,26.8330078 L12.0632324,26.8330078 C11.8418771,28.1666733 11.2760462,29.2512979 10.3657227,30.0869141 C9.45539909,30.9225302 8.28915099,31.340332 6.86694336,31.340332 C5.10716894,31.340332 3.72371923,30.7758846 2.71655273,29.6469727 C1.70938624,28.5125269 1.20581055,26.9575294 1.20581055,24.9819336 Z M19.401123,29.1738281 C19.6944188,29.1738281 19.9766425,29.1378584 20.2478027,29.065918 C20.3972175,29.0271808 20.5881336,28.9580083 20.8205566,28.8583984 L19.5837402,27.6796875 L20.9035645,26.3017578 L22.1403809,27.4804688 C22.3340667,27.0820293 22.4696448,26.7333999 22.5471191,26.4345703 C22.6688645,25.9863259 22.7297363,25.4633819 22.7297363,24.8657227 C22.7297363,23.49332 22.448896,22.432214 21.887207,21.682373 C21.325518,20.9325321 20.5051323,20.5576172 19.4260254,20.5576172 C18.413325,20.5576172 17.6053904,20.9173141 17.0021973,21.6367188 C16.3990041,22.3561234 16.0974121,23.4324473 16.0974121,24.8657227 C16.0974121,26.5424889 16.5290484,27.7433232 17.392334,28.4682617 C17.951256,28.9386417 18.6208457,29.1738281 19.401123,29.1738281 Z M25.286377,24.6831055 C25.286377,25.7732802 25.1535658,26.686357 24.8879395,27.4223633 C24.6721181,28.1251663 24.3539246,28.7089821 23.9333496,29.1738281 L25.3444824,30.4936523 L24.0080566,31.8881836 L22.5305176,30.4936523 C22.0822731,30.7648126 21.6949072,30.9557286 21.3684082,31.0664062 C20.8205539,31.2490244 20.1647987,31.340332 19.401123,31.340332 C17.8073651,31.340332 16.490321,30.8644253 15.4499512,29.9125977 C14.1882261,28.7670841 13.557373,27.0848093 13.557373,24.8657227 C13.557373,22.6300344 14.2048275,20.9394589 15.4997559,19.7939453 C16.5567273,18.8587193 17.8710045,18.3911133 19.442627,18.3911133 C21.0253172,18.3911133 22.3534289,18.8863883 23.427002,19.8769531 C24.6665915,21.0224667 25.286377,22.6245014 25.286377,24.6831055 Z M29.7937012,20.8896484 L29.7937012,24.1767578 L32.6906738,24.1767578 C33.2661975,24.1767578 33.6978338,24.1103522 33.9855957,23.9775391 C34.4947128,23.745116 34.7492676,23.2858107 34.7492676,22.5996094 C34.7492676,21.8580692 34.5030135,21.3600273 34.010498,21.1054688 C33.733804,20.9615878 33.318769,20.8896484 32.7653809,20.8896484 L29.7937012,20.8896484 Z M33.2966309,18.7646484 C34.1543825,18.7812501 34.8142881,18.8863923 35.2763672,19.0800781 C35.7384463,19.273764 36.1299626,19.5587546 36.4509277,19.9350586 C36.7165541,20.244956 36.9268384,20.5880515 37.0817871,20.9643555 C37.2367358,21.3406594 37.314209,21.7695288 37.314209,22.2509766 C37.314209,22.8320342 37.1675633,23.4033989 36.8742676,23.9650879 C36.5809718,24.5267769 36.0967644,24.923827 35.4216309,25.15625 C35.9860868,25.3831392 36.3859038,25.7054829 36.6210938,26.123291 C36.8562837,26.5410991 36.973877,27.1788694 36.973877,28.0366211 L36.973877,28.8583984 C36.973877,29.4173205 36.9960121,29.7963857 37.0402832,29.9956055 C37.1066898,30.3110367 37.2616362,30.5434563 37.505127,30.6928711 L37.505127,31 L34.6911621,31 C34.6136878,30.7288398 34.5583498,30.5102547 34.5251465,30.3442383 C34.4587399,30.0011376 34.4227702,29.6497414 34.4172363,29.2900391 L34.4006348,28.152832 C34.389567,27.3725547 34.2470717,26.8523776 33.9731445,26.5922852 C33.6992174,26.3321927 33.1859575,26.2021484 32.4333496,26.2021484 L29.7937012,26.2021484 L29.7937012,31 L27.295166,31 L27.295166,18.7646484 L33.2966309,18.7646484 Z M41.3649902,27.2231445 C41.4424646,27.7820666 41.594644,28.1998684 41.8215332,28.4765625 C42.2365743,28.9801457 42.9476675,29.2319336 43.954834,29.2319336 C44.5580271,29.2319336 45.0477683,29.165528 45.4240723,29.0327148 C46.137943,28.7781563 46.494873,28.3050165 46.494873,27.6132812 C46.494873,27.2093079 46.3177915,26.8966482 45.963623,26.675293 C45.6094546,26.4594716 45.0533078,26.2685555 44.295166,26.1025391 L43.0002441,25.8120117 C41.7274513,25.5242499 40.8475773,25.2115902 40.3605957,24.8740234 C39.5360473,24.3095675 39.1237793,23.4269266 39.1237793,22.2260742 C39.1237793,21.1303656 39.5222128,20.2200557 40.3190918,19.4951172 C41.1159708,18.7701787 42.2863692,18.4077148 43.8303223,18.4077148 C45.1197167,18.4077148 46.2195593,18.7494269 47.1298828,19.4328613 C48.0402064,20.1162957 48.5174965,21.1082292 48.5617676,22.4086914 L46.1047363,22.4086914 C46.0604653,21.6726851 45.7395049,21.1497411 45.1418457,20.8398438 C44.7434062,20.6350901 44.2481312,20.5327148 43.6560059,20.5327148 C42.9974739,20.5327148 42.471763,20.665526 42.0788574,20.9311523 C41.6859518,21.1967787 41.489502,21.5675432 41.489502,22.043457 C41.489502,22.4806337 41.6831849,22.8071278 42.0705566,23.0229492 C42.3195813,23.1668301 42.850826,23.335611 43.6643066,23.5292969 L45.7727051,24.0356445 C46.6968633,24.2569998 47.394122,24.553058 47.864502,24.9238281 C48.5949744,25.4993518 48.9602051,26.3321886 48.9602051,27.4223633 C48.9602051,28.5402074 48.5327191,29.4685022 47.6777344,30.2072754 C46.8227496,30.9460486 45.614998,31.3154297 44.0544434,31.3154297 C42.4606854,31.3154297 41.20728,30.9515824 40.2941895,30.223877 C39.381099,29.4961715 38.9245605,28.4959374 38.9245605,27.2231445 L41.3649902,27.2231445 Z"/>
</svg>
