<svg xmlns="http://www.w3.org/2000/svg" width="50" height="50" viewBox="0 0 50 50">
  <g fill-rule="evenodd" transform="translate(9 7)">
    <path fill-rule="nonzero" d="M12.5482192,35.512274 L12.5482192,30.9614795 C4.80430845,29.1159671 -0.3313022,21.7649929 0.599810079,13.8588498 C1.53092236,5.95270668 8.23379317,-0.00404087647 16.1945753,-2.16942697e-05 C17.8539161,-0.00277198432 19.5030014,0.260116013 21.0792329,0.778684932 C21.2898082,0.839835616 21.5087671,0.923178082 21.7203288,1.00405479 L21.904274,1.07358904 C22.0300274,1.12290411 22.1247123,1.15989041 22.2213699,1.20082192 C22.4866849,1.30635616 22.7850411,1.44049315 23.1440548,1.6170411 C23.4471781,1.76958904 23.7407671,1.93150685 24.0248219,2.10279452 C28.9070137,4.98328767 31.9310137,10.9356164 31.5517808,16.9160548 C30.9683836,26.1187397 23.3654795,33.8804384 13.4699178,35.3727123 L12.5482192,35.512274 Z M16.2147945,1.60520474 L16.1955616,1.60520474 C8.93574088,1.60287055 2.86255796,7.11716179 2.16619032,14.3435077 C1.46982268,21.5698536 6.37825711,28.1423896 13.5049315,29.526411 L14.1534247,29.6531507 L14.1534247,33.6254795 C22.8521096,31.9201644 29.4327123,24.9815342 29.9500274,16.8144658 C30.2917808,11.4213699 27.5829041,6.06378082 23.2066849,3.48361644 L23.1997808,3.47917808 C22.9502466,3.33123288 22.6908493,3.18575342 22.4294795,3.05408219 C22.1153425,2.90021918 21.8539726,2.78136986 21.6123288,2.68569863 C21.5136986,2.64378082 21.4323288,2.61221918 21.3494795,2.58016438 L21.1487671,2.50421918 C20.958411,2.43172603 20.7779178,2.36268493 20.6038356,2.31189041 C19.1877424,1.84429773 17.7060901,1.60573507 16.2147945,1.60520474 L16.2147945,1.60520474 Z"/>
    <path d="M13.2198904 8.14043836C13.6750256 8.08425613 14.1282477 8.25844433 14.4286027 8.6049863 14.6577808 8.85527705 14.8454149 9.14064078 14.9843836 9.45024658 15.4775342 10.5351781 15.7684932 12.0930411 15.1594521 12.966411 13.8637541 12.6352423 12.7632062 11.7819785 12.1196712 10.6096438 11.9585549 10.2918175 11.8680495 9.94291752 11.8543562 9.58684932 11.8758702 8.82777068 12.4633032 8.20554578 13.2198904 8.14043836L13.2198904 8.14043836zM9.63961644 11.8454795C9.72167248 11.8387992 9.80413574 11.8387992 9.88619178 11.8454795 10.2660334 11.852071 10.6405515 11.9359685 10.9869041 12.0920548 12.0826849 12.5615342 13.3047123 13.7090959 13.5414247 14.7269589 12.6014795 15.3532603 10.9084932 15.3019726 9.81221918 14.8324932 9.48572206 14.6738985 9.17454209 14.4855397 8.88263014 14.2698082 8.42787152 13.9267054 8.23771193 13.3348838 8.40750454 12.791105 8.57729716 12.2473262 9.07042547 11.8688584 9.63961644 11.8454795L9.63961644 11.8454795zM10.9844384 19.6747397C10.6408397 19.8389329 10.2645353 19.9232304 9.88372603 19.9213151 9.28037839 19.9918804 8.70126241 19.6618321 8.45447605 19.1067606 8.2076897 18.5516891 8.35060058 17.9006257 8.80717808 17.4999452 9.07538544 17.2504133 9.3919404 17.0585669 9.73726027 16.936274 10.1399153 16.7649844 10.5720586 16.6736983 11.009589 16.6675068 11.7221918 16.6546849 12.9456986 16.4958904 13.5389589 16.8909041 13.382137 17.9067945 12.0802192 19.2052603 10.9844384 19.6747397zM15.5012055 22.1947397C15.3518968 22.521096 15.1719095 22.8325236 14.9636712 23.1248219 14.1805479 24.1426849 12.3652603 23.4281096 12.4431781 22.0966027 12.4501769 21.7482833 12.5343935 21.4058586 12.6897534 21.0940274 13.1592329 19.9977534 14.4364932 18.6514521 15.5327671 18.4167123 16.1580822 19.3561644 15.9711781 21.1773699 15.5012055 22.1947397zM17.4190685 9.42410959C17.5688668 9.09770517 17.7493496 8.78627739 17.9580822 8.4940274 18.2587407 8.1373164 18.7173701 7.95386464 19.1810959 8.00482192 19.9640538 8.05435517 20.5685041 8.71276647 20.5510685 9.49709589 20.543962 9.8536035 20.4598481 10.2043586 20.3044932 10.5253151 19.7518999 11.6966285 18.7250701 12.575948 17.4826849 12.9417534 16.7799452 12.0821918 16.949589 10.5198904 17.4190685 9.42410959zM18.1045479 23.1253151C17.8804346 22.870477 17.6987718 22.5812485 17.5665205 22.2687123 17.0970411 21.1729315 17.1133151 19.5327123 17.7391233 18.6711781 18.8349041 18.906411 19.9834521 20.071726 20.4514521 21.168 20.6067573 21.4886239 20.6908724 21.8390473 20.6980274 22.1952329 20.7764384 23.3694247 18.9650959 24.0647671 18.1045479 23.1253151zM22.8999452 19.8463562C22.5201069 19.8397371 22.1455943 19.7558409 21.7992329 19.5997808 20.7034521 19.1303014 19.502137 18.0325479 19.2673973 17.0146849 19.8695342 16.6201644 20.9810959 16.5772603 21.701589 16.5905753 22.1391512 16.5973792 22.5712399 16.6889888 22.9739178 16.8603288 23.299852 17.0098506 23.6109326 17.1898282 23.9030137 17.397863 24.9987945 18.1829589 24.3093699 19.924274 22.8999452 19.8463562z"/>
  </g>
</svg>
