<svg xmlns="http://www.w3.org/2000/svg" xmlns:xlink="http://www.w3.org/1999/xlink" width="50" height="50" viewBox="0 0 50 50">
  <defs>
    <path id="cypress-a" d="M24.8749991,10 C33.0968168,10 39.7499982,16.6531814 39.7499982,24.8749991 C39.7499982,33.0968168 33.0968168,39.7499982 24.8749991,39.7499982 C16.6531814,39.7499982 10,33.0968168 10,24.8749991 C10,16.6531814 16.6531814,10 24.8749991,10 Z M27.831242,18.8096041 L24.3143324,18.8096041 L28.5448179,32.3675459 C28.5448179,32.3675459 28.1370603,32.8262734 27.9331815,32.9791824 C27.3725147,33.3869401 26.5060298,33.6417886 25.3337264,33.7946977 L25.3337264,33.7946977 L25.6905144,36.1393043 C27.4744541,35.9863951 28.901606,35.5276678 29.9719697,34.6611827 C31.0423335,33.7946977 31.8068792,32.6223945 32.3165763,31.0423335 L32.3165763,31.0423335 L36.2922134,18.8096041 L32.877243,18.8096041 L30.277788,28.9525756 L27.831242,18.8096041 Z M20.032877,18.3508767 C18.8605738,18.3508767 17.8411796,18.6566949 16.9746946,19.1154223 C16.1082096,19.6760891 15.3946337,20.4406347 14.9359064,21.4600288 C14.477179,22.4284532 14.2223305,23.6007565 14.2223305,24.8749991 C14.2223305,26.2002115 14.477179,27.3215451 14.9359064,28.2899695 C15.3946337,29.2583938 16.1082096,30.0229395 16.9746946,30.5326366 C17.8921493,31.0423335 18.9115435,31.2971821 20.1348164,31.2971821 C21.6639076,31.2971821 22.98912,30.8384547 24.1614232,29.8700303 L24.1614232,29.8700303 L22.7342714,27.831242 C22.2245743,28.1370603 21.8168168,28.3409391 21.4600288,28.4938483 C21.1032408,28.6467574 20.6954832,28.6977271 20.2877255,28.6977271 C19.4212405,28.6977271 18.8096041,28.4428785 18.3508767,27.831242 C17.8921493,27.2705753 17.6882705,26.3021509 17.6882705,24.9259688 C17.6882705,22.2245743 18.5547555,20.899362 20.2877255,20.899362 C20.6954832,20.899362 21.1542105,20.9503317 21.5109985,21.1032408 C21.8677864,21.25615 22.2755441,21.4600288 22.6833018,21.765847 L22.6833018,21.765847 L24.1104536,19.8289982 C23.4988171,19.3193011 22.8871806,18.9625132 22.2245743,18.7076646 C21.6129379,18.4528161 20.8483923,18.3508767 20.032877,18.3508767 Z"/>
  </defs>
  <use fill-rule="evenodd" xlink:href="#cypress-a"/>
</svg>
