<svg xmlns="http://www.w3.org/2000/svg" width="50" height="50" viewBox="0 0 50 50">
  <path d="M9.86157227,20.8896484 L9.86157227,28.875 L12.2189941,28.875 C13.4253804,28.875 14.2665178,28.2801166 14.7424316,27.090332 C15.0025241,26.437334 15.1325684,25.6598352 15.1325684,24.7578125 C15.1325684,23.5126891 14.937502,22.5567253 14.5473633,21.8898926 C14.1572246,21.2230598 13.3811093,20.8896484 12.2189941,20.8896484 L9.86157227,20.8896484 Z M12.6506348,18.7646484 C13.4087766,18.7757162 14.0396296,18.864257 14.5432129,19.0302734 C15.4009646,19.3125014 16.0954563,19.8299116 16.626709,20.5825195 C17.0528179,21.1912465 17.3433423,21.8497686 17.498291,22.5581055 C17.6532397,23.2664423 17.7307129,23.9415658 17.7307129,24.5834961 C17.7307129,26.2104574 17.4042188,27.5883733 16.7512207,28.7172852 C15.8657996,30.2391027 14.4989513,31 12.6506348,31 L7.37963867,31 L7.37963867,18.7646484 L12.6506348,18.7646484 Z M22.1384277,20.8896484 L22.1384277,28.875 L24.4958496,28.875 C25.7022358,28.875 26.5433733,28.2801166 27.0192871,27.090332 C27.2793796,26.437334 27.4094238,25.6598352 27.4094238,24.7578125 C27.4094238,23.5126891 27.2143574,22.5567253 26.8242188,21.8898926 C26.4340801,21.2230598 25.6579648,20.8896484 24.4958496,20.8896484 L22.1384277,20.8896484 Z M24.9274902,18.7646484 C25.685632,18.7757162 26.3164851,18.864257 26.8200684,19.0302734 C27.67782,19.3125014 28.3723118,19.8299116 28.9035645,20.5825195 C29.3296734,21.1912465 29.6201978,21.8497686 29.7751465,22.5581055 C29.9300952,23.2664423 30.0075684,23.9415658 30.0075684,24.5834961 C30.0075684,26.2104574 29.6810742,27.5883733 29.0280762,28.7172852 C28.1426551,30.2391027 26.7758068,31 24.9274902,31 L19.6564941,31 L19.6564941,18.7646484 L24.9274902,18.7646484 Z M34.4152832,20.8896484 L34.4152832,28.875 L36.7727051,28.875 C37.9790913,28.875 38.8202287,28.2801166 39.2961426,27.090332 C39.556235,26.437334 39.6862793,25.6598352 39.6862793,24.7578125 C39.6862793,23.5126891 39.4912129,22.5567253 39.1010742,21.8898926 C38.7109355,21.2230598 37.9348203,20.8896484 36.7727051,20.8896484 L34.4152832,20.8896484 Z M37.2043457,18.7646484 C37.9624875,18.7757162 38.5933406,18.864257 39.0969238,19.0302734 C39.9546755,19.3125014 40.6491673,19.8299116 41.1804199,20.5825195 C41.6065288,21.1912465 41.8970533,21.8497686 42.052002,22.5581055 C42.2069506,23.2664423 42.2844238,23.9415658 42.2844238,24.5834961 C42.2844238,26.2104574 41.9579297,27.5883733 41.3049316,28.7172852 C40.4195105,30.2391027 39.0526622,31 37.2043457,31 L31.9333496,31 L31.9333496,18.7646484 L37.2043457,18.7646484 Z"/>
</svg>
