<svg xmlns="http://www.w3.org/2000/svg" width="50" height="50" viewBox="0 0 50 50">
  <g transform="matrix(1 0 0 -1 8.016 40.784)">
    <path d="M14.7262899,31.960688 C14.6515971,31.9528256 14.4117936,31.9253071 14.1955774,31.9056511 C11.1213759,31.5832924 8.09434889,30.2820639 5.62555283,28.2142506 C5.16953317,27.836855 4.13169533,26.7990172 3.75429975,26.3429975 C1.71007371,23.9017199 0.514987715,21.1616708 0.0746928747,17.9184275 C-0.0235872236,17.1990172 -0.0235872236,14.7695332 0.0746928747,14.0501229 C0.514987715,10.8068796 1.71007371,8.06683047 3.75429975,5.62555283 C4.13169533,5.16953317 5.16953317,4.13169533 5.62555283,3.75429975 C8.06683047,1.71007371 10.8068796,0.514987715 14.0501229,0.0746928747 C14.7695332,-0.0235872236 17.1990172,-0.0235872236 17.9184275,0.0746928747 C21.1616708,0.514987715 23.9017199,1.71007371 26.3429975,3.75429975 C26.7990172,4.13169533 27.836855,5.16953317 28.2142506,5.62555283 C30.2584767,8.06683047 31.4535627,10.8068796 31.8938575,14.0501229 C31.9921376,14.7695332 31.9921376,17.1990172 31.8938575,17.9184275 C31.4535627,21.1616708 30.2584767,23.9017199 28.2142506,26.3429975 C27.836855,26.7990172 26.7990172,27.836855 26.3429975,28.2142506 C23.9095823,30.2506143 21.1420147,31.4614251 17.9420147,31.8899263 C17.5960688,31.9371007 17.0928747,31.9567568 16.1611794,31.9646192 C15.4496314,31.9724816 14.8009828,31.9685504 14.7262899,31.960688 Z M14.9228501,30.2624079 C14.9228501,29.802457 14.9542998,28.8039312 14.997543,27.8565111 C15.0211302,27.392629 15.0486486,26.7282555 15.0604423,26.3823096 C15.1036855,25.155774 15.2334152,21.9361179 15.2530713,21.64914 L15.2727273,21.3621622 L15.0958231,21.3818182 C14.997543,21.3896806 14.9071253,21.4132678 14.8914005,21.4250614 C14.8796069,21.4407862 14.8520885,21.7120393 14.8363636,22.0304668 C14.765602,23.4299754 14.5336609,28.8589681 14.5100737,29.6530713 L14.4864865,30.5257985 L14.5965602,30.5415233 C14.6555283,30.5493857 14.7538084,30.5611794 14.8167076,30.5651106 L14.9228501,30.5690418 L14.9228501,30.2624079 Z M18.6850123,30.3567568 C18.6889435,30.3528256 18.7007371,29.165602 18.7125307,27.7189189 C18.7282555,26.2683047 18.7479115,24.9670762 18.7597052,24.8255528 C18.7714988,24.6800983 18.7675676,24.5542998 18.7479115,24.5464373 C18.7321867,24.5346437 18.6339066,24.5346437 18.5356265,24.5464373 L18.3547912,24.5621622 L18.3272727,25.7061425 C18.3115479,26.3390663 18.2918919,27.0388206 18.2840295,27.2668305 C18.2525799,27.9626536 18.2250614,30.3253071 18.2486486,30.3842752 C18.2643735,30.4275184 18.3076167,30.4314496 18.4727273,30.4039312 C18.5867322,30.380344 18.6810811,30.360688 18.6850123,30.3567568 Z M9.59213759,29.0398034 C9.61572482,29.0044226 9.8004914,26.8383292 10.0285012,24.0039312 C10.1031941,23.0407862 10.177887,22.1601966 10.1896806,22.0501229 C10.2093366,21.8496314 10.2054054,21.841769 10.0796069,21.763145 C10.0088452,21.7199017 9.93808354,21.6845209 9.92235872,21.6845209 C9.91056511,21.6845209 9.88697789,21.7867322 9.87518428,21.9125307 C9.82014742,22.4235872 9.60786241,24.8923833 9.45847666,26.6771499 C9.37199017,27.7267813 9.29336609,28.6663391 9.28157248,28.7685504 C9.26191646,28.9415233 9.26584767,28.9572482 9.36805897,29.012285 C9.49385749,29.0791155 9.56461916,29.0909091 9.59213759,29.0398034 Z M20.414742,28.2496314 C20.5248157,28.2103194 20.5366093,28.1906634 20.5601966,27.9665848 C20.5995086,27.5734644 20.587715,25.6943489 20.5444717,25.6943489 C20.4304668,25.6943489 20.1945946,25.8280098 20.1749386,25.9027027 C20.163145,25.9498771 20.1513514,26.5081081 20.1513514,27.1410319 C20.1513514,28.4186732 20.1356265,28.3439803 20.414742,28.2496314 Z M13.1538084,28.0648649 C13.1538084,27.9587224 13.1813268,27.372973 13.2127764,26.755774 C13.244226,26.1385749 13.2796069,25.3562654 13.2953317,25.0181818 C13.3228501,24.3341523 13.3307125,24.3577396 13.0673219,24.3420147 C12.9375921,24.3380835 12.9375921,24.3380835 12.9297297,24.5346437 C12.9218673,24.6447174 12.9022113,24.9867322 12.8786241,25.3012285 C12.8589681,25.6157248 12.8117936,26.2958231 12.780344,26.814742 C12.7488943,27.3336609 12.7095823,27.8486486 12.6977887,27.9587224 C12.6742015,28.1552826 12.6781327,28.163145 12.7842752,28.202457 C12.8471744,28.2260442 12.9572482,28.2457002 13.0280098,28.2457002 C13.1538084,28.2496314 13.1538084,28.2496314 13.1538084,28.0648649 Z M24.0589681,27.5262899 L24.192629,27.4712531 L24.2201474,26.9444717 C24.231941,26.6574939 24.2398034,26.0363636 24.231941,25.5685504 L24.2201474,24.7115479 L24.0550369,24.7941032 L23.8899263,24.8727273 L23.8781327,26.177887 C23.8702703,26.8972973 23.8742015,27.5066339 23.8820639,27.5341523 C23.8977887,27.5931204 23.8977887,27.5931204 24.0589681,27.5262899 Z M16.8805897,27.0113022 C16.9041769,26.987715 16.9592138,25.0810811 16.963145,24.1140049 L16.9670762,23.5321867 L16.7823096,23.5597052 C16.6761671,23.5714988 16.5896806,23.5832924 16.5857494,23.5872236 C16.5739558,23.595086 16.4560197,26.5081081 16.4560197,26.7911548 L16.4560197,27.0820639 L16.6565111,27.0584767 C16.770516,27.0427518 16.8687961,27.0230958 16.8805897,27.0113022 Z M25.9341523,26.7321867 C25.9813268,26.6771499 25.9891892,25.8162162 26.0009828,21.0673219 C26.0127764,15.614742 26.0127764,15.4732187 25.9420147,15.4732187 C25.8987715,15.4732187 25.8398034,15.4968059 25.8044226,15.5243243 C25.7454545,15.5675676 25.7375921,16.0432432 25.7179361,20.7017199 C25.7022113,23.5243243 25.6825553,26.0874693 25.6707617,26.3980344 L25.6471744,26.9641278 L25.7611794,26.8815725 C25.8280098,26.834398 25.9027027,26.7675676 25.9341523,26.7321867 Z M22.4078624,25.9262899 C22.4275184,25.9105651 22.4471744,25.6864865 22.4511057,25.4309582 C22.4707617,24.5621622 22.4746929,19.2353808 22.4550369,19.219656 C22.4471744,19.2117936 22.3764128,19.2314496 22.2977887,19.2628993 L22.1562654,19.3218673 L22.1562654,22.6673219 L22.1562654,26.0088452 L22.2663391,25.985258 C22.3253071,25.9695332 22.3882064,25.9459459 22.4078624,25.9262899 Z M11.5577396,25.7061425 C11.5695332,25.6 11.5891892,25.3601966 11.6009828,25.1636364 C11.6127764,24.9710074 11.6402948,24.5307125 11.6638821,24.1886978 C11.7110565,23.4968059 11.7031941,23.4535627 11.4791155,23.4535627 C11.3611794,23.4535627 11.3454545,23.4653563 11.3297297,23.5832924 C11.2904177,23.8152334 11.1528256,25.7493857 11.1724816,25.7808354 C11.1921376,25.8083538 11.3965602,25.8791155 11.4909091,25.8869779 C11.5144963,25.8909091 11.5459459,25.8083538 11.5577396,25.7061425 Z M5.05552826,24.7036855 C5.0987715,24.2869779 5.18525799,23.4142506 5.24815725,22.765602 C5.31498771,22.1169533 5.37002457,21.5665848 5.37002457,21.5429975 C5.37002457,21.4958231 5.06732187,21.3464373 5.03587224,21.377887 C5.01621622,21.397543 4.62309582,24.8766585 4.62309582,25.0339066 C4.62309582,25.1282555 4.92579853,25.5253071 4.96511057,25.4820639 C4.97690418,25.4742015 5.01621622,25.1243243 5.05552826,24.7036855 Z M20.4697789,24.2909091 L20.5837838,24.2240786 L20.587715,23.3749386 C20.5916462,22.9110565 20.5995086,22.3921376 20.5995086,22.2230958 C20.607371,21.8692875 20.5641278,21.8103194 20.3518428,21.8850123 L20.2299754,21.9282555 L20.2299754,22.2663391 C20.2299754,22.4550369 20.2181818,23.0014742 20.202457,23.4850123 L20.1788698,24.3577396 L20.2692875,24.3577396 C20.3164619,24.3577396 20.4068796,24.3262899 20.4697789,24.2909091 Z M6.78132678,22.765602 C6.85208845,22.0108108 6.96609337,20.7371007 7.04078624,19.9351351 L7.17444717,18.4805897 L7.02113022,18.3272727 L6.87174447,18.1739558 L6.84422604,18.4845209 C6.82850123,18.6574939 6.74987715,19.4594595 6.66732187,20.2692875 C6.58476658,21.0791155 6.46683047,22.2545455 6.40786241,22.8796069 L6.2977887,24.0117936 L6.45110565,24.153317 C6.58869779,24.2830467 6.6044226,24.2869779 6.63194103,24.2162162 C6.64766585,24.1769042 6.71449631,23.5243243 6.78132678,22.765602 Z M3.83685504,22.2899263 C3.92334152,21.5154791 4.15135135,19.4555283 4.34791155,17.7140049 C4.54447174,15.9724816 4.72923833,14.2938575 4.76461916,13.9793612 C4.7960688,13.6648649 4.85110565,13.1891892 4.88255528,12.9179361 C4.93759214,12.4579853 4.93759214,12.4265356 4.87469287,12.3793612 C4.78034398,12.3085995 4.74103194,12.3164619 4.74103194,12.3990172 C4.74103194,12.434398 4.70565111,12.7331695 4.66240786,13.0555283 C4.59164619,13.5941032 4.47371007,14.5061425 4.21031941,16.5542998 C4.15528256,16.9670762 4.04914005,17.7886978 3.97444717,18.3823096 C3.8958231,18.9759214 3.78181818,19.8604423 3.71891892,20.3479115 C3.65601966,20.8353808 3.54987715,21.6687961 3.48304668,22.207371 C3.41228501,22.7420147 3.36904177,23.2176904 3.38083538,23.2687961 C3.40835381,23.3749386 3.64029484,23.7444717 3.66388206,23.7208845 C3.67174447,23.7090909 3.75036855,23.0683047 3.83685504,22.2899263 Z M2.63390663,20.5955774 C2.69287469,20.1238329 2.8029484,19.2628993 2.87764128,18.6771499 C2.95233415,18.0953317 3.04668305,17.368059 3.08992629,17.0653563 L3.16461916,16.5149877 L3.08206388,16.444226 C3.03488943,16.404914 2.98771499,16.3891892 2.97199017,16.404914 C2.95626536,16.4206388 2.92481572,16.577887 2.9012285,16.75086 C2.87764128,16.9238329 2.73218673,17.9341523 2.57493857,18.9916462 L2.2958231,20.9179361 L2.38624079,21.185258 C2.43341523,21.3307125 2.48452088,21.4486486 2.4963145,21.4486486 C2.51203931,21.4486486 2.57100737,21.0633907 2.63390663,20.5955774 Z M24.2162162,21.1105651 C24.2712531,21.0555283 24.2791155,20.8117936 24.2791155,19.007371 L24.2791155,16.9670762 L24.1690418,16.9670762 C23.9292383,16.9670762 23.9331695,16.9081081 23.9174447,19.1410319 L23.9056511,21.1734644 L24.0314496,21.1734644 C24.0982801,21.1734644 24.1847666,21.1459459 24.2162162,21.1105651 Z M15.6108108,20.4068796 C16.4992629,20.2732187 17.2737101,20.0255528 18.0402948,19.6324324 C18.5356265,19.3769042 18.7714988,19.2 19.3218673,18.6732187 C20.1395577,17.8909091 20.6427518,17.2068796 21.1144963,16.2398034 C21.802457,14.8324324 22.0697789,13.5862408 22.4078624,10.2447174 C22.5611794,8.74692875 22.7616708,6.03046683 22.804914,4.91793612 C22.8167076,4.5955774 22.844226,4.06486486 22.8678133,3.73857494 C22.9110565,3.04668305 22.9621622,3.14103194 22.3528256,2.84619165 C21.5076167,2.43734644 20.6938575,2.15429975 19.6206388,1.89090909 C18.3076167,1.56855037 17.4584767,1.46633907 16.1611794,1.46240786 L15.2176904,1.45847666 L15.2255528,1.91056511 C15.2255528,2.15823096 15.24914,2.73611794 15.2727273,3.18820639 C15.3906634,5.37788698 15.3670762,8.14152334 15.2137592,9.67469287 C15.1272727,10.5552826 14.958231,11.62457 14.8638821,11.8604423 C14.844226,11.9115479 14.9346437,11.9547912 15.3238329,12.0884521 C16.0353808,12.3361179 16.6525799,12.646683 16.7469287,12.8 C16.9159705,13.0909091 16.6132678,13.5076167 16.2280098,13.5076167 C16.1611794,13.5076167 15.960688,13.436855 15.7759214,13.3542998 C14.8953317,12.9493857 13.1302211,12.4737101 12.1120393,12.3675676 C11.4083538,12.2928747 10.3154791,12.3361179 9.55675676,12.4737101 C9.14398034,12.5484029 8.404914,12.8275184 7.78771499,13.1459459 C7.07616708,13.5154791 6.63980344,14.0068796 6.51007371,14.5886978 C6.43931204,14.9031941 6.45896806,15.5321867 6.54938575,15.8859951 C6.64766585,16.2751843 6.92285012,16.8412776 7.17444717,17.1714988 C8.29484029,18.6457002 10.6063882,19.9233415 12.9769042,20.3714988 C13.7316953,20.5130221 14.8009828,20.5287469 15.6108108,20.4068796 Z M27.7385749,20.2850123 C27.8800983,20.2260442 27.8958231,20.2103194 27.8958231,20.0766585 C27.9036855,19.0034398 27.8800983,16.5503686 27.8604423,16.4481572 C27.8565111,16.4127764 27.6520885,16.4088452 27.565602,16.4402948 C27.5105651,16.4599509 27.5027027,16.6722359 27.5027027,18.4058968 C27.5027027,19.6481572 27.5184275,20.3479115 27.5420147,20.3479115 C27.5616708,20.3479115 27.6520885,20.3203931 27.7385749,20.2850123 Z M29.4565111,18.1267813 L29.5980344,18.0678133 L29.570516,14.8127764 C29.5390663,10.6653563 29.5351351,10.5434889 29.3857494,10.1857494 C29.1420147,9.6 29.1538084,9.48206388 29.1773956,12.0530713 C29.185258,13.3385749 29.204914,14.6398034 29.2127764,14.9425061 C29.2206388,15.2452088 29.2285012,16.0982801 29.2324324,16.8412776 C29.2324324,17.7375921 29.244226,18.1857494 29.2717445,18.1857494 C29.2953317,18.1857494 29.377887,18.158231 29.4565111,18.1267813 Z M5.81425061,17.1479115 C5.83783784,16.829484 5.82997543,16.7980344 5.71597052,16.5464373 L5.59017199,16.2791155 L5.54299754,16.6722359 C5.46830467,17.3012285 5.46830467,17.3287469 5.61769042,17.4230958 C5.68452088,17.4702703 5.75528256,17.5017199 5.76707617,17.4938575 C5.77886978,17.4859951 5.802457,17.3287469 5.81425061,17.1479115 Z M3.38476658,14.7773956 C3.42014742,14.4550369 3.6953317,12.3164619 3.83685504,11.2668305 C4.04914005,9.64324324 4.06486486,9.41130221 3.97051597,9.50958231 C3.95872236,9.52137592 3.86830467,10.0678133 3.77395577,10.7243243 C3.16068796,14.9621622 3.16461916,14.9346437 3.21572482,14.9660934 C3.32186732,15.036855 3.35724816,14.997543 3.38476658,14.7773956 Z M6.21523342,12.9769042 C6.23882064,12.8786241 6.35282555,11.8132678 6.35282555,11.6835381 C6.35282555,11.5734644 6.21130221,11.4712531 6.14840295,11.5341523 C6.12874693,11.5538084 6.07764128,11.8879607 6.03832924,12.2732187 C5.995086,12.6624079 5.95184275,13.0673219 5.94004914,13.1734644 L5.91646192,13.3700246 L6.05405405,13.2127764 C6.13267813,13.1262899 6.2034398,13.0201474 6.21523342,12.9769042 Z M9.38771499,11.4948403 C9.43095823,11.4555283 9.45847666,11.2982801 9.49385749,10.8737101 C9.55282555,10.1071253 9.56068796,10.1660934 9.3995086,10.1660934 C9.23439803,10.1660934 9.23832924,10.1542998 9.18329238,10.8461916 C9.12825553,11.5498771 9.12825553,11.5420167 9.23439803,11.5420167 C9.28550369,11.5420167 9.35233415,11.5184275 9.38771499,11.4948403 Z M12.5012285,11.4358722 C12.5090909,11.3965602 12.5287469,11.160688 12.5444717,10.9130221 C12.5562654,10.6653563 12.5916462,10.1071253 12.6230958,9.67469287 C12.7331695,8.08648649 12.7371007,7.88599509 12.6702703,7.88599509 C12.5955774,7.88599509 12.587715,7.94496314 12.5012285,9.06535627 C12.4697789,9.52923833 12.4108108,10.2604423 12.3714988,10.6889435 C12.3361179,11.1174447 12.3125307,11.4751843 12.3243243,11.4830467 C12.3675676,11.5302211 12.4815725,11.4948403 12.5012285,11.4358722 Z M5.11056511,10.6810811 C5.13415233,10.6457002 5.28353808,9.38771499 5.46830467,7.66977887 C5.52334152,7.15085995 5.57837838,6.65159705 5.59017199,6.55724816 L5.60982801,6.38820639 L5.51154791,6.45110565 C5.43685504,6.5022113 5.40933661,6.55331695 5.40933661,6.64373464 C5.40933661,6.89140049 5.24029484,8.52285012 5.11056511,9.52137592 C5.03587224,10.0874693 4.97690418,10.5867322 4.97690418,10.6339066 C4.97690418,10.7164619 5.07125307,10.7479115 5.11056511,10.6810811 Z M27.797543,9.03783784 L27.7700246,7.39459459 L27.6717445,7.24914005 C27.4476658,6.91891892 27.4594595,6.85601966 27.4712531,8.6958231 L27.4791155,10.3823096 L27.62457,10.5316953 C27.7031941,10.6103194 27.7818182,10.6771499 27.797543,10.6771499 C27.8093366,10.6771499 27.8093366,9.93808354 27.797543,9.03783784 Z M24.1611794,6.43144963 C24.1808354,4.14742015 24.1769042,3.97051597 24.1140049,3.8997543 C24.0746929,3.85651106 24.039312,3.82899263 24.0275184,3.84078624 C24,3.87223587 23.960688,8.85307125 23.9921376,8.88058968 C24.0078624,8.8963145 24.0471744,8.9041769 24.0825553,8.9002457 C24.1336609,8.88845209 24.1454545,8.60933661 24.1611794,6.43144963 Z M11.3218673,7.9960688 C11.3493857,7.75233415 11.4476658,6.58476658 11.4869779,6.03439803 C11.5105651,5.66486486 11.5105651,5.65307125 11.4240786,5.62555283 C11.3769042,5.60982801 11.3218673,5.61375921 11.3061425,5.63341523 C11.2786241,5.66093366 11.1921376,6.53366093 11.0859951,7.87813268 L11.0584767,8.2004914 L11.180344,8.2004914 C11.2943489,8.2004914 11.3022113,8.19262899 11.3218673,7.9960688 Z M8.23194103,6.62014742 C8.25945946,6.59262899 8.27911548,6.49434889 8.27911548,6.3960688 C8.27911548,6.29385749 8.32628993,5.76314496 8.37739558,5.21277641 C8.52678133,3.70712531 8.53857494,3.5027027 8.47174447,3.54201474 C8.36953317,3.6009828 8.27911548,3.69140049 8.2987715,3.71498771 C8.30663391,3.73071253 8.29090909,3.92727273 8.25945946,4.15135135 C8.23194103,4.37936118 8.1965602,4.74889435 8.18083538,4.97690418 C8.16511057,5.204914 8.12972973,5.62162162 8.0982801,5.9007371 C8.02358722,6.58869779 8.02751843,6.66732187 8.11400491,6.66732187 C8.15331695,6.66732187 8.2044226,6.64766585 8.23194103,6.62014742 Z M10.0914005,3.97444717 C10.1031941,3.88796069 10.1267813,3.56560197 10.1425061,3.25896806 C10.1700246,2.66928747 10.158231,2.62604423 9.9970516,2.74791155 C9.94987715,2.78329238 9.91842752,2.93267813 9.87125307,3.38083538 C9.78869779,4.19066339 9.78476658,4.15921376 9.93808354,4.14348894 C10.0520885,4.13169533 10.0678133,4.11597052 10.0914005,3.97444717 Z"/>
    <path d="M8.68796069 18.5238329C8.27911548 18.3469287 8.24766585 17.792629 8.63292383 17.5960688 8.91203931 17.4545455 9.195086 17.5213759 9.34054054 17.7651106 9.61572482 18.2132678 9.16756757 18.7321867 8.68796069 18.5238329zM11.353317 18.1464373C10.9759214 17.9144963 10.9759214 17.3562654 11.353317 17.1243243 11.7267813 16.9002457 12.2103194 17.195086 12.2103194 17.6432432 12.2103194 18.0756757 11.7149877 18.3665848 11.353317 18.1464373z"/>
  </g>
</svg>
