<svg xmlns="http://www.w3.org/2000/svg" width="50" height="50" viewBox="0 0 50 50">
  <path fill="#010101" d="M30.5836,0 C26.1372,0 22.0596,4.1756 20,6.7012 C17.94,4.1756 13.8628,0 9.4164,0 C4.224,0 0,4.2244 0,9.4168 C0,14.6092 4.224,18.8336 9.4164,18.8336 C13.8628,18.8336 17.94,14.658 20,12.132 C22.0592,14.6576 26.1368,18.8336 30.5836,18.8336 C35.7756,18.8336 40,14.6092 40,9.4168 C40,4.2244 35.7756,0 30.5836,0 Z M9.4164,15.5636 C6.0272,15.5636 3.2696,12.8056 3.2696,9.4168 C3.2696,6.0272 6.0272,3.2696 9.4164,3.2696 C12.5744,3.2696 16.2044,7.1188 17.9776,9.4168 C16.204,11.7156 12.5744,15.5636 9.4164,15.5636 Z M30.5836,15.5636 C27.4248,15.5636 23.7936,11.7128 22.0212,9.4148 C23.7904,7.1164 27.414,3.2688 30.5836,3.2688 C33.9732,3.2688 36.73,6.0264 36.73,9.416 C36.73,12.806 33.9732,15.5636 30.5836,15.5636 Z" transform="translate(5 15)"/>
</svg>
