<svg xmlns="http://www.w3.org/2000/svg" xmlns:xlink="http://www.w3.org/1999/xlink" width="50" height="50" viewBox="0 0 50 50">
  <defs>
    <path id="elasticsearch-a" d="M22.3114619,25 L28.599967,27.8501321 L30,30.4951089 L28.9671654,35.9217962 C27.6361126,37.8371618 25.4557694,39 23.0917721,39 C19.1901112,39 16,35.8305675 16,31.9544402 C16,31.5953092 16.0258264,31.2361781 16.0774327,30.8866688 L16.1376307,30.5407232 L22.3114619,25 Z M31.0380048,32 L35.7722132,32.9052862 C35.9240307,33.2344901 36,33.5843739 36,33.9547406 C36,35.6420215 34.3038368,37 32.2531502,37 C31.5330641,37 30.8328906,36.8211975 30.2239408,36.4923641 L30,36.3620751 L31.0380048,32 Z M36.6997209,22 C38.6848762,22.796875 40,24.7504921 40,26.9613681 C40,29.2236713 38.5607743,31.2802657 36.4764563,32 L36.4764563,32 L31.3647646,30.7659941 L31.3647646,30.7661171 L30,28.0668061 Z M15.5858018,19 L20.7878129,20.2341138 L22,22.881719 L15.3585923,29 C13.3383609,28.2288481 12,26.2494187 12,24.0385699 C12,21.7764176 13.4646556,19.6941352 15.5858018,19 Z M28.9079206,12 C32.8224162,12 36,15.1620792 36,19.0572431 C36.00061,19.4092369 35.9747429,19.7606174 35.9226843,20.108447 L35.8619057,20.4549841 L29.5066496,26 L23.2203802,23.1358702 L22,20.5237416 L23.0592644,15.0702928 C24.3717738,13.14563 26.5591791,12 28.9079206,12 Z M19.7311026,14 C20.4705772,14 21.1702986,14.1625407 21.7769658,14.4876911 L22,14.617245 L20.9412616,19 L16.2268294,18.0946154 C16.07565,17.7654114 16,17.3950447 16,17.0452594 C16,15.3579785 17.6890346,14 19.7311026,14 Z"/>
  </defs>
  <use xlink:href="#elasticsearch-a"/>
</svg>
