<svg xmlns="http://www.w3.org/2000/svg" width="50" height="50" viewBox="0 0 50 50">
  <g transform="translate(8.752 7.422)">
    <path d="M11.5140234,7.67988281 C6.94283203,6.84738281 3.32841797,7.71873047 1.88789063,10.2137695 C0.812988281,12.0756445 1.12025391,14.5441406 2.63320313,17.182793 C2.71452568,17.3319699 2.87019561,17.425472 3.0400902,17.427211 C3.20998479,17.4289019 3.36751048,17.3385613 3.45182783,17.1910564 C3.53614517,17.0435515 3.534056,16.8619712 3.44636719,16.7164453 C2.08371094,14.3395312 1.81845703,12.2092383 2.69982422,10.6825781 C3.89654297,8.60994141 7.12037109,7.83263672 11.3459766,8.60220703 C11.5986282,8.64427144 11.8382744,8.47577821 11.8841852,8.22379717 C11.930096,7.97181614 11.7652754,7.7296293 11.5140234,7.67988281 L11.5140234,7.67988281 Z M5.01029297,20.3900977 C6.85863281,22.42125 9.25998047,24.326543 11.9986523,25.9075195 C18.6296484,29.7360352 25.6890234,30.7592578 29.1680859,28.3870898 C29.3097184,28.2940785 29.3901389,28.1318794 29.3784341,27.9628414 C29.3667292,27.7938034 29.2647209,27.6442364 29.1116206,27.5716334 C28.9585204,27.4990305 28.7781577,27.514692 28.6398633,27.6125977 C25.5260742,29.7356836 18.8203711,28.7636133 12.4674609,25.0957617 C9.81070312,23.5618945 7.48529297,21.7168945 5.70375,19.759043 C5.59121378,19.6344074 5.42061047,19.5794813 5.25649655,19.6150487 C5.09238263,19.6506162 4.95982613,19.7712443 4.90898655,19.9312872 C4.85814698,20.0913302 4.89678997,20.2663419 5.01029297,20.3900977 L5.01029297,20.3900977 Z"/>
    <path d="M28.0582031,19.8198633 C31.0514063,16.2838477 32.0964258,12.7274414 30.6588867,10.2376758 C29.6012109,8.40550781 27.3650977,7.43818359 24.3931641,7.39951172 C24.1368824,7.3998886 23.9283997,7.60599428 23.9250441,7.86225472 C23.9217685,8.11851517 24.1248491,8.32994578 24.3810352,8.33695312 C27.0537891,8.37175781 28.9803516,9.20513672 29.8471289,10.7064844 C31.0410352,12.7745508 30.109043,15.9459961 27.3425977,19.2141211 C27.2321319,19.3416845 27.1987453,19.5187729 27.2551795,19.6778021 C27.3116138,19.8368313 27.4491604,19.9532611 27.615326,19.9826571 C27.7814915,20.0120531 27.9506345,19.9498791 28.0582031,19.8198633 Z M20.3658398,7.83597656 C17.6595117,8.41587891 14.7788086,9.54966797 12.0123633,11.1468164 C5.16708984,15.0989062 0.70171875,20.926582 1.321875,25.1521875 C1.34437732,25.3195283 1.45512782,25.461841 1.6118152,25.5247564 C1.76850259,25.5876718 1.94691786,25.561469 2.07889899,25.4561587 C2.21088012,25.3508484 2.27603534,25.1827015 2.24947266,25.015957 C1.69875,21.264082 5.9315625,15.7401562 12.4811719,11.95875 C15.1648242,10.4092383 17.9541211,9.31148437 20.5621875,8.75267578 C20.7283118,8.71993157 20.8638707,8.60015316 20.9168215,8.43932505 C20.9697722,8.27849695 20.9318856,8.10161365 20.8177068,7.97658299 C20.703528,7.85155233 20.5308017,7.79780548 20.3658398,7.83597656 L20.3658398,7.83597656 Z"/>
    <path d="M9.27597656,28.081582 C10.8411328,32.4515039 13.4013867,35.1421875 16.280332,35.1421875 C18.3800391,35.1421875 20.3225977,33.7108008 21.8374805,31.1909766 C21.9267119,31.0473205 21.9316573,30.8667408 21.8504221,30.7184163 C21.7691869,30.5700919 21.6143638,30.4770151 21.4452644,30.4748431 C21.2761651,30.4726711 21.1190024,30.5617406 21.0339844,30.7079297 C19.6725586,32.9725195 18.0003516,34.2045703 16.280332,34.2045703 C13.8888281,34.2045703 11.6052539,31.8048047 10.15875,27.7657031 C10.1048233,27.6047197 9.96807482,27.4854714 9.80125038,27.4539538 C9.63442593,27.4224363 9.46359754,27.4835752 9.35465606,27.6137885 C9.24571458,27.7440018 9.21568584,27.9229392 9.27615234,28.081582 L9.27597656,28.081582 Z M23.5708594,27.2267578 C24.3812109,24.6378516 24.8162695,21.6513281 24.8162695,18.5391211 C24.8162695,10.7732812 22.0981641,4.07882812 18.2267578,2.35986328 C17.9915156,2.26133355 17.7206639,2.36893583 17.6171698,2.60203666 C17.5136757,2.8351375 17.6155125,3.10820915 17.8463672,3.21662109 C21.2992383,4.74996094 23.8786523,11.1032227 23.8786523,18.5391211 C23.8786523,21.5585156 23.4573047,24.4506445 22.6763086,26.9467383 C22.6235058,27.1073676 22.6612916,27.283985 22.7751947,27.408949 C22.8890977,27.5339129 23.0614674,27.5878589 23.226289,27.5501264 C23.3911106,27.5123939 23.5228431,27.3888301 23.5710352,27.2267578 L23.5708594,27.2267578 Z M32.3992969,26.7676172 C32.3992969,25.5285352 31.3948828,24.5241211 30.1558008,24.5241211 C28.9167187,24.5241211 27.9123047,25.5285352 27.9123047,26.7676172 C27.9123047,28.0066992 28.9167187,29.0111133 30.1558008,29.0111133 C31.3948828,29.0111133 32.3992969,28.0066992 32.3992969,26.7676172 Z M31.4618555,26.7676172 C31.4618555,27.2342256 31.2129229,27.6653896 30.8088281,27.8986938 C30.4047334,28.131998 29.9068682,28.131998 29.5027734,27.8986938 C29.0986787,27.6653896 28.8497461,27.2342256 28.8497461,26.7676172 C28.8497461,26.0463031 29.4344867,25.4615625 30.1558008,25.4615625 C30.8771149,25.4615625 31.4618555,26.0463031 31.4618555,26.7676172 L31.4618555,26.7676172 Z M2.37251953,29.0111133 C3.61177734,29.0111133 4.61619141,28.0066992 4.61619141,26.7676172 C4.61619141,25.5285352 3.61160156,24.5241211 2.37251953,24.5241211 C1.13361328,24.5241211 0.129023438,25.5285352 0.129023438,26.7676172 C0.129023438,28.0066992 1.13361328,29.0111133 2.37251953,29.0111133 Z M2.37251953,28.0736719 C1.65120544,28.0736719 1.06646484,27.4889313 1.06646484,26.7676172 C1.06646484,26.0463031 1.65120544,25.4615625 2.37251953,25.4615625 C3.09383362,25.4615625 3.67857422,26.0463031 3.67857422,26.7676172 C3.67857422,27.4889313 3.09383362,28.0736719 2.37251953,28.0736719 L2.37251953,28.0736719 Z"/>
    <path d="M16.280332,4.64835938 C17.5194141,4.64835938 18.5238281,3.64394531 18.5238281,2.40486328 C18.5238281,1.16578125 17.5194141,0.161367188 16.280332,0.161367188 C15.04125,0.161367188 14.0368359,1.16578125 14.0368359,2.40486328 C14.0368359,3.64394531 15.04125,4.64835938 16.280332,4.64835938 L16.280332,4.64835938 Z M16.280332,3.71091797 C15.5590179,3.71091797 14.9742773,3.12617737 14.9742773,2.40486328 C14.9742773,1.68354919 15.5590179,1.09880859 16.280332,1.09880859 C17.0016461,1.09880859 17.5863867,1.68354919 17.5863867,2.40486328 C17.5863867,3.12617737 17.0016461,3.71091797 16.280332,3.71091797 L16.280332,3.71091797 Z M16.6229297,20.1257227 C15.7466602,20.3150391 14.8833984,19.7581641 14.6937305,18.8818945 C14.5046039,18.0056718 15.061408,17.1419801 15.9375586,16.9525195 C16.8138281,16.7632031 17.6770898,17.3200781 17.8669336,18.1963477 C18.05625,19.0726172 17.499375,19.9360547 16.6229297,20.1257227 L16.6229297,20.1257227 Z"/>
  </g>
</svg>
