<svg xmlns="http://www.w3.org/2000/svg" xmlns:xlink="http://www.w3.org/1999/xlink" width="50" height="50" viewBox="0 0 50 50">
  <defs>
    <path id="esx-a" d="M17.15625,10 C15.925,10 14.9375,10.9675 14.9375,12.15625 L14.9375,19.53125 L12.21875,19.53125 C10.9875,19.5312497 10,20.5025 10,21.6875 L10,37.65625 C10,38.845001 10.9875,39.8125 12.21875,39.8125 L28.71875,39.8125 C29.95,39.8125 30.96875,38.845 30.96875,37.65625 L30.96875,35.03125 L38.59375,35.03125 C39.82375,35.031251 40.8125,34.06 40.8125,32.875 L40.8125,16.90625 C40.8125,15.7199999 39.82375,14.78125 38.59375,14.78125 L35.875,14.78125 L35.875,12.15625 C35.875,10.9675 34.885,10 33.65625,10 L17.15625,10 Z M17.15625,11.21875 L33.65625,11.21875 C34.194999,11.21875 34.625,11.63375 34.625,12.15625 L34.625,14.78125 L22.09375,14.78125 C20.865,14.7812499 19.84375,15.72 19.84375,16.90625 L19.84375,19.53125 L16.1875,19.53125 L16.1875,12.15625 C16.1875,11.63375 16.61375,11.21875 17.15625,11.21875 Z M22.09375,15.96875 L34.625,15.96875 L34.625,28.09375 C34.625,28.616251 34.195,29.0625 33.65625,29.0625 L30.96875,29.0625 L30.96875,21.6875 C30.968751,20.5025 29.95,19.53125 28.71875,19.53125 L21.09375,19.53125 L21.09375,16.90625 C21.09375,16.3849999 21.555,15.96875 22.09375,15.96875 Z M35.875,15.96875 L38.59375,15.96875 C39.13375,15.96875 39.5625,16.385 39.5625,16.90625 L39.5625,32.875 C39.5625,33.39625 39.13375,33.8125 38.59375,33.8125 L30.96875,33.8125 L30.96875,30.28125 L33.65625,30.28125 C34.884999,30.281249 35.875,29.2825 35.875,28.09375 L35.875,15.96875 Z M12.21875,20.75 L14.9375,20.75 L14.9375,28.09375 C14.9375,29.282501 15.925,30.28125 17.15625,30.28125 L19.84375,30.28125 L19.84375,32.875 C19.8437502,34.06 20.865,35.03125 22.09375,35.03125 L29.71875,35.03125 L29.71875,37.65625 C29.71875,38.177501 29.26125,38.59375 28.71875,38.59375 L12.21875,38.59375 C11.6725,38.59375 11.25,38.1775 11.25,37.65625 L11.25,21.6875 C11.25,21.1675 11.6725,20.75 12.21875,20.75 Z M16.1875,20.75 L19.84375,20.75 L19.84375,29.0625 L17.15625,29.0625 C16.61375,29.0625 16.1875,28.61625 16.1875,28.09375 L16.1875,20.75 Z M21.09375,20.75 L28.71875,20.75 C29.26125,20.75 29.71875,21.1675 29.71875,21.6875 L29.71875,29.0625 L21.09375,29.0625 L21.09375,20.75 Z M21.09375,30.28125 L29.71875,30.28125 L29.71875,33.8125 L22.09375,33.8125 C21.555,33.8125 21.09375,33.39625 21.09375,32.875 L21.09375,30.28125 Z"/>
  </defs>
  <use xlink:href="#esx-a"/>
</svg>
