<svg xmlns="http://www.w3.org/2000/svg" xmlns:xlink="http://www.w3.org/1999/xlink" width="50" height="50" viewBox="0 0 50 50">
  <defs>
    <path id="f5-a" d="M23.54,10 C28.48924,10 32.8980929,12.313672 35.7439654,15.9184227 L35.923,15.943 C34.733,15.803 33.613,15.523 32.353,15.383 C30.743,15.173 29.063,15.033 27.243,14.963 C26.053,18.323 24.653,22.593 23.183,27.073 C30.813,27.703 33.753,29.803 33.613,32.673 C33.473,34.213 32.003,35.683 30.113,35.823 C27.873,35.963 26.823,35.053 26.193,34.073 C25.633,33.163 25.003,32.253 24.373,31.273 C24.233,30.993 23.953,31.203 23.743,31.343 C23.253,31.763 22.833,32.253 22.413,32.673 C22.133,32.953 22.203,33.163 22.273,33.373 C22.693,34.353 23.113,35.333 23.533,36.243 C24.233,36.663 27.383,37.223 29.693,37.013 C31.303,36.873 33.263,36.243 34.943,35.053 C36.553,33.793 37.743,32.113 37.953,29.383 C38.023,27.703 37.743,25.953 36.273,24.343 C34.803,22.733 32.283,21.403 27.173,21.053 C27.453,20.213 27.663,19.443 27.943,18.673 C31.023,18.813 33.753,19.023 36.063,19.303 C36.2525,18.4818333 36.3279992,17.7176671 36.4952419,16.9590651 C38.1297116,19.4182125 39.08,22.3681304 39.08,25.54 C39.08,34.122505 32.122505,41.08 23.54,41.08 C19.027023,41.08 14.9633643,39.1562394 12.1243365,36.0840309 L11.843,36.033 C14.503,36.523 17.863,36.873 21.433,36.943 L21.433,35.893 C19.333,35.753 18.353,35.473 18.213,35.053 C18.073,34.703 18.073,34.213 18.003,33.723 C17.863,30.503 17.793,27.003 17.863,23.433 C19.053,23.433 20.243,23.433 21.433,23.363 C22.063,23.083 22.623,22.803 23.183,22.523 L23.183,21.333 C21.363,21.333 19.613,21.403 17.863,21.403 C17.933,19.933 18.003,18.533 18.073,17.203 C18.143,16.293 18.773,15.663 19.333,15.663 C20.313,15.593 21.223,16.013 22.133,16.433 C22.623,16.643 23.113,16.923 23.603,17.133 C23.813,17.203 24.093,17.273 24.303,17.063 C24.583,16.713 24.863,16.363 25.143,16.083 C25.283,15.873 25.213,15.733 25.143,15.663 C24.513,15.173 23.953,14.753 23.323,14.263 C22.973,13.983 22.343,13.983 21.783,13.983 C21.573,13.913 21.363,13.983 21.153,13.983 C20.593,13.983 19.823,14.123 18.563,14.403 C15.833,15.173 12.473,17.063 12.123,20.213 C12.053,20.703 12.053,21.263 11.983,21.753 C11.213,21.823 10.513,21.893 9.813,21.963 C9.743,22.593 9.743,23.153 9.673,23.783 C10.373,23.713 11.073,23.713 11.843,23.643 C11.703,26.933 11.843,30.223 12.123,33.303 C12.193,33.793 12.193,34.213 12.193,34.493 C12.1301795,34.7442821 11.7290947,34.8828093 11.1415308,34.9085819 C9.16945001,32.3041988 8,29.0586692 8,25.54 C8,16.957495 14.957495,10 23.54,10 Z"/>
  </defs>
  <use xlink:href="#f5-a"/>
</svg>
