<?xml version="1.0" encoding="UTF-8"?>
<svg id="Ebene_1" xmlns="http://www.w3.org/2000/svg" viewBox="0 0 50 50">
  <defs>
    <style>
      .cls-1 {
        fill-rule: evenodd;
      }
    </style>
  </defs>
  <path class="cls-1" d="M25,25c0-3.41,2.77-6.18,6.18-6.18s6.18,2.77,6.18,6.18-2.77,6.18-6.18,6.18-6.18-2.77-6.18-6.18Z"/>
  <path class="cls-1" d="M12.65,37.35c0-3.41,2.77-6.18,6.18-6.18h6.18v6.18c0,3.41-2.77,6.18-6.18,6.18s-6.18-2.77-6.18-6.18Z"/>
  <path class="cls-1" d="M25,6.47v12.35h6.18c3.41,0,6.18-2.77,6.18-6.18s-2.77-6.18-6.18-6.18h-6.18Z"/>
  <path class="cls-1" d="M12.65,12.65c0,3.41,2.77,6.18,6.18,6.18h6.18V6.47h-6.18c-3.41,0-6.18,2.77-6.18,6.18Z"/>
  <path class="cls-1" d="M12.65,25c0,3.41,2.77,6.18,6.18,6.18h6.18v-12.35h-6.18c-3.41,0-6.18,2.77-6.18,6.18Z"/>
</svg>