<svg xmlns="http://www.w3.org/2000/svg" width="50" height="50" viewBox="0 0 50 50">
  <g fill="none" transform="translate(11 8)">
    <path fill="#000" d="M24.6404149,7.35717417 L13.6395616,1.00567515 C13.2697099,0.792023635 12.8139457,0.792023635 12.4440939,1.00567515 L1.44317025,7.35717417 C1.07327981,7.57069695 0.845401174,7.96534245 0.845401174,8.39243836 L0.845401174,21.094591 C0.845401174,21.5216869 1.07327981,21.9163324 1.44317025,22.1298552 L6.86451663,25.2603757 C6.88818787,25.2761566 6.91235225,25.2913033 6.93750294,25.3058865 L17.9384266,31.6573855 C18.3083559,31.8709811 18.7641449,31.8709612 19.1340555,31.6573332 C19.5039661,31.4437053 19.7317818,31.048935 19.7316634,30.6217691 L19.7316634,24.9641331 L24.6404853,22.130137 C25.0103486,21.9165963 25.238184,21.5219542 25.238184,21.0948728 L25.238184,8.39272016 C25.238184,7.96552746 25.0103819,7.57075792 24.6404149,7.35717417 Z M22.8472485,20.4045323 L17.9383562,23.2388102 C17.5684657,23.452333 17.3405945,23.8469785 17.3405871,24.2740744 L17.3405871,28.551593 L8.21201566,23.2809393 C8.18834442,23.2648767 8.16418004,23.2497299 8.13902935,23.2354286 L3.23633659,20.4046732 L3.23633659,9.08270841 L13.0417926,3.421409 L22.8472485,9.08270841 L22.8472485,20.4045323 Z"/>
    <path fill="#000" d="M25.0629041,6.62491585 L14.0622622,0.27348728 C13.4308425,-0.0911805846 12.6528131,-0.0911805846 12.0213933,0.27348728 L1.02046967,6.62505675 C0.389829872,6.99039432 0.00114276783,7.66361949 7.04500978e-05,8.39243836 L7.04500978e-05,21.094591 C0.00110058794,21.8235502 0.389883544,22.4969093 1.02068102,22.8622544 L6.42089237,25.9805871 C6.45125636,26.0002427 6.4819726,26.0191233 6.5124775,26.0369472 L17.5155851,32.3897143 C18.1470421,32.7542694 18.9250206,32.7542522 19.5564615,32.3896693 C20.1879023,32.0250864 20.5768739,31.3513271 20.5768532,30.6221918 L20.5768532,25.4522114 L25.0631155,22.8622544 C25.6937824,22.4969347 26.0824982,21.8237062 26.0835851,21.0948728 L26.0835851,8.39272016 C26.0825906,7.66369614 25.6937722,6.99026842 25.0629041,6.62491585 L25.0629041,6.62491585 Z M25.2381135,21.0948728 C25.2381135,21.5219503 25.0102676,21.9165857 24.6404149,22.130137 L19.7314521,24.9641331 L19.7314521,30.6221918 C19.7313961,31.049284 19.50355,31.4439208 19.1337032,31.6575119 C18.7638564,31.871103 18.3081679,31.871216 17.9382153,31.6578082 L6.93771429,25.3061683 C6.91263405,25.2915851 6.88839922,25.2763679 6.86472798,25.2606575 L1.4433816,22.130137 C1.07349116,21.9166142 0.845612524,21.5219687 0.845612524,21.0948728 L0.845612524,8.39272016 C0.845612524,7.96562425 1.07349116,7.57097875 1.4433816,7.35745597 L12.4440939,1.00567515 C12.8139457,0.792023635 13.2697099,0.792023635 13.6395616,1.00567515 L24.6404149,7.35717417 C25.0102676,7.57072549 25.2381135,7.96536087 25.2381135,8.39243836 L25.2381135,21.0948728 Z"/>
    <path d="M3.23633659,9.08270841 L3.23633659,20.4046027 L8.1390998,23.2356399 C8.16418004,23.2497299 8.18841487,23.2650881 8.21208611,23.2811507 L14.6288924,26.9861213 L17.340728,28.5518748 L17.340728,24.2741448 C17.3405683,23.8753177 17.5394016,23.5027035 17.8707945,23.2807984 C17.892775,23.2660978 17.915319,23.2520078 17.9384266,23.2385284 L22.8472485,20.4042505 L22.8472485,9.08270841 L13.0417926,3.421409 L3.23633659,9.08270841 Z"/>
    <path fill="#000" d="M12.2479609,16.1416673 L11.9917339,12.3068571 C11.9438748,11.5597104 11.9199452,11.0232564 11.9199452,10.6974951 C11.9199452,10.2544579 12.0361174,9.9089002 12.2684618,9.66082192 C12.5008063,9.41274364 12.8062779,9.28861057 13.1848767,9.2884227 C13.6436947,9.2884227 13.9505284,9.44719374 14.1053777,9.76473581 C14.260227,10.0822779 14.3377221,10.5400157 14.337863,11.1379491 C14.3374452,11.4962123 14.3186337,11.8542178 14.2815029,12.2105519 L13.9370724,16.1577299 C13.899499,16.6273973 13.8195382,16.9876556 13.6971898,17.2385049 C13.5922345,17.4783542 13.3498318,17.6282501 13.0883601,17.6149902 C12.8005949,17.6149902 12.6005636,17.4934873 12.4882661,17.2504814 C12.3759687,17.0074755 12.2958669,16.6378708 12.2479609,16.1416673 Z M13.1369706,21.4097847 C12.8232126,21.4142604 12.5190878,21.301429 12.2841722,21.0933933 C12.0413542,20.8826536 11.9199394,20.587773 11.9199394,20.2087515 C11.9189513,19.8907033 12.0453779,19.5855056 12.2709867,19.3613264 C12.4965955,19.1371473 12.8025908,19.0126634 13.1206262,19.0156791 C13.4429738,19.0100798 13.75375,19.1357533 13.9815969,19.3638434 C14.2132593,19.5831469 14.3424052,19.8895043 14.3376517,20.2084697 C14.3376517,20.5823249 14.2176047,20.8758669 13.9775108,21.0890959 C13.7480171,21.2985226 13.4476404,21.4131244 13.1369706,21.4097847 L13.1369706,21.4097847 Z"/>
  </g>
</svg>
