<svg xmlns="http://www.w3.org/2000/svg" xmlns:xlink="http://www.w3.org/1999/xlink" width="50" height="50" viewBox="0 0 50 50">
  <defs>
    <path id="flutter-a" d="M15.314,11 L3.3,23 L7,26.7 L22.684,11.012 L15.327,11.012 L15.314,11 Z M36.165,15.001 C36.931,15.048 37.842,15.789 37.842,15.789 L47,24.948 L47,34.737 L42.737,34.737 L42.737,39 L32.789,39 L23.789,30 C23.303,29.5 23,28.795 23,28.105 C23,27.786 23.18,27.287 23.316,27 L27.105,19.105 C27.105,19.105 32.158,16.58 34.684,15.316 C35.143751,15.0893619 35.6528093,14.9810881 36.165,15.001 Z M27.784,19.784 L27.784,31.571 C27.786,32.114 27.805,32.595 28.282,33.079 L33.204,38 L41.737,38 L41.737,33.737 L27.784,19.784 Z M22.7,22.071 L16.24,28.531 L22.7,34.999 L15.327,34.999 L8.857,28.529 L15.328,22.072 L15.329,22.071 L22.7,22.071 Z M36.029,16.001 C35.659,16.015 35.159,16.196 35.159,16.196 L29.341,19.105 L39.839,19.106 C38.94,18.21 38.03,17.326 37.099,16.463 C36.797,16.196 36.532,15.995 36.029,16.001 Z"/>
  </defs>
  <use xlink:href="#flutter-a"/>
</svg>
