<svg xmlns="http://www.w3.org/2000/svg" xmlns:xlink="http://www.w3.org/1999/xlink" width="50" height="50" viewBox="0 0 50 50">
  <defs>
    <path id="gatling-a" d="M37.679536,34.65856 C38.846944,33.96688 39.862992,33.037424 40.641088,31.913312 L42.002976,31.913312 C42.6952427,31.9128266 43.2563146,31.3517547 43.2568,30.659488 C43.2563146,29.9672213 42.6952427,29.4061494 42.002976,29.405664 L41.894912,29.405664 C42.154336,28.605744 42.327344,27.784352 42.370464,26.919664 L43.710704,26.919664 C44.4029707,26.9191786 44.9640426,26.3581067 44.964528,25.66584 C44.9640426,24.9735733 44.4029707,24.4125014 43.710704,24.412016 L42.327344,24.412016 C42.240752,23.547328 42.024624,22.704288 41.721904,21.926016 L41.981328,21.926016 C42.6735261,21.9255308 43.2345696,21.364566 43.235152,20.672368 C43.2346666,19.9801013 42.6735947,19.4190294 41.981328,19.418544 L40.295248,19.418544 C38.565872,17.256736 35.842096,15.808432 32.794128,15.808432 L30.653968,15.808432 C29.313728,15.808432 28.016784,16.089504 26.849376,16.608352 L29.0976,16.608352 C34.285728,16.608352 38.544224,20.866848 38.544224,26.054976 C38.544224,30.853968 34.934288,34.831568 30.28648,35.436832 C30.005408,35.45848 29.724512,35.480128 29.421792,35.480128 L19.694096,35.480128 C21.2714409,34.6139645 22.6257578,33.392868 23.650048,31.913312 C23.714816,31.934784 23.801408,31.934784 23.866176,31.934784 L32.340224,31.934784 C33.0323533,31.9342017 33.5932897,31.3732653 33.593872,30.681136 C33.5933868,29.9889379 33.032422,29.4278944 32.340224,29.427312 L24.96864,29.427312 C25.273088,28.624217 25.4905182,27.7907835 25.6172,26.941312 L35.323248,26.941312 C36.0155147,26.9408266 36.5765866,26.3797547 36.577072,25.687488 C36.5765866,24.9952213 36.0155147,24.4341494 35.323248,24.433664 L25.72544,24.433664 C25.660672,23.568976 25.487664,22.747584 25.249888,21.947664 L32.38352,21.947664 C33.0757867,21.9471786 33.6368586,21.3861067 33.637344,20.69384 C33.6367616,20.001642 33.0757181,19.4406772 32.38352,19.440192 L24.147424,19.440192 C22.136976,16.046208 18.4188,13.754864 14.203424,13.754864 L13.382032,13.754864 C9.533968,13.754864 6.096864,15.67872 4,18.5968 C5.95780809,16.3282447 8.80728551,15.0258651 11.80384,15.029984 C16.256992,15.029984 20.061584,17.861824 21.48824,21.817776 L16.256992,21.817776 C15.219296,20.49936 13.597984,19.65632 11.80384,19.65632 C8.66928,19.699616 6.14016,22.228736 6.14016,25.363296 C6.14016,28.497856 8.690928,31.048624 11.825488,31.048624 C13.684576,31.048624 15.32736,30.162288 16.365056,28.778752 L10.9608,28.778752 C10.9608,26.271104 12.99272,24.260832 15.47872,24.260832 L22.072032,24.260832 C22.115152,24.62832 22.1368,24.995808 22.1368,25.363296 C22.1368,31.048624 17.510816,35.674608 11.825488,35.674608 C8.82064,35.674608 6.118512,34.377488 4.216128,32.32392 C6.33464,35.090992 9.66368,36.885136 13.403328,36.885136 L30.351424,36.885136 C39.128016,36.885136 46.24,36.366464 46.24,35.696256 C46.24,35.263824 42.7596,34.853216 37.679536,34.65856 L37.679536,34.65856 Z"/>
  </defs>
  <use xlink:href="#gatling-a"/>
</svg>
