<svg xmlns="http://www.w3.org/2000/svg" width="50" height="50" viewBox="0 0 50 50">
  <g fill="none" transform="translate(11 11)">
    <path d="M23,12.5479452 L16.3181818,12.5479452 L16.3181818,14.4657534 L20.9,14.4657534 C20.2318182,17.3424658 18.1318182,19.739726 15.3636364,20.6986301 L4.38636364,9.67123288 C5.53181818,6.31506849 8.77727273,3.91780822 12.5,3.91780822 C15.3636364,3.91780822 17.9409091,5.35616438 19.5636364,7.56164384 L20.9954545,6.31506849 C19.0863636,3.7260274 16.0318182,2 12.5,2 C7.53636364,2 3.33636364,5.54794521 2.28636364,10.2465753 L14.8863636,22.9041096 C19.4681818,21.7534247 23,17.5342466 23,12.5479452 Z M2,12.6438356 C2,15.3287671 3.05,17.9178082 5.05454545,19.9315068 C7.05909091,21.9452055 9.73181818,23 12.3090909,23 L2,12.6438356 Z"/>
    <path fill="#000" d="M13.5,0 C6.075,0 0,6.075 0,13.5 C0,20.925 6.075,27 13.5,27 C20.925,27 27,20.925 27,13.5 C27,6.075 20.925,0 13.5,0 Z M5.97857143,21.0214286 C3.95357143,18.9964286 2.89285714,16.2964286 2.89285714,13.6928571 L13.4035714,24.1071429 C10.7035714,24.0107143 8.00357143,23.0464286 5.97857143,21.0214286 Z M15.8142857,23.8178571 L3.18214286,11.1857143 C4.24285714,6.46071429 8.48571429,2.89285714 13.5,2.89285714 C17.0678571,2.89285714 20.1535714,4.62857143 22.0821429,7.23214286 L20.6357143,8.48571429 C18.9964286,6.26785714 16.3928571,4.82142857 13.5,4.82142857 C9.73928571,4.82142857 6.55714286,7.23214286 5.30357143,10.6071429 L16.3928571,21.6964286 C19.1892857,20.7321429 21.3107143,18.3214286 21.9857143,15.4285714 L17.3571429,15.4285714 L17.3571429,13.5 L24.1071429,13.5 C24.1071429,18.5142857 20.5392857,22.7571429 15.8142857,23.8178571 Z"/>
  </g>
</svg>
