<svg xmlns="http://www.w3.org/2000/svg" xmlns:xlink="http://www.w3.org/1999/xlink" width="50" height="50" viewBox="0 0 50 50">
  <defs>
    <path id="genticsmesh-a" d="M25.786,7.75623366 C25.99,7.84623366 37.03,14.3322337 39.016,15.5202337 C39.274,15.6762337 39.664,16.1082337 39.832,16.4262337 L39.97,16.6842337 L39.988,24.8562337 C40,32.9862337 40,33.0282337 39.88,33.3582337 C39.514,34.3362337 38.338,34.9182337 37.33,34.6242337 C37.084,34.5522337 35.662,33.7542337 32.74,32.0322337 C28.096,29.3022337 28.024,29.2542337 27.766,28.5642337 C27.598,28.1142337 27.598,27.4602337 27.766,27.0042337 C27.928,26.5722337 28.39,26.0682337 28.822,25.8582337 C29.272,25.6362337 29.932,25.5942337 30.4,25.7562337 C30.58,25.8162337 31.84,26.5182337 33.196,27.3222337 C34.558,28.1202337 35.68,28.7742337 35.704,28.7742337 C35.722,28.7742337 35.734,26.4762337 35.728,23.6682337 L35.71,18.5622337 L30.382,15.4182337 C27.454,13.6902337 25.03,12.2742337 25,12.2742337 C24.97,12.2742337 22.546,13.6902337 19.618,15.4182337 L14.29,18.5622337 L14.29,31.3662337 L19.618,34.5102337 C22.546,36.2382337 24.97,37.6542337 25,37.6542337 C25.03,37.6542337 26.104,37.0362337 27.382,36.2802337 C28.93,35.3682337 29.83,34.8702337 30.064,34.8042337 C31.036,34.5222337 32.098,35.0142337 32.566,35.9622337 C32.686,36.2022337 32.71,36.3402337 32.71,36.8442337 C32.71,37.3722337 32.692,37.4862337 32.554,37.7802337 C32.464,37.9722337 32.29,38.2242337 32.158,38.3562337 C31.936,38.5782337 26.374,41.9142337 25.804,42.1662337 C25.492,42.2982337 24.832,42.3582337 24.502,42.2742337 C24.376,42.2382337 24.19,42.1722337 24.082,42.1182337 C23.938,42.0402337 11.998,35.0142337 10.984,34.4082337 C10.726,34.2522337 10.336,33.8202337 10.168,33.5022337 L10.03,33.2442337 L10.012,25.0722337 L10,16.9002337 L10.126,16.5642337 C10.39,15.8502337 10.246,15.9522337 17.404,11.7342337 C20.992,9.61623366 24.058,7.82223366 24.214,7.75623366 C24.604,7.57623366 25.396,7.57623366 25.786,7.75623366 Z M25.36,22.7382337 C26.05,22.9182337 26.554,23.3322337 26.854,23.9742337 C26.992,24.2622337 27.01,24.3822337 27.01,24.9042337 C27.01,25.4382337 26.992,25.5402337 26.842,25.8462337 C26.626,26.2842337 26.23,26.6802337 25.798,26.8902337 C25.342,27.1182337 24.532,27.1602337 24.058,26.9802337 C22.726,26.4882337 22.198,24.8742337 22.972,23.6622337 C23.452,22.9002337 24.466,22.5102337 25.36,22.7382337 Z"/>
  </defs>
  <use transform="matrix(1 0 0 -1 0 49.934)" xlink:href="#genticsmesh-a"/>
</svg>
