<svg xmlns="http://www.w3.org/2000/svg" width="50" height="50" viewBox="0 0 50 50">
  <path d="M22.68,9.02395076 C22.68,6.49946659 20.6835648,4.51197538 18.1477201,4.51197538 C15.6118753,4.51197538 13.6154401,6.49946659 13.6154401,9.02395076 C13.6154401,10.6719637 14.5392564,12.1286342 15.8598797,12.9063482 L15.8598797,13.5853048 C15.8102788,14.7518757 15.3204702,15.7703107 14.4462548,16.6899883 C13.5224385,17.6096659 12.4932203,18.0479015 11.3275998,18.0972802 C9.42416621,18.1466589 7.9609404,18.4367585 6.79531985,19.1157151 L6.79531985,8.3943728 C8.10974303,7.61665885 9.03975943,6.20936694 9.03975943,4.51197538 C9.03975943,1.98749121 7.04332422,0 4.5074795,0 C1.97163477,0 0,1.98131887 0,4.50580305 C0,6.15381594 0.923816293,7.61048652 2.24443958,8.38820047 L2.24443958,23.1956272 C0.930016402,23.9733411 0,25.4300117 0,27.0780246 C0,29.6025088 1.99643521,31.59 4.53227993,31.59 C7.06812466,31.59 9.06455987,29.6025088 9.06455987,27.0780246 C9.06455987,25.862075 8.6243521,24.8436401 7.84313833,24.0227198 C8.03534172,23.8745838 8.91575724,23.1030422 9.15756151,22.9549062 C9.74037179,22.7141852 10.4223838,22.5660492 11.3027993,22.5660492 C13.6898414,22.4672919 15.7420776,21.5476143 17.5463095,19.7514654 C19.3505413,17.9553165 20.2743576,15.2826964 20.3735593,12.9557268 L20.3239584,12.9557268 C21.7499836,12.0792556 22.68,10.6719637 22.68,9.02395076 Z M4.58808092,1.78997655 C6.1009076,1.78997655 7.31612903,3.04913247 7.31612903,4.50580305 C7.31612903,5.96247362 6.05130672,7.22162954 4.58808092,7.22162954 C3.12485511,7.22162954 1.8600328,5.96247362 1.8600328,4.50580305 C1.8600328,3.04913247 3.12485511,1.78997655 4.58808092,1.78997655 Z M4.58808092,29.7506448 C3.07525424,29.7506448 1.8600328,28.4914889 1.8600328,27.0348183 C1.8600328,25.5781477 3.12485511,24.3189918 4.58808092,24.3189918 C6.05130672,24.3189918 7.31612903,25.5781477 7.31612903,27.0348183 C7.26652816,28.5408675 6.05130672,29.7506448 4.58808092,29.7506448 Z M18.14152,11.7397773 C16.6286933,11.7397773 15.4134718,10.4806213 15.4134718,9.02395076 C15.4134718,7.56728019 16.6782941,6.30812427 18.14152,6.30812427 C19.6047458,6.30812427 20.8695907,7.56728019 20.8695907,9.02395076 C20.8757682,10.4806213 19.6047458,11.7397773 18.14152,11.7397773 Z" transform="translate(13 9)"/>
</svg>
