<?xml version="1.0" encoding="utf-8"?>
<!-- Generator: Adobe Illustrator 26.2.0, SVG Export Plug-In . SVG Version: 6.00 Build 0)  -->
<svg version="1.1" id="a" xmlns="http://www.w3.org/2000/svg" xmlns:xlink="http://www.w3.org/1999/xlink" x="0px" y="0px"
	 viewBox="0 0 50 50" style="enable-background:new 0 0 50 50;" xml:space="preserve">
<path d="M25,8.9c9.13,0,16.51,7.39,16.51,16.51c0,7.1-4.53,13.4-11.24,15.66c-0.83,0.17-1.13-0.35-1.13-0.78
	c0-0.56,0.02-2.33,0.02-4.54c0-1.55-0.52-2.54-1.11-3.05c3.67-0.41,7.53-1.82,7.53-8.16c0-1.82-0.64-3.28-1.69-4.44
	c0.17-0.41,0.74-2.1-0.17-4.37c0,0-1.38-0.45-4.54,1.69c-1.32-0.37-2.72-0.56-4.13-0.56c-1.4,0-2.81,0.19-4.13,0.56
	c-3.16-2.13-4.54-1.69-4.54-1.69c-0.91,2.27-0.33,3.96-0.17,4.37c-1.05,1.16-1.69,2.64-1.69,4.44c0,6.31,3.84,7.74,7.51,8.16
	c-0.47,0.41-0.91,1.13-1.05,2.21c-0.95,0.43-3.32,1.13-4.81-1.36c-0.31-0.5-1.24-1.71-2.54-1.69c-1.38,0.02-0.56,0.78,0.02,1.09
	c0.7,0.39,1.51,1.86,1.69,2.33c0.33,0.93,1.4,2.7,5.55,1.94c0,1.38,0.02,2.68,0.02,3.07c0,0.43-0.31,0.93-1.13,0.78
	c-6.74-2.24-11.29-8.55-11.28-15.65C8.49,16.28,15.87,8.9,25,8.9z"/>
</svg>
