<svg xmlns="http://www.w3.org/2000/svg" xmlns:xlink="http://www.w3.org/1999/xlink" width="50" height="50" viewBox="0 0 50 50">
  <defs>
    <path id="googlecloud-a" d="M24.847,12.494 C19.2608773,12.3645324 14.3069745,16.0625238 12.8428,21.4549 C12.9117,21.4289 12.7713,21.4718 12.8428,21.4549 C7.8053,24.7712 7.7442,31.9979 12.5217,35.6782 L12.5295,35.6691 L12.5204,35.7081 C14.0464504,36.8601341 15.9084488,37.4794301 17.8205,37.4709 L24.5454,37.4709 L24.5844,37.5099 L31.334,37.5099 C40.0271,37.5788 43.5228,26.3234 36.3195,21.4549 C35.6991333,19.1674498 34.4245803,17.1108155 32.6522,15.5373 L32.5963,15.5932 L32.6041,15.5282 C30.4568083,13.6341884 27.7094888,12.5595707 24.847,12.494 Z M24.3816,17.8838 C25.9988,17.8318 27.655,18.3622 28.9134,19.3788 C30.4818313,20.6878988 31.3720518,22.6375868 31.334,24.6802 L31.334,25.3536 C35.923,25.2626 35.923,32.1942 31.334,32.1045 L24.5831,32.1045 L24.5727,32.1162 L24.5727,32.0642 L17.8205,32.0642 C17.3421432,32.064199 16.8692773,31.9622692 16.4334,31.7652 L16.4347,31.7652 C15.0674221,31.1460936 14.2730367,29.6986747 14.4850457,28.2128101 C14.6970546,26.7269454 15.8645454,25.5594546 17.3504101,25.3474457 C18.8362747,25.1354367 20.2836936,25.9298221 20.9028,27.2971 L24.8197,23.3815 C23.5181482,21.6848868 21.6416387,20.5221814 19.543,20.112 C19.5664,20.099 19.595,20.0782 19.6132,20.0821 C20.8411238,18.7348903 22.5622516,17.9423274 24.3842,17.8851 L24.3816,17.8838 Z"/>
  </defs>
  <use xlink:href="#googlecloud-a"/>
</svg>
