<svg xmlns="http://www.w3.org/2000/svg" xmlns:xlink="http://www.w3.org/1999/xlink" width="50" height="50" viewBox="0 0 50 50">
  <defs>
    <path id="grafana-a" d="M41.4985,22.939 C41.434,22.3315 41.3395,21.6295 41.1475,20.863 C40.9555,20.0965 40.636,19.2655 40.2205,18.3715 C39.7735,17.509 39.2305,16.582 38.4955,15.7195 C38.2075,15.3685 37.888,15.049 37.5685,14.698 C38.08,12.685 36.961,10.9285 36.961,10.9285 C35.0125,10.801 33.799,11.536 33.352,11.8555 C33.2875,11.824 33.193,11.791 33.1285,11.7595 C32.809,11.632 32.458,11.5045 32.107,11.3755 C31.756,11.2795 31.4035,11.152 31.0525,11.0875 C30.7015,10.9915 30.3175,10.9285 29.935,10.864 C29.8705,10.864 29.8075,10.8325 29.743,10.8325 C28.912,8.149 26.485,7 26.485,7 C23.7055,8.7895 23.1625,11.185 23.1625,11.185 C23.1625,11.185 23.1625,11.2495 23.131,11.3125 C22.972,11.344 22.843,11.4085 22.684,11.44 C22.492,11.5045 22.2685,11.5675 22.0765,11.6635 C21.8845,11.7595 21.661,11.8225 21.469,11.9185 C21.0535,12.1105 20.671,12.3025 20.2555,12.526 C19.8711259,12.7410861 19.4981281,12.9758995 19.138,13.2295 C19.0735,13.198 19.042,13.165 19.042,13.165 C15.304,11.728 11.983,13.453 11.983,13.453 C11.695,17.446 13.4845,19.9375 13.8355,20.3845 C13.7395,20.6395 13.6765,20.863 13.5805,21.1195 C13.2957967,22.026104 13.0924918,22.9562866 12.973,23.899 C12.9415,24.0265 12.9415,24.187 12.9085,24.3145 C9.4585,26.008 8.437,29.521 8.437,29.521 C11.3125,32.8435 14.698,33.0355 14.698,33.0355 C15.1209824,33.8026641 15.6130183,34.5296724 16.168,35.2075 C16.3915,35.4955 16.6465,35.7505 16.903,36.0385 C15.8485,39.0415 17.062,41.5645 17.062,41.5645 C20.2885,41.692 22.396,40.159 22.843,39.808 L23.8015,40.096 C24.7915,40.351 25.8145,40.5115 26.8045,40.543 L28.114,40.543 C29.6155,42.715 32.299,43.003 32.299,43.003 C34.183,40.99 34.312,39.0415 34.312,38.5945 L34.312,38.563 L34.312,38.4985 L34.312,38.4025 C34.696,38.1145 35.0785,37.828 35.4625,37.5085 C36.229,36.838 36.868,36.0385 37.4425,35.209 C37.507,35.1445 37.5385,35.05 37.6015,34.9855 C39.742,35.113 41.2435,33.6445 41.2435,33.6445 C40.8925,31.408 39.6145,30.322 39.3595,30.13 L39.328,30.0985 L39.2965,30.067 L39.265,30.0355 C39.265,29.908 39.2965,29.7805 39.2965,29.62 C39.328,29.365 39.328,29.1415 39.328,28.885 L39.328,28.5655 L39.328,28.15 L39.328,27.958 C39.328,27.8935 39.328,27.8305 39.2965,27.766 L39.232,27.382 C39.2005,27.127 39.136,26.9035 39.1045,26.647 C38.881859,25.7022273 38.515599,24.7972008 38.0185,23.9635 C37.5182469,23.1563194 36.905028,22.4249018 36.1975,21.7915 C35.5117664,21.1853537 34.7360128,20.6894382 33.898,20.3215 C33.1010327,19.95087 32.2487593,19.7132266 31.375,19.618 C30.9595,19.5535 30.5125,19.5535 30.097,19.5535 L29.905,19.5535 L29.458,19.5535 C29.2345,19.585 29.011,19.618 28.819,19.6495 C27.9565,19.8085 27.1585,20.128 26.455,20.5435 C25.7515,20.959 25.1455,21.502 24.634,22.108 C24.1382635,22.6843338 23.7487254,23.34406 23.4835,24.0565 C23.2285,24.727 23.068,25.462 23.0365,26.1325 L23.0365,26.899 C23.0365,26.995 23.0365,27.058 23.068,27.154 C23.167328,28.1377517 23.5317816,29.0761032 24.1225,29.869 C24.5065,30.3805 24.9205,30.763 25.4005,31.0825 C25.879,31.402 26.359,31.6255 26.8705,31.786 C27.382,31.9465 27.8605,32.0095 28.3075,31.978 L28.9765,31.978 C29.041,31.978 29.104,31.9465 29.1355,31.9465 C29.2,31.9465 29.2315,31.915 29.2945,31.915 C29.3905,31.8835 29.518,31.8505 29.614,31.819 C29.806,31.7545 29.998,31.66 30.1885,31.5955 C30.3805,31.4995 30.5395,31.4035 30.667,31.3075 C30.6985,31.276 30.763,31.243 30.7945,31.2115 C30.871934,31.1529706 30.9224518,31.0656522 30.9345956,30.9693493 C30.9467393,30.8730464 30.9194799,30.7759203 30.859,30.7 C30.7325824,30.57607 30.5449377,30.5384234 30.3805,30.604 C30.349,30.6355 30.316,30.6355 30.253,30.6685 C30.1203855,30.7357583 29.9811367,30.7890449 29.8375,30.8275 C29.6785,30.859 29.518,30.9235 29.359,30.955 C29.263,30.955 29.2,30.9865 29.104,30.9865 L28.5625,30.9865 C28.5625,30.9865 28.531,30.9865 28.5625,30.9865 L28.4335,30.9865 C28.4005,30.9865 28.3375,30.9865 28.306,30.955 C27.955,30.8905 27.571,30.796 27.22,30.6355 C26.869,30.475 26.5165,30.2515 26.23,29.965 C25.9105,29.677 25.6555,29.3575 25.432,28.975 C25.2085,28.5925 25.081,28.177 25.0165,27.7615 C24.985,27.538 24.952,27.3145 24.985,27.091 L24.985,26.899 C24.985,26.9305 24.985,26.899 24.985,26.899 L24.985,26.8345 L24.985,26.7385 C24.985,26.611 25.0165,26.515 25.0495,26.3875 C25.2181673,25.3999709 25.6998693,24.4928355 26.4235,23.8 C26.6155,23.608 26.8075,23.449 27.031,23.3215 C27.2545,23.1625 27.478,23.0335 27.7015,22.9375 C27.925,22.8415 28.18,22.7455 28.4365,22.6825 C28.6915,22.618 28.948,22.555 29.203,22.555 C29.3305,22.555 29.458,22.5235 29.587,22.5235 L29.842,22.5235 C29.8735,22.5235 29.842,22.5235 29.842,22.5235 L29.9695,22.5235 C30.8217444,22.5946581 31.6493278,22.8451311 32.398,23.2585 C33.4195,23.833 34.282,24.6955 34.7935,25.75 C35.0485,26.2615 35.2405,26.836 35.3365,27.4435 C35.368,27.6025 35.368,27.7315 35.401,27.8905 L35.401,28.7215 C35.401,28.8805 35.3695,29.041 35.3695,29.2 C35.338,29.359 35.338,29.5195 35.305,29.6785 L35.209,30.157 C35.1775,30.316 35.017,30.7645 34.921,31.084 C34.825,31.4035 34.378,32.266 33.994,32.7775 C33.2180317,33.8391024 32.1845784,34.6856875 30.991,35.2375 C30.3835,35.4925 29.7775,35.716 29.1385,35.812 C28.8229958,35.8758503 28.5019003,35.9080101 28.18,35.908 L27.7015,35.908 C27.733,35.908 27.7015,35.908 27.7015,35.908 L27.67,35.908 C27.511,35.908 27.319,35.908 27.1585,35.8765 C26.455,35.812 25.7845,35.6845 25.114,35.4925 C24.4435,35.3005 23.8045,35.0455 23.197,34.726 C21.9799447,34.0710373 20.9051395,33.1808049 20.035,32.107 C19.6195,31.564 19.237,30.9895 18.9175,30.382 C18.598,29.7745 18.3745,29.1355 18.1825,28.498 C17.9957123,27.8534857 17.8884165,27.1885538 17.863,26.518 L17.863,25.783 L17.863,25.528 C17.863,25.2085 17.8945,24.8575 17.959,24.5065 C17.9905,24.1555 18.055,23.836 18.118,23.485 C18.181,23.134 18.277,22.8145 18.373,22.4635 C18.469,22.1125 18.7885,21.154 19.0765,20.5465 C19.651,19.333 20.386,18.247 21.2485,17.3845 C21.472,17.161 21.6955,16.969 21.952,16.777 C22.048,16.681 22.2715,16.489 22.5265,16.33 C22.7815,16.171 23.038,16.0105 23.3245,15.883 C23.452,15.8185 23.5795,15.7555 23.74,15.691 C23.8045,15.6595 23.8675,15.6265 23.9635,15.595 C24.028,15.5635 24.091,15.5305 24.187,15.499 C24.475,15.3715 24.7615,15.2755 25.0495,15.1795 C25.114,15.148 25.2085,15.148 25.273,15.115 C25.3375,15.082 25.432,15.0835 25.4965,15.0505 C25.561,15.0175 25.7845,14.986 25.9435,14.923 C26.008,14.8915 26.1025,14.8915 26.167,14.8585 C26.2315,14.8585 26.326,14.827 26.3905,14.827 C26.455,14.827 26.5495,14.7955 26.614,14.7955 L26.869,14.731 C26.9335,14.731 27.028,14.6995 27.0925,14.6995 C27.1885,14.6995 27.2515,14.668 27.3475,14.668 C27.412,14.668 27.5395,14.6365 27.6025,14.6365 C27.6655,14.6365 27.6985,14.6365 27.7615,14.605 L27.985,14.605 C28.081,14.605 28.144,14.605 28.24,14.5735 L28.3675,14.5735 C28.3675,14.5735 28.399,14.5735 28.3675,14.5735 L29.5495,14.5735 C30.124,14.605 30.7,14.6695 31.243,14.7655 C32.3102594,14.9510498 33.3437182,15.2953675 34.309,15.787 C35.2064894,16.2199033 36.0439869,16.7674784 36.8005,17.416 C36.832,17.4475 36.8965,17.4805 36.928,17.5435 C36.9595,17.575 37.024,17.608 37.0555,17.671 C37.1515,17.7355 37.2145,17.83 37.3105,17.8945 C37.4065,17.959 37.4695,18.0535 37.5655,18.118 C37.63,18.214 37.7245,18.277 37.789,18.373 C38.6412401,19.2480784 39.3526864,20.2499728 39.898,21.343 C39.9295,21.3745 39.9295,21.4075 39.9625,21.4705 C39.994,21.502 39.994,21.535 40.027,21.598 C40.06,21.661 40.0915,21.757 40.1545,21.8215 C40.186,21.886 40.219,21.9805 40.2505,22.045 C40.282,22.1095 40.315,22.204 40.3465,22.2685 C40.474,22.5565 40.57,22.843 40.666,23.131 C40.825,23.578 40.921,23.962 41.017,24.2815 C41.0533046,24.4112947 41.1702558,24.5020537 41.305,24.505 C41.464,24.505 41.56,24.3775 41.56,24.217 C41.5285,23.833 41.5285,23.419 41.4955,22.939 L41.4985,22.939 Z"/>
  </defs>
  <use xlink:href="#grafana-a"/>
</svg>
