<svg xmlns="http://www.w3.org/2000/svg" xmlns:xlink="http://www.w3.org/1999/xlink" width="50" height="50" viewBox="0 0 50 50">
  <defs>
    <path id="graphcms-a" d="M27.1197772,7.94707521 L39.1949861,14.9665738 C40.3649025,15.6350975 41.0752089,16.8885794 41.0752089,18.2256267 L41.0752089,32.2228412 C41.0752089,33.5598886 40.3649025,34.8133705 39.1949861,35.4818942 L27.1615599,42.45961 C25.9916435,43.1281337 24.5710306,43.1281337 23.4011142,42.45961 C22.3507006,41.8526236 21.5628904,41.3973838 21.0376837,41.0938906 C18.8795107,39.8467803 15.6422512,37.9761148 11.3259053,35.4818942 C10.1559889,34.8133705 9.44568245,33.5598886 9.44568245,32.2228412 L9.44568245,18.183844 C9.44568245,16.8467967 10.1559889,15.5933148 11.3259053,14.9247911 C11.3259053,14.9665738 23.3593315,7.94707521 23.3593315,7.94707521 C24.5292479,7.27855153 25.9498607,7.27855153 27.1197772,7.94707521 Z M25.908078,10.2451253 C25.5320334,10.0362117 25.0306407,10.0362117 24.6545961,10.2451253 L24.6545961,10.2451253 L12.7465181,17.1810585 C12.5376045,17.264624 12.4122563,17.4317549 12.2869081,17.5988858 L12.2956825,17.5866825 L12.2451253,17.5571031 C12.1615599,17.724234 12.0779944,17.8913649 12.0779944,18.0584958 L12.0779944,32.1810585 C12.1615599,32.5988858 12.3704735,32.9331476 12.7047354,33.1002786 L13.0389972,33.2674095 L17.5933148,35.8997214 C17.6768802,35.9415042 17.7604457,35.8997214 17.8022284,35.816156 C17.8022284,35.7743733 17.8440111,35.7325905 17.8440111,35.6908078 L17.8440111,33.2256267 C17.8440111,33.1420613 17.8022284,33.1002786 17.718663,33.0584958 L14.6267409,31.2618384 C14.5431755,31.2200557 14.5013928,31.1364903 14.5013928,31.0947075 L14.5013928,23.1142061 C14.5013928,22.9888579 14.5849582,22.9052925 14.7103064,22.9052925 C14.7520891,22.9052925 14.7938719,22.9052925 14.8356546,22.9470752 L17.5097493,24.4930362 C17.5933148,24.5348189 17.718663,24.5348189 17.8022284,24.4094708 C17.8022284,24.367688 17.8440111,24.3259053 17.8440111,24.2841226 L17.8440111,20.9415042 C17.8440111,20.9040324 17.8440111,20.8665606 17.8741496,20.8290887 L17.9275766,20.8579387 C17.9275766,20.816156 17.9275766,20.816156 17.9693593,20.816156 L17.9693593,20.816156 L30.7548747,13.4206128 C30.8802228,13.3370474 30.8802228,13.2116992 30.8384401,13.1281337 C30.7966574,13.086351 30.7966574,13.0445682 30.7548747,13.0445682 L30.7548747,13.0445682 Z M32.6696988,20.9695769 L32.718663,21.0250696 L32.718663,30.0083565 C32.718663,30.0501393 32.7604457,30.091922 32.7604457,30.1337047 C32.8300836,30.2381616 32.9287372,30.255571 33.008047,30.2342928 L33.0529248,30.2172702 L35.7270195,28.6713092 C35.7688022,28.6295265 35.810585,28.6295265 35.8523677,28.6295265 C35.9568245,28.6295265 36.0322656,28.687558 36.054511,28.7794413 L36.0612813,28.8384401 L36.0612813,31.2200557 C36.0612813,31.2513928 36.0377786,31.3062326 35.990773,31.349321 L35.9359331,31.3871866 L32.8440111,33.183844 C32.781337,33.2151811 32.7421657,33.2465181 32.7264972,33.2954822 L32.718663,33.3509749 L32.718663,35.6490251 C32.718663,35.6908078 32.7604457,35.7325905 32.7604457,35.7743733 C32.8300836,35.8788301 32.9287372,35.8962396 33.008047,35.8749613 L33.0529248,35.8579387 L37.8579387,33.0584958 C38.1963788,32.8704735 38.4332869,32.5132312 38.4772841,32.1086072 L38.4846797,31.9721448 L38.4846797,24.4512535 C38.4846797,24.4094708 38.4428969,24.367688 38.4428969,24.3259053 C38.3732591,24.2214485 38.2746054,24.204039 38.1952956,24.2253172 L38.1504178,24.2423398 L35.4763231,25.7883008 C35.4345404,25.8300836 35.3927577,25.8300836 35.3509749,25.8300836 C35.2465181,25.8300836 35.1710771,25.772052 35.1488316,25.6801687 L35.1420613,25.6211699 L35.1420613,23.281337 C35.1420613,23.2479109 35.1420613,23.1877437 35.1848468,23.1436212 L35.2256267,23.1142061 L38.3175487,21.3175487 C38.3488858,21.2862117 38.3802228,21.2548747 38.3939328,21.2059105 L38.4011142,21.1504178 L38.4011142,18.183844 C38.4011142,17.9749304 38.3175487,17.7660167 38.2339833,17.5988858 L38.1581058,17.4785515 C38.0551532,17.3247911 37.9415042,17.1977716 37.7743733,17.097493 L37.7743733,17.097493 L32.7604457,14.1727019 C32.6768802,14.1309192 32.6350975,14.1309192 32.551532,14.1727019 L32.551532,14.1727019 L27.1615599,17.3064067 C27.1197772,17.3481894 27.0779944,17.3481894 27.0779944,17.3899721 C27.0362117,17.5153203 27.0779944,17.6406685 27.1615599,17.6824513 L27.1615599,17.6824513 L32.551532,20.816156 L32.5933148,20.8579387 C32.6246518,20.8892758 32.6324861,20.9206128 32.6696988,20.9695769 Z M30.9213527,21.8117601 C30.9193942,21.7980501 30.9115599,21.7667131 30.8802228,21.735376 L30.8802228,21.735376 L25.3231198,18.5181058 C25.2395543,18.4763231 25.1977716,18.4763231 25.1142061,18.5181058 L25.1142061,18.5181058 L19.5571031,21.735376 L19.5153203,21.7771588 L19.5446825,21.7936825 L19.5277004,21.8189415 C19.5153203,21.8467967 19.5153203,21.8746518 19.5153203,21.902507 L19.5153203,36.902507 C19.5153203,36.9442897 19.5153203,36.9860724 19.5571031,37.0278552 L21.6880223,38.2395543 C21.729805,38.2395543 21.729805,38.281337 21.7715877,38.281337 C21.8969359,38.281337 21.9805014,38.1977716 21.9805014,38.0724234 L21.9805014,30.3008357 C21.9805014,30.2590529 21.9805014,30.2172702 22.0222841,30.1754875 C22.0640669,30.091922 22.189415,30.0501393 22.3147632,30.091922 L25.1977716,31.7632312 L25.2395543,31.7926339 L25.2395543,31.8467967 C25.2674095,31.8467967 25.2766945,31.8282266 25.2921696,31.8158465 L25.3231198,31.8050139 L28.2061281,30.1337047 C28.2479109,30.091922 28.2896936,30.091922 28.3314763,30.091922 C28.4359331,30.091922 28.5113742,30.1499536 28.5336196,30.2418369 L28.54039,30.3008357 L28.54039,38.1142061 C28.54039,38.1559889 28.5821727,38.1977716 28.5821727,38.2395543 C28.6518106,38.3440111 28.7504643,38.3614206 28.8297741,38.3401424 L28.8746518,38.3231198 L30.8802228,37.1532033 C30.9428969,37.1218663 30.9820682,37.0905292 30.9977368,37.0415651 L31.005571,36.9860724 L31.005571,21.9860724 C31.005571,21.9233983 30.9820682,21.884227 30.9526898,21.8509314 L30.9220056,21.8189415 Z"/>
  </defs>
  <use xlink:href="#graphcms-a"/>
</svg>
