<svg xmlns="http://www.w3.org/2000/svg" xmlns:xlink="http://www.w3.org/1999/xlink" width="50" height="50" viewBox="0 0 50 50">
  <defs>
    <path id="hashicorpvault-a" d="M25.0054054,25.6648649 C25.5162162,25.6648649 25.8993243,25.2391892 25.8993243,24.7709459 C25.8993243,24.3027027 25.5162162,23.877027 25.0054054,23.877027 C24.4945946,23.877027 24.1114865,24.3027027 24.1114865,24.7709459 C24.1114865,25.2391892 24.4945946,25.6648649 25.0054054,25.6648649 Z M22.3236486,23.1959459 C22.8344595,23.1959459 23.2175676,22.7702703 23.2175676,22.302027 C23.2175676,21.7912162 22.8344595,21.4081081 22.3236486,21.4081081 C21.8128378,21.4081081 21.4297297,21.8337838 21.4297297,22.302027 C21.4297297,22.8128378 21.8128378,23.1959459 22.3236486,23.1959459 L22.3236486,23.1959459 Z M25.0054054,23.1959459 C25.5162162,23.1959459 25.8993243,22.7702703 25.8993243,22.302027 C25.8993243,21.7912162 25.5162162,21.4081081 25.0054054,21.4081081 C24.4945946,21.4081081 24.1114865,21.8337838 24.1114865,22.302027 C24.1114865,22.8128378 24.4945946,23.1959459 25.0054054,23.1959459 Z M27.6871622,23.1959459 C28.197973,23.1959459 28.5810811,22.7702703 28.5810811,22.302027 C28.5810811,21.7912162 28.197973,21.4081081 27.6871622,21.4081081 C27.1763514,21.4081081 26.7932432,21.8337838 26.7932432,22.302027 C26.7932432,22.8128378 27.2189189,23.1959459 27.6871622,23.1959459 Z M22.3236486,20.7695946 C22.8344595,20.7695946 23.2175676,20.3439189 23.2175676,19.8756757 C23.2175676,19.3648649 22.8344595,18.9817568 22.3236486,18.9817568 C21.8128378,18.9817568 21.4297297,19.4074324 21.4297297,19.8756757 C21.4297297,20.3864865 21.8128378,20.7695946 22.3236486,20.7695946 Z M25.0054054,20.7695946 C25.5162162,20.7695946 25.8993243,20.3439189 25.8993243,19.8756757 C25.8993243,19.3648649 25.5162162,18.9817568 25.0054054,18.9817568 C24.4945946,18.9817568 24.1114865,19.4074324 24.1114865,19.8756757 C24.1114865,20.3864865 24.4945946,20.7695946 25.0054054,20.7695946 Z M27.6871622,20.7695946 C28.197973,20.7695946 28.5810811,20.3439189 28.5810811,19.8756757 C28.5810811,19.3648649 28.197973,18.9817568 27.6871622,18.9817568 C27.1763514,18.9817568 26.7932432,19.4074324 26.7932432,19.8756757 C26.7932432,20.3864865 27.2189189,20.7695946 27.6871622,20.7695946 Z M25.0054054,18.3432432 C25.5162162,18.3432432 25.8993243,17.9175676 25.8993243,17.4493243 C25.8993243,16.9385135 25.5162162,16.5554054 25.0054054,16.5554054 C24.4945946,16.5554054 24.1114865,16.9810811 24.1114865,17.4493243 C24.1114865,17.9175676 24.4945946,18.3432432 25.0054054,18.3432432 Z M27.6871622,18.3432432 C28.197973,18.3432432 28.5810811,17.9175676 28.5810811,17.4493243 C28.5810811,16.9385135 28.197973,16.5554054 27.6871622,16.5554054 C27.1763514,16.5554054 26.7932432,16.9810811 26.7932432,17.4493243 C26.7932432,17.9175676 27.2189189,18.3432432 27.6871622,18.3432432 Z M22.3236486,18.3432432 C22.8344595,18.3432432 23.2175676,17.9175676 23.2175676,17.4493243 C23.2175676,16.9385135 22.8344595,16.5554054 22.3236486,16.5554054 C21.8128378,16.5554054 21.4297297,16.9810811 21.4297297,17.4493243 C21.4297297,17.9175676 21.8128378,18.3432432 22.3236486,18.3432432 Z M24.6648649,40.6486486 L9,10 L40.3297297,10 L24.6648649,40.6486486 Z"/>
  </defs>
  <use xlink:href="#hashicorpvault-a"/>
</svg>
