<svg xmlns="http://www.w3.org/2000/svg" width="50" height="50" viewBox="0 0 50 50">
  <path d="M18.3466797,34 L14.6113281,34 L14.6113281,16.0068359 L18.3466797,16.0068359 L18.3466797,34 Z M25.5,19.1318359 L25.5,30.875 L28.9667969,30.875 C30.7408943,30.875 31.9778611,30.0001715 32.6777344,28.2504883 C33.0602233,27.290197 33.2514648,26.1468165 33.2514648,24.8203125 C33.2514648,22.9892487 32.9646025,21.5834196 32.3908691,20.6027832 C31.8171358,19.6221468 30.6757898,19.1318359 28.9667969,19.1318359 L25.5,19.1318359 Z M29.6015625,16.0068359 C30.7164769,16.0231121 31.644202,16.1533191 32.3847656,16.3974609 C33.6461652,16.8125021 34.6674766,17.5733994 35.4487305,18.6801758 C36.0753612,19.5753625 36.502603,20.5437773 36.7304688,21.5854492 C36.9583345,22.6271211 37.0722656,23.6199497 37.0722656,24.5639648 C37.0722656,26.9565549 36.5921272,28.9829019 35.6318359,30.6430664 C34.3297461,32.8810333 32.319675,34 29.6015625,34 L21.8500977,34 L21.8500977,16.0068359 L29.6015625,16.0068359 Z"/>
</svg>
