<svg xmlns="http://www.w3.org/2000/svg" xmlns:xlink="http://www.w3.org/1999/xlink" width="50" height="50" viewBox="0 0 50 50">
  <defs>
    <path id="ionic-a" d="M38.7986,18.1351 L38.6647,17.8361 L38.445,18.0805 C37.9146,18.6837 37.2386,19.1465 36.4885,19.4273 L36.2818,19.5066 L36.3676,19.7081 C37.0129093,21.2563889 37.3443192,22.9174153 37.3426,24.5948 C37.3426,31.6213 31.6265,37.3426 24.5948,37.3426 C17.5631,37.3426 11.8522,31.6265 11.8522,24.6 C11.8522,17.5735 17.5748,11.8522 24.6,11.8522 C26.5071,11.8522 28.3479,12.2669 30.06,13.0833 L30.2615,13.1808 L30.3473,12.9793 C30.664397,12.2412758 31.1581703,11.5925845 31.7851,11.0904 L32.0412,10.8837 L31.7487,10.7316 C29.5398559,9.58895924 27.0881827,8.99543851 24.6013,9.001257 C15.9966,9.001257 9.0013,15.9966 9.0013,24.6013 C9.0013,33.206 15.9966,40.2013 24.6013,40.2013 C33.206,40.2013 40.2013,33.206 40.2013,24.6013 C40.2013,22.3523 39.732,20.1774 38.7999,18.1364 L38.7986,18.1351 Z M24.6,17.489 C20.6744851,17.4932988 17.4932988,20.6744851 17.489,24.6 C17.4932988,28.5255149 20.6744851,31.7067012 24.6,31.711 C28.5255149,31.7067012 31.7067012,28.5255149 31.711,24.6 C31.7045585,20.6753744 28.5246256,17.4954415 24.6,17.489 Z M38.0485,14.8799 C38.0485,16.0382265 37.4305402,17.1085644 36.4274,17.6877276 C35.4242598,18.2668909 34.1883402,18.2668909 33.1852,17.6877276 C32.1820598,17.1085644 31.5641,16.0382265 31.5641,14.8799 C31.5641,13.0892824 33.0156824,11.6377001 34.8063,11.6377001 C36.5969176,11.6377001 38.0485,13.0892824 38.0485,14.8799 L38.0485,14.8799 Z"/>
  </defs>
  <use xlink:href="#ionic-a"/>
</svg>
