<svg xmlns="http://www.w3.org/2000/svg" xmlns:xlink="http://www.w3.org/1999/xlink" width="50" height="50" viewBox="0 0 50 50">
  <defs>
    <path id="java-a" d="M18.3153467,32.036862 L18.3153467,38.0802351 C18.3153467,39.2967525 18.1976156,39.7676573 17.8836617,40.2385848 C17.5697183,40.7094821 17.0987931,41.0626898 16.5101866,41.2588794 L16.0000091,40.6309866 C16.3924245,40.3955402 16.7848731,40.0423794 16.9418263,39.7284285 C17.0987953,39.4537283 17.1380657,39.0612812 17.1380657,38.158723 L17.1380657,32.036862 L18.3153467,32.036862 Z M21.4155152,33.8420206 C22.7236255,33.8420206 23.2842388,34.4471017 23.3346643,35.3522387 L23.3384314,35.4902215 L23.3384314,39.3360063 L22.47509,39.3360063 L22.3965975,38.7473522 C21.9256927,39.1397676 21.4155121,39.4537215 20.7483966,39.4537215 C19.6888346,39.4537215 19.1001957,38.9043212 19.1001957,37.9624889 C19.1001957,36.8699886 19.8958469,36.1752986 21.626045,36.1214714 L21.8471972,36.1180984 L22.2396126,36.1180984 L22.2396126,35.6079367 C22.2396126,34.9800432 21.8864351,34.6660893 21.1408271,34.6660893 C20.6362684,34.6660893 20.1605475,34.7814251 19.7630961,34.9132275 L19.5711217,34.9800432 L19.3748822,34.2736739 C19.963534,34.0382283 20.6306662,33.8420206 21.4155152,33.8420206 Z M31.4616587,33.8420206 C32.7697547,33.8420206 33.3303673,34.4471017 33.3807927,35.3522387 L33.3845598,35.4902215 L33.3845598,39.3360063 L32.5212381,39.3360063 L32.4427456,38.7473522 C31.9718257,39.1397676 31.4616625,39.4537215 30.7552932,39.4537215 C29.6957441,39.4537215 29.1463438,38.9043212 29.1463438,37.9624889 C29.1463438,36.8699886 29.941995,36.1752986 31.6721931,36.1214714 L31.8933453,36.1180984 L32.2857607,36.1180984 L32.2857607,35.6079367 C32.2857607,34.9800432 31.9325832,34.6660893 31.1869752,34.6660893 C30.68241,34.6660893 30.2066905,34.7814251 29.7845195,34.9132275 L29.5780107,34.9800432 L29.4210258,34.2736739 C30.0096776,34.0382283 30.6767947,33.8420206 31.4616587,33.8420206 Z M25.1828294,33.9597373 L26.2031345,37.2561241 L26.4385809,38.2371928 C26.9487425,36.8244707 27.341192,35.3724594 27.4981602,33.9597373 L28.6754412,33.9597373 C28.3615024,35.7256701 27.8121195,37.648541 27.0272554,39.3360085 L25.6537191,39.3360085 L24.0055333,33.9597373 L25.1828294,33.9597373 Z M22.2396156,36.8244715 L21.7687184,36.8244715 C20.5129517,36.8244715 20.1990129,37.2168877 20.1990129,37.7663038 C20.1990129,38.3157019 20.5129525,38.6296407 21.0230831,38.6296407 C21.3664612,38.6296407 21.7398923,38.4793949 22.0907724,38.2052326 L22.2396156,38.0802253 L22.2396156,36.8244715 Z M32.2857592,36.8244715 L31.8148468,36.8244715 C30.5590802,36.8244715 30.2451414,37.2168877 30.2451414,37.7663038 C30.2451414,38.3157019 30.5590809,38.6296407 31.0692116,38.6296407 C31.4126028,38.6296407 31.7860356,38.4793949 32.136916,38.2052326 L32.2857592,38.0802253 L32.2857592,36.8244715 Z M33.8161233,28.2705733 C33.6570732,30.2710718 27.1835012,30.7025649 22.9459819,30.4278952 C20.1597357,30.2709239 19.6103513,29.8000001 19.6103513,29.8000001 C22.2396436,30.2316852 26.7132886,30.3101784 30.323627,29.6430311 C33.2218109,29.1063605 33.7385019,28.406538 33.8071189,28.2872182 Z M20.2381609,27.0137932 C20.2381609,27.0137932 19.9634736,27.0137932 19.4533119,27.1315084 C18.943182,27.2099888 17.3734728,27.7201648 18.1975581,28.0733257 C20.5521201,29.0936308 28.950093,28.8581897 31.5793626,28.0733257 C32.9921021,27.6416882 32.3249707,27.092272 32.3249707,27.092272 C34.7580099,28.1910681 27.0271541,30.3886527 17.6481427,28.8581837 C14.2340468,28.3087834 19.3356178,26.3859004 20.2381609,27.0137932 Z M22.082636,25.169371 L22.0556582,25.1871332 C21.917157,25.2825946 21.3440231,25.7355894 22.7105167,25.8757403 C24.5549072,26.1111867 25.5359986,26.0719798 27.5766088,25.6795326 C27.5766088,25.6795326 28.1260092,26.0327093 28.8716141,26.3074254 C24.2802221,28.2695628 18.4723052,26.1896632 22.082636,25.169371 Z M21.4920091,22.6189992 C21.4939857,22.6186043 20.5129321,23.364204 22.043386,23.52117 C24.0447826,23.7174095 25.614488,23.7566164 28.3222229,23.2072312 C28.3222229,23.2072312 28.6754155,23.5996625 29.2640401,23.7958853 C23.8026907,25.422681 17.6914027,23.9910581 21.3447183,22.6706603 L21.4920091,22.6189992 Z M30.0881943,24.345269 C30.0881943,24.345269 30.1274012,24.3060303 30.1666708,24.2275379 C34.5618385,21.951457 32.5212358,19.7538785 31.1084835,20.0285938 C30.7552909,20.1070703 30.5983219,20.1855628 30.5983219,20.1855628 C30.5983219,20.1855628 30.716053,19.9501013 30.9907373,19.871624 C33.7769903,18.8905401 35.9745764,22.8147999 30.0881943,24.345269 Z M21.4940235,22.6186043 L21.4920091,22.6189992 L21.4939857,22.6186043 L21.4940235,22.6186043 Z M22.5142606,19.9501005 C22.5142833,19.9500983 18.2368429,20.9704034 20.9838445,21.3235839 C22.1611254,21.4805371 24.4764359,21.4413309 26.6348007,21.2843453 C28.4007033,21.1273762 30.1666512,20.8134374 30.1666512,20.8134374 C30.1666512,20.8134374 29.5387584,21.0881217 29.1070718,21.3628536 C24.7511587,22.5008604 16.3924373,21.9907146 18.7862357,20.8134374 C20.8268535,19.8323535 22.5142606,19.9501005 22.5142606,19.9501005 Z M30.4413438,11.8268626 C25.3397878,14.7700839 26.2816051,15.6334208 27.4981527,17.3993233 C28.8324019,19.2437441 25.9284472,20.7349767 25.9284472,20.7349767 C25.9284472,20.7349767 27.3804079,19.5576806 26.2424012,18.2626602 C22.3965968,13.8282591 30.4413438,11.8268626 30.4413438,11.8268626 Z M27.4981549,6.99999924 L27.5064399,7.00876846 C27.6574123,7.17199495 29.7674675,9.60083966 25.1828218,13.2003558 C21.3762712,16.2220272 24.319485,17.948701 25.1828218,19.9108309 C22.9459842,17.9094872 21.3370348,16.1435393 22.4358203,14.4953384 C24.0447999,12.0622885 28.4792086,10.8850302 27.4981549,6.99999924 Z"/>
  </defs>
  <use xlink:href="#java-a"/>
</svg>
