<svg xmlns="http://www.w3.org/2000/svg" xmlns:xlink="http://www.w3.org/1999/xlink" width="50" height="50" viewBox="0 0 50 50">
  <defs>
    <path id="jira-a" d="M22.4477646,25.3972333 C23.0920927,25.3972333 23.6144676,25.9196083 23.6144676,26.5639364 L23.6144676,26.5639364 L23.6144676,39.9260604 C20.2678116,39.9197166 17.5577181,37.2060137 17.5555306,33.8594671 L17.5555306,33.8594671 L17.5555306,31.4677641 L15.0705308,31.4677641 C11.7179685,31.4677641 9,28.749905 9,25.3972333 L9,25.3972333 Z M15.6578745,18.7005307 L29.1055297,18.7005307 C29.7069026,18.7005307 30.2020407,19.1556726 30.2653864,19.7402208 L30.2722327,19.8673431 L30.2722327,33.2293577 C26.9987511,33.2293577 24.3297789,30.63823 24.2061715,27.3940736 L24.201702,27.166702 L24.201702,24.7672334 L21.7244678,24.7672334 C18.4508792,24.7650956 15.7836804,22.1721435 15.6621954,18.9279053 L15.6578745,18.7005307 L29.1055297,18.7005307 Z M22.3117021,12 L35.7594667,12 C36.3609417,12 36.8558961,12.4551419 36.9192168,13.0395122 L36.9260604,13.1665937 L36.9260604,26.5290458 C33.6525787,26.526908 30.9853823,23.9339558 30.8637953,20.6897176 L30.8594671,20.4623431 L30.8594671,18.0705308 L28.3822329,18.0705308 C25.1057682,18.0705308 22.4355695,15.4747972 22.3158892,12.2275824 L22.3117021,12 L35.7594667,12 Z"/>
  </defs>
  <use xlink:href="#jira-a"/>
</svg>
