<svg xmlns="http://www.w3.org/2000/svg" xmlns:xlink="http://www.w3.org/1999/xlink" width="50" height="50" viewBox="0 0 50 50">
  <defs>
    <path id="jquery-a" d="M10.9941999,16.6361997 C8.23430003,20.6011996 8.57620002,25.7582994 10.6860999,29.9689992 C10.7341999,30.0716992 10.7874999,30.1691992 10.8394999,30.2666992 C10.8693999,30.3342992 10.9031999,30.3966992 10.9395999,30.4603992 C10.9564999,30.4967992 10.9798999,30.5344992 11.0006999,30.5682992 C11.0344999,30.6358992 11.0708999,30.7008992 11.1059999,30.7658992 L11.3100999,31.1103992 C11.3477999,31.1740992 11.3841999,31.2364992 11.4270999,31.3001992 C11.4985999,31.4223992 11.5830999,31.5432992 11.6571999,31.6654992 C11.6909999,31.7161992 11.7221999,31.7668992 11.7598999,31.8175992 C11.8859778,32.0156333 12.020433,32.2082078 12.1628999,32.3947991 C12.2642999,32.5338991 12.3656999,32.6690991 12.4748999,32.8042991 C12.5099999,32.8536991 12.5489999,32.9030991 12.5853999,32.9524991 L12.8726999,33.3021991 C12.9077999,33.3424991 12.9428999,33.3892991 12.9805999,33.4308991 C13.1079998,33.5842991 13.2431998,33.7337991 13.3783998,33.8845991 C13.3783998,33.8871991 13.3822998,33.8897991 13.3848998,33.8936991 C13.5495377,34.1018867 13.7341505,34.2934661 13.9360998,34.4656991 C14.0400998,34.5722991 14.1440998,34.6788991 14.2545998,34.7828991 L14.3858998,34.908999 C14.5301998,35.044199 14.6744998,35.179399 14.8265998,35.309399 C14.8291998,35.309399 14.8304998,35.311999 14.8330998,35.313299 L14.9071998,35.378299 C15.0397998,35.493999 15.1736998,35.609699 15.3101998,35.716299 L15.4726998,35.852799 C15.5831998,35.941199 15.6975998,36.025699 15.8106998,36.112799 L15.9874997,36.247999 C16.1083997,36.338999 16.2370997,36.428699 16.3605997,36.517099 C16.4060997,36.549599 16.4515997,36.582099 16.4983997,36.611999 L16.5360997,36.641899 L16.9013997,36.882399 L17.0573997,36.986399 C17.2484997,37.108599 17.4382997,37.224299 17.6267997,37.338699 C17.6813997,37.365999 17.7359997,37.395899 17.7866997,37.427099 C17.9270997,37.507699 18.0726997,37.589599 18.2143997,37.6649989 C18.2923997,37.7091989 18.3729997,37.7468989 18.4535997,37.7871989 C18.5510996,37.8417989 18.6524996,37.8950989 18.7564996,37.9496989 C18.7816463,37.9573717 18.8060193,37.967382 18.8292996,37.9795989 C18.8721996,37.9990989 18.9124996,38.0198989 18.9540996,38.0406989 C19.1100996,38.1186989 19.2725996,38.1927989 19.4415996,38.2668989 C19.4727996,38.2798989 19.5065996,38.2928989 19.5403996,38.3110989 C19.7275996,38.3929989 19.9147996,38.4709989 20.1084996,38.5476989 C20.1526996,38.5606989 20.1994996,38.5827989 20.2449996,38.5996989 C20.4204996,38.6659989 20.6011996,38.7335989 20.7792996,38.7972989 L20.8442996,38.8206989 C21.0431996,38.8882989 21.2394996,38.9532989 21.4409995,39.0156989 C21.4877995,39.0286989 21.5358995,39.0455989 21.5852995,39.0585989 C21.7919995,39.1209989 21.9921995,39.1950989 22.2001995,39.2353989 C35.538199,41.6663988 39.4147989,31.2156992 39.4147989,31.2156992 C36.158299,35.456299 30.3797992,36.574299 24.9067994,35.330199 C24.7039994,35.283399 24.5011994,35.218399 24.2970994,35.158599 C24.0497028,35.0855833 23.8039433,35.0071309 23.5599995,34.923299 L23.4793995,34.8920991 C23.3025995,34.8322991 23.1322995,34.7659991 22.9593995,34.6996991 C22.9123953,34.6802031 22.8646971,34.6624247 22.8163995,34.6463991 C22.6252995,34.5696991 22.4393995,34.4903991 22.2547995,34.4084991 C22.2144995,34.3954991 22.1806995,34.3772991 22.1403995,34.3616991 C21.9833412,34.289367 21.8269022,34.2156976 21.6710995,34.1406991 C21.6229995,34.1198991 21.5800995,34.0977991 21.5332995,34.0730991 C21.4110995,34.0158991 21.2888995,33.9508991 21.1692996,33.8884991 C21.0871713,33.8490674 21.0061092,33.8074526 20.9261996,33.7636991 C20.7792996,33.6856991 20.6323996,33.6011991 20.4854996,33.5205991 C20.4412996,33.4893991 20.3905996,33.4633991 20.3398996,33.4347991 C20.1482279,33.3213078 19.9584032,33.2047259 19.7704996,33.0850991 C19.7182253,33.0526016 19.6670628,33.0183487 19.6170996,32.9823991 C19.4791515,32.897366 19.3438859,32.808056 19.2114996,32.7145991 C19.1659996,32.6846991 19.1243996,32.6521991 19.0775996,32.6196991 C18.948466,32.5302609 18.821043,32.4383777 18.6953996,32.3440991 C18.6407996,32.2998991 18.5822996,32.2582991 18.5237997,32.2140991 C18.4093997,32.1243992 18.2936997,32.0385992 18.1792997,31.9436992 L18.0258997,31.8214992 C17.8786697,31.7027313 17.7339056,31.5809387 17.5916997,31.4561992 C17.5769033,31.4417437 17.5608014,31.4286881 17.5435997,31.4171992 L17.0924997,31.0063992 L16.9624997,30.8841992 C16.8558997,30.7762992 16.7466997,30.6722992 16.6374997,30.5656992 L16.5113997,30.4356992 C16.3740705,30.2990538 16.2401299,30.1590447 16.1096997,30.0157992 L16.0901997,29.9949992 C15.9523997,29.8441992 15.8184997,29.6907992 15.6832998,29.5347992 C15.6481998,29.4944992 15.6156998,29.4515992 15.5792998,29.4086993 L15.2854998,29.0485993 C15.1356035,28.8564244 14.9882573,28.6622741 14.8434998,28.4661993 C11.8079999,24.3217994 10.7094999,18.6017996 13.1391998,13.9100998 M19.5572996,13.2964998 C17.5565997,16.1681997 17.6696997,20.0083996 19.2270996,23.0451995 C19.4844831,23.556376 19.7786222,24.0482009 20.1071996,24.5167994 C20.4061996,24.9457994 20.7363996,25.4527994 21.1367996,25.7985994 C21.2758995,25.9571994 21.4266995,26.1105994 21.5839995,26.2652994 L21.7009995,26.3822994 C21.8491995,26.5252994 22.0012995,26.6656994 22.1559995,26.8047993 L22.1754995,26.8216993 C22.3508278,26.9747604 22.5302944,27.1230154 22.7136995,27.2662993 C22.7578995,27.2961993 22.7955995,27.3312993 22.8384995,27.3611993 C23.0204995,27.5015993 23.2037995,27.6367993 23.3935995,27.7706993 L23.4130995,27.7823993 C23.4936995,27.8408993 23.5794995,27.8941993 23.6704995,27.9513993 C23.7068995,27.9747993 23.7484995,28.0059993 23.7874995,28.0293993 C23.9252995,28.1177993 24.0604994,28.2009993 24.1995994,28.2854993 C24.2216994,28.2945993 24.2411994,28.3062993 24.2619994,28.3153993 C24.3789994,28.3868993 24.5063994,28.4557993 24.6285994,28.5194993 C24.6714994,28.5454993 24.7130994,28.5649993 24.7572994,28.5896993 C24.8443994,28.6325993 24.9301994,28.6780993 25.0133994,28.7222993 L25.0549994,28.7404993 C25.2304994,28.8262993 25.4098994,28.9068993 25.5853994,28.9874993 C25.6295994,29.0043993 25.6672994,29.0186993 25.7049994,29.0368993 C25.8492994,29.0992993 25.9961994,29.1590993 26.1404994,29.2149993 C26.2054994,29.2370993 26.2665994,29.2630993 26.3276994,29.2825993 C26.4602994,29.3319993 26.5993994,29.3774993 26.7306993,29.4229993 L26.9126993,29.4814992 C27.1024993,29.5399992 27.2948993,29.6166992 27.4950993,29.6491992 C37.7910989,31.3560992 40.1752989,23.4260995 40.1752989,23.4260995 C38.0289989,26.5148994 33.8754991,27.9864993 29.4489992,26.8372993 C29.2532703,26.7866179 29.059055,26.7302608 28.8665993,26.6682994 C28.8041993,26.6513994 28.7495993,26.6318994 28.6897993,26.6136994 C28.5545993,26.5668994 28.4154993,26.5213994 28.2841993,26.4719994 L28.0969993,26.4017994 C27.9513993,26.3432994 27.8031993,26.2886994 27.6614993,26.2262994 C27.6172993,26.2067994 27.5769993,26.1937994 27.5431993,26.1742994 C27.3611993,26.0923994 27.1778993,26.0117994 27.0010993,25.9246994 L26.7332993,25.7855994 L26.5785994,25.7075994 C26.4589994,25.6451994 26.3484994,25.5801994 26.2340994,25.5125994 C26.2064137,25.4994114 26.1795033,25.484654 26.1534994,25.4683994 C26.0156994,25.3825994 25.8726994,25.2993994 25.7413994,25.2109994 C25.6971994,25.1862994 25.6568994,25.1563994 25.6152994,25.1303994 L25.3448994,24.9535994 C25.1576994,24.8235994 24.9743994,24.6831994 24.7897994,24.5479994 C24.7481994,24.5102994 24.7078994,24.4790994 24.6675994,24.4452994 C22.7214995,22.9151995 21.1861996,20.8234996 20.4581996,18.4548997 C19.6911996,15.9926997 19.8601996,13.2314998 21.1848996,10.9902999 M26.7579993,10.7991999 C25.5775994,12.5307999 25.4644994,14.6809998 26.2769994,16.5906997 C27.1401993,18.6186996 28.9055993,20.2111996 30.9621992,20.9651996 C31.0466992,20.9976996 31.1285992,21.0249996 31.2156992,21.0561996 L31.3300992,21.0912996 C31.4496992,21.1289996 31.5705992,21.1731996 31.6940992,21.2004996 C37.382899,22.2976995 38.9220989,18.2793997 39.3367989,17.6891997 C37.9821989,19.6339996 35.711099,20.1006996 32.9251991,19.4233996 C32.6979039,19.3665987 32.4739558,19.2971574 32.2543991,19.2153996 C31.9814254,19.1194792 31.7136885,19.0092601 31.4522992,18.8851996 C30.9575849,18.6454022 30.4873706,18.358049 30.0482992,18.0271997 C27.5522993,16.1369997 26.0065994,12.5281999 27.6341993,9.58889998"/>
  </defs>
  <use xlink:href="#jquery-a"/>
</svg>
