<svg xmlns="http://www.w3.org/2000/svg" width="50" height="50" viewBox="0 0 50 50">
  <g transform="translate(15 14)">
    <path d="M11.3235294,18.4803922 L11.3235294,2.5 C11.3235294,1.66666667 11.5196078,1.04575163 11.8954248,0.637254902 C12.2712418,0.22875817 12.7614379,0.0163398693 13.3660131,0.0163398693 C13.9869281,0.0163398693 14.4934641,0.22875817 14.869281,0.637254902 C15.245098,1.04575163 15.4411765,1.66666667 15.4411765,2.51633987 L15.4411765,18.496732 C15.4411765,19.3300654 15.245098,19.9673203 14.869281,20.375817 C14.4934641,20.7843137 13.9869281,20.996732 13.3660131,20.996732 C12.7777778,20.996732 12.2875817,20.7843137 11.8954248,20.3594771 C11.5196078,19.9346405 11.3235294,19.3137255 11.3235294,18.4803922 Z"/>
    <path d="M6.09477124,16.503268 L14.0849673,2.66339869 C14.4934641,1.94444444 14.9836601,1.50326797 15.5065359,1.32352941 C16.0457516,1.16013072 16.5686275,1.2254902 17.0915033,1.51960784 C17.630719,1.83006536 17.9575163,2.25490196 18.0882353,2.81045752 C18.2189542,3.36601307 18.0718954,4.00326797 17.6470588,4.72222222 L9.65686275,18.5620915 C9.23202614,19.2973856 8.75816993,19.7385621 8.21895425,19.9019608 C7.67973856,20.0653595 7.14052288,20 6.60130719,19.6895425 C6.09477124,19.3954248 5.76797386,18.9705882 5.65359477,18.4150327 C5.52287582,17.8594771 5.66993464,17.2222222 6.09477124,16.503268 Z"/>
    <path d="M2.58169935,11.9607843 L16.4215686,3.97058824 C17.1405229,3.5620915 17.7777778,3.41503268 18.3169935,3.52941176 C18.872549,3.64379085 19.2973856,3.97058824 19.5915033,4.49346405 C19.9019608,5.03267974 19.9673203,5.57189542 19.8039216,6.11111111 C19.6405229,6.6503268 19.1993464,7.12418301 18.4640523,7.54901961 L4.64052288,15.5228758 C3.90522876,15.9477124 3.26797386,16.0947712 2.72875817,15.9640523 C2.17320261,15.8333333 1.74836601,15.5065359 1.4379085,14.9673203 C1.14379085,14.4607843 1.07843137,13.9215686 1.25816993,13.3823529 C1.42156863,12.8431373 1.8627451,12.369281 2.58169935,11.9607843 Z"/>
    <path d="M2.5,6.0130719 L18.4803922,6.0130719 C19.3137255,6.0130719 19.9346405,6.20915033 20.3431373,6.58496732 C20.751634,6.96078431 20.9640523,7.45098039 20.9640523,8.05555556 C20.9640523,8.67647059 20.751634,9.18300654 20.3431373,9.55882353 C19.9346405,9.93464052 19.3137255,10.130719 18.4640523,10.130719 L2.5,10.130719 C1.66666667,10.130719 1.02941176,9.93464052 0.620915033,9.55882353 C0.212418301,9.18300654 0,8.67647059 0,8.05555556 C0,7.46732026 0.212418301,6.97712418 0.637254902,6.58496732 C1.0620915,6.19281046 1.66666667,6.0130719 2.5,6.0130719 Z"/>
  </g>
</svg>
