<svg xmlns="http://www.w3.org/2000/svg" xmlns:xlink="http://www.w3.org/1999/xlink" width="50" height="50" viewBox="0 0 50 50">
  <defs>
    <path id="kubernetes-a" d="M25.567742,8.02258065 L25.8046296,8.03188471 C26.1199223,8.05655615 26.4318698,8.12973417 26.7270908,8.2447282 L26.9451613,8.33870968 L38.3258065,13.8032258 C39.1645162,14.2016129 39.7695853,14.9115207 40.0325379,15.7883147 L40.0870968,15.9935484 L42.9096774,28.2548387 C43.1193549,29.1564516 42.9396314,30.0970046 42.4066656,30.8414664 L42.2774194,31.0096774 L34.3741935,40.832258 C33.8080645,41.5451613 32.9693548,41.9660139 32.0750165,42.0224984 L31.867742,42.0290323 L19.2,42.0290323 C18.2983871,42.0290323 17.4357143,41.6591014 16.8289335,40.9915569 L16.6935484,40.832258 L8.79032258,31.0096774 C8.20322581,30.2758065 7.96658986,29.3667051 8.1165734,28.4631665 L8.15806452,28.2548387 L10.9806452,15.9935484 C11.1903226,15.0919355 11.7504608,14.3460829 12.5525839,13.9006254 L12.7419355,13.8032258 L24.167742,8.33870968 C24.6193549,8.13548387 25.0935484,8.02258065 25.567742,8.02258065 Z M25.5903226,13.2387097 C25.4096774,13.2387097 25.2290323,13.3290323 25.0935484,13.4645161 C24.9851613,13.5729032 24.920129,13.7101935 24.8984516,13.8648258 L24.8903226,13.983871 L24.8903226,14.1645161 C24.8903226,14.3225806 24.9129032,14.4580645 24.9580645,14.5935484 C24.9806451,14.6612903 24.9806451,14.7290323 25.0032259,14.8193548 L25.0032259,14.8419355 C25.0483871,15.2935484 25.116129,15.7 25.0709677,16.0612903 C25.0483871,16.2193548 24.9580645,16.2870968 24.8903226,16.3548387 L24.8451613,16.4 L24.8225806,16.6935484 C24.416129,16.7387097 24.0096774,16.783871 23.6032259,16.8741935 C21.8645161,17.2580645 20.3290323,18.1387097 19.1322581,19.4032258 L18.9064516,19.2451613 L18.8612903,19.2451613 C18.816129,19.2451613 18.7709677,19.2677419 18.7258065,19.2677419 C18.6580645,19.2677419 18.5903226,19.2451613 18.5225806,19.2 C18.2877419,19.0374194 18.0529032,18.8170323 17.8065032,18.5619613 L17.6193548,18.3645161 C17.5741935,18.3193548 17.5290323,18.2516129 17.4612903,18.2064516 C17.3709677,18.0935484 17.2806452,18.0032258 17.1677419,17.8903226 C17.1451613,17.8677419 17.1,17.8451613 17.0548387,17.8 C17.0397849,17.7849462 17.0247312,17.7799283 17.016368,17.7715651 L17.0096774,17.7548387 C16.8741935,17.6419355 16.6935484,17.5741935 16.5129032,17.5741935 C16.3096774,17.5741935 16.1064516,17.6645161 15.9935484,17.8225806 C15.7903226,18.0867742 15.824871,18.479 16.064271,18.7523387 L16.1516129,18.8387097 L16.1967742,18.8612903 L16.1967742,18.8612903 C16.2419355,18.883871 16.2645161,18.9290323 16.3096774,18.9516129 C16.4451613,19.0419355 16.5580645,19.1096774 16.6935484,19.1774194 C16.7387097,19.1924731 16.783871,19.2175627 16.8290323,19.2459976 L16.8967742,19.2903226 C17.3032258,19.5387097 17.6419355,19.7419355 17.9129032,19.9903226 C18.0258065,20.1032258 18.0258065,20.216129 18.0258065,20.3290323 L18.0258065,20.3741935 L18.2516129,20.5774194 C18.2064516,20.6451613 18.1612903,20.6903226 18.1387097,20.7580645 C17.0096774,22.5419355 16.5806452,24.6419355 16.8741935,26.7193549 L16.5806452,26.8096774 C16.5806452,26.832258 16.5580645,26.832258 16.5580645,26.8548387 C16.5129032,26.9451613 16.4451613,27.0354839 16.3096774,27.1032259 C15.9709677,27.216129 15.5645161,27.2612904 15.0903226,27.3064516 L15.0677419,27.3064516 C15,27.3064516 14.9096774,27.3064516 14.8419355,27.3290323 C14.7064516,27.3290323 14.5709677,27.3516129 14.4129032,27.3741935 C14.3677419,27.3741935 14.3225806,27.3967741 14.2774194,27.3967741 C14.2623656,27.3967741 14.2473118,27.3967741 14.2322581,27.4034647 L14.2096774,27.4193549 C13.8032258,27.5096774 13.5548387,27.8935484 13.6225806,28.2548387 C13.6903226,28.5709677 13.983871,28.7741935 14.3451613,28.7741935 C14.3903226,28.7741935 14.425448,28.7741935 14.4639188,28.767503 L14.5258065,28.7516129 C14.5483871,28.7516129 14.5709677,28.7516129 14.5709677,28.7290323 C14.616129,28.7290323 14.6612903,28.7064516 14.7064516,28.7064516 C14.8645161,28.6612904 14.9774194,28.616129 15.1129032,28.5483871 C15.1806452,28.5258065 15.2483871,28.4806451 15.316129,28.4580645 L15.3387097,28.4580645 C15.7677419,28.3 16.1516129,28.1645161 16.5129032,28.1193549 L16.5580645,28.1193549 C16.6935484,28.1193549 16.783871,28.1870968 16.8516129,28.232258 L16.8741935,28.2435483 L16.8741935,28.2435483 L16.8967742,28.2548387 L17.2129032,28.2096774 C17.7548387,29.8806451 18.7935484,31.3709677 20.1709677,32.4548387 C20.4870968,32.7032259 20.8032258,32.9064516 21.1419355,33.1096774 L21.0064516,33.4032259 C21.0064516,33.4258065 21.0290323,33.4258065 21.0290323,33.4483871 C21.0741935,33.5387096 21.1193548,33.6516129 21.0741935,33.8096774 C20.9387097,34.1483871 20.7354839,34.4870968 20.4870968,34.8709677 L20.4870968,34.8935484 C20.4419355,34.9612904 20.3967742,35.0064516 20.3516129,35.0741935 C20.2612903,35.1870968 20.1935484,35.3 20.1032258,35.4354839 C20.0806452,35.4580645 20.0580645,35.5032259 20.0354839,35.5483871 C20.0354839,35.5634408 20.025448,35.5784946 20.0187575,35.5868578 L20.0129032,35.5935484 C19.8322581,35.9774194 19.9677419,36.4064516 20.3064516,36.5645161 C20.3967742,36.6096774 20.4870968,36.632258 20.5774194,36.632258 C20.8145161,36.632258 21.0516129,36.4939516 21.1979461,36.2929751 L21.2548387,36.2032259 C21.2548387,36.1806451 21.2774194,36.1580645 21.2774194,36.1580645 C21.3,36.1129032 21.3225806,36.067742 21.3451613,36.0451613 C21.4129032,35.8870968 21.4354839,35.7741935 21.4806452,35.6387096 L21.5483871,35.4354839 C21.7064516,34.983871 21.8193549,34.6225806 22.0225806,34.3064516 C22.1129032,34.1709677 22.2258065,34.1483871 22.316129,34.1032259 C22.3311828,34.1032259 22.3362007,34.1032259 22.3445639,34.0965353 L22.3612904,34.0806451 L22.5193549,33.7870968 C23.5129032,34.1709677 24.5967741,34.3741935 25.6806451,34.3741935 C26.3354839,34.3741935 27.0129032,34.3064516 27.6451613,34.1483871 C28.0516129,34.0580645 28.4354839,33.9451613 28.8193549,33.8096774 L28.9548387,34.0580645 C28.9774194,34.0580645 28.9774194,34.0580645 29,34.0806451 C29.1129032,34.1032259 29.2032259,34.1483871 29.2935484,34.283871 C29.4741935,34.6 29.6096774,34.983871 29.767742,35.4129032 L29.767742,35.4354839 C29.7903226,35.5032259 29.8129032,35.5709677 29.8354839,35.6387096 C29.8806451,35.7741935 29.9032259,35.9096774 29.9709677,36.0451613 C29.9935484,36.0903226 30.016129,36.1129032 30.0387096,36.1580645 C30.0387096,36.1731182 30.0487455,36.188172 30.0554361,36.1965353 L30.0612904,36.2032259 C30.1967741,36.4741935 30.467742,36.632258 30.7387096,36.632258 C30.8290323,36.632258 30.9193549,36.6096774 31.0096774,36.5645161 C31.167742,36.4741935 31.3032259,36.3387096 31.3483871,36.1580645 C31.3845161,36.0135484 31.391742,35.8545806 31.346942,35.7042839 L31.3032259,35.5935484 C31.3032259,35.5709677 31.2806451,35.5709677 31.2806451,35.5483871 C31.2580645,35.5032259 31.2354839,35.4580645 31.2129032,35.4354839 C31.1451613,35.3 31.0548387,35.1870968 30.9645161,35.0741935 C30.9193549,35.0064516 30.8741935,34.9612904 30.8290323,34.8935484 L30.8290323,34.8709677 C30.5806451,34.4870968 30.3548387,34.1483871 30.2419355,33.8096774 C30.1967741,33.6516129 30.2419355,33.5612904 30.2645161,33.4483871 L30.2758065,33.4258065 L30.2758065,33.4258065 L30.2870968,33.4032259 L30.1741935,33.132258 C31.3709677,32.432258 32.3870968,31.4387096 33.1548387,30.2193549 C33.5612904,29.5870968 33.8774194,28.8870968 34.1032259,28.1870968 L34.3741935,28.232258 C34.3967741,28.232258 34.3967741,28.2096774 34.4193549,28.2096774 L34.5491936,28.1362903 C34.5943548,28.1137096 34.6451613,28.0967741 34.7129032,28.0967741 L34.7580645,28.0967741 C35.1193549,28.1419355 35.5032259,28.2774194 35.932258,28.4354839 L35.9548387,28.4354839 C36.0225806,28.4580645 36.0903226,28.5032259 36.1580645,28.5258065 C36.2935484,28.5935484 36.4064516,28.6387096 36.5645161,28.683871 L36.7,28.7064516 L36.7,28.7064516 C36.7150537,28.7064516 36.7301075,28.7064516 36.7451613,28.7131422 L36.767742,28.7290323 C36.8354839,28.7516129 36.8806451,28.7516129 36.9483871,28.7516129 C37.2870968,28.7516129 37.5806451,28.5258065 37.6709677,28.232258 C37.6709677,27.9883871 37.4697741,27.6713548 37.1332322,27.5280807 L37.016129,27.4870968 L37.016129,27.4870968 L36.9935484,27.4870968 C36.9709677,27.4870968 36.9483871,27.4870968 36.9483871,27.4645161 C36.9032259,27.4645161 36.8580645,27.4419355 36.8129032,27.4419355 C36.6548387,27.4193549 36.5193549,27.3967741 36.383871,27.3967741 C36.316129,27.3967741 36.2483871,27.3967741 36.1580645,27.3741935 L36.1354839,27.3741935 C35.6612904,27.3290323 35.2774194,27.283871 34.916129,27.1709677 C34.7580645,27.1032259 34.7129032,27.0129032 34.667742,26.9225806 L34.6564517,26.9 L34.6564517,26.9 L34.6451613,26.8774194 L34.3516129,26.7870968 C34.4870968,25.7483871 34.4419355,24.6645161 34.1935484,23.6032259 C33.9451613,22.5419355 33.516129,21.5483871 32.9290323,20.6451613 L33.1548387,20.4419355 L33.1548387,20.3967742 C33.1548387,20.283871 33.1774194,20.1709677 33.267742,20.0580645 C33.4845161,19.8593548 33.7446452,19.6895484 34.048129,19.5024 L34.283871,19.3580645 C34.3516129,19.3129032 34.4193549,19.2903226 34.4870968,19.2451613 C34.6225806,19.1774194 34.7354839,19.1096774 34.8709677,19.0193548 C34.8935484,18.9967742 34.9387096,18.9741935 34.983871,18.9290323 C34.9989247,18.9139785 35.0139785,18.9089606 35.0223417,18.9005974 L35.0290323,18.883871 C35.3451613,18.6129032 35.4129032,18.1612903 35.1870968,17.8677419 C35.0741935,17.7096774 34.8709677,17.6193548 34.667742,17.6193548 C34.5232259,17.6193548 34.3931614,17.6627097 34.2659871,17.7378581 L34.1709677,17.8 L34.1258065,17.8451613 L34.1258065,17.8451613 C34.0806451,17.8677419 34.0580645,17.9129032 34.0129032,17.9354839 C33.9,18.0483871 33.8096774,18.1387097 33.7193549,18.2516129 C33.6892473,18.2817204 33.6591398,18.3218638 33.6223417,18.3586619 L33.5612904,18.4096774 C33.2451613,18.7483871 32.9516129,19.0193548 32.6580645,19.2225806 C32.5903226,19.2677419 32.5225806,19.2903226 32.4548387,19.2903226 C32.4096774,19.2903226 32.3645161,19.2903226 32.3193549,19.2677419 L32.2741935,19.2677419 L32.0032259,19.4483871 C31.7096774,19.1322581 31.3935484,18.8612903 31.0774194,18.5903226 C29.7225806,17.5290323 28.0741935,16.8741935 26.3580645,16.716129 L26.3354839,16.4225806 C26.3129032,16.4 26.3129032,16.4 26.2903226,16.3774194 C26.2225806,16.3096774 26.132258,16.2419355 26.1096774,16.083871 C26.0870968,15.7225806 26.132258,15.316129 26.1774194,14.8645161 L26.1774194,14.8419355 C26.1774194,14.7741935 26.2,14.683871 26.2225806,14.616129 C26.2451613,14.4806452 26.267742,14.3451613 26.2903226,14.1870968 L26.2903226,13.983871 C26.2903226,13.5774194 25.9741935,13.2387097 25.5903226,13.2387097 Z M25.7935484,28.932258 C25.8688172,28.9774193 25.9340501,29.0326165 25.9892473,29.0911589 L26.0645161,29.1806451 L27.8032259,32.3193549 C27.6,32.3870968 27.3741935,32.432258 27.1483871,32.5 C26.6290323,32.6129032 26.1096774,32.6806451 25.567742,32.6806451 C24.7774194,32.6806451 24.0096774,32.5451613 23.2870968,32.3193549 L25.0709677,29.0903226 C25.2516129,28.8870968 25.5451613,28.7967741 25.7935484,28.932258 Z M23.1290323,27.8709677 C23.1459678,27.9725806 23.1502016,28.0614919 23.1322077,28.1472278 L23.1064516,28.232258 L21.7290323,31.5516129 C20.4645161,30.7387096 19.4483871,29.4967741 18.9064516,28.0064516 L22.4967741,27.3967741 C22.7903226,27.3741935 23.0612904,27.5774194 23.1290323,27.8709677 Z M28.5935484,27.3741935 L32.2064516,27.983871 C32.0709677,28.4806451 31.8451613,28.932258 31.5516129,29.3612904 C30.9870968,30.2645161 30.2419355,30.9870968 29.383871,31.5516129 L27.9612904,28.1419355 C27.8935484,27.8709677 28.0064516,27.5774194 28.2774194,27.4419355 C28.367742,27.3967741 28.4806451,27.3741935 28.5935484,27.3741935 Z M26.1096774,24.4612904 L26.7870968,25.3193549 L26.5612904,26.3806451 L25.567742,26.8548387 L24.5741935,26.3806451 L24.3258065,25.3193549 L25.0032259,24.4612904 L26.1096774,24.4612904 Z M31.5967741,21.8870968 C31.9806451,22.5193549 32.2741935,23.2419355 32.4548387,24.032258 C32.6354839,24.8 32.6806451,25.567742 32.6129032,26.3129032 L29.1580645,25.3193549 C28.8419355,25.2290323 28.6612904,24.9129032 28.7290323,24.5967741 C28.7516129,24.5064516 28.7967741,24.416129 28.8645161,24.3483871 L31.5967741,21.8870968 Z M19.516129,21.8870968 L22.2032259,24.2806451 C22.4516129,24.483871 22.4741935,24.867742 22.2709677,25.116129 C22.2032259,25.2064516 22.1129032,25.2741935 22,25.2967741 L18.5,26.3129032 C18.3645161,24.7774194 18.7032258,23.2193549 19.516129,21.8870968 Z M24.6870968,18.5451613 L24.483871,22.1580645 C24.4612904,22.4741935 24.2129032,22.7451613 23.8741935,22.7451613 C23.783871,22.7451613 23.6709677,22.7225806 23.6032259,22.6774194 L20.6,20.5322581 C21.5258065,19.6064516 22.6774194,18.9741935 23.9645161,18.6806452 C24.2129032,18.6354839 24.4387096,18.5903226 24.6870968,18.5451613 Z M26.4483871,18.5677419 C28.0064516,18.7483871 29.4290323,19.4483871 30.5129032,20.5322581 L27.5548387,22.632258 C27.3064516,22.7903226 26.967742,22.7451613 26.7645161,22.4967741 C26.6967741,22.4290323 26.6741935,22.3387096 26.6516129,22.2483871 L26.4483871,18.5677419 Z"/>
  </defs>
  <use xlink:href="#kubernetes-a"/>
</svg>
