<svg xmlns="http://www.w3.org/2000/svg" width="50" height="50" viewBox="0 0 50 50">
  <path d="M21.125,20.5 L34.25,20.5 L34.25,16.125 L21.125,16.125 L21.125,20.5 Z M34.875,14.875 L20.5,14.875 C20.154375,14.875 19.875,15.155 19.875,15.5 L19.875,21.125 C19.875,21.47 20.154375,21.75 20.5,21.75 L34.875,21.75 C35.220625,21.75 35.5,21.47 35.5,21.125 L35.5,15.5 C35.5,15.155 35.220625,14.875 34.875,14.875 L34.875,14.875 Z M20.1875,32.0625 C20.1875,33.26875 19.20625,34.25 18,34.25 C16.79375,34.25 15.8125,33.26875 15.8125,32.0625 C15.8125,30.85625 16.79375,29.875 18,29.875 C19.20625,29.875 20.1875,30.85625 20.1875,32.0625 L20.1875,32.0625 Z M1.75,22.375 L13,22.375 L13,19.875 L1.75,19.875 L1.75,22.375 Z M1.75,16.125 L13,16.125 L13,13.625 L1.75,13.625 L1.75,16.125 Z M15.8125,3.9375 C15.8125,2.73125 16.79375,1.75 18,1.75 C19.20625,1.75 20.1875,2.73125 20.1875,3.9375 C20.1875,5.14375 19.20625,6.125 18,6.125 C16.79375,6.125 15.8125,5.14375 15.8125,3.9375 L15.8125,3.9375 Z M28,26.125 L8,26.125 L8,23.625 L13.625,23.625 C13.970625,23.625 14.25,23.345 14.25,23 L14.25,19.25 C14.25,18.905 13.970625,18.625 13.625,18.625 L8,18.625 L8,17.375 L13.625,17.375 C13.970625,17.375 14.25,17.095 14.25,16.75 L14.25,13 C14.25,12.655 13.970625,12.375 13.625,12.375 L8,12.375 L8,10.5 L28,10.5 L28,13 L29.25,13 L29.25,9.875 C29.25,9.53 28.970625,9.25 28.625,9.25 L18.625,9.25 L18.625,7.315 C20.2225,7.02 21.4375,5.619375 21.4375,3.9375 C21.4375,2.041875 19.895,0.5 18,0.5 C16.105,0.5 14.5625,2.041875 14.5625,3.9375 C14.5625,5.619375 15.7775,7.02 17.375,7.315 L17.375,9.25 L7.375,9.25 C7.029375,9.25 6.75,9.53 6.75,9.875 L6.75,12.375 L1.125,12.375 C0.779375,12.375 0.5,12.655 0.5,13 L0.5,16.75 C0.5,17.095 0.779375,17.375 1.125,17.375 L6.75,17.375 L6.75,18.625 L1.125,18.625 C0.779375,18.625 0.5,18.905 0.5,19.25 L0.5,23 C0.5,23.345 0.779375,23.625 1.125,23.625 L6.75,23.625 L6.75,26.75 C6.75,27.095 7.029375,27.375 7.375,27.375 L17.375,27.375 L17.375,28.685 C15.7775,28.98 14.5625,30.380625 14.5625,32.0625 C14.5625,33.958125 16.105,35.5 18,35.5 C19.895,35.5 21.4375,33.958125 21.4375,32.0625 C21.4375,30.380625 20.2225,28.98 18.625,28.685 L18.625,27.375 L28.625,27.375 C28.970625,27.375 29.25,27.095 29.25,26.75 L29.25,23.641875 L28,23.641875 L28,26.125 Z" transform="translate(7 7)"/>
</svg>
