<svg xmlns="http://www.w3.org/2000/svg" xmlns:xlink="http://www.w3.org/1999/xlink" width="50" height="50" viewBox="0 0 50 50">
  <defs>
    <path id="laravel-a" d="M41.1016,15.602 C41.1142,15.6468 41.1212,15.693 41.1212,15.7406 L41.1212,22.9506 C41.1212,23.1396 41.019,23.3146 40.8566,23.407 L34.8044,26.893 L34.8044,33.8006 C34.8044,33.9896 34.7036,34.1618 34.5412,34.257 L21.9034,41.53 C21.874,41.5468 21.8432,41.558 21.811,41.5678 C21.7998,41.5706 21.7886,41.579 21.7774,41.5818 C21.6892,41.607 21.5954,41.607 21.5086,41.5818 C21.4932,41.579 21.4806,41.5706 21.468,41.565 C21.4386,41.5538 21.4078,41.5454 21.3798,41.53 L8.7476,34.257 C8.5838,34.1618 8.483,33.9896 8.483,33.8006 L8.483,12.1636 C8.483,12.1174 8.49,12.0712 8.5026,12.0264 C8.5068,12.0096 8.5166,11.997 8.5222,11.9816 C8.5306,11.9536 8.5418,11.9256 8.5544,11.9004 C8.56,11.8822 8.5754,11.8696 8.5866,11.8542 C8.6034,11.8318 8.616,11.8108 8.6328,11.7912 C8.6496,11.7772 8.6678,11.766 8.6846,11.7534 C8.7042,11.7366 8.7224,11.7198 8.742,11.7058 L8.7434,11.7058 L15.0616,8.07 C15.2226,7.9762 15.4242,7.9762 15.5866,8.07 L21.9034,11.7058 L21.9062,11.7058 C21.9272,11.7198 21.944,11.7352 21.9636,11.752 C21.9804,11.7646 21.9986,11.7772 22.0154,11.7898 C22.0336,11.8094 22.0448,11.8304 22.0616,11.8528 C22.0728,11.8682 22.0896,11.8822 22.0966,11.899 C22.112,11.9256 22.1204,11.9522 22.1302,11.9802 C22.1344,11.9956 22.1456,12.0096 22.1484,12.025 C22.1624,12.0684 22.168,12.1146 22.168,12.1622 L22.168,25.675 L27.432,22.6454 L27.432,15.7378 C27.432,15.6916 27.439,15.6454 27.4516,15.6006 C27.4558,15.5852 27.4642,15.5712 27.4698,15.5558 C27.4796,15.5278 27.4894,15.5012 27.5034,15.4732 C27.5132,15.4564 27.5286,15.4438 27.5384,15.427 C27.5552,15.406 27.5678,15.385 27.5846,15.3668 C27.6014,15.35 27.6196,15.3388 27.6364,15.3276 C27.656,15.3122 27.6728,15.2954 27.6938,15.2828 L27.6952,15.2828 L34.0134,11.6456 C34.1758,11.5518 34.376,11.5518 34.5384,11.6456 L40.8566,15.2828 C40.879,15.2968 40.8944,15.3122 40.9154,15.3262 C40.9322,15.3402 40.9504,15.3514 40.9658,15.3654 C40.984,15.385 40.9966,15.406 41.0134,15.427 C41.0246,15.4438 41.04,15.4564 41.047,15.4732 C41.0624,15.5012 41.0722,15.5278 41.0806,15.5558 C41.089,15.5712 41.0974,15.5866 41.1016,15.602 Z M40.0656,22.6468 L40.0656,16.6506 L37.8564,17.9218 L34.8016,19.6802 L34.8016,25.6764 L40.0656,22.6468 L40.0656,22.6468 Z M33.7502,33.4968 L33.7502,27.495 L30.7458,29.21 L22.168,34.1072 L22.168,40.1636 L33.7502,33.4968 Z M9.533,13.0736 L9.533,33.4968 L21.1152,40.1636 L21.1152,34.1072 L15.0644,30.6842 L15.0616,30.68 L15.0588,30.68 C15.0392,30.666 15.0238,30.6506 15.0028,30.6366 C14.9874,30.6226 14.9692,30.6114 14.9538,30.5988 L14.9524,30.596 C14.9342,30.5792 14.923,30.561 14.909,30.5414 C14.895,30.5246 14.8796,30.5092 14.8698,30.4896 L14.867,30.4896 C14.8558,30.47 14.8488,30.4462 14.839,30.4238 C14.8306,30.4014 14.8194,30.386 14.8138,30.3636 C14.8082,30.3384 14.8054,30.3118 14.8026,30.2838 C14.7998,30.2642 14.7942,30.246 14.7942,30.2264 L14.7942,16.1046 L11.7422,14.3448 L9.533,13.0736 Z M15.3234,9.134 L10.0594,12.1636 L15.3234,15.1932 L20.5846,12.1636 L15.3234,9.134 Z M18.0618,28.041 L21.1166,26.2826 L21.1166,13.0736 L18.9046,14.3462 L15.8498,16.1046 L15.8498,29.3136 L18.0618,28.041 L18.0618,28.041 Z M34.2766,12.7096 L29.0126,15.7392 L34.2766,18.7674 L39.5392,15.7378 L34.2766,12.7096 L34.2766,12.7096 Z M33.7502,19.6802 L30.6954,17.9218 L28.4848,16.6506 L28.4848,22.6468 L31.5396,24.4052 L33.7502,25.6764 L33.7502,19.6802 Z M21.6402,33.1958 L29.3598,28.7886 L33.2182,26.5878 L27.9584,23.5596 L21.9048,27.0442 L16.3874,30.2222 L21.6402,33.1958 Z"/>
  </defs>
  <use xlink:href="#laravel-a"/>
</svg>
