<svg xmlns="http://www.w3.org/2000/svg" width="50" height="50" viewBox="0 0 50 50">
  <g transform="matrix(1 0 0 -1 8.033 42.953)">
    <path d="M16.0459387,34.9067909 C14.7876165,34.7856192 13.5292943,34.5432756 12.3921438,34.2030626 C6.95339547,32.5719041 2.68442077,28.4147803 0.87150466,22.9993342 C0.507989348,21.9041278 0.223701731,20.5898802 0.0792276964,19.3175766 C-0.0139813582,18.4833555 -0.0279627164,16.6471372 0.0559254328,15.8455393 C0.494007989,11.581225 2.27896138,7.84354194 5.28029294,4.92609854 C6.5758988,3.66311585 7.81557923,2.76830892 9.40945406,1.94806924 C11.2083888,1.02063915 12.9280959,0.470705726 15.0206391,0.15379494 C15.9620506,0.0139813582 17.9846871,-0.0466045273 18.9354194,0.0419440746 C23.8195739,0.489347537 28.1071904,2.76830892 31.1318242,6.52463382 C31.5559254,7.05126498 32.3528628,8.22569907 32.6930759,8.83155792 C33.8581891,10.8868176 34.6178429,13.3009321 34.8788282,15.7756325 C34.9673768,16.6005326 34.9533955,18.5113182 34.855526,19.3548602 C34.3941411,23.3302264 32.73502,26.8721704 30.0272969,29.6591212 C27.207723,32.5579228 23.6378162,34.3195739 19.517976,34.8415446 C18.8515313,34.9254328 16.6844208,34.9673768 16.0459387,34.9067909 Z M19.7276964,33.8908123 C22.6358189,33.4527297 25.1198402,32.4274301 27.3848202,30.7217044 C30.7543276,28.1864181 33.023968,24.5186418 33.7743009,20.412783 C33.9700399,19.3175766 34.011984,18.828229 34.011984,17.4766977 C34.011984,16.1810919 33.9793609,15.7523302 33.7976032,14.6571238 C33.4154461,12.3595206 32.4507324,10.005992 31.0805593,8.04394141 C29.7756325,6.17043941 27.9161119,4.43209055 25.9633822,3.25765646 C20.804261,0.149134487 14.3122503,0.116511318 9.12050599,3.17376831 C7.15845539,4.32956059 5.26631158,6.06790945 3.94740346,7.92276964 C2.33954727,10.1924101 1.3701731,12.6997337 1.01131824,15.5426099 C0.908788282,16.3442077 0.894806924,18.3948069 0.983355526,19.177763 C1.23501997,21.349534 1.77097204,23.1344874 2.73568575,25.0033289 C3.22037284,25.9540613 3.59320905,26.5459387 4.21770972,27.3708389 C6.28695073,30.1251664 9.11584554,32.1571238 12.3688415,33.2336884 C13.3801598,33.5645806 14.5639148,33.816245 15.7197071,33.9513981 C16.5958722,34.0492676 18.8888149,34.0166445 19.7276964,33.8908123 Z"/>
    <path d="M19.2616511,29.9900133 C17.5466045,29.6358189 15.7197071,28.1071904 14.5825566,26.0705726 C13.8322237,24.7283622 13.4454061,23.0972037 13.5758988,21.792277 C13.6271638,21.247004 13.7856192,20.5432756 13.9440746,20.1424767 C14.0559254,19.8581891 14.4147803,19.1498003 14.5639148,18.9214381 L14.6664447,18.7583222 L14.5219707,18.8748336 C14.442743,18.9400799 14.2003995,19.1358189 13.9860186,19.3082557 C13.2123835,19.9420772 12.322237,20.4687084 11.5625832,20.7436751 C11.3482024,20.8229028 11.1524634,20.9067909 11.1198402,20.9347537 C11.087217,20.9627164 10.9660453,21.2749667 10.849534,21.6291611 C10.2063915,23.6238349 10.0758988,25.7723036 10.5046605,27.1937417 C10.6491345,27.6784288 10.6584554,27.7949401 10.5699068,27.8834887 C10.4766977,27.9766977 10.3135819,27.9860186 10.2063915,27.9067909 C10.1178429,27.8368842 9.93142477,27.207723 9.81491345,26.5972037 C9.70306258,25.9960053 9.70306258,24.5 9.81491345,23.7683089 C9.92210386,23.0925433 10.1271638,22.1557923 10.3089214,21.5592543 C10.448735,21.0885486 10.4533955,21.0186418 10.3322237,21.0186418 C10.1877497,21.0186418 9.39081225,22.7802929 9.00399467,23.9593875 C8.65446072,25.0266312 8.5379494,25.6371505 8.50998668,26.6484687 C8.48202397,27.4920107 8.48202397,27.505992 8.37483356,27.5479361 C8.22569907,27.6038615 8.04860186,27.5292943 8.00199734,27.3941411 C7.94141145,27.207723 7.97403462,26.0938748 8.04860186,25.6091877 C8.24900133,24.3881491 8.7942743,22.7476698 9.40479361,21.5266312 C9.52596538,21.2936085 9.60985353,21.0745672 9.60053262,21.0419441 C9.58655126,21.0139814 9.4840213,20.9720373 9.37217044,20.9580559 C8.85952064,20.8881491 8.07656458,20.4407457 7.73169108,20.0213049 C7.23302264,19.4107856 6.99533955,18.7816245 6.98583601,18.0592543 C6.98135819,17.5093209 7.06524634,17.2157124 7.31225033,16.9267643 C7.50332889,16.7030626 7.87616511,16.5446072 8.21637816,16.5446072 C8.56591212,16.5446072 9.1298269,16.7450067 9.58655126,17.0339547 C9.81491345,17.1737683 10.0199734,17.2902796 10.0525965,17.2902796 C10.1924101,17.2902796 10.6491345,16.9593875 11.0126498,16.5958722 C11.3994674,16.2090546 11.4181092,16.1810919 11.539281,15.7989348 C12.177763,13.7250333 11.9447403,11.3015979 10.8774967,8.90612517 C10.6211718,8.33288948 10.5885486,8.14181092 10.7283622,8.06258322 C10.8541944,7.99733688 10.994008,8.00199734 11.0732357,8.08122503 C11.1664447,8.17909454 11.539281,9.0412783 11.7629827,9.68442077 C12.0099867,10.4067909 12.2476698,11.3994674 12.3455393,12.1171771 C12.4294274,12.7743009 12.4154461,14.3075899 12.3175766,14.7876165 C12.2896138,14.936751 12.270972,15.0765646 12.2802929,15.0998668 C12.2896138,15.1231691 12.5459387,14.8388815 12.8535286,14.4613848 C14.4241012,12.5412783 15.482024,11.5159787 16.8195739,10.60253 C16.8754993,10.5699068 17.0619174,10.2902796 17.2390146,9.9873502 C18.4087883,7.97403462 19.9653795,6.08655126 21.2656458,5.10785619 C21.7549933,4.73968043 22.3189081,4.42743009 22.5006658,4.42743009 C22.6731025,4.42743009 22.7663116,4.53462051 22.7476698,4.70705726 C22.7383489,4.83288948 22.7057257,4.88415446 22.5938748,4.93075899 C21.6058589,5.37816245 20.207723,6.71105193 18.9494008,8.40279627 C18.4320905,9.10652463 17.8355526,10.0106525 17.8728362,10.0479361 C17.8868176,10.057257 18.0825566,10.0153129 18.3015979,9.95006658 C18.8561917,9.79161119 19.2010652,9.74034621 19.7323569,9.74034621 L20.1797603,9.74034621 L20.3521971,9.45139814 C20.8182423,8.65446072 22.0765646,7.48934754 23.4793609,6.55725699 C24.150466,6.11451398 24.6258322,5.86750999 25.1757656,5.68575233 C25.7956059,5.47603196 26.0193076,5.50865513 26.0193076,5.7976032 C26.0193076,5.99334221 25.9773635,6.02596538 25.5765646,6.12383489 C24.6864181,6.33355526 23.0552597,7.41478029 21.8295606,8.59387483 C21.3308921,9.07856192 20.7390146,9.77762983 20.7809587,9.83821571 C20.7902796,9.85685752 20.9440746,9.91744341 21.1165113,9.97336884 C21.6058589,10.1364847 22.7569907,10.7516644 22.7569907,10.8541944 C22.7569907,10.8774967 22.5845539,10.9520639 22.3748336,11.0219707 C21.638482,11.2643142 20.8275632,11.7443409 20.0399467,12.3968043 C19.4806924,12.86751 19.1637816,13.2310253 18.539281,14.1211718 C17.9474035,14.9693742 17.0852197,16.1111851 16.563249,16.7310253 C16.3581891,16.9733688 16.1997337,17.1784288 16.2043941,17.1830892 C16.2090546,17.1877497 16.3768309,17.108522 16.5725699,17.005992 C18.0639148,16.223036 19.7929427,16.2789614 21.6151798,17.1691079 C23.7217044,18.1990679 25.63249,20.3055925 26.3641811,22.4074567 C26.7882823,23.6331558 26.7789614,24.6304927 26.322237,25.5439414 C26.1171771,25.9540613 25.9727031,26.1171771 25.6930759,26.2616511 C24.2343542,27.0026631 20.6364847,25.6231691 17.7703063,23.2183755 C16.8708389,22.4633822 15.976032,21.4334221 15.5938748,20.7063915 C15.4960053,20.5199734 15.4027963,20.3661784 15.3841545,20.3661784 C15.328229,20.3661784 15.482024,20.7576565 15.7010652,21.1817577 C16.4560586,22.6498003 17.9194407,24.1784288 19.7276964,25.385486 C20.3428762,25.7956059 21.298269,26.3175766 21.8482024,26.5412783 C22.081225,26.6344874 22.286285,26.7323569 22.3095872,26.7556591 C22.3748336,26.816245 22.2583222,27.6644474 22.1231691,28.1398136 C21.8948069,28.9320905 21.4986684,29.5053262 20.9953395,29.770972 C20.4826897,30.0459387 19.8954727,30.120506 19.2616511,29.9900133 Z"/>
  </g>
</svg>
