<svg xmlns="http://www.w3.org/2000/svg" width="50" height="50" viewBox="0 0 50 50">
  <g transform="translate(10 12)">
    <path d="M21.8695502,0 L8.36641665,0 C7.79063917,0.000603824028 7.25882011,0.308255108 6.97093152,0.807285067 L0.216138215,12.5127332 C-0.0720460717,13.0122751 -0.0720460717,13.627736 0.216138215,14.1272778 L6.97093152,25.832726 C7.25954036,26.3330052 7.79323154,26.6408497 8.37044984,26.64 L21.8735834,26.64 C22.4508017,26.6408497 22.9844928,26.3330052 23.2731017,25.832726 L30.0238618,14.1272778 C30.3120461,13.627736 30.3120461,13.0122751 30.0238618,12.5127332 L23.2731017,0.807285067 C22.9837749,0.305752317 22.4482082,-0.00228634107 21.8695502,0 Z"/>
    <path d="M30.0117888 12.5127273L23.2589952.807272727C23.1391498.598190202 22.9737721.418837092 22.7751552.282545455L23.321088 13.29336 30.2262912 13.3151564C30.2259228 13.0335296 30.1519745 12.7568976 30.0117888 12.5127273zM.2169216 14.1272727L6.9697152 25.8327273C7.08063457 26.0245712 7.22966031 26.1916167 7.4075904 26.3235491L10.34208 21.59616.1274112 13.9480582C.153561243 14.0095716.183454124 14.069422.2169216 14.1272727L.2169216 14.1272727zM6.9697152.807272727L.2169216 12.5127273C.17020991 12.5929786.130806235 12.6772748.0991872 12.7645964L9.8292096 5.02850182 7.3817856.335825455C7.21484158.46436662 7.07482039.624564028 6.9697152.807272727L6.9697152.807272727zM21.8639232-6.25749286e-8L8.3647872-6.25749286e-8C8.00928056-.0000990499287 7.66370236.117394152 7.3817856.334210909L9.8292096 5.02688727 22.240512.0452072727C22.1171744.0154803108 21.9907848.000307986482 21.8639232-6.25749286e-8L21.8639232-6.25749286e-8z"/>
    <polygon points="10.337 21.595 23.323 13.295 9.829 5.027"/>
    <path d="M22.240512.0452072727L9.8292096 5.02688727 23.3227008 13.2949745 22.7751552.28416C22.612997.17252072 22.4317972.091535526 22.240512.0452072727L22.240512.0452072727zM.0991872 12.7629818C-.0412787154 13.1473941-.0311951786 13.5707841.1274112 13.9480582L10.338048 21.5945455 9.8292096 5.02688727.0991872 12.7629818zM7.4035584 26.3219345C7.6817479 26.5281302 8.01864559 26.6396078 8.3647872 26.64L21.8639232 26.64C21.9668108 26.6395829 22.0694225 26.6293107 22.1703552 26.6093236L10.338048 21.5945455 7.4035584 26.3219345z"/>
    <path d="M10.338048,21.5945455 L22.1703552,26.6093236 C22.3883523,26.5673541 22.5953474,26.4807838 22.7783808,26.3550327 L23.3227008,13.2949745 L10.338048,21.5945455 Z"/>
    <path d="M23.3227008,13.2949745 L22.7751552,26.3550327 C22.9736633,26.2189509 23.1390299,26.0398859 23.2589952,25.8311127 L30.0085632,14.1256582 C30.1509533,13.8787983 30.225518,13.5985996 30.2246854,13.3135418 L23.3227008,13.2949745 Z"/>
  </g>
</svg>
