<svg xmlns="http://www.w3.org/2000/svg" xmlns:xlink="http://www.w3.org/1999/xlink" width="50" height="50" viewBox="0 0 50 50">
  <defs>
    <path id="micronaut-a" d="M20.4678,41.4467 C21.1868,41.4227 21.8228,42.0427 21.8298,42.7757 C21.8368,43.5167 21.2398,44.1247 20.4978,44.1297 C19.7658,44.1367 19.1628,43.5237 19.1678,42.7777 C19.1728,42.0577 19.7448,41.4707 20.4678,41.4467 Z M29.9606,41.4463 C30.7006,41.4583 31.2916,42.0823 31.2726,42.8323 C31.2536,43.5553 30.6536,44.1363 29.9316,44.1303 C29.1916,44.1243 28.6126,43.5093 28.6286,42.7483 C28.6436,42.0233 29.2456,41.4353 29.9606,41.4463 Z M23.6254,38.2493 C24.2624,38.2683 24.7364,38.7713 24.7234,39.4153 C24.7114,40.0463 24.2014,40.5413 23.5704,40.5353 C22.9504,40.5293 22.4384,40.0103 22.4373943,39.3863 C22.4354,38.7343 22.9624,38.2303 23.6254,38.2493 Z M30.9152,37.1604 C31.5642,37.1604 32.0392,37.6354 32.0412065,38.2854 C32.0432,38.9474 31.5832,39.4334 30.9422,39.4464 C30.3002,39.4584 29.7542,38.9234 29.7602,38.2854 C29.7662,37.6634 30.2822,37.1604 30.9152,37.1604 Z M12.3323,36.7408 C13.1033,36.7478 13.6453,37.3198 13.6283,38.1098 C13.6123,38.8518 13.0363,39.4088 12.2973,39.3978 C11.5353,39.3858 10.9803,38.7988 10.9963,38.0208 C11.0113,37.2808 11.5803,36.7348 12.3323,36.7408 Z M38.1584,36.7411 C38.8964,36.7541 39.4524,37.3271 39.4494121,38.0711 C39.4454,38.8381 38.8604,39.4091 38.0944,39.3921 C37.3554,39.3771 36.7984,38.8031 36.8003946,38.0611 C36.8034,37.2981 37.3894,36.7281 38.1584,36.7411 Z M16.7073,35.5261 C17.3373,35.5331 17.8443,36.0421 17.8413132,36.6651 C17.8383,37.3151 17.2983,37.8351 16.6513,37.8111 C16.0273,37.7881 15.5403,37.2651 15.5563,36.6341 C15.5713,35.9871 16.0583,35.5191 16.7073,35.5261 Z M25.2473,34.8758 C25.7233,34.8998 26.0873,35.2908 26.0813,35.7728 C26.0743,36.2748 25.6713,36.6588 25.1653,36.6448 C24.6623,36.6318 24.2863,36.2258 24.3073,35.7178 C24.3283,35.2128 24.7333,34.8498 25.2473,34.8758 Z M30.509,33.4729 C31.025,33.4779 31.398,33.8619 31.384,34.3749 C31.372,34.8599 31.001,35.2239 30.513,35.2319 C29.997,35.2389 29.61,34.8609 29.6119923,34.3519 C29.613,33.8339 29.988,33.4679 30.509,33.4729 Z M19.8762,33.4546 C20.3972,33.4456 20.7942,33.8166 20.7972166,34.3156 C20.8002,34.8076 20.3962,35.2126 19.8982,35.2146073 C19.4032,35.2166 18.9982,34.8046 19.0092,34.3116 C19.0212,33.8176 19.3792,33.4646 19.8762,33.4546 Z M36.7385,32.5481 C37.3635,32.5551 37.8785,33.0721 37.8775015,33.6901 C37.8765,34.3121 37.3595,34.8291 36.7375,34.8321061 C36.0675,34.8341 35.5845,34.3401 35.5955,33.6631 C35.6065,33.0171 36.0945,32.5411 36.7385,32.5481 Z M25.4486,31.4590908 C25.8896,31.4611 26.1966,31.7741 26.1926,32.2161 C26.1886,32.6431 25.8536,32.9771 25.4346,32.9711 C25.0096,32.9661 24.6796,32.6291 24.6826,32.2061 C24.6866,31.7811 25.0196,31.4571 25.4486,31.4590908 Z M21.912,30.6238 C22.339,30.6368 22.666,30.9798 22.652,31.4008 C22.637,31.8138 22.273,32.1588 21.866,32.1438 C21.452,32.1288 21.118,31.7708 21.13,31.3538 C21.141,30.9288 21.481,30.6108 21.912,30.6238 Z M12.1193,29.7162 C12.7473,29.7342 13.2383,30.2502 13.2263,30.8792 C13.2143,31.5092 12.7063,32.0042 12.0763,31.9982 C11.4243,31.9932 10.9163,31.4602 10.9433,30.8082 C10.9693,30.1772 11.4853,29.6982 12.1193,29.7162 Z M28.9097,30.4052 C29.3317,30.3922 29.6937,30.7192 29.7107,31.1262 C29.7267,31.5202 29.3657,31.9082 28.9697,31.9242 C28.5537,31.9412 28.2087,31.6122 28.1937,31.1842 C28.1777,30.7292 28.4627,30.4182 28.9097,30.4052 Z M34.4037,29.5865 C34.9027,29.5965 35.2867,30.0055 35.2727,30.5125 C35.2597,31.0055 34.8307,31.4065 34.3427,31.3795 C33.8757,31.3545 33.4977,30.9515 33.4966982,30.4775 C33.4957,29.9785 33.9057,29.5755 34.4037,29.5865 Z M16.014,29.5508 C16.528,29.5438 16.906,29.9188 16.906,30.4348 C16.906,30.9558 16.536,31.3188 16.013,31.3108 C15.516,31.3028 15.149,30.9478 15.138,30.4628 C15.126,29.9588 15.511,29.5578 16.014,29.5508 Z M7.549,28.556 C8.301,28.533 8.914,29.117 8.925,29.867 C8.936,30.601 8.372,31.185 7.636,31.202 C6.86,31.22 6.273,30.664 6.26,29.9 C6.249,29.171 6.816,28.579 7.549,28.556 Z M42.8526,28.5545889 C43.5946,28.5586 44.1626,29.1216 44.1706,29.8616 C44.1786,30.6406 43.6226,31.2036 42.8446,31.2016053 C42.0956,31.2006 41.5356,30.6536 41.5206,29.9076 C41.5046,29.1586 42.1026,28.5516 42.8526,28.5545889 Z M19.2524,28.1214 C19.6814,28.1314 19.9934,28.4674 19.9804,28.9044 C19.9674,29.3384 19.6334,29.6544 19.2024,29.6394 C18.7834,29.6244 18.4514,29.2694 18.4664,28.8534 C18.4824,28.4254 18.8194,28.1114 19.2524,28.1214 Z M27.0282,22.8432 C27.2562,22.8792 27.4962,22.8492 27.8102,22.8492 C27.6262,23.7532 27.4532,24.5982 27.2802,25.4442 C27.2322,25.6752 27.1512,25.9042 27.1422,26.1362 C27.1352,26.3162 27.1632,26.6012 27.2712,26.6572 C27.4282,26.7392 27.6942,26.7122 27.8702,26.6322 C28.1122,26.5242 28.3072,26.3152 28.5332,26.1642 C28.6822,26.0642 28.8492,25.9892 29.0082,25.9042 C29.0482,25.9602 29.0882,26.0172 29.1292,26.0732 C28.5392,26.5652 27.9852,27.1122 27.3472,27.5312 C26.7632,27.9142 26.0622,27.6252 25.6822,27.0022 C25.2502,27.2252 24.8072,27.4242 24.3992,27.6792 C24.2642,27.7632 24.1502,27.9852 24.1412,28.1512 C24.1072,28.7912 23.7802,29.0852 23.1592,29.1182 C22.9672,29.1282 22.7792,29.1912 22.4812,29.2532 C22.9512,27.0432 23.3982,24.9392 23.8442,22.8442 L25.2452,22.8442 C25.0232,23.9282 24.8102,24.9722 24.5942,26.0162 C24.5352,26.3002 24.4182,26.6082 24.8122,26.7442 C25.0922,26.8402 25.6262,26.5052 25.6962,26.1872 C25.8952,25.2842 26.1032,24.3822 26.2582,23.4712 C26.3392,22.9942 26.5172,22.7602 27.0282,22.8432 Z M31.4553,27.722 C31.8873,27.736 32.1943,28.068 32.1853,28.509 C32.1763,28.951 31.8623,29.249 31.4143,29.24 C30.9823,29.232 30.6673,28.904 30.6773,28.47 C30.6873,28.053 31.0443,27.71 31.4553,27.722 Z M39.4282,25.6474 C40.0692,25.6374 40.6112,26.1794 40.5982,26.8164 C40.5852,27.4464 40.0772,27.9354 39.4392,27.9324137 C38.7902,27.9294 38.3122,27.4514 38.3111939,26.8014 C38.3092,26.1614 38.7972,25.6574 39.4282,25.6474 Z M18.1914,24.6314 C18.6234,24.6424 18.9324,24.9594 18.9304097,25.3884 C18.9284,25.8084 18.5974,26.1444 18.1804,26.1504 C17.7494,26.1574 17.4004,25.7914 17.4164,25.3504 C17.4324,24.9164 17.7514,24.6204 18.1914,24.6314 Z M35.8538,24.3047 C36.3628,24.3247 36.7338,24.7297 36.7068,25.2337 C36.6798,25.7367 36.2698,26.0977 35.7598,26.0677 C35.2508,26.0377 34.9158,25.6437 34.9488,25.1117 C34.9788,24.6227 35.3578,24.2847 35.8538,24.3047 Z M14.65,24.2343 C15.134,24.2523 15.523,24.6723 15.51,25.1633 C15.496,25.6533 15.076,26.0533 14.594,26.0353 C14.112,26.0163 13.709,25.5853 13.726,25.1073 C13.743,24.6273 14.177,24.2173 14.65,24.2343 Z M32.2462,24.1952 C32.6982,24.1832 33.0092,24.4742 33.0202,24.9192 C33.0312,25.3402 32.6992,25.6992 32.2882,25.7132 C31.8912,25.7262 31.5152,25.3672 31.5002,24.9622 C31.4852,24.5442 31.8132,24.2062 32.2462,24.1952 Z M11.03,22.3783 C11.656,22.3993 12.15,22.9203 12.137,23.5463 C12.125,24.1843 11.626,24.6683 10.987,24.6633 C10.344,24.6593 9.86,24.1743 9.855,23.5303 C9.849,22.8823 10.385,22.3573 11.03,22.3783 Z M18.996,21.0607 C19.431,21.0557 19.776,21.4137 19.762,21.8577 C19.75,22.2817 19.419,22.5917 18.989,22.5847 C18.564,22.5767 18.245,22.2497 18.2469906,21.8237 C18.249,21.4047 18.582,21.0647 18.996,21.0607 Z M31.2075,20.6821978 C31.6295,20.6812 31.9665,21.0172 31.9665,21.4392 C31.9665,21.8802 31.6555,22.1922 31.2175,22.1942023 C30.7855,22.1952 30.4565,21.8732 30.454491,21.4472 C30.4525,21.0212 30.7845,20.6842 31.2075,20.6821978 Z M7.5825,19.0994 C8.3225,19.0934 8.9365,19.7124 8.9255,20.4534 C8.9155,21.1874 8.3355,21.7594 7.6015,21.7594 C6.8395,21.7594 6.2465,21.1664 6.2595,20.4164 C6.2725,19.6864 6.8575,19.1044 7.5825,19.0994 Z M42.8746,19.0993 C43.6056,19.1103 44.1706,19.6943 44.1706,20.4343 C44.1706,21.2093 43.5976,21.7713 42.8216,21.7593 C42.0806,21.7473 41.5216,21.1803 41.5205951,20.4373 C41.5186,19.6883 42.1266,19.0873 42.8746,19.0993 Z M34.3832,18.986 C34.8792,18.966 35.2822,19.357 35.2912,19.866 C35.3002,20.379 34.9212,20.772 34.4152,20.7730082 C33.9332,20.775 33.5532,20.409 33.5332,19.925 C33.5132,19.418 33.8862,19.006 34.3832,18.986 Z M16.0318,18.9653 C16.5618,18.9563 16.9298,19.3103 16.9328177,19.8333 C16.9358,20.3483 16.5568,20.7293 16.0468,20.7243 C15.5428,20.7193 15.1438,20.3143 15.1568,19.8203 C15.1688,19.3383 15.5408,18.9733 16.0318,18.9653 Z M38.3691,18.3292 C38.9991,18.3342 39.5141,18.8422 39.5161013,19.4602 C39.5171,20.0932 38.9561,20.6352 38.3231,20.6142 C37.6931,20.5932 37.2271,20.0912 37.2351,19.4422 C37.2431,18.7822 37.7111,18.3232 38.3691,18.3292 Z M21.4959,18.4204 C21.9309,18.4154 22.2619,18.7344 22.2639087,19.1614 C22.2659,19.5804 21.9239,19.9364 21.5139,19.9404 C21.1079,19.9444 20.7549,19.5914 20.7499,19.1764 C20.7449,18.7364 21.0529,18.4254 21.4959,18.4204 Z M28.5538,18.2024904 C28.9988,18.2035 29.3118,18.5125 29.3118,18.9495 C29.3118,19.3635 28.9628,19.7175 28.5528,19.7185083 C28.1488,19.7205 27.7948,19.3595 27.7937976,18.9455 C27.7928,18.5115 28.1108,18.2005 28.5538,18.2024904 Z M24.9836,17.3499 C25.4076,17.3409 25.7466,17.6699 25.7536,18.0969 C25.7606,18.5289 25.4416,18.8629 25.0136,18.8719 C24.5906,18.8809 24.2496,18.5519 24.2396,18.1269 C24.2316,17.7029 24.5616,17.3589 24.9836,17.3499 Z M13.7156,15.4958984 C14.3576,15.4949 14.8506,15.9769 14.8616,16.6169 C14.8716,17.2679 14.3446,17.7949 13.6936,17.7819 C13.0676,17.7689 12.5726,17.2549 12.5786,16.6209 C12.5836,15.9769 13.0686,15.4979 13.7156,15.4958984 Z M30.5608,15.116 C31.0738,15.124 31.4388,15.513 31.4208,16.033 C31.4048,16.516 31.0238,16.89 30.5468,16.8920072 C30.0608,16.894 29.6438,16.478 29.6457928,15.99 C29.6478,15.494 30.0508,15.109 30.5608,15.116 Z M19.9704,15.0789 C20.4744,15.0939 20.8364,15.4909 20.8184,16.0109 C20.8014,16.5269 20.4074,16.8829 19.8884,16.8519 C19.4034,16.8249 19.0514,16.4439 19.0594,15.9559 C19.0674,15.4539 19.4714,15.0639 19.9704,15.0789 Z M25.2156,13.6643 C25.6986,13.6473 26.1286,14.0583 26.1386,14.5453 C26.1496,15.0293 25.7926,15.4103 25.3026,15.4383 C24.7776,15.4683 24.3846,15.1213 24.3616,14.6043 C24.3396,14.1033 24.7226,13.6813 25.2156,13.6643 Z M33.7448,12.5362932 C34.4188,12.5343 34.8688,12.9753 34.8738,13.6433 C34.8788,14.2873 34.4068,14.7893 33.7768,14.8113 C33.1548,14.8323 32.5848,14.2743 32.5908,13.6483 C32.5968,13.0323 33.1098,12.5383 33.7448,12.5362932 Z M38.101,10.921 C38.853,10.908 39.443,11.486 39.449,12.242 C39.455,13.002 38.879,13.587 38.124,13.5860013 C37.393,13.585 36.816,13.021 36.8,12.292 C36.784,11.534 37.353,10.933 38.101,10.921 Z M12.3471,10.9206 C13.0771,10.9356 13.6301,11.5126 13.6291014,12.2586 C13.6281,13.0256 13.0441,13.6006 12.2821,13.5856 C11.5481,13.5706 10.9861,12.9916 10.9880947,12.2496 C10.9911,11.4986 11.5971,10.9046 12.3471,10.9206 Z M19.5183,10.8879939 C20.1583,10.886 20.6633,11.374 20.6733,12.005 C20.6843,12.646 20.1423,13.189 19.5043,13.176 C18.8753,13.163 18.3853,12.654 18.3882863,12.016 C18.3913,11.367 18.8683,10.89 19.5183,10.8879939 Z M26.8669,9.81228578 C27.5299,9.8163 27.9919,10.2773 27.9919,10.9343 C27.9919,11.5673 27.4919,12.0833 26.8709,12.0923 C26.2389,12.1013 25.6919,11.5463 25.7059,10.9123 C25.7209,10.2813 26.2199,9.8093 26.8669,9.81228578 Z M30.0206,6.2177 C30.7596,6.2457 31.2966,6.8307 31.2726,7.5807 C31.2486,8.3137 30.6656,8.8637 29.9236,8.8567 C29.1546,8.8487 28.6086,8.2697 28.6286,7.4837 C28.6476,6.7107 29.2226,6.1877 30.0206,6.2177 Z M20.4553,6.2173 C21.2293,6.2033 21.8253,6.7673 21.8313,7.5193 C21.8373,8.2723 21.2423,8.8623 20.4813,8.8563 C19.7433,8.8513 19.1743,8.2833 19.1673,7.5443 C19.1613,6.7973 19.7103,6.2303 20.4553,6.2173 Z"/>
  </defs>
  <use fill-rule="evenodd" xlink:href="#micronaut-a"/>
</svg>
