<svg xmlns="http://www.w3.org/2000/svg" width="50" height="50" viewBox="0 0 50 50">
  <path fill-rule="evenodd" d="M14.5141464,0.224347849 L26.5258519,7.13758471 C27.0430229,7.43671518 27.36,7.985121 27.36,8.56676351 L27.36,22.3932367 C27.3433207,22.974879 27.0263401,23.5232849 26.5258519,23.8224152 L14.5141481,30.7356536 C13.9969762,31.0347821 13.363025,31.0347821 12.8458543,30.7356536 L0.834146363,23.8224152 C0.316975723,23.5232849 0,22.974879 0,22.3932367 L0,8.56676351 C0,7.96850258 0.316975723,7.43671518 0.834146363,7.13758471 L12.8458543,0.224347849 C13.363025,-0.0747826164 13.9969762,-0.0747826164 14.5141464,0.224347849 Z M13.6800008,2.16 C13.435933,2.16 13.1918652,2.22626876 12.9803399,2.3588061 L2.85966109,8.30641778 C2.42033889,8.55492523 2.16,9.0353729 2.16,9.53238779 L2.16,21.4276119 C2.16,21.9411924 2.42033889,22.4050736 2.85966109,22.6535812 L12.9803399,28.6011918 C13.1918652,28.73373 13.435933,28.8 13.6800008,28.8 C13.9240686,28.8 14.1681362,28.73373 14.3796637,28.6011918 L24.5003382,22.6535812 C24.9396609,22.4050736 25.2,21.9246271 25.2,21.4276119 L25.2,9.53238779 C25.2,9.01880584 24.9396609,8.55492523 24.5003382,8.30641778 L14.3796637,2.3588061 C14.1681362,2.22626876 13.9240686,2.16 13.6800008,2.16 Z M13.6800008,2.6570149 C13.8427128,2.6570149 13.9891534,2.70671642 14.1355947,2.78955224 L24.256272,8.73716392 C24.5328838,8.90283556 24.711864,9.21761176 24.711864,9.54895502 L24.711864,21.4441772 C24.711864,21.7755218 24.5328821,22.0902977 24.256272,22.25597 L14.1355947,28.2035807 C13.9891534,28.2864177 13.8427128,28.3361171 13.6800008,28.3361171 C13.5172889,28.3361171 13.354577,28.2864177 13.2244075,28.2035807 L3.10372889,22.25597 C2.82711874,22.0902977 2.64813545,21.7755218 2.64813545,21.4441772 L2.64813545,9.54895502 C2.64813545,9.21761176 2.82711874,8.90283556 3.10372889,8.73716392 L13.2244075,2.78955224 C13.3708481,2.70671642 13.5335602,2.6570149 13.6800008,2.6570149 Z M23.76,17.8158139 L2.88000017,17.8158139 L2.88000017,18 L23.76,18 L23.76,17.8158139 Z M9.97255268,13.7191432 C9.72350492,13.7191432 9.49106041,13.7534947 9.27521897,13.8565489 C9.05937754,13.9424274 8.87674262,14.0798331 8.72731385,14.2344144 C8.56128201,14.4061715 8.44505975,14.5951043 8.36204383,14.8012128 C8.29978189,14.968676 8.25619851,15.1361392 8.23829819,15.3108484 L8.22921832,15.4882413 L8.22921832,15.5054169 C8.22921832,15.7458767 8.27902791,15.9863368 8.36204383,16.1924452 C8.44505975,16.4157295 8.56128201,16.6046623 8.71071077,16.7592436 C8.86013936,16.9138249 9.04277446,17.0512306 9.25861589,17.1371092 C9.47445715,17.2229877 9.70690166,17.2745149 9.9559496,17.2745149 C10.2049974,17.2745149 10.4374419,17.2401635 10.6532833,17.1371092 C10.8691247,17.0512306 11.0517598,16.9138249 11.2011884,16.7592436 C11.3672203,16.5874865 11.4834425,16.3985537 11.5664585,16.1924452 C11.6287204,16.024982 11.6723038,15.8575189 11.6902041,15.6828097 L11.699284,15.5054169 L11.699284,15.4882411 C11.699284,15.2477813 11.6494744,15.0073214 11.5664585,14.8012128 C11.4834427,14.5779286 11.3672203,14.3889959 11.2177917,14.2344144 C11.0683629,14.0798331 10.885728,13.9424274 10.6698866,13.8565489 C10.4540451,13.7706703 10.2216006,13.7191432 9.97255268,13.7191432 Z M14.5550318,13.7191432 C14.2893808,13.7191432 14.0735394,13.7706703 13.8576979,13.8565489 C13.6418565,13.9424274 13.4592216,14.0798331 13.3097928,14.2344144 C13.1603642,14.4061715 13.044142,14.5951043 12.961126,14.8012128 C12.8988641,14.9557943 12.8552807,15.1296983 12.8373804,15.3084331 L12.8283005,15.4882413 L12.8283005,15.5054169 C12.8283005,15.7458767 12.8781101,15.969161 12.961126,16.1924452 C13.0441418,16.4157295 13.1603642,16.6046623 13.3097928,16.7592436 C13.4592216,16.9138249 13.6418565,17.0512306 13.8410949,17.1371092 C14.040333,17.2229877 14.2561745,17.2745149 14.5052221,17.2745149 C14.654651,17.2745149 14.8040796,17.2745149 14.9535082,17.2401635 C15.0697304,17.2229877 15.2025559,17.1714605 15.3021751,17.1199336 C15.4017941,17.0684064 15.5014133,17.0168792 15.6010323,16.9310007 C15.6674451,16.8737483 15.7264786,16.8241297 15.7830525,16.7668773 L15.8666833,16.6733651 L15.48481,16.2783238 C15.3353815,16.4157295 15.1859527,16.5187838 15.0531274,16.6046623 C14.9203018,16.6905409 14.7376667,16.7248922 14.5384286,16.7248922 C14.3889998,16.7248922 14.2395712,16.6733649 14.1067457,16.6218381 C13.9739204,16.5703108 13.8576979,16.4672566 13.7580789,16.3642023 C13.6584598,16.2439724 13.5754438,16.1237425 13.5256342,15.969161 C13.4924279,15.8661068 13.4666007,15.7630525 13.4530722,15.6549091 L13.4426183,15.4882411 L13.4426183,15.4710655 C13.4426183,15.316484 13.4758247,15.1619027 13.5256342,15.0073214 C13.5920471,14.8699157 13.6584598,14.73251 13.7580789,14.6294559 C13.8576979,14.5264016 13.9739204,14.440523 14.1067457,14.3718201 C14.2395714,14.3031172 14.3723967,14.268766 14.5384286,14.268766 C14.7376667,14.268766 14.9036986,14.3031173 15.0531274,14.3889959 C15.1527464,14.4462482 15.2449863,14.5111342 15.3347665,14.5836539 L15.468207,14.6981587 L15.8500802,14.2515902 C15.7670643,14.1657116 15.6840484,14.0970089 15.6010323,14.0283059 C15.5180164,13.9596032 15.4183974,13.908076 15.3187782,13.8565489 C15.2025559,13.8221975 15.1029368,13.7878459 14.9701114,13.7534947 C14.8372859,13.7363189 14.7044604,13.7191432 14.5550318,13.7191432 Z M4.31086673,13.7878461 L3.69654895,13.7878461 L3.69654895,17.2401635 L4.2776604,17.2401635 L4.2776604,14.7840372 L5.30705797,16.3813783 L5.32366105,16.3813783 L6.3696617,14.7668616 L6.3696617,17.2229877 L6.95077316,17.2229877 L6.95077316,13.7878461 L6.33645537,13.7878461 L5.32366105,15.4023626 L4.31086673,13.7878461 Z M17.6100177,13.7878461 L17.0289062,13.7878461 L17.0289062,17.2229877 L17.6100177,17.2229877 L17.6100177,15.7802283 L19.2039236,15.7802283 L19.2039236,17.2229877 L19.7850349,17.2229877 L19.7850349,13.7878461 L19.2039235,13.7878461 L19.2039235,15.2134299 L17.6100177,15.2134299 L17.6100177,13.7878461 Z M22.8898305,13.7706703 L22.3585287,13.7706703 L20.8974484,17.2229879 L21.4951629,17.2229879 L21.8438299,16.3985537 L23.4045291,16.3985537 L23.7365928,17.2229879 L24.3509108,17.2229879 L22.8898305,13.7706703 Z M9.9559496,14.268766 C10.1219814,14.268766 10.27141,14.3031173 10.4042355,14.3718201 C10.5370611,14.440523 10.6532833,14.5264016 10.7529025,14.6294557 C10.8525215,14.7496856 10.9355374,14.8699157 10.985347,15.024497 C11.0185534,15.1275514 11.0443806,15.2306056 11.0579091,15.3387489 L11.0683629,15.5054169 L11.0683629,15.5225927 C11.0683629,15.677174 11.0351566,15.8317553 10.985347,15.9863368 C10.9189343,16.1237425 10.8525215,16.261148 10.7529025,16.3642023 C10.6532835,16.4672566 10.5370611,16.5531352 10.4042355,16.6218379 C10.27141,16.6905409 10.1219814,16.7248922 9.9559496,16.7248922 C9.80652084,16.7248922 9.640489,16.6905409 9.50766366,16.6218381 C9.37483815,16.5531352 9.25861589,16.4672566 9.15899672,16.3642023 C9.05937754,16.2439724 8.97636162,16.1237425 8.92655221,15.969161 C8.89334581,15.8661068 8.86751857,15.7630525 8.85399,15.6549091 L8.84353611,15.4882411 L8.84353611,15.4710655 C8.84353611,15.316484 8.87674262,15.1619027 8.92655221,15.0073214 C8.99296487,14.8699157 9.05937754,14.73251 9.15899672,14.6294559 C9.25861572,14.5264016 9.37483815,14.440523 9.50766366,14.3718201 C9.640489,14.3031172 9.78991776,14.268766 9.9559496,14.268766 Z M22.6241797,14.49205 L23.1886879,15.8661068 L22.0596713,15.8661068 L22.6241797,14.49205 Z M14.9469231,9.25953488 L11.6930769,9.25953488 C11.6065385,9.25953488 11.52,9.32651155 11.52,9.42697674 C11.52,9.99627898 11.6065385,11.9553487 12.4719231,12.9097674 C12.5065384,12.9432557 12.5411539,12.96 12.5930769,12.96 L14.0469229,12.96 C14.0988462,12.96 14.1334616,12.9432559 14.1680769,12.9097674 C15.0334615,11.9720929 15.12,10.0130232 15.12,9.42697674 C15.12,9.34325581 15.0507693,9.25953488 14.9469231,9.25953488 Z M14.4796154,9.77860453 C14.5661539,9.77860453 14.6526923,9.84558138 14.6526923,9.94604639 C14.6526923,10.4148836 14.5661539,11.7376744 13.9776924,12.4241861 C13.9257693,12.4576743 13.891154,12.4744187 13.8392309,12.4744187 L12.8180769,12.4744187 C12.7661538,12.4744187 12.7315384,12.4576744 12.6969231,12.4241859 C12.1084616,11.7544185 12.0392308,10.4148836 12.0219232,9.94604639 C12.0219232,9.86232546 12.0911539,9.77860453 12.1950001,9.77860453 L14.4796154,9.77860453 Z M14.399,10.803 L14.3956911,10.8149061 C14.379071,10.8581818 14.3001255,10.989091 13.9344827,11.12 C13.3199999,11.3333333 12.24,11.1911112 12.24,11.1911112 C12.3331035,11.5644446 12.4820688,11.92 12.7055173,12.1866666 C12.717931,12.2103704 12.7468965,12.2261729 12.775862,12.2340741 L12.8172413,12.24 L13.7482758,12.24 C13.7855174,12.24 13.8227587,12.2222221 13.86,12.1866666 C14.1369828,11.8755555 14.2856574,11.4147223 14.3683958,10.9828125 L14.399,10.803 Z M23.7599991,11.52 L14.88395,11.52 L14.867577,11.704186 L14.867577,11.704186 L23.7599991,11.704186 L23.7599991,11.52 Z M11.2319999,11.52 L2.88,11.52 L2.88,11.704186 L11.2483763,11.704186 C11.2483763,11.6372091 11.2319999,11.5869767 11.2319999,11.52 Z M12.9565385,7.81953484 C12.8007693,8.00372095 12.5584615,8.18790689 12.8353847,8.60651153 C12.9219231,8.69023246 12.9565385,8.90790691 12.9565385,8.97488358 C12.9565385,8.97488358 13.371923,8.74046505 13.1123076,8.30511615 C12.9565385,8.08744188 12.8873078,7.88651151 12.9565385,7.81953484 Z M13.6488462,7.2 C13.4238461,7.46790704 13.0430769,7.75255816 13.4584615,8.35534875 C13.5969231,8.50604652 13.6661539,8.82418598 13.6488462,8.92465117 C13.6488464,8.92465117 14.271923,8.5730232 13.891154,7.9367441 C13.6661539,7.60186039 13.5623077,7.31720927 13.6488462,7.2 Z" transform="translate(12 9)"/>
</svg>
