<svg xmlns="http://www.w3.org/2000/svg" xmlns:xlink="http://www.w3.org/1999/xlink" width="50" height="50" viewBox="0 0 50 50">
  <defs>
    <path id="mongodb-a" d="M32.77,21.277 C30.8755,12.937 26.407,10.1965 25.927,9.148 C25.399,8.4085 24.8275,7 24.8275,7 C24.8245,7.0285 24.8215,7.0465 24.82,7.0735 L24.82,7.093 L24.8185,7.093 C24.8155,7.1155 24.814,7.1305 24.8125,7.1515 L24.8125,7.174 L24.8095,7.174 C24.8095,7.189 24.8065,7.201 24.8065,7.213 L24.8065,7.252 L24.802,7.252 C24.8005,7.264 24.8005,7.279 24.7975,7.2895 L24.7975,7.321 L24.7945,7.321 C24.7945,7.3315 24.7945,7.3435 24.7915,7.3525 L24.7915,7.3825 L24.7885,7.3825 C24.7885,7.3975 24.787,7.4155 24.7855,7.4305 L24.7855,7.4335 C24.781,7.459 24.7765,7.4845 24.772,7.5085 L24.772,7.5205 L24.769,7.5205 C24.7675,7.5265 24.7645,7.5325 24.7645,7.5385 L24.7645,7.564 L24.76,7.564 L24.76,7.597 L24.7525,7.597 L24.7525,7.624 L24.745,7.624 L24.745,7.6555 L24.739,7.6555 L24.739,7.684 L24.733,7.684 L24.733,7.7095 L24.724,7.7095 L24.724,7.7305 L24.718,7.7305 L24.718,7.7575 L24.712,7.7575 L24.712,7.7785 L24.7045,7.7785 L24.7045,7.798 L24.7,7.798 L24.7,7.8205 L24.694,7.8205 C24.6925,7.822 24.6925,7.825 24.6925,7.8265 L24.6925,7.8415 L24.688,7.8415 C24.6865,7.8445 24.6865,7.8475 24.6865,7.8505 L24.6865,7.8595 L24.6835,7.8595 C24.682,7.864 24.6805,7.8715 24.6805,7.8745 C24.676,7.885 24.67,7.8955 24.6655,7.906 L24.6655,7.909 C24.6625,7.912 24.6595,7.9165 24.658,7.9195 L24.658,7.9315 L24.652,7.9315 L24.652,7.9435 L24.6445,7.9435 L24.6445,7.9555 L24.64,7.9555 L24.64,7.9705 L24.631,7.9705 L24.631,7.9915 L24.625,7.9915 L24.625,7.9975 L24.619,7.9975 L24.619,8.0095 L24.613,8.0095 L24.613,8.026 L24.607,8.026 L24.607,8.038 L24.598,8.038 L24.598,8.0545 L24.592,8.0545 L24.592,8.0665 L24.5845,8.0665 L24.5845,8.0785 L24.58,8.0785 L24.58,8.0935 L24.5725,8.0935 L24.5725,8.1055 L24.5665,8.1055 L24.5665,8.1145 L24.5605,8.1145 L24.5605,8.1265 L24.5515,8.1265 L24.5515,8.14 L24.5455,8.14 L24.5455,8.149 L24.538,8.149 L24.538,8.161 L24.532,8.161 L24.532,8.1775 L24.5245,8.1775 L24.5245,8.1835 L24.52,8.1835 L24.52,8.1955 L24.511,8.1955 L24.511,8.2015 L24.505,8.2015 L24.505,8.2165 L24.499,8.2165 L24.499,8.2225 L24.493,8.2225 L24.493,8.2345 L24.4855,8.2345 L24.4855,8.2435 L24.481,8.2435 L24.478,8.2495 L24.478,8.2555 L24.475,8.2555 C24.4735,8.2585 24.472,8.2585 24.472,8.2615 L24.472,8.263 L24.4705,8.263 C24.469,8.2675 24.4675,8.2705 24.4645,8.2735 L24.4645,8.278 L24.463,8.278 C24.4555,8.287 24.451,8.296 24.445,8.305 L24.445,8.3065 C24.442,8.3095 24.4345,8.3155 24.4315,8.3215 L24.4315,8.3245 L24.43,8.3245 C24.4285,8.326 24.4255,8.3275 24.4255,8.329 L24.4255,8.3335 L24.4225,8.3335 L24.418,8.338 L24.418,8.3395 L24.4165,8.3395 C24.4165,8.341 24.4135,8.3425 24.412,8.3455 L24.412,8.3515 L24.4075,8.3515 L24.4045,8.3545 L24.4045,8.3575 L24.4015,8.3575 C24.4015,8.3605 24.3985,8.3605 24.3985,8.362 L24.3985,8.3665 L24.3925,8.3665 C24.3925,8.368 24.391,8.3695 24.3895,8.371 L24.3895,8.38 L24.385,8.38 L24.385,8.386 L24.379,8.386 L24.379,8.395 L24.373,8.395 L24.373,8.407 L24.3655,8.407 L24.3655,8.395 L24.358,8.395 L24.358,8.401 L24.352,8.401 L24.352,8.41 L24.3445,8.41 L24.3445,8.422 L24.337,8.422 L24.337,8.428 L24.331,8.428 L24.331,8.437 L24.325,8.437 L24.325,8.443 L24.319,8.443 L24.319,8.455 L24.31,8.455 L24.31,8.461 L24.304,8.461 L24.304,8.47 L24.2965,8.47 L24.2965,8.476 L24.2905,8.476 L24.2905,8.4835 L24.283,8.4835 L24.283,8.4985 L24.28,8.4985 L24.28,8.5045 L24.271,8.5045 L24.271,8.512 L24.265,8.512 L24.265,8.515 L24.259,8.515 L24.259,8.521 L24.2515,8.521 L24.2515,8.536 L24.2455,8.536 L24.2455,8.542 L24.238,8.542 L24.238,8.548 L24.232,8.548 L24.232,8.557 L24.2245,8.557 L24.2245,8.563 L24.217,8.563 L24.217,8.569 L24.211,8.569 L24.211,8.575 L24.205,8.575 L24.205,8.59 L24.199,8.59 L24.199,8.5975 L24.19,8.5975 L24.19,8.6035 L24.184,8.6035 L24.184,8.6095 L24.1765,8.6095 L24.1765,8.6185 L24.1705,8.6185 L24.1705,8.6245 L24.163,8.6245 L24.163,8.635 L24.157,8.635 L24.157,8.641 L24.148,8.641 L24.148,8.65 L24.145,8.65 L24.145,8.656 L24.139,8.656 L24.139,8.662 L24.1315,8.662 L24.1315,8.668 L24.1255,8.668 L24.1255,8.677 L24.118,8.677 L24.118,8.683 L24.1135,8.683 C24.112,8.6845 24.112,8.686 24.112,8.686 L24.112,8.689 L24.109,8.689 L24.103,8.695 C24.103,8.695 24.1,8.698 24.097,8.6995 L24.097,8.7085 L24.091,8.7085 L24.091,8.716 L24.085,8.716 L24.085,8.722 L24.079,8.722 L24.079,8.728 L24.0745,8.728 L24.07,8.7325 L24.07,8.737 L24.067,8.737 L24.064,8.74 L24.064,8.7445 L24.061,8.7445 C24.0535,8.7535 24.0505,8.7595 24.04,8.7685 C24.037,8.7715 24.028,8.779 24.022,8.7835 C24.004,8.7955 23.9815,8.815 23.9635,8.8315 C23.9515,8.839 23.9395,8.8495 23.9305,8.857 L23.9305,8.8585 L23.929,8.8585 C23.905,8.878 23.8825,8.896 23.8555,8.917 L23.8555,8.9185 C23.8195,8.9485 23.785,8.977 23.7445,9.0115 L23.7445,9.01 L23.7415,9.01 C23.656,9.0805 23.566,9.16 23.4625,9.2485 L23.4625,9.25 L23.461,9.25 C23.2075,9.472 22.906,9.757 22.5685,10.102 L22.546,10.1245 L22.54,10.1305 C20.5,12.241 17.2855,16.639 16.9465,23.746 C16.9165,24.334 16.9225,24.9055 16.9555,25.462 L16.9555,25.4755 C17.119,28.276 17.998,30.667 19.0975,32.6095 L19.0975,32.611 C19.5355,33.385 20.008,34.0885 20.4865,34.7185 L20.4865,34.72 C22.1395,36.9025 23.827,38.1955 24.2575,38.509 C24.919,40.0435 24.8575,42.6775 24.8575,42.6775 L25.8235,43 C25.8235,43 25.627,40.4485 25.903,39.217 C25.9885,38.8315 26.191,38.503 26.4265,38.224 C26.5855,38.1115 27.0565,37.7725 27.622,37.2565 C27.649,37.228 27.664,37.2025 27.688,37.1755 C29.9695,35.0485 34.231,29.8105 32.77,21.277 L32.77,21.277 Z"/>
  </defs>
  <use xlink:href="#mongodb-a"/>
</svg>
