<svg xmlns="http://www.w3.org/2000/svg" xmlns:xlink="http://www.w3.org/1999/xlink" width="50" height="50" viewBox="0 0 50 50">
  <defs>
    <path id="mssqlserver-a" d="M29.0049611,23.8488568 L21.7960287,26.2028282 L15.524358,28.9708422 L13.7697657,29.4340582 C13.3229074,29.8591063 12.8543645,30.2896069 12.3476034,30.7255099 C11.7918196,31.204983 11.2741785,31.6409614 10.876343,31.9569332 C10.4350126,32.3056958 9.78113301,32.9595502 9.44877836,33.3735927 C8.95289728,33.994757 8.56058965,34.654064 8.39166092,35.1608753 C8.09194622,36.0763268 8.23914011,37.002608 8.81670902,37.8581568 C9.5577541,38.947889 11.034442,40.0594315 12.7562436,40.8168343 C13.6335774,41.2037899 15.110215,41.6995956 16.2217575,41.9774498 C18.0688926,42.4460932 21.6434325,42.9528543 23.6104484,43.02919 C24.0081583,43.0455226 24.5422073,43.0455226 24.5639421,43.02919 C24.6075877,43.0018519 24.9127298,42.4188807 25.2669701,41.6942184 C26.4766335,39.2257935 27.3484394,36.9099899 27.82246,34.9320689 C28.1057919,33.7333609 28.3291708,32.1367922 28.476239,30.246087 C28.5144572,29.7175157 28.5307395,27.946616 28.4980493,27.3471866 C28.4489763,26.3664049 28.3617856,25.5709097 28.2256727,24.7916967 C28.2038625,24.6772433 28.1983346,24.5736949 28.2092899,24.5682675 C28.2310248,24.551935 28.2964052,24.5301499 29.1845939,24.2739803 L29.0048606,23.8488568 L29.0048606,23.8488568 L29.0049611,23.8488568 L29.0049611,23.8488568 Z M27.3593948,24.8133813 C27.4247752,24.8133813 27.5990811,26.4861601 27.6426513,27.5433278 C27.6536066,27.7667067 27.6480787,27.9138252 27.6372238,27.9138252 C27.5936788,27.9138252 26.7163449,27.3962345 26.0898286,27.0039268 C25.5448997,26.6606168 24.5096427,25.9740219 24.3461917,25.8432611 C24.2915907,25.8051434 24.2970182,25.799716 24.7439016,25.6470947 C25.501229,25.3909502 27.2994669,24.8133813 27.3593948,24.8133813 L27.3593948,24.8133813 Z M23.6868093,26.0230698 C23.7358823,26.0230698 23.8611152,26.0938274 24.1608299,26.2791389 C25.2832775,26.9820412 26.8090384,27.8321123 27.4628928,28.1154944 C27.6644615,28.20266 27.6861963,28.1699195 27.2231311,28.486017 C26.2314192,29.1616565 24.9944428,29.8263909 23.4796373,30.4966282 C23.2126882,30.616509 22.9893093,30.709102 22.9838819,30.709102 C22.973027,30.709102 23.0056167,30.572964 23.0491618,30.4094627 C23.4142569,29.0525803 23.6213535,27.679491 23.6323089,26.5788033 C23.6377363,26.0338744 23.6377363,26.0338744 23.6868093,26.0176172 C23.6758539,26.0230698 23.6812814,26.0230698 23.6868093,26.0230698 L23.6868093,26.0230698 Z M22.9294317,26.3118291 C22.9620214,26.3444691 22.9402865,27.5650878 22.8966661,27.8974424 C22.7985955,28.6930131 22.6460244,29.434033 22.3954581,30.2677967 C22.3355051,30.4692649 22.2809293,30.6382941 22.2701498,30.649149 C22.2482391,30.6763615 21.5017414,29.9462215 21.2565523,29.6628896 C20.8315042,29.1724611 20.4991998,28.6820577 20.2539855,28.2025846 C20.1286521,27.9573703 19.932536,27.4779223 19.9488434,27.4615395 C20.0360089,27.4016116 22.9076214,26.2900691 22.9294317,26.3118291 Z M19.3657717,27.7121812 C19.3711991,27.7121812 19.3766266,27.7121812 19.3821545,27.7176086 C19.3930094,27.7285137 19.4312275,27.8157295 19.4639177,27.913775 C19.6382236,28.3878458 20.030481,29.0852956 20.3684138,29.5321288 C20.7389364,30.0225573 21.2239375,30.5456007 21.6270497,30.8888856 C21.7578859,30.9978613 21.8776914,31.1013594 21.8939988,31.1177421 C21.9267644,31.1504575 21.9376444,31.1449547 21.0494306,31.4828373 C20.0197015,31.8751449 18.8971534,32.2674525 17.6111794,32.6815453 C17.3039886,32.7805836 16.997078,32.8804889 16.6904512,32.98126 C16.641328,32.9976428 16.6577107,32.9703549 16.7993767,32.7470011 C17.4368735,31.7498115 18.40675,29.7936756 18.951679,28.4096309 C19.0443222,28.1698692 19.1369402,27.9301578 19.153323,27.8756574 C19.1751333,27.7993216 19.2023207,27.772109 19.2731285,27.7339411 C19.3112713,27.7231365 19.3494643,27.7121812 19.3657717,27.7121812 Z M18.2760897,28.1644418 C18.2923971,28.1753972 18.0144926,28.7583684 17.7420407,29.2923671 C17.2134694,30.3221966 16.6359005,31.335769 15.8621652,32.5671924 C15.7314044,32.7796662 15.6061212,32.9758828 15.5897384,32.9976679 C15.5625259,33.0358358 15.5515706,33.0248804 15.464405,32.8560019 C15.2791438,32.4909068 15.1265225,32.0222634 15.0448095,31.5917879 C14.9630463,31.1667398 14.9794291,30.4257449 15.0720974,29.9680569 C15.142855,29.6302497 15.1374778,29.6357022 15.3009289,29.553939 C15.9983786,29.1997742 18.2542795,28.1426567 18.2760897,28.1644418 L18.2760897,28.1644418 Z M27.6754169,28.5459197 L27.6754169,28.7747512 C27.6754169,29.9898671 27.544656,31.6572185 27.3538668,32.8723847 C27.3211766,33.0848585 27.2938384,33.2591644 27.2884864,33.2646924 C27.2884864,33.2646924 27.1304879,33.2211473 26.9452266,33.1665715 C26.1279211,32.9104521 25.2397324,32.534477 24.4387092,32.0931969 C23.9100877,31.8043873 23.1418552,31.3302662 23.1636906,31.308456 C23.1690426,31.3030537 23.3979495,31.1831728 23.6648986,31.0414817 C24.7330216,30.4857231 25.7573232,29.8863439 26.6455119,29.2924174 C26.9779168,29.0689882 27.4791248,28.709421 27.5882262,28.6113001 L27.6754169,28.5459197 Z M14.1620733,30.1586953 C14.1838584,30.1586953 14.1784059,30.2022907 14.1457157,30.398457 C14.1239054,30.5401732 14.0966929,30.80172 14.0858632,30.9814534 C14.0421674,31.777024 14.1730287,32.3655483 14.5653363,33.1719487 C14.6743121,33.3953778 14.761553,33.5806391 14.756025,33.5860414 C14.7178571,33.6187819 11.1107526,34.6759244 9.97729939,34.9864689 C9.63949219,35.0790618 9.34530543,35.160825 9.3233947,35.1662022 C9.28532731,35.1771576 9.27984963,35.1717301 9.29618217,35.0790115 C9.42149045,34.2780889 10.0317998,33.2318765 10.8817955,32.3491152 C11.4485096,31.7606663 11.9007953,31.4174066 12.6745306,30.9759757 C13.2303144,30.6600038 14.0857878,30.1860084 14.1511682,30.1641479 C14.1512185,30.1586953 14.1566459,30.1586953 14.1620733,30.1586953 L14.1620733,30.1586953 Z M22.6624072,31.6789534 C22.6678346,31.673526 22.7985955,31.7444092 22.9565939,31.8370021 C24.1226871,32.5126919 25.7464432,33.1393338 27.1303874,33.4607834 L27.2557962,33.4880713 L27.0813898,33.5860414 C26.3567275,33.9893044 23.9755435,34.980966 21.5399345,35.8909901 C21.1856942,36.0217007 20.837007,36.1525369 20.7715261,36.1797494 C20.7061457,36.206962 20.6461927,36.2233448 20.6461927,36.2179173 C20.6461927,36.2123894 20.7443387,36.0217007 20.8695716,35.7874418 C21.5506888,34.512398 22.2373088,32.9594749 22.5860212,31.8805723 C22.629717,31.7770491 22.6568793,31.6844562 22.6624072,31.6789534 L22.6624072,31.6789534 Z M21.7960287,31.9623355 C21.8015566,31.9678886 21.7579111,32.0822164 21.7033855,32.2129772 C21.2293649,33.3626876 20.6081002,34.6160217 19.8126049,36.0218012 C19.6110362,36.3814689 19.4420824,36.6702785 19.4365544,36.6702785 C19.4312024,36.6702785 19.267676,36.5721325 19.0715347,36.4522767 C17.9162964,35.7438967 16.8919445,34.8720908 16.2217827,34.0274974 L16.1236618,33.9076166 L16.6194675,33.7713781 C18.3958449,33.2864775 19.9051225,32.7633839 21.4036457,32.1204345 C21.6161949,32.0332188 21.7906013,31.9623355 21.7960287,31.9623355 L21.7960287,31.9623355 Z M27.1795609,33.842211 C27.1795609,33.842211 27.1850135,33.8476636 27.1795609,33.842211 C27.1849883,33.9675444 26.9070839,35.0900423 26.6782022,35.901845 C26.4875135,36.5829622 26.3239619,37.1170112 26.0243477,38.0595998 C25.8935869,38.4738182 25.779234,38.8170026 25.773706,38.8170026 C25.7682786,38.8170026 25.7355884,38.8115751 25.7028982,38.8007454 C24.0845946,38.5064079 22.6351695,38.0977677 21.2729351,37.5529141 C20.8914572,37.4002928 20.3466036,37.1550785 20.3139134,37.127866 C20.3030586,37.1168604 20.6300109,36.9643898 21.0441036,36.784556 C23.5233583,35.700226 26.0952309,34.4687524 26.9779168,33.9402817 C27.0814149,33.8748761 27.1631781,33.842211 27.1795609,33.842211 L27.1795609,33.842211 Z M14.7505976,34.2672591 C14.7615027,34.278114 14.0694804,35.2753036 13.0995285,36.6320603 C12.7617213,37.1061312 12.3694136,37.6618899 12.2223202,37.8689362 C12.0751766,38.0760077 11.8517977,38.4029601 11.7264643,38.5991265 L11.4975072,38.9533165 L11.2522929,38.7462701 C10.9634834,38.5064581 10.4622502,37.9942948 10.2388462,37.7109377 C9.77020277,37.1279665 9.45423092,36.5122297 9.32889751,35.9510436 C9.26894452,35.6894466 9.26894452,35.5586103 9.32336957,35.5423532 C9.40508253,35.5205681 10.8599602,35.1772581 12.22227,34.8611606 C12.9796727,34.6868547 13.856881,34.4798083 14.1729282,34.4035228 C14.4890006,34.3271116 14.7451702,34.2672591 14.7505976,34.2672591 L14.7505976,34.2672591 Z M15.4480222,34.5342585 L15.6223281,34.7303997 C16.4070691,35.6076833 17.208042,36.2562109 18.1779437,36.8227741 C18.3523501,36.9209202 18.4830858,37.0080354 18.4721304,37.0135885 C18.4340882,37.040801 15.1047122,38.2231011 13.5626942,38.7571249 C12.696366,39.0622419 11.9825083,39.3074311 11.9771311,39.3074311 C11.9717037,39.3074311 11.9226307,39.2747911 11.8680549,39.2366232 L11.7700345,39.1657651 L11.928033,38.9369588 C12.4401963,38.1958886 13.0832713,37.3840356 14.4836234,35.694874 L15.4480222,34.5342585 Z M19.7963226,37.6455322 C19.8016747,37.6401299 20.0414364,37.7272452 20.3356483,37.8363465 C21.0441036,38.1032956 21.6052395,38.2721741 22.3572651,38.4629131 C23.2835965,38.6972473 24.6239956,38.9261039 25.4141388,38.9914592 C25.5340197,39.0023141 25.5994001,39.0132694 25.5775899,39.0296271 C25.5393717,39.0514373 24.7384742,39.3184367 24.149975,39.503698 C23.2126882,39.7978847 20.3520562,40.642453 18.0199452,41.3127153 C17.5894697,41.4380236 17.218922,41.5415719 17.1971369,41.5469742 C17.1427118,41.5579296 16.9628277,41.5088063 16.9628277,41.4870212 C16.9628277,41.4761915 17.0935886,41.3072879 17.2516373,41.1220015 C18.0362275,40.1847649 18.8154907,39.1386028 19.4639177,38.146891 C19.6436762,37.8743637 19.7963226,37.6509847 19.7963226,37.6455322 Z M25.6265624,39.2638357 C25.6483726,39.3183864 24.7657118,41.7703783 24.4440864,42.5440884 C24.3733539,42.7184446 24.3461917,42.7621153 24.3079735,42.7565622 C24.2153303,42.7512102 22.9348842,42.5713763 22.1555959,42.4569229 C20.7988894,42.2498766 18.5212034,41.852041 17.9491122,41.7213304 L17.8183514,41.6941179 L18.6301289,41.508731 C20.3738413,41.1164233 21.212957,40.9039495 22.0629527,40.6424027 C23.1364278,40.3154755 24.1990229,39.9067851 25.2723975,39.4055268 C25.4413011,39.3292162 25.5829922,39.2692883 25.621135,39.2638357 L25.6265624,39.2638357 Z M18.8372819,37.6728452 C18.842653,37.6782727 18.455823,38.2994118 17.7802337,39.3673841 C17.4913739,39.8196447 17.1698741,40.3318332 17.0554207,40.511667 C16.9464449,40.6860232 16.7829939,40.9585253 16.690401,41.1110462 L16.5323522,41.3889757 L16.4506393,41.3671655 C16.2544226,41.3126651 14.8758808,40.827664 14.5107857,40.6805706 C14.0584999,40.5007368 13.5899067,40.2828356 13.2411442,40.0975743 C12.8052915,39.86324 12.2604379,39.5144774 12.3039829,39.5036477 C12.3148629,39.4982203 13.0613857,39.296526 13.9604041,39.0513871 C16.3470658,38.4028847 17.6711072,38.0269598 18.5375611,37.7545331 C18.6956099,37.7054852 18.8317981,37.6673173 18.8372819,37.6728452 Z M21.5726498,7.0444057 C21.6326279,7.04993364 21.6434828,7.07171873 21.736126,7.44224127 C21.9050798,8.05255065 22.2102471,8.90249609 22.5316966,9.63811374 C22.9043801,10.4914187 23.5154159,11.7154713 24.1026429,12.7779995 L24.2971438,13.1254631 L24.4079645,13.3219305 C25.5845594,13.5017178 27.0327349,13.7521277 27.691674,13.8828909 C31.1897777,14.5749133 33.9524647,15.5066722 36.0884344,16.6999276 C37.6414581,17.5717838 38.9109739,18.6233733 39.9570858,19.9202273 C40.3167534,20.3670354 40.6165435,20.7865556 41.0523711,21.4622454 L41.0523711,21.4622454 L41.1287069,21.5821262 L40.6327756,21.658462 C35.8596281,22.3885266 27.4736472,24.6335223 22.3735976,26.5515908 C18.831773,27.8811099 15.9438279,29.1724862 13.3774329,30.5783914 C12.2658904,31.1887008 11.7918196,31.4665047 11.4431073,31.7281018 L11.4431073,31.7281018 L10.9035806,31.9079356 C14.5924735,28.8783246 16.9845877,26.1484032 18.1179656,23.674576 C18.7554372,22.2959839 19.0116068,21.1081307 18.9789166,19.7568014 C18.9244162,17.6534968 18.3413445,16.1277861 17.0009705,14.5803407 C16.7067084,14.2424581 14.2819542,11.8776569 14.2819542,11.8776569 C14.0476953,11.6596552 13.8406741,11.4471814 13.7697657,11.2728755 C13.740953,11.2015115 13.7269961,11.136019 13.7222396,11.0779671 L13.7044104,11.060276 C13.7044104,10.9948956 13.7153658,10.9295152 13.7371509,10.8750148 L13.7571788,10.8354895 C13.7671152,10.8115532 13.775168,10.7987292 13.775168,10.7987292 C13.7757175,10.8008522 13.7762764,10.8029687 13.7768446,10.8050787 C13.8947634,10.631703 14.2125301,10.3239874 14.4726931,10.1393971 C15.2791689,9.57283383 16.5868275,8.91892914 18.2705869,8.23228398 C19.5183428,7.7255983 21.4527689,7.02814854 21.5726498,7.0444057 Z M20.9348846,24.0239932 L20.9132674,24.0232632 C20.9024628,24.0286906 20.7988894,24.154024 20.6844359,24.2902877 C19.6273688,25.5870914 18.2161618,26.8839957 16.5868275,28.0663461 C16.3797812,28.2189674 16.2109027,28.3443008 16.2109027,28.3497282 C16.2109027,28.3551556 16.4288542,28.2516073 16.6958786,28.1154693 C16.9628277,27.984608 17.3715182,27.7884918 17.6057519,27.6794658 C18.4395407,27.2981136 19.6709138,26.7858748 21.005986,26.268284 L21.005986,26.268284 L21.7523831,25.9794745 L21.7416036,25.8704485 C21.6815753,25.3691651 21.4418136,24.7479003 21.1312189,24.2848351 C20.9841758,24.0668334 20.9513851,24.0178609 20.9242228,24.0232381 Z M20.0796545,24.2303347 C20.0578443,24.2084993 18.2107093,25.461758 17.4097112,26.0393521 C17.1099714,26.2519515 17.0718035,26.2901194 16.8647571,26.5570685 C16.5541624,26.960231 16.2817608,27.2871582 15.9220931,27.6740384 C15.355379,28.2897752 15.3063563,28.3443008 15.3445242,28.3225157 C15.360907,28.3115603 15.5080004,28.2189674 15.6714514,28.1154693 C16.962878,27.2981136 18.0036378,26.4589476 19.0552775,25.3854474 C19.4803005,24.954997 20.1014647,24.2521198 20.0796545,24.2303347 Z M25.9753501,20.8956067 C25.9588668,20.8847016 24.901875,21.4186752 24.2262103,21.7782926 C23.2236436,22.3176936 21.6380302,23.2222149 21.5345322,23.3148832 C21.507194,23.3420957 21.5290042,23.4020487 21.6543376,23.6526904 C21.9486249,24.2520193 22.1175034,24.9549216 22.1175034,25.614304 C22.1175034,25.7396374 22.1229308,25.8213503 22.1393136,25.8159229 C22.150269,25.8104452 22.3845278,25.543471 22.6569044,25.2219209 C23.3107588,24.4482359 24.2589005,23.2604079 24.7928741,22.5520279 C25.2397324,21.9580762 25.9862049,20.9064615 25.9753501,20.8956067 Z M27.1142056,20.6122748 L26.9234415,20.9064364 C25.9752998,22.3285987 24.7003314,23.7890043 23.2617863,25.1129703 C22.7753161,25.5616143 22.7309874,25.6009939 22.7490295,25.6035192 L22.7604024,25.603424 C22.7767852,25.603424 22.9893093,25.5271384 23.239951,25.4345455 C25.4903741,24.6062595 27.4192724,23.9905227 29.9149098,23.2985758 L29.9149098,23.2985758 L30.3561648,23.1732926 L30.2908849,23.1023843 C30.1709035,22.9716234 29.5715495,22.4320968 29.2610553,22.1760528 C28.7105984,21.7129122 27.9913636,21.1844163 27.3812301,20.7865807 L27.3812301,20.7865807 L27.1142056,20.6122748 Z M19.0878672,22.5847683 C19.0770124,22.5847683 19.0224868,22.7046492 18.9789166,22.8626728 C18.8590358,23.2277679 18.6901573,23.6473635 18.5212788,24.0015032 C18.3304896,24.3992383 18.1507563,24.709833 17.7910886,25.2601893 C17.7366635,25.3419023 17.7528956,25.3310223 18.2325195,24.9495947 C18.6901573,24.5844996 19.4747726,23.9905227 19.9924387,23.6200002 C20.1777,23.4838622 20.3193157,23.3693836 20.3084609,23.3585288 C20.0305815,23.1296219 19.7199868,22.917123 19.3712745,22.7264343 C19.2295834,22.6500985 19.10425,22.5847683 19.0878672,22.5847683 Z M35.2057988,17.3484049 C35.1948434,17.3374495 34.491916,17.5390685 33.8325839,17.7460897 C32.5737721,18.132995 30.8956914,18.732349 29.6642178,19.2336827 C28.9611899,19.5169643 28.0349589,19.914825 28.0349589,19.9311324 C28.0349589,19.9365599 28.0840319,19.9801552 28.1439849,20.0237254 C28.2039379,20.0673207 28.3836712,20.2144392 28.5471223,20.3507029 C29.4135008,21.0699377 30.143691,21.8709358 30.7540004,22.7863873 C30.8303361,22.906243 30.9010686,23.0042634 30.906496,23.0042634 C30.912024,23.0042634 31.0917573,22.775457 31.3098093,22.5030303 C31.5222328,22.2306035 32.1653078,21.41865 32.7373236,20.6994654 C33.8216536,19.3372561 34.3013027,18.7159662 34.6281796,18.2473731 C34.8570111,17.9259235 35.2165783,17.3592346 35.2057988,17.3484049 Z M35.6253189,17.4573052 L35.6168066,17.4730679 C35.5869536,17.531497 35.4897777,17.7359101 35.3801549,17.9694686 C34.4866142,19.7676563 33.7291612,20.7757007 32.07274,22.3722192 C31.8056904,22.6282883 31.5932668,22.8407621 31.6040463,22.8407621 C31.6150017,22.8407621 31.7838801,22.8025942 31.9745688,22.7590491 C34.7971586,22.077957 37.734051,21.5930816 40.0280444,21.41865 C40.2486844,21.4023301 40.4448304,21.3859959 40.5291134,21.3788489 L40.5728728,21.375105 C40.5838282,21.3696775 39.8700208,20.6286325 39.5812614,20.3452503 C38.5567839,19.3426333 37.2600304,18.3672288 35.9359136,17.6098261 C35.77789,17.5172834 35.6470538,17.4519029 35.6253189,17.4573052 L35.6253189,17.4573052 Z M22.7822127,18.8304448 C22.7659052,18.8141123 21.6870027,19.6804656 21.1748393,20.1218463 C20.4610319,20.7321305 19.529273,21.5766988 19.529273,21.6202941 C19.529273,21.6311238 19.643651,21.6965796 19.7908701,21.7727898 C20.1613172,21.9635539 20.4501771,22.1760528 20.8043168,22.5193628 L20.8043168,22.5193628 L21.1094589,22.8135244 L21.2456472,22.5955729 C21.3164802,22.4702647 21.4472159,22.2468355 21.534507,22.0943398 C21.8995268,21.4404603 22.2754767,20.5741069 22.4989561,19.8820846 C22.6133342,19.5169894 22.7985955,18.8468276 22.7822127,18.8304448 Z M23.4905927,18.6997342 C23.4742852,18.6997342 23.4524499,18.7541593 23.4307402,18.8358722 C23.2072608,19.8766571 22.8150034,20.9446546 22.3245749,21.8381953 C22.1774312,22.1051696 22.1720038,22.1270803 22.193814,22.1270803 C22.1992414,22.1270803 22.4171929,21.9962441 22.6787146,21.8381953 C23.5941912,21.2823864 24.4714246,20.7974858 25.4959021,20.2852973 C25.8172511,20.1272486 26.0788481,19.99101 26.0734207,19.9855826 C26.0353031,19.9529427 25.2996603,19.5605345 24.8092569,19.3154208 C24.2752833,19.0484968 23.5669284,18.7159914 23.4905927,18.6997342 Z M19.3059596,17.3316059 L19.2895364,17.3320221 C19.2840839,17.3374495 19.3003913,17.4681601 19.3167992,17.6207814 C19.4911805,18.8140871 19.5183428,19.99101 19.3930345,20.9064615 C19.3876824,20.9500317 19.3930345,20.9827973 19.4039899,20.9827973 C19.4148447,20.9827973 19.6218408,20.7921086 19.8670551,20.5577241 C20.6898885,19.7621535 21.3765085,19.135612 22.090316,18.5416855 C22.2646219,18.3890642 22.4116901,18.2637307 22.4116901,18.2583033 C22.4116901,18.2255629 21.0931013,17.7842576 20.471937,17.6098261 C20.0632717,17.4954983 19.3058438,17.3156393 19.2895364,17.3320221 Z M28.7487915,14.999886 C28.7269812,14.9780506 27.5282732,15.6428604 26.7926556,16.0896434 C25.8663241,16.6454272 24.1117318,17.8060427 24.1499499,17.8387832 C24.1554025,17.8495878 24.3461665,17.9259235 24.5640426,18.0185165 C25.3487333,18.345494 26.0679682,18.6942063 26.7000124,19.0647288 C26.8689662,19.1627994 27.0161099,19.2445627 27.0268893,19.2391352 C27.0378698,19.2337078 27.1413679,19.0702316 27.2558967,18.8686127 C27.9042483,17.7353102 28.4327694,16.531024 28.6289106,15.7191208 C28.694291,15.4576243 28.7651743,15.0162185 28.7487915,14.999886 Z M29.1628842,15.0652413 C29.1465014,15.0652413 29.1302694,15.1469291 29.1247163,15.2504774 C29.0321736,16.3512153 28.6561985,17.6426168 28.0731519,18.8794927 C28.002319,19.032114 27.9478185,19.1574223 27.9587739,19.1574223 C27.9695534,19.1574223 28.1112444,19.1029218 28.2692681,19.0375414 C30.2036691,18.2529261 32.2089031,17.6316614 34.551869,17.0922604 L34.551869,17.0922604 L34.8296729,17.0269302 L34.431963,16.8470461 C33.4729413,16.4111432 32.0017814,15.8717422 30.7212348,15.4902894 C30.2036691,15.3377183 29.2119572,15.0652413 29.1628842,15.0652413 Z M22.580644,13.8011277 C22.531571,13.7847449 21.0385757,14.9398827 20.4883449,15.424909 C20.1995856,15.6809781 19.5238958,16.3566176 19.5238958,16.3893581 C19.5238958,16.4002381 19.8997704,16.5146664 20.3630115,16.6399998 C21.1748645,16.8688061 22.1229308,17.1467608 22.7059774,17.3320221 L22.7059774,17.3320221 L22.9893093,17.424615 L23.0056167,17.37019 C23.0165721,17.342877 23.0274269,17.1304032 23.0383823,16.9015466 C23.0710725,16.0787634 22.9784293,15.1960524 22.7767852,14.4059092 C22.6678346,13.997269 22.6133342,13.8119826 22.580644,13.8011277 Z M22.9699965,13.8555768 L22.9566191,13.8555528 C22.9511665,13.8610807 22.9838567,13.9427937 23.0219744,14.0299843 C23.4034774,14.9126953 23.6105489,15.9589077 23.6105489,16.9941646 C23.6105489,17.1849036 23.6160014,17.342877 23.6214289,17.342877 C23.6268563,17.342877 23.8611906,17.190331 24.1390951,17.0050697 C25.2015143,16.2966395 26.269562,15.7136934 27.7080317,15.0652161 C28.0731268,14.9017651 28.1875802,14.8363847 28.15489,14.8255298 C28.0895347,14.7982419 26.9888973,14.5693602 26.2314443,14.4222668 C25.2124948,14.2260753 22.9730019,13.8392956 22.9566191,13.8555528 Z M17.8619216,12.902059 L17.8582812,12.9021266 L17.8619769,12.9148091 C17.8728377,12.9439592 17.898615,13.0037254 17.931059,13.0740697 L17.9654196,13.1471979 C18.3359422,13.9372406 18.7446829,15.0597385 18.9407236,15.8171412 C18.9680869,15.9316449 19.0006766,16.0242378 19.0006766,16.0242378 C19.0006766,16.0242378 19.1369654,15.893477 19.2949639,15.7354283 C19.6873217,15.3431206 20.2321502,14.9072177 20.8370321,14.5040049 C21.0767185,14.3405036 21.8014813,13.9100783 21.9812146,13.8174854 C22.0629778,13.7738398 22.1284336,13.7357724 22.1284336,13.7248171 C22.1284336,13.7139873 21.9867174,13.6812217 21.8068836,13.6540092 C20.7443889,13.4741754 19.0824398,13.1581281 18.1561083,12.9510818 C18.0090652,12.9184167 17.8891844,12.902059 17.8619216,12.902059 L17.8619216,12.902059 Z M15.1810731,12.1610139 C15.1810731,12.1664414 15.2955266,12.2645371 15.4480222,12.3734123 C16.6141154,13.2888638 17.6221599,14.4276691 18.2597069,15.550167 C18.3305147,15.6754753 18.3903672,15.7681687 18.3959705,15.7626408 C18.4014231,15.7626408 18.3468222,15.5447396 18.2760897,15.2885699 C18.0908284,14.6128801 17.540472,12.8530111 17.5022539,12.8148432 C17.4968265,12.8148432 17.2244248,12.7385326 16.8974976,12.6568448 C16.6571693,12.5955026 16.4174141,12.531937 16.1782627,12.4661561 C15.8621401,12.3789152 15.5951659,12.2971519 15.3881195,12.2263944 C15.2736158,12.1882265 15.1864503,12.1556368 15.1810731,12.1610139 Z M22.5425263,11.2401099 C22.5370989,11.2346825 22.5261435,11.2401099 22.5207161,11.2509899 C22.4989813,11.2673727 22.384553,11.3654433 22.2592196,11.4689916 C21.7469808,11.8994671 21.169437,12.3027301 20.5972704,12.618702 C20.5388332,12.6501905 20.4915124,12.681679 20.4767397,12.6947832 C21.4056916,12.8475863 22.3925312,13.0069265 23.5822432,13.1932978 C23.5816276,13.1854855 23.5707693,13.1732977 23.5614005,13.158103 C23.4198602,12.9456292 22.8421656,11.8448913 22.6569044,11.4362511 C22.591524,11.2891326 22.5643617,11.2401099 22.5425263,11.2401099 Z M17.8563936,12.8966065 L17.8570846,12.9034127 L17.8582812,12.9021266 L17.8563936,12.8966065 Z M16.2326375,9.76347228 L16.5160699,10.0195163 C16.7856255,10.2738516 17.45865,10.9173408 18.3269087,11.7595226 L18.5158765,11.9429619 L19.0337192,12.450403 C19.208648,12.4802391 19.3829596,12.5098485 19.5576909,12.5393877 C19.6105675,12.5176705 19.7441292,12.4421748 19.8888653,12.3517278 C20.4773645,11.9866326 21.3274355,11.5125618 22.1010954,11.1256816 C22.2973121,11.0330886 22.4497826,10.9513506 22.4443552,10.9459231 C22.4390032,10.9459231 22.2863567,10.9295403 22.1065983,10.9131827 C20.5888463,10.789304 17.902423,10.2839417 16.6417099,9.8974574 L16.445237,9.83422987 L16.2326375,9.76347228 Z M16.0147614,9.93235075 L15.9439284,9.98144888 C15.2153571,10.4974872 14.7639107,11.0041443 14.69879,11.3662066 L14.6906697,11.4471311 L14.6914871,11.5061144 C14.7477684,11.5269185 14.8024439,11.5470148 14.8540957,11.5671125 C15.3444991,11.7360161 15.9710656,11.8831095 16.2979928,11.9540178 C16.740609,12.0493857 17.3409165,12.1581102 17.8799189,12.2521577 C17.8674186,12.2352672 17.8405531,12.2009739 17.8050183,12.1567405 L17.7203059,12.0519377 C17.6353138,11.9470911 17.2710938,11.5034128 16.8878433,11.0230794 L16.7830442,10.8913976 L16.0147614,9.93235075 Z M21.490962,7.32238555 C21.332863,7.34959808 19.2840839,8.20507145 18.5375862,8.54843172 C17.9545396,8.82080826 16.6304982,9.51288084 16.6522833,9.53466594 C16.6522833,9.54009337 16.8974976,9.57821101 17.1863072,9.6163789 C18.9898971,9.86702059 21.4800317,10.2974961 22.0358155,10.4500169 C22.2700744,10.5209002 22.2700744,10.5535652 22.0685057,9.95416098 C21.8015566,9.15859033 21.6325023,8.42309831 21.5399596,7.6601425 C21.5181242,7.48043429 21.496314,7.32776273 21.490962,7.32238555 Z"/>
  </defs>
  <use xlink:href="#mssqlserver-a"/>
</svg>
