<svg xmlns="http://www.w3.org/2000/svg" xmlns:xlink="http://www.w3.org/1999/xlink" width="50" height="50" viewBox="0 0 50 50">
  <defs>
    <path id="mysql-a" d="M7.15647404,8.24443814 C8.17550934,5.74546982 11.7422254,7.63773252 13.1248851,8.51125961 C13.4646171,8.72968017 13.8529029,9.19056558 14.2410345,9.36043267 C14.8475914,9.38478733 15.4542987,9.43318756 16.0606963,9.45754223 C17.2010484,9.7243637 18.2684847,9.9427823 19.1662121,10.4522258 C23.339317,12.902787 26.0567104,15.4017584 28.5556679,19.52631 C29.089465,20.3996723 29.3564403,21.3459599 29.7929724,22.292243 C30.3995172,23.6994144 31.0791372,25.1791931 31.7824904,26.5137558 C32.097866,27.144667 32.3404869,27.8481749 32.7773268,28.3819702 C32.9470376,28.6245937 33.4324375,28.6971943 33.7234589,28.843012 C34.5240676,29.2553445 35.4945516,29.5708768 36.2467727,30.0561182 C37.6539405,30.9294957 39.0127139,31.9725832 40.250019,33.0403291 C40.7110609,33.4528183 41.026592,34.0350139 41.4631239,34.4718568 L41.4631239,34.4718568 L41.4631239,34.6901214 C41.0749923,34.8114326 40.6867028,34.9327431 40.298571,35.0298515 C39.4494103,35.2481188 38.6973408,35.1995648 37.8723676,35.4179832 C37.3627675,35.5636499 36.7320148,35.7577138 36.1982207,35.806269 C36.2062874,35.8143359 36.214371,35.8224028 36.2215639,35.8295734 L36.2467727,35.8546706 C36.5621586,36.7523999 38.2606572,37.4802615 39.0369205,38.0140599 C39.9831916,38.6933689 40.8565714,39.518334 41.5602343,40.4644648 L41.5602343,40.4644648 L42.2880972,41.1681263 C42.457808,41.410748 42.50636,41.726125 42.6762288,41.9445438 L42.6762288,41.9445438 L42.6762288,42.0172985 C42.3364976,41.8959881 42.1667868,41.5804588 41.8998075,41.3865471 C41.3660074,41.0226163 40.832523,40.5856199 40.298571,40.2461988 C39.3766392,39.6638491 38.3090512,39.3242745 37.3627675,38.7419222 C36.8291188,38.4021915 36.319525,38.0140599 35.8100827,37.6259282 C35.3490409,37.2861976 34.8397504,36.6309364 34.5484195,36.1458492 C34.3785569,35.8790281 34.3543568,35.5636511 34.1601361,35.3694305 C34.2086881,34.9085435 34.7910404,34.9083912 35.1549719,34.7628799 C36.4166417,34.2292358 37.9209195,34.0350176 39.8618873,34.083418 C39.7889709,33.598332 38.5760177,32.991626 38.1877344,32.7006029 C37.4113195,32.1426069 36.5863462,31.560099 35.7615244,31.0508111 C35.3248407,30.7839906 34.5726196,30.58977 34.0873777,30.3715027 C33.4322795,30.1045274 31.9767046,29.8375533 31.6126196,29.3282641 C30.8847598,28.381979 30.3995184,27.217272 29.8900764,26.0770778 C29.3806329,24.9125268 28.7498809,23.6994226 28.2402846,22.5105185 C27.9733093,21.9283185 27.852153,21.4185699 27.5609768,20.8607261 C25.7897116,17.4398252 23.1695935,14.5767738 19.9911695,12.5630571 C18.9477666,11.9079486 17.7833748,11.3012429 16.497361,10.8889104 C15.7694993,10.6706418 14.8961245,10.7918008 14.119707,10.6220889 L14.119707,10.6220889 L13.6101113,10.6220889 C13.1734239,10.5007786 12.809493,10.0397367 12.4699165,9.797116 C11.7176999,9.28767387 10.9656355,8.94778706 10.0679075,8.58401122 C9.75253751,8.43849947 8.85480954,8.09876919 8.5394326,8.36574459 C8.34521323,8.41430006 8.24825772,8.48705621 8.19970257,8.68112083 C8.00563611,8.97229824 8.1756553,9.40898416 8.29681225,9.67580563 C8.66074814,10.4522258 9.17034572,10.9132677 9.63123208,11.5683735 C10.0437187,12.1505732 10.5531609,12.8055263 10.844337,13.436433 C11.4750871,14.7952078 11.766262,16.2994845 12.3486143,17.6581032 C12.5668803,18.1676938 12.9066103,18.7498913 13.2219872,19.2109331 C13.4888084,19.5748639 13.9742039,19.8416838 14.1197152,20.3027262 C14.4108913,20.7879688 13.683029,22.3892079 13.5131634,22.8988042 C12.8822572,24.8881655 13.0035671,27.6541124 13.7314294,29.3766549 C14.0226106,30.0561182 14.2895859,30.8565811 15.0658498,31.0508016 C15.114405,31.0022453 15.0660034,31.0266009 15.1629608,31.0022453 C15.3328264,29.6678393 15.3815358,28.3819765 15.8422686,27.3387379 C16.1092439,26.683629 16.6428868,26.2225872 17.0068177,25.6889456 C17.2494387,25.8344556 17.2494387,26.2709889 17.3951035,26.5623179 C17.7104805,27.3143778 18.0502105,28.1393575 18.4383422,28.89142 C19.2389554,30.4442498 20.1368388,31.9483704 21.1557231,33.3071451 C21.4952989,33.792384 21.9806944,34.3261824 22.4173819,34.7628699 C22.6114484,34.932733 22.8297143,35.029691 22.9753792,35.2481099 L22.9753792,35.2481099 L23.0239337,35.2481099 L23.0239337,35.32102 C22.2960739,35.0540459 21.8351876,34.3018262 21.2526811,33.8652954 C20.1608943,33.0403146 18.8508288,31.8028565 18.0986121,30.6141067 C17.7832364,29.9348102 17.4436587,29.2796982 17.1039286,28.6003904 L17.1039286,28.6003904 L17.1039286,28.5518359 C16.9584173,28.7459036 17.0069731,28.939814 16.934063,29.2311437 C16.618686,30.4442486 16.8613077,31.8272216 15.7695139,32.2639104 C14.5321987,32.7735055 13.6101214,31.4387824 13.2219898,30.8323834 C11.984684,28.8186678 11.644954,25.4219652 12.518327,22.6803866 C12.7125476,22.0738297 12.7369026,21.3459649 13.0764785,20.8607248 C13.0035696,20.424038 12.6639925,20.3025733 12.4699273,20.0357522 C12.1301966,19.5748703 11.8391746,19.0410738 11.5721993,18.5316304 C11.062603,17.5367813 10.6988257,16.3477294 10.3105405,15.2804441 C10.1406742,14.8437567 10.0922745,14.4067628 9.92240822,13.9945845 C9.63123208,13.3636714 9.09758913,12.7329203 8.68494895,12.1749214 C8.12695797,11.3741531 6.50136643,9.8214785 7.15647404,8.24443814 Z M15.1142875,12.999589 C15.3083527,13.1938096 15.6238838,13.3149647 15.7693951,13.5577404 C15.8907049,13.727606 15.9149058,13.897471 16.0605712,14.0673367 C16.0605712,14.6495348 15.8908604,15.0376664 15.5509749,15.2804416 L15.5509749,15.2804416 L15.5025746,15.3289967 L15.5025746,15.3289967 L14.9444231,14.1642922 C14.7018027,13.824717 14.3623798,13.5577416 14.1681598,13.1696101 L14.1681598,13.1696101 L14.119604,13.1696101 L14.119604,13.1696101 L14.119604,13.1210549 C14.4107801,13.0482983 14.7018015,12.999589 15.1142875,12.999589 Z"/>
  </defs>
  <use xlink:href="#mysql-a"/>
</svg>
