<svg xmlns="http://www.w3.org/2000/svg" xmlns:xlink="http://www.w3.org/1999/xlink" width="50" height="50" viewBox="0 0 50 50">
  <defs>
    <path id="netcore-a" d="M24.8400006,9 C33.3230947,9 40.2000012,15.8769065 40.2000012,24.3600006 C40.2000012,28.7125414 38.3896191,32.6422448 35.480782,35.4371837 C31.6863923,39.3817406 26.0628908,41.0195086 20.7221522,39.6976593 C15.1904965,38.3285575 10.8714438,34.0095048 9.50234191,28.477849 C8.18049263,23.1371104 9.81826069,17.513609 13.7618699,13.7197505 C16.5577564,10.8103821 20.4874598,9 24.8400006,9 Z M21.0672005,28.7952008 C20.5127312,28.7774598 19.9763052,28.9934235 19.5888004,29.3904008 C19.1914624,29.8119378 18.981915,30.3765036 19.0080004,30.9552009 C18.9878801,31.4842094 19.1737102,32.0004042 19.5264004,32.3952009 C19.8844917,32.7692813 20.3866782,32.9705058 20.9040005,32.947201 C21.2246729,32.9583384 21.5435737,32.9041286 21.8415089,32.7886255 L22.0176005,32.7120009 L22.0224005,32.2656009 C21.7037193,32.4509785 21.339751,32.544048 20.9712005,32.5344009 C20.570796,32.5506081 20.1832992,32.3910506 19.9104004,32.0976009 C19.6292607,31.7723301 19.4847866,31.3509472 19.5072004,30.9216009 C19.4849175,30.4683642 19.6398452,30.0242381 19.9392004,29.6832008 C20.227268,29.3664412 20.6392118,29.191146 21.0672005,29.2032008 C21.3467614,29.1988236 21.6232112,29.2555581 21.8774647,29.3686331 L22.0272005,29.4432008 L22.0272005,28.9632008 C21.7223233,28.8411985 21.3953908,28.7839853 21.0672005,28.7952008 Z M24.1885406,29.9089693 L24.0480006,29.9088008 C23.6501314,29.8909251 23.2626264,30.0386288 22.9776006,30.3168008 C22.6984991,30.6258363 22.5549882,31.0338915 22.5792005,31.4496009 C22.5596559,31.8424229 22.6959269,32.2270867 22.9584006,32.5200009 C23.2211745,32.8038554 23.5941911,32.9597168 23.9808006,32.947201 C24.374825,32.9590516 24.7546877,32.7997543 25.0224006,32.5104009 C25.291718,32.2076005 25.4313408,31.8111407 25.4112007,31.4064009 C25.4350121,31.0075959 25.306319,30.6146533 25.0512006,30.3072008 C24.8560601,30.1025184 24.6011288,29.9694811 24.3270106,29.924214 L24.1885406,29.9089693 Z M29.4037491,29.9281292 L29.2800008,29.9280008 C28.912831,29.9176226 28.5604104,30.0726877 28.3200008,30.3504008 C28.0591324,30.6537654 27.9235488,31.04507 27.9408008,31.4448009 C27.9164051,31.8435512 28.0413156,32.2371049 28.2912008,32.5488009 C28.5366231,32.8164106 28.8885548,32.9607027 29.2512008,32.942401 C29.6061933,32.9602583 29.9576272,32.8644127 30.2544008,32.6688009 L30.2544008,32.6688009 L30.2544008,32.2368009 C30.001686,32.4417972 29.6869894,32.5551556 29.3616008,32.5584009 C29.1078641,32.572955 28.8599509,32.4786782 28.6800008,32.2992009 C28.5089092,32.0920415 28.4215769,31.8283323 28.4352008,31.5600009 L28.4352008,31.5600009 L30.4656009,31.5600009 L30.4608009,31.3104009 C30.4836295,30.9453502 30.3746147,30.5842387 30.1536008,30.2928008 C29.9336228,30.043847 29.611698,29.9094168 29.2800008,29.9280008 Z M27.3792007,29.9520008 C27.2134497,29.9516863 27.0531832,30.01136 26.9280007,30.1200008 C26.8122609,30.2222006 26.7219402,30.349264 26.6634244,30.4910548 L26.6256007,30.6000009 L26.6256007,30.0000008 L26.1456007,30.0000008 L26.1456007,32.8800009 L26.6256007,32.8800009 L26.6256007,31.4112009 C26.6107444,31.1440872 26.6795362,30.878987 26.8224007,30.6528009 C26.9261059,30.4859093 27.1060426,30.381546 27.3024007,30.3744008 C27.395125,30.3678332 27.4875454,30.3842125 27.5716984,30.421466 L27.6528007,30.4656009 L27.6528007,29.9904008 C27.5647464,29.9608497 27.4719879,29.9478309 27.3792007,29.9520008 Z M24.0144006,30.3216008 C24.2771847,30.307811 24.5312453,30.4179631 24.7008006,30.6192009 C24.8749132,30.8596789 24.9597795,31.1533161 24.9408006,31.4496009 C24.9602786,31.7444504 24.8753099,32.036743 24.7008006,32.2752009 C24.528905,32.47226 24.2754427,32.5786077 24.0144006,32.5632009 C23.7479658,32.5742571 23.4906669,32.4649932 23.3136006,32.2656009 C23.1300356,32.0383278 23.037637,31.7508654 23.0544006,31.4592009 C23.0368015,31.1585974 23.1289039,30.861823 23.3136006,30.6240009 C23.4889134,30.4216748 23.7469241,30.3103414 24.0144006,30.3216008 Z M29.2656008,30.3312008 C29.4660788,30.3203399 29.6605353,30.401658 29.7936008,30.5520009 C29.9274636,30.7298936 29.9953358,30.9487817 29.9856008,31.1712009 L29.9856008,31.1712009 L28.4304008,31.1760009 C28.4562245,30.9474744 28.5556161,30.7335297 28.7136008,30.5664009 C28.8564277,30.4139913 29.0567429,30.3286396 29.2656008,30.3312008 Z M13.0320002,25.5120007 C12.8500039,25.5097877 12.6755903,25.5847855 12.5520001,25.7184007 C12.4247957,25.8456088 12.3539068,26.0185085 12.3552001,26.1984007 C12.3528116,26.3785028 12.4238683,26.5518119 12.5520001,26.6784007 C12.6767833,26.8097458 12.8508532,26.8828552 13.0320002,26.8800007 C13.2128092,26.881129 13.3862211,26.808296 13.5120002,26.6784007 C13.6423711,26.5529472 13.7152939,26.3793213 13.7136002,26.1984007 C13.7141726,26.0177023 13.6414273,25.8444993 13.5120002,25.7184007 C13.3873722,25.5862615 13.2136391,25.5115563 13.0320002,25.5120007 Z M16.8528003,18.0096004 L15.5232003,18.0096004 L15.5232003,26.7600007 L16.5456003,26.7600007 L16.5456003,20.4336005 C16.552786,20.1665185 16.5480542,19.8993156 16.5314368,19.6327873 L16.4976003,19.2336004 L16.5360003,19.2336004 C16.5846921,19.3614662 16.6424027,19.4856179 16.708661,19.6051293 L16.8144003,19.7808004 L21.3120005,26.7600007 L22.5696005,26.7600007 L22.5696005,18.0096004 L21.5472005,18.0096004 L21.5472005,24.1632006 C21.5411345,24.4496865 21.5483794,24.736222 21.5688903,25.0218823 L21.6096005,25.4496007 L21.5856005,25.4496007 C21.5402672,25.3616007 21.4504894,25.2113784 21.3162672,24.998934 L21.2304005,24.8640006 L16.8528003,18.0096004 Z M29.2752008,18.0096004 L24.8400006,18.0096004 L24.8400006,26.7600007 L29.4912008,26.7600007 L29.4960008,25.8000007 L25.8864007,25.8000007 L25.8864007,22.7664005 L29.0448008,22.7664005 L29.0448008,21.8448005 L25.8864007,21.8448005 L25.8864007,18.9360004 L29.2752008,18.9360004 L29.2752008,18.0096004 Z M36.3600011,18.0096004 L30.2784008,18.0096004 L30.2784008,18.9360004 L32.7936009,18.9360004 L32.7936009,26.7600007 L33.816001,26.7600007 L33.816001,18.9360004 L36.3600011,18.9360004 L36.3600011,18.0096004 Z"/>
  </defs>
  <use xlink:href="#netcore-a"/>
</svg>
