<svg xmlns="http://www.w3.org/2000/svg" width="50" height="50" viewBox="0 0 50 50">
  <path d="M25,0 L25,25 L0,25 L0,0 L25,0 Z M4.45580044,14.7488487 C4.27903509,14.7488487 4.12878289,14.8092654 4.00504386,14.9300987 C3.88130482,15.050932 3.81943531,15.1958882 3.81943531,15.3650768 C3.81943531,15.5311952 3.88130482,15.6746711 4.00504386,15.7955044 C4.12878289,15.9133224 4.27903509,15.9722039 4.45580044,15.9722039 C4.63551535,15.9722039 4.78724232,15.9133224 4.91098136,15.7955044 C5.03766447,15.6746711 5.10100877,15.5311952 5.10100877,15.3650768 C5.10100877,15.1958882 5.03766447,15.050932 4.91098136,14.9300987 C4.78724232,14.8092654 4.63551535,14.7488487 4.45580044,14.7488487 Z M7.37264254,9.375 L6.14851974,9.375 L6.14851974,15.8725329 L7.16496711,15.8725329 L7.16441458,11.4497225 C7.16220446,11.1373869 7.153364,10.9142373 7.13789319,10.7802734 L7.12960526,10.7207237 L7.15614035,10.7207237 C7.18951023,10.8073099 7.22880117,10.8918981 7.27398067,10.9744721 L7.34616228,11.0968202 L10.3733004,15.8725329 L11.5223136,15.8725329 L11.5223136,9.375 L10.510307,9.375 L10.510307,13.5616776 C10.510307,13.9138393 10.5211421,14.178313 10.5427779,14.3550987 L10.5544956,14.4361842 L10.5368421,14.4361842 C10.5085526,14.3782018 10.4519825,14.2815526 10.3671316,14.1462088 L10.2981908,14.0374452 L7.37264254,9.375 Z M16.3305921,9.375 L12.9145285,9.375 L12.9145285,15.8725329 L16.4719846,15.8725329 L16.4719846,14.9617873 L13.9663377,14.9617873 L13.9663377,13.040625 L16.145011,13.040625 L16.145011,12.1298794 L13.9663377,12.1298794 L13.9663377,10.2902961 L16.3305921,10.2902961 L16.3305921,9.375 Z M21.5277961,9.375 L16.8389803,9.375 L16.8389803,10.2902961 L18.6552632,10.2902961 L18.6552632,15.8725329 L19.7070724,15.8725329 L19.7070724,10.2902961 L21.5277961,10.2902961 L21.5277961,9.375 Z" transform="translate(13 12)"/>
</svg>
