<svg xmlns="http://www.w3.org/2000/svg" xmlns:xlink="http://www.w3.org/1999/xlink" width="50" height="50" viewBox="0 0 50 50">
  <defs>
    <path id="newrelic-a" d="M21.9766669,10.6666667 C12.2866667,12.7666667 5.78333332,20.7133335 7.45333334,28.3933336 C9.12333336,36.0733337 18.3333335,40.5900005 28.0233336,38.4833338 C37.7133338,36.3766671 44.2166672,28.4433336 42.5466672,20.7633335 C40.8766672,13.0833334 31.666667,8.56666665 21.9766669,10.6666667 Z M24.3766604,14.7333477 C29.6956968,14.7388696 34.0036734,19.0542955 34.0000027,24.3733335 C33.9982349,26.9299874 32.980229,29.3810789 31.1702144,31.186717 C29.3601997,32.9923551 26.9066509,34.0044242 24.3500003,34.0000148 C19.0309689,33.9907966 14.7259848,29.6723854 14.7333355,24.3533512 C14.7407052,19.034317 19.0576239,14.7278364 24.3766604,14.7333477 Z M22.9333336,25.9666669 C22.5284962,25.949842 22.1385576,26.1208246 21.8766669,26.4300002 C21.5669044,26.802446 21.4128648,27.2800883 21.4466669,27.7633336 C21.4466669,28.8666669 22.0600002,29.566667 23.0333336,29.566667 C23.487331,29.5741219 23.9283753,29.4152511 24.2733336,29.1200003 L24.2733336,29.1200003 L23.9800003,28.6666669 C23.7460843,28.8808489 23.4404936,28.9997558 23.1233336,29.0000003 C22.4500002,29.0000003 22.2700002,28.4766669 22.2700002,28.0000003 L22.2700002,28.0000003 L22.2700002,27.9600003 L24.3300003,27.9766669 L24.3300003,27.8200003 C24.3300003,27.0166669 24.1800003,26.5933336 23.8800003,26.3233336 C23.6235495,26.0847037 23.28349,25.9565827 22.9333336,25.9666669 Z M29.6133337,25.9433336 C28.8433337,25.9433336 28.0933336,26.5433336 28.0933336,27.7966669 C28.0933336,28.9000003 28.6200003,29.566667 29.5633337,29.566667 C29.9799491,29.5817357 30.3825658,29.4150937 30.666667,29.1100003 L30.666667,29.1100003 L30.3100003,28.6633336 C30.1317847,28.863253 29.8808233,28.9833302 29.6133337,28.9966669 C29.4394857,28.9985155 29.2731992,28.9256893 29.156667,28.7966669 C28.9696055,28.5211206 28.8879636,28.1874536 28.926667,27.8566669 C28.9066224,27.5301574 28.9554567,27.2030816 29.0700003,26.8966669 C29.1690242,26.6876766 29.3821594,26.5569187 29.6133337,26.5633336 C29.8337192,26.5745188 30.0413727,26.6699916 30.1933337,26.8300003 L30.1933337,26.8300003 L30.566667,26.3333336 C30.3192105,26.0730903 29.9722386,25.9311472 29.6133337,25.9433336 Z M25.6666669,24.4666669 L24.9066669,24.6433336 C24.9596534,24.9739264 24.9830794,25.3085828 24.9766669,25.6433336 L24.9766669,25.6433336 L24.9768509,28.6414684 C24.9796096,28.9673961 25.0237503,29.5533336 25.7300003,29.5533336 L25.7300003,29.5533336 L25.7200003,29.5500003 C25.8737604,29.5526608 26.0265785,29.5254931 26.1700003,29.4700003 L26.1700003,29.4700003 L26.0500003,29.0066669 C25.9643524,29.0450119 25.8636597,29.0218798 25.8033336,28.9500003 C25.7500003,28.8700003 25.7266669,28.7933336 25.7266669,28.3333336 L25.7266669,28.3333336 L25.7266669,25.4133336 C25.7420827,25.0965275 25.7219572,24.7789916 25.6666669,24.4666669 L25.6666669,24.4666669 Z M19.4600002,24.7666669 L18.0200002,24.7666669 L18.0200002,29.4800003 L18.7900002,29.4800003 L18.7900002,27.4433336 C18.9086047,27.4424306 19.0212839,27.4950959 19.0966668,27.5866669 C19.4175642,27.9349416 19.6879807,28.3265406 19.9000002,28.7500003 L19.9000002,28.7500003 L20.3100002,29.4800003 L21.2433335,29.466667 L20.5500002,28.3366669 C20.3613525,27.9844509 20.1145449,27.6666438 19.8200002,27.3966669 C20.1501665,27.388521 20.4624725,27.2450316 20.6837225,26.9998286 C20.9049726,26.7546255 21.0157169,26.4292643 20.9900002,26.1000002 C20.9900002,25.3800002 20.5133335,24.7666669 19.4600002,24.7666669 L19.4600002,24.7666669 Z M27.4233336,25.9500002 L26.666667,26.0866669 L26.666667,29.4800003 L27.4233336,29.4800003 L27.4233336,25.9500002 Z M22.9290002,26.5160001 L23.0139586,26.5235496 C23.3360651,26.5737965 23.5433336,26.8966669 23.5433336,27.4100003 L23.5433336,27.4100003 L22.2700002,27.4100003 C22.2700002,26.8500003 22.5133336,26.5166669 22.9290002,26.5160001 L22.9290002,26.5160001 Z M19.2200002,25.4000002 C19.9166669,25.4000002 20.1733335,25.6433336 20.1733335,26.1200002 C20.1826255,26.3314743 20.107019,26.537892 19.9633335,26.6933336 C19.7436426,26.8599454 19.4660137,26.9308549 19.1933335,26.8900003 L19.1933335,26.8900003 L18.7900002,26.8900003 L18.7900002,25.4000002 Z M27.0500003,24.5233335 C26.7738579,24.5233335 26.5500003,24.7471912 26.5500003,25.0233335 C26.5473241,25.1538654 26.5968515,25.2800678 26.687593,25.3739384 C26.7783346,25.4678089 26.9027861,25.5215847 27.0333336,25.5233335 L27.0333336,25.5233335 L27.046667,25.5233335 C27.3233537,25.5233335 27.5481679,25.3000143 27.5500003,25.0233335 C27.5500003,24.7471912 27.3261427,24.5233335 27.0500003,24.5233335 Z M23.7900003,19.8700001 C23.3851629,19.8531753 22.9952243,20.0241578 22.7333336,20.3333335 C22.4135319,20.715964 22.2588531,21.2099771 22.3033336,21.7066668 C22.3033336,22.8100002 22.9166669,23.5100002 23.8933336,23.5100002 C24.3475384,23.5141748 24.7875166,23.3517031 25.1300003,23.0533335 L25.1300003,23.0533335 L24.8400003,22.5966669 C24.6052363,22.8116262 24.2983103,22.9305898 23.9800003,22.9300002 C23.3066669,22.9300002 23.1300002,22.4233335 23.1300002,21.9466668 L23.1300002,21.9466668 L23.1300002,21.8933335 L25.1866669,21.8800002 L25.1866669,21.7233335 C25.1866669,20.9200002 25.0366669,20.4966668 24.7366669,20.2266668 C24.4802162,19.9880369 24.1401567,19.8599159 23.7900003,19.8700001 Z M26.2700003,19.8966668 L25.5266669,20.0000001 L26.466667,23.4266669 L27.166667,23.4266669 L27.596667,21.8733335 C27.766667,21.2333335 27.8200003,20.9000002 27.8200003,20.9000002 L27.8198364,20.9000564 L27.8228002,20.9126523 C27.8391177,20.986181 27.9242963,21.3672108 28.0132567,21.7127546 L28.046667,21.8400002 L28.4700003,23.4266669 L29.1700003,23.4266669 L30.1433337,19.9666668 L29.366667,19.9666668 L29.0133337,21.5566668 C28.926667,21.9600002 28.8433337,22.4833335 28.8433337,22.4833335 L28.8433337,22.4833335 L28.8233337,22.4833335 C28.8233337,22.4833335 28.746667,22.0600002 28.6033337,21.5033335 L28.6033337,21.5033335 L28.216667,19.9500001 L27.4800003,19.9500001 L27.036667,21.5433335 C26.9100003,22.0200002 26.8400003,22.4700002 26.8400003,22.4700002 L26.8400003,22.4700002 L26.8200003,22.4700002 C26.8200003,22.4700002 26.7400003,21.9933335 26.6433336,21.5633335 L26.6433336,21.5633335 L26.2700003,19.8966668 Z M19.4166669,18.7000001 L18.5300002,18.7000001 L18.5300002,23.4133335 L19.3000002,23.4133335 L19.2733335,21.1300002 C19.2666668,20.7166668 19.2600002,20.2166668 19.2266668,19.8233335 L19.2266668,19.8233335 L19.2466668,19.8033335 C19.4218219,20.2791741 19.6221035,20.7453851 19.8466669,21.2000001 L19.8466669,21.2000001 L20.9033335,23.4133335 L21.7400002,23.4133335 L21.7400002,18.7100001 L20.9966669,18.7100001 L20.9966669,20.8600002 C20.9966669,21.2800002 21.0433335,21.9533335 21.0666669,22.1933335 L21.0666669,22.1933335 L21.0433335,22.2133335 C20.9144344,21.796789 20.7528203,21.3910817 20.5600002,21.0000002 L20.5600002,21.0000002 L19.4166669,18.7000001 Z M23.7890002,20.4500001 L23.8739586,20.4568829 C24.1960651,20.5071298 24.4033336,20.8300002 24.4033336,21.3433335 L24.4033336,21.3433335 L23.1300002,21.3433335 C23.1300002,20.7833335 23.3733336,20.4500002 23.7890002,20.4500001 L23.7890002,20.4500001 Z"/>
  </defs>
  <use xlink:href="#newrelic-a"/>
</svg>
