<?xml version="1.0" encoding="utf-8"?>
<!-- Generator: Adobe Illustrator 26.2.0, SVG Export Plug-In . SVG Version: 6.00 Build 0)  -->
<svg version="1.1" id="Layer_1" xmlns="http://www.w3.org/2000/svg" xmlns:xlink="http://www.w3.org/1999/xlink" x="0px" y="0px"
	 viewBox="0 0 50 50" style="enable-background:new 0 0 50 50;" xml:space="preserve">
<path d="M37.68,21.34h8.48v1.57H42.8v8.24h-1.68V22.9h-3.44V21.34z"/>
<path d="M23.73,21.34v1.57h-6.8v2.52h5.47v1.57h-5.47v2.59h6.8v1.57h-8.48V22.9h0v-1.57H23.73z"/>
<path d="M27.96,21.34h-2.2l7.89,9.8h2.21l-3.94-4.9l3.94-4.9l-2.2,0l-2.84,3.53L27.96,21.34z"/>
<path d="M30.22,28.34l-1.1-1.37l-3.37,4.18h2.21L30.22,28.34z"/>
<path d="M15.3,31.14l-7.9-9.81H5.3v9.8h1.68v-7.71l6.21,7.71H15.3z"/>
</svg>
