<svg xmlns="http://www.w3.org/2000/svg" width="50" height="50" viewBox="0 0 50 50">
  <path d="M1.90840475,22.5266215 C4.20336935,21.0912101 6.89841869,18.6175178 5.87488902,15.7084174 C5.31280678,14.1222878 4.5445459,12.7658241 4.44145659,11.0528998 C4.35356739,9.60231387 4.57590025,8.14975372 5.09435561,6.78733567 C7.15123297,1.40693535 13.2654114,-1.14091985 18.7929625,0.485879711 C23.9106108,1.98349225 27.4328292,7.77776953 25.3121347,12.8256329 C24.0848809,15.739518 23.5399802,17.9883291 26.2693926,20.2538868 C27.0057449,20.8687213 28.804899,21.789777 28.8,22.8854743 C28.8,24.3208857 25.9183981,22.5816456 25.6091301,22.3328409 C25.9748517,22.9548525 29.5952504,26.6390751 27.2904678,26.8974491 C25.1697732,27.1366844 23.2969839,24.2515075 22.02064,23.0098766 C19.8803094,20.9285301 20.25094,25.5338083 20.241122,26.4859645 C20.2263949,27.9883618 19.1365936,31.0314339 17.1828055,29.0505662 C15.5677395,27.4141972 16.1789119,24.8017485 15.0572019,22.9835608 C13.8299481,20.9907313 11.7828888,24.9763902 11.2723512,25.7036653 C10.700451,26.5170651 7.83604059,30.4620541 6.7094216,28.3591764 C5.78652675,26.6534292 7.26168581,23.9811717 7.98576555,22.4381044 C7.72067873,22.9979149 5.84788944,23.8256688 5.30053424,24.0960046 C4.07328045,24.7036621 2.80920903,25.0649073 1.41750323,24.9692132 C-1.46163418,24.7682556 0.747422652,23.2778201 1.90840475,22.5409756 L1.90840475,22.5266215 Z" transform="translate(11 10)"/>
</svg>
