<svg xmlns="http://www.w3.org/2000/svg" xmlns:xlink="http://www.w3.org/1999/xlink" width="50" height="50" viewBox="0 0 50 50">
  <defs>
    <path id="openshift-a" d="M40.3635273,17.5515676 C40.0028523,16.8065926 39.5854773,16.0876048 39.1011648,15.4095673 L33.9272897,17.2924801 C34.5289397,17.9083051 35.0345147,18.6005176 35.4479522,19.3407677 L40.3635273,17.5515676 L40.3635273,17.5515676 Z M31.1708065,11.3860722 C33.4217595,12.4363193 35.283464,13.9867297 36.6896092,15.8423099 L36.9479066,16.1937598 L34.1694385,17.204 L31.7740315,18.0766726 C30.987319,17.2734226 30.054919,16.5882976 28.9784064,16.0858723 C24.1730813,13.8454348 18.4408687,15.9307348 16.1996437,20.7360602 C15.7537436,21.6936602 15.4882881,22.6879714 15.3745165,23.6847022 L15.3389061,24.0585228 L17.4926053,23.2744878 C17.4784955,23.4574996 17.4702992,23.6402927 17.467546,23.8227519 C17.458285,24.3740952 17.4981035,24.9226515 17.5817774,25.462213 L17.6439187,25.8200847 L13.0499936,27.4930284 C13.3801259,29.2172991 14.1751924,30.8384397 15.3651522,32.1554072 L15.6083886,32.4146855 L14.8144385,32.703 L18.0492418,31.5267823 L18.3165784,31.7903963 C18.7722893,32.2217348 19.2758518,32.6118755 19.8231643,32.954438 L19.8231643,32.954438 C20.1484316,33.1601074 20.4917363,33.3470307 20.8503794,33.5144324 C25.654917,35.7548699 31.3879171,33.6695699 33.6283547,28.8634573 C33.7977635,28.5005142 33.9421816,28.1323944 34.0623903,27.760961 C34.2974147,27.0292878 34.4422832,26.2843128 34.4966522,25.5409128 L34.4966522,25.5409128 L36.8484385,24.684 L36.9524385,24.646 L36.9944385,24.631 L37.2199091,24.5497653 L39.6602898,23.6619378 C39.6603164,23.6622699 39.6603429,23.662602 39.6603695,23.6629341 L39.6606048,23.6620197 C39.8574798,26.1213822 39.4456173,28.6634323 38.3281548,31.0550698 C34.8789047,38.4520575 26.0557545,41.6634826 18.6587668,38.21502 C16.6164529,37.2620746 14.8970193,35.8979301 13.5479387,34.2684311 C13.524528,34.2392957 13.5009148,34.2106245 13.4774182,34.1818726 C13.3944569,34.0808366 13.313244,33.9784735 13.2334622,33.8751397 C13.1143409,33.7209784 12.9985093,33.5647592 12.8860767,33.406463 L13.1655737,33.7865218 C13.1581547,33.7767614 13.1507483,33.7669926 13.1433546,33.7572153 L12.9404385,33.481 L12.8860767,33.406463 L12.8864385,33.406 L12.8856042,33.4057574 L10.4455385,34.294448 C9.4580135,32.9048386 8.71730958,31.3577401 8.25314896,29.7289745 L8.13343847,29.2827979 L12.7274385,27.609 L12.6141246,27.1261881 C12.5079066,26.6404203 12.4238016,26.1491526 12.3660621,25.6537458 L12.3506353,25.506269 L12.3326237,25.332028 L12.3326237,25.332028 L12.3164385,25.158 L10.1642435,25.9414353 C9.98043175,23.6245176 10.3372428,21.236447 11.3108359,18.9682777 L11.500631,18.5444476 C14.9490936,11.1482472 23.7738188,7.93682215 31.1708065,11.3860722 Z M35.7693341,19.2239027 C36.5106997,20.7492246 36.9873779,22.3963027 37.1757121,24.0874955 L37.2199091,24.5497653 L36.9944385,24.631 L36.9524385,24.646 L36.8484385,24.684 L32.0562715,26.4279528 C32.1891621,24.6516481 31.8181758,22.8850333 31.0185826,21.3227725 L30.8529715,21.0131027 L35.7693341,19.2239027 Z"/>
  </defs>
  <use xlink:href="#openshift-a"/>
</svg>
