<?xml version="1.0" encoding="UTF-8"?><svg id="a" xmlns="http://www.w3.org/2000/svg" width="50" height="50" viewBox="0 0 50 50"><path d="M19.16,26.65v4.07c3.11,0,6.09-1.2,8.28-3.33s3.43-5.02,3.44-8.03h-4.2c0,1.94-.8,3.79-2.21,5.15s-3.32,2.14-5.31,2.14h0Z"/><path d="M19.16,37.87c-1.98,0-3.88-.76-5.28-2.12-1.4-1.35-2.19-3.2-2.19-5.11s.79-3.76,2.19-5.11c1.4-1.35,3.3-2.12,5.28-2.12v-4.05c-1.53,0-3.04,.29-4.45,.85s-2.7,1.4-3.78,2.44c-1.09,1.04-1.94,2.29-2.53,3.66-.59,1.37-.89,2.83-.89,4.32s.3,2.95,.88,4.32c.58,1.37,1.44,2.61,2.52,3.66,1.08,1.05,2.36,1.88,3.77,2.45,1.42,.57,2.93,.86,4.45,.87h.03v-4.05h0Z"/><path d="M19.16,37.87v4.05c3.08,0,6.04-1.19,8.23-3.31s3.41-4.98,3.41-7.98h-4.18c0,1.92-.79,3.76-2.19,5.11-1.4,1.35-3.3,2.12-5.28,2.13Z"/><path d="M19.16,15.32v4.05c3.08,0,6.04-1.19,8.23-3.31,2.18-2.12,3.41-4.98,3.41-7.98h-4.18c0,1.92-.79,3.76-2.19,5.11-1.4,1.35-3.3,2.12-5.28,2.12h0Z"/><path d="M30.86,15.32v4.05c3.08,0,6.04-1.19,8.23-3.31,2.18-2.12,3.41-4.98,3.41-7.98h-4.18c0,1.92-.79,3.76-2.19,5.11-1.4,1.35-3.3,2.12-5.28,2.12h0Z"/></svg>