<svg xmlns="http://www.w3.org/2000/svg" xmlns:xlink="http://www.w3.org/1999/xlink" width="50" height="50" viewBox="0 0 50 50">
  <defs>
    <path id="orientdb-a" d="M26.8897334,34.6433346 C26.5636051,36.7325912 25.9360892,38.6923666 24.9284651,40.5292445 C24.1794946,41.8953812 22.7850148,43.6444752 22.1473777,44 C22.765897,42.4736576 23.0661599,40.9231747 23.0672845,39.3244106 C23.0684091,37.7179654 22.752402,36.1674824 22.0776537,34.6477238 C23.6992987,35.1031028 25.2782097,35.0701838 26.8897334,34.6433346 Z M32.6732202,30.1238707 C34.80367,33.1217499 36.1626021,36.3302658 36.0572887,40.0416667 C34.6702731,37.0103654 32.505499,34.7648707 29.3476591,33.4497523 C30.7877214,32.6429598 31.8525563,31.5322599 32.6732202,30.1238707 Z M15.5800077,30.1409704 C16.3811691,31.5843361 17.4998308,32.6522869 18.9211708,33.4637429 C17.209634,34.7182353 15.3810825,35.6727066 13.3762286,36.2774123 C11.8854598,36.7274439 9.67465985,37.0025928 8.97959184,36.8137194 C10.4937636,36.1600465 11.8043295,35.2693103 12.9417136,34.1376245 C14.0845583,33.0004979 14.9676301,31.683825 15.5800077,30.1409704 Z M14.5623075,22.7160278 C14.0922329,24.2884567 14.1360915,25.8334532 14.5679304,27.4069794 C10.8826803,26.7902976 7.59890541,25.4932906 5,22.8180766 C8.1915593,23.9504887 11.3673745,24.006451 14.5623075,22.7160278 Z M34.3859618,22.6138693 C38.0903298,23.2316484 41.3909734,24.5407257 44,27.2345938 C40.8073161,26.0703599 37.6225043,26.0078139 34.3949584,27.3004317 C34.8492889,25.7181271 34.8133023,24.1852009 34.3859618,22.6138693 Z M12.1435945,9.95833333 C13.5524529,12.9663169 15.7156668,15.20093 18.8493237,16.4950625 C17.4053608,17.2839781 16.3374056,18.4086686 15.5183018,19.8217213 C13.4003336,16.8378327 12.044522,13.6495256 12.1435945,9.95833333 Z M39.2244898,13.1148507 C36.1626021,14.5038085 33.9151375,16.6622504 32.6037914,19.7907088 C31.8143314,18.3652199 30.6995703,17.3011554 29.2743298,16.4811496 C30.2837776,15.725656 31.3314503,15.1077369 32.4368503,14.5815341 C35.1016677,13.3146056 37.772726,12.9446314 39.2244898,13.1148507 Z M26.8032532,6 C25.6010767,9.13388487 25.5425985,12.2381427 26.8606068,15.3687357 C25.2603288,14.9177459 23.6870408,14.9506649 22.0665204,15.3742221 C22.2475778,14.1309828 22.5557129,12.9579706 22.9718076,11.8090989 C23.976058,9.04061449 25.6336895,6.90088217 26.8032532,6 Z"/>
  </defs>
  <use fill-rule="evenodd" xlink:href="#orientdb-a"/>
</svg>
