<svg xmlns="http://www.w3.org/2000/svg" xmlns:xlink="http://www.w3.org/1999/xlink" width="50" height="50" viewBox="0 0 50 50">
  <defs>
    <path id="owaspzapapi-a" d="M19.8277456,28.6408974 C19.8217456,28.7188974 19.8157456,28.7958974 19.8097456,28.8738974 C25.9777456,32.4378974 32.1457456,36.0008974 38.3137456,39.5658974 C38.3867456,39.4868974 38.4587456,39.4088974 38.5327456,39.3298974 C35.7547456,35.7958974 32.9767456,32.2618974 30.1047456,28.6078974 C31.1597456,28.3178974 32.0677456,28.0678974 33.0597456,27.7938974 C32.8817456,27.5228974 32.7857456,27.3478974 32.6617456,27.1938974 C30.9987456,25.0988974 29.3417456,22.9998974 27.6597456,20.9208974 C27.2847456,20.4578974 27.3467456,20.2328974 27.9047456,20.0728974 C28.4597456,19.9138974 29.0047456,19.7208974 29.6007456,19.5278974 C29.4967456,19.3188974 29.4527456,19.1928974 29.3787456,19.0878974 C27.1667456,15.9338974 24.9447456,12.7868974 22.7477456,9.62289735 C22.4797456,9.23789735 22.2497456,9.29089735 21.9017456,9.44189735 C17.8557456,11.1988974 13.8057456,12.9428974 9.75774559,14.6948974 C9.58374559,14.7698974 9.42674559,14.8858974 9.18174559,15.0298974 C9.43474559,15.2308974 9.60074559,15.3758974 9.77974559,15.5038974 C11.9357456,17.0458974 14.0947456,18.5838974 16.2497456,20.1258974 C16.7897456,20.5128974 16.7747456,20.6418974 16.1697456,20.9278974 C15.6727456,21.1628974 15.1717456,21.3908974 14.5287456,21.6878974 C17.2347456,23.6528974 19.7997456,25.5158974 22.5267456,27.4948974 C21.4927456,27.9348974 20.6607456,28.2868974 19.8277456,28.6408974 M24.5007456,42.4938974 C20.1807456,41.9958974 16.5787456,40.0878974 13.8947456,36.7018974 C9.64874559,31.3458974 9.05974559,25.4658974 11.8357456,19.2418974 C12.0167456,18.8368974 12.0057456,18.6258974 11.6147456,18.3678974 C10.6517456,17.7298974 9.71174559,17.0568974 8.78774559,16.3628974 C7.61774559,15.4838974 7.77374559,14.1788974 9.10474559,13.5878974 C9.95274559,13.2108974 10.8077456,12.8518974 11.6587456,12.4848974 C14.9587456,11.0588974 18.2567456,9.62989735 21.5587456,8.21089735 C22.5027456,7.80589735 23.1157456,7.97889735 23.6907456,8.77589735 C23.9697456,9.16189735 24.2137456,9.57589735 24.5257456,9.93189735 C24.6627456,10.0868974 24.9267456,10.1988974 25.1387456,10.2088974 C26.0397456,10.2498974 26.9487456,10.1948974 27.8467456,10.2678974 C32.1107456,10.6148974 35.6487456,12.4478974 38.4917456,15.6148974 C43.5867456,21.2938974 43.9657456,29.9258974 39.4137456,36.0508974 C39.1197456,36.4458974 38.8097456,36.8288974 38.5117456,37.2128974 C38.7027456,37.4618974 38.8547456,37.6598974 39.0057456,37.8578974 C39.1577456,38.0548974 39.3237456,38.2438974 39.4557456,38.4538974 C39.8807456,39.1248974 39.8247456,39.7768974 39.3107456,40.3188974 C38.8527456,40.8018974 38.1497456,40.9118974 37.5137456,40.5778974 C37.1347456,40.3768974 36.7507456,40.1738974 36.4087456,39.9198974 C35.9947456,39.6148974 35.6637456,39.6828974 35.2587456,39.9548974 C33.6147456,41.0618974 31.8207456,41.8318974 29.8707456,42.2238974 C29.1717456,42.3648974 27.3077314,42.7883364 24.5007456,42.4938974 Z"/>
  </defs>
  <use fill-rule="evenodd" xlink:href="#owaspzapapi-a"/>
</svg>
