<?xml version="1.0" encoding="UTF-8"?>
<svg id="Ebene_1" xmlns="http://www.w3.org/2000/svg" viewBox="0 0 50 50">
  <path d="M38.25,7.58H11.75c-2.21,0-3.99,1.79-3.99,3.99v26.86c0,2.21,1.79,3.99,3.99,3.99h26.5c2.21,0,3.99-1.79,3.99-3.99V11.57c0-2.21-1.79-3.99-3.99-3.99ZM34.86,26.61c-.52.98-1.28,1.73-2.22,2.32-.03.02-.06.04-.09.06-2.18,1.31-4.24,1.87-6.47,2.04-.31-.73-.59-1.48-.83-2.24-.12-.39-.21-.79-.31-1.19-.04-.17-.08-.33-.12-.5,0-.04-.01-.08-.01-.12,0-.02,0-.05,0-.08.09,0,.17.02.25.03.18.02.35.04.52.05.96.05,1.86-.11,2.58-.82.4-.4.62-.89.73-1.43.14-.7.14-1.41-.05-2.11-.25-.91-.83-1.52-1.72-1.81-1-.32-2.01-.32-3.02-.03-1.09.32-1.75,1.08-2.06,2.16-.27.94-.28,1.91-.19,2.87.2,2.19.86,4.27,1.71,6.28.28.66.59,1.31.91,1.97.14.3.29.6.43.9.02.04.04.08.05.13.01.02.02.05.03.08-.03,0-.06,0-.08,0-.05,0-.09,0-.14,0-.58,0-1.15,0-1.73,0-1.95,0-3.9,0-5.84,0-.16,0-.23-.05-.29-.19-.62-1.51-1.05-3.06-1.37-4.65-.36-1.75-.58-3.52-.55-5.32.03-1.7.28-3.35,1-4.91.99-2.17,2.66-3.62,4.88-4.45,1.03-.39,2.09-.61,3.2-.72,1.98-.18,3.92-.1,5.82.44,1.21.35,2.33.89,3.3,1.71,1.39,1.19,2.2,2.7,2.46,4.51.25,1.75.09,3.44-.76,5.02Z"/>
</svg>