<svg xmlns="http://www.w3.org/2000/svg" width="50" height="50" viewBox="0 0 50 50">
  <g transform="translate(8 10.283)">
    <path d="M32.25775,13.2433 C31.41985,12.40505 30.44335,11.7474 29.3559,11.2868 C28.22785,10.8101 27.0319,10.56825 25.79955,10.56825 L9.13325,10.56825 C7.90125,10.56825 6.70495,10.80975 5.5776,11.2868 C4.4898,11.74705 3.5133,12.40505 2.6754,13.2433 C1.83715,14.0812 1.1795,15.0577 0.7189,16.1455 C0.2422,17.27285 0,18.4695 0,19.7008 C0,20.9335 0.2415,22.1291 0.7189,23.25645 C1.17915,24.34425 1.83715,25.32005 2.6754,26.159 C3.5133,26.9969 4.4898,27.65455 5.5776,28.1148 C6.7053,28.59115 7.90125,28.83405 9.13325,28.83405 C10.57315,28.83405 12.00815,28.49 13.28355,27.8376 C14.14,27.4001 14.92855,26.8226 15.6093,26.1387 L19.3228,26.1387 C20.0039,26.8226 20.7928,27.4001 21.6489,27.8376 C22.92465,28.48965 24.35965,28.83405 25.79885,28.83405 C27.0312,28.83405 28.22715,28.59185 29.35485,28.1148 C30.4423,27.6549 31.41845,26.9969 32.25635,26.159 C33.0946,25.3204 33.75295,24.34425 34.21285,23.25645 C34.68955,22.1291 34.9314,20.93315 34.9314,19.7008 C34.9314,18.4688 34.69025,17.27285 34.21285,16.1455 C33.754,15.05805 33.096,14.08155 32.25775,13.2433 Z M25.79955,26.439 C23.59595,26.439 21.63875,25.38025 20.40955,23.74365 L14.52325,23.74365 C13.29405,25.38025 11.3372,26.439 9.13325,26.439 C5.4124,26.439 2.3961,23.42305 2.3961,19.7015 C2.3961,15.98065 5.41275,12.964 9.13325,12.964 L25.79955,12.964 C29.5211,12.964 32.53775,15.98065 32.53775,19.7015 C32.53705,23.4227 29.5211,26.439 25.79955,26.439 Z"/>
    <circle cx="25.8" cy="22.396" r="1.347"/>
    <circle cx="28.495" cy="19.701" r="1.347"/>
    <circle cx="23.105" cy="19.701" r="1.347"/>
    <circle cx="25.8" cy="17.006" r="1.347"/>
    <path d="M12.502 18.35365L10.48075 18.35365 10.48075 16.3331C10.48075 15.9614 10.17905 15.65935 9.80735 15.65935L8.45985 15.65935C8.0878 15.65935 7.7861 15.96105 7.7861 16.3331L7.7861 18.35365 5.7652 18.35365C5.39315 18.35365 5.0918 18.65535 5.0918 19.02775L5.0918 20.37525C5.0918 20.7473 5.3935 21.04935 5.7652 21.04935L7.7861 21.04935 7.7861 23.0699C7.7861 23.4423 8.0878 23.74365 8.45985 23.74365L9.80735 23.74365C10.1794 23.74365 10.48075 23.44265 10.48075 23.0699L10.48075 21.04935 12.502 21.04935C12.87405 21.04935 13.17575 20.74765 13.17575 20.37525L13.17575 19.02775C13.17575 18.65535 12.8737 18.35365 12.502 18.35365zM22.4182 6.14915L28.85085 6.14915C32.2413 6.14915 35 3.3908 35-6.21724894e-15L32.60425-6.21724894e-15C32.60425 2.0699 30.92005 3.75375 28.8505 3.75375L22.4182 3.75375C19.0274 3.75375 16.26905 6.5121 16.26905 9.9029L18.66445 9.9029C18.6641 7.83335 20.34865 6.14915 22.4182 6.14915z"/>
  </g>
</svg>
