<svg xmlns="http://www.w3.org/2000/svg" xmlns:xlink="http://www.w3.org/1999/xlink" width="50" height="50" viewBox="0 0 50 50">
  <defs>
    <path id="php-a" d="M17.3870718,20.9445319 C18.6029186,20.9548046 19.4838994,21.3034111 20.0300141,21.9903802 C20.5760997,22.6773784 20.7564369,23.6155659 20.5709673,24.8049427 C20.4988295,25.3483834 20.3391185,25.8815514 20.0918374,26.4044755 C19.8548386,26.9273997 19.5251051,27.3990471 19.1026659,27.8194468 C18.5874628,28.3526148 18.0362155,28.6909775 17.448895,28.834535 C16.8615745,28.9780838 16.2536365,29.0498567 15.6251102,29.0498567 L13.7704138,29.0498567 L13.1830933,31.9720801 L11.0347366,31.9720801 L13.2449165,20.9445319 L17.3870718,20.9445319 Z M35.7112389,20.9445319 C36.9270857,20.9548046 37.8080665,21.3034111 38.3541812,21.9903802 C38.9002669,22.6773784 39.080604,23.6155659 38.8951344,24.8049427 C38.8229966,25.3483834 38.6632886,25.8815514 38.4160045,26.4044755 C38.1790057,26.9273997 37.8492722,27.3990471 37.426833,27.8194468 C36.9116299,28.3526148 36.3603826,28.6909775 35.7730621,28.834535 C35.1857416,28.9780838 34.5778036,29.0498567 33.9492773,29.0498567 L32.0945809,29.0498567 L31.5072604,31.9720801 L29.3589037,31.9720801 L31.5690836,20.9445319 L35.7112389,20.9445319 Z M25.1517174,18.0077989 L24.5489411,20.9454024 L26.4654607,20.9454024 C27.5164553,20.9659189 28.2995396,21.1812378 28.8147428,21.5913676 C29.3402401,22.0015236 29.4947981,22.7807735 29.2784169,23.9291463 L28.2428781,29.0507273 L26.0790656,29.0507273 L27.068237,24.1598481 C27.1712602,23.6471967 27.1403544,23.2831811 26.9755022,23.0678594 C26.8106325,22.8525435 26.4551374,22.7448768 25.9090518,22.7448768 L24.1934576,22.7294967 L22.9260817,29.0507273 L20.7931809,29.0507273 L23.0188166,18.0077989 L25.1517174,18.0077989 Z M15.717845,22.6978659 C15.5941928,22.7081096 15.4756992,22.713246 15.3623615,22.713246 L15.0497366,22.7127989 L14.1258973,27.3119028 C14.1877147,27.3221465 14.2495379,27.3272829 14.3113669,27.3272829 L14.5277482,27.3272829 C15.5169196,27.3375267 16.3412096,27.2401299 17.0006767,27.0350606 C17.6601146,26.8197418 18.1031712,26.0712492 18.3298758,24.7895626 C18.5153367,23.712954 18.329867,23.0926417 17.7734669,22.9285677 C17.2273521,22.7645199 16.5421351,22.6876192 15.717845,22.6978659 Z M34.0420121,22.6978659 C33.9183599,22.7081096 33.7998663,22.713246 33.6865286,22.713246 L33.3737366,22.7127989 L32.4500644,27.3119028 C32.5118847,27.3221465 32.5737079,27.3272829 32.635534,27.3272829 L32.8519153,27.3272829 C33.8410867,27.3375267 34.6653767,27.2401299 35.3248438,27.0350606 C35.9842817,26.8197418 36.4273383,26.0712492 36.6540429,24.7895626 C36.8395038,23.712954 36.6540341,23.0926417 36.097634,22.9285677 C35.5515192,22.7645199 34.8663022,22.6876192 34.0420121,22.6978659 Z M15.0532455,22.6978659 L15.0377897,22.713246 L15.0497366,22.7127989 L15.0532455,22.6978659 Z M33.3774126,22.6978659 L33.3619568,22.713246 L33.3619568,22.713246 L33.3737366,22.7127989 L33.3774126,22.6978659 Z"/>
  </defs>
  <use xlink:href="#php-a"/>
</svg>
