<?xml version="1.0" encoding="UTF-8"?><svg id="a" xmlns="http://www.w3.org/2000/svg" width="50" height="50" viewBox="0 0 50 50"><defs><style>.b{fill:#333;}</style></defs><path d="M17.82,27.05c-1.57,.45-2.61,1.23-3.29,2.01,.65-.57,1.52-1.09,2.7-1.43,1.2-.34,2.23-.34,3.08-.17v-.66c-.72-.07-1.55-.01-2.49,.25Zm-3.36-5.58l-5.84,1.54s.11,.15,.3,.35l4.95-1.31s-.07,.9-.68,1.71c1.15-.87,1.27-2.3,1.27-2.3Zm4.89,13.73c-8.22,2.21-12.57-7.31-13.89-12.26-.61-2.28-.87-4.01-.94-5.13,0-.12,0-.21,0-.3-.43,.03-.63,.25-.59,.89,.07,1.12,.34,2.84,.94,5.13,1.32,4.95,5.67,14.47,13.89,12.26,1.79-.48,3.13-1.36,4.14-2.48-.93,.84-2.09,1.5-3.56,1.9Zm1.55-19.56v.59h3.23c-.07-.21-.13-.39-.2-.59h-3.03Z"/><path d="M24.84,20.46c1.45,.41,2.22,1.43,2.62,2.33l1.62,.46s-.22-3.15-3.07-3.96c-2.67-.76-4.31,1.48-4.5,1.77,.78-.55,1.91-1,3.33-.6Zm12.87,2.34c-2.67-.76-4.31,1.48-4.5,1.77,.78-.55,1.91-1,3.33-.6,1.45,.41,2.21,1.43,2.62,2.33l1.62,.46s-.22-3.15-3.07-3.96Zm-1.61,8.3l-13.45-3.76s.15,.74,.7,1.69l11.33,3.17c.93-.54,1.42-1.1,1.42-1.1Zm-9.33,8.1c-10.65-2.86-9.36-16.43-7.64-22.86,.71-2.65,1.44-4.62,2.04-5.94-.36-.07-.66,.12-.96,.72-.64,1.3-1.46,3.42-2.26,6.39-1.72,6.43-3.01,20,7.64,22.86,5.02,1.35,8.93-.7,11.85-3.91-2.77,2.51-6.3,3.91-10.68,2.74Z"/><path d="M20.9,32.02v-2.74l-7.61,2.16s.56-3.27,4.53-4.39c1.2-.34,2.23-.34,3.08-.17V15.64h3.81c-.41-1.28-.82-2.27-1.15-2.95-.56-1.14-1.13-.38-2.43,.7-.91,.76-3.22,2.39-6.7,3.33-3.48,.94-6.29,.69-7.46,.49-1.66-.29-2.53-.65-2.45,.61,.07,1.12,.34,2.84,.94,5.13,1.32,4.95,5.67,14.47,13.89,12.26,2.15-.58,3.66-1.72,4.71-3.18h-3.17Zm-12.28-9.01l5.84-1.54s-.17,2.25-2.36,2.83c-2.19,.58-3.48-1.29-3.48-1.29Z"/><path d="M42.89,15.77c-1.52,.27-5.16,.6-9.67-.61-4.5-1.21-7.49-3.32-8.68-4.31-1.68-1.41-2.42-2.38-3.14-.91-.64,1.3-1.46,3.43-2.26,6.4-1.72,6.43-3.01,20,7.64,22.86,10.65,2.85,16.32-9.54,18.04-15.98,.8-2.97,1.14-5.22,1.24-6.67,.11-1.64-1.02-1.17-3.18-.79Zm-21.4,5.32s1.68-2.61,4.53-1.8c2.85,.81,3.07,3.96,3.07,3.96l-7.6-2.16Zm6.95,11.72c-5.01-1.47-5.78-5.46-5.78-5.46l13.45,3.76s-2.72,3.15-7.67,1.7Zm4.76-8.21s1.68-2.61,4.52-1.8c2.85,.81,3.07,3.96,3.07,3.96l-7.59-2.16Z"/><path d="M18.24,30.04l-4.95,1.4s.54-3.06,4.18-4.28l-2.8-10.52-.24,.07c-3.48,.94-6.29,.69-7.46,.49-1.66-.29-2.53-.65-2.45,.61,.07,1.12,.34,2.84,.94,5.13,1.32,4.95,5.67,14.47,13.89,12.26l.24-.08-1.36-5.09Zm-9.62-7.03l5.84-1.54s-.17,2.25-2.36,2.83c-2.19,.58-3.48-1.29-3.48-1.29Z"/><path class="b" d="M28.66,32.86l-.23-.06c-5.01-1.47-5.78-5.46-5.78-5.46l6.94,1.94,3.67-14.11h-.04c-4.5-1.22-7.49-3.33-8.68-4.32-1.68-1.41-2.42-2.38-3.14-.91-.64,1.3-1.46,3.43-2.26,6.4-1.72,6.43-3.01,20,7.64,22.86l.22,.05,1.66-6.39Zm-7.18-11.77s1.68-2.61,4.53-1.8c2.85,.81,3.07,3.96,3.07,3.96l-7.6-2.16Z"/><path d="M18.49,29.96l-1.33,.38c.31,1.77,.87,3.46,1.73,4.96,.15-.03,.3-.06,.45-.1,.4-.11,.78-.24,1.14-.39-.97-1.44-1.61-3.1-2-4.85Zm-.52-12.45c-.68,2.55-1.29,6.21-1.12,9.89,.3-.13,.62-.25,.97-.35l.25-.05c-.3-3.93,.35-7.93,1.08-10.65,.18-.69,.37-1.33,.56-1.93-.3,.19-.62,.38-.98,.58-.25,.76-.49,1.59-.74,2.51Z"/></svg>