<svg xmlns="http://www.w3.org/2000/svg" xmlns:xlink="http://www.w3.org/1999/xlink" width="50" height="50" viewBox="0 0 50 50">
  <defs>
    <path id="prettier-a" d="M20.6371429,38.4657143 C21.0205863,38.4657143 21.3314286,38.7765566 21.3314286,39.16 C21.3314286,39.5434434 21.0205863,39.8542857 20.6371429,39.8542857 L13.6942857,39.8542857 C13.3108423,39.8542857 13,39.5434434 13,39.16 C13,38.7765566 13.3108423,38.4657143 13.6942857,38.4657143 L20.6371429,38.4657143 Z M20.6336714,35.6191429 C21.0171148,35.6191429 21.3279571,35.9299852 21.3279571,36.3134286 C21.3279571,36.696872 21.0171148,37.0077143 20.6336714,37.0077143 L19.2451,37.0077143 C18.8616566,37.0077143 18.5508143,36.696872 18.5508143,36.3134286 C18.5508143,35.9299852 18.8616566,35.6191429 19.2451,35.6191429 L20.6336714,35.6191429 Z M16.4714286,35.6191429 C16.854872,35.6191429 17.1657143,35.9299852 17.1657143,36.3134286 C17.1657143,36.696872 16.854872,37.0077143 16.4714286,37.0077143 L13.6942857,37.0077143 C13.3108423,37.0077143 13,36.696872 13,36.3134286 C13,35.9299852 13.3108423,35.6191429 13.6942857,35.6191429 L16.4714286,35.6191429 Z M20.6371429,32.7725714 C21.0205863,32.7725714 21.3314286,33.0834137 21.3314286,33.4668572 C21.3314286,33.8503006 21.0205863,34.1611429 20.6371429,34.1611429 L13.6942857,34.1611429 C13.3108423,34.1611429 13,33.8503006 13,33.4668572 C13,33.0834137 13.3108423,32.7725714 13.6942857,32.7725714 L20.6371429,32.7725714 Z M30.3536714,29.926 C30.7371149,29.926 31.0479572,30.2368423 31.0479572,30.6202857 C31.0479572,31.0037291 30.7371149,31.3145714 30.3536714,31.3145714 L17.8565286,31.3145714 C17.4730852,31.3145714 17.1622429,31.0037291 17.1622429,30.6202857 C17.1622429,30.2368423 17.4730852,29.926 17.8565286,29.926 L30.3536714,29.926 Z M15.0828571,29.926 C15.4663006,29.926 15.7771429,30.2368423 15.7771429,30.6202857 C15.7771429,31.0037291 15.4663006,31.3145714 15.0828571,31.3145714 L13.6942857,31.3145714 C13.3108423,31.3145714 13,31.0037291 13,30.6202857 C13,30.2368423 13.3108423,29.926 13.6942857,29.926 L15.0828571,29.926 Z M34.5159143,27.0794286 C34.8993577,27.0794286 35.2102,27.3902709 35.2102,27.7737143 C35.2102,28.1571577 34.8993577,28.468 34.5159143,28.468 L30.3502,28.468 C29.9667566,28.468 29.6559143,28.1571577 29.6559143,27.7737143 C29.6559143,27.3902709 29.9667566,27.0794286 30.3502,27.0794286 L34.5159143,27.0794286 Z M27.5765286,27.0794286 C27.959972,27.0794286 28.2708143,27.3902709 28.2708143,27.7737143 C28.2708143,28.1571577 27.959972,28.468 27.5765286,28.468 L22.0222429,28.468 C21.6387995,28.468 21.3279571,28.1571577 21.3279571,27.7737143 C21.3279571,27.3902709 21.6387995,27.0794286 22.0222429,27.0794286 L27.5765286,27.0794286 Z M19.2485714,27.0794286 C19.6320148,27.0794286 19.9428571,27.3902709 19.9428571,27.7737143 C19.9428571,28.1571577 19.6320148,28.468 19.2485714,28.468 L13.6942857,28.468 C13.3108423,28.468 13,28.1571577 13,27.7737143 C13,27.3902709 13.3108423,27.0794286 13.6942857,27.0794286 L19.2485714,27.0794286 Z M35.9044858,24.2328571 C36.2879292,24.2328571 36.5987715,24.5436995 36.5987715,24.9271429 C36.5987715,25.3105863 36.2879292,25.6214286 35.9044858,25.6214286 L24.7959143,25.6214286 C24.4124709,25.6214286 24.1016286,25.3105863 24.1016286,24.9271429 C24.1016286,24.5436995 24.4124709,24.2328571 24.7959143,24.2328571 L35.9044858,24.2328571 Z M22.0222429,24.2328571 C22.4056863,24.2328571 22.7165286,24.5436995 22.7165286,24.9271429 C22.7165286,25.3105863 22.4056863,25.6214286 22.0222429,25.6214286 L17.8565286,25.6214286 C17.4730852,25.6214286 17.1622429,25.3105863 17.1622429,24.9271429 C17.1622429,24.5436995 17.4730852,24.2328571 17.8565286,24.2328571 L22.0222429,24.2328571 Z M15.0828571,24.2328571 C15.4663006,24.2328571 15.7771429,24.5436995 15.7771429,24.9271429 C15.7771429,25.3105863 15.4663006,25.6214286 15.0828571,25.6214286 L13.6942857,25.6214286 C13.3108423,25.6214286 13,25.3105863 13,24.9271429 C13,24.5436995 13.3108423,24.2328571 13.6942857,24.2328571 L15.0828571,24.2328571 Z M20.6371429,21.3862857 C21.0205863,21.3862857 21.3314286,21.697128 21.3314286,22.0805714 C21.3314286,22.4640148 21.0205863,22.7748571 20.6371429,22.7748571 L13.6942857,22.7748571 C13.3108423,22.7748571 13,22.4640148 13,22.0805714 C13,21.697128 13.3108423,21.3862857 13.6942857,21.3862857 L20.6371429,21.3862857 Z M37.2930571,21.3862857 C37.6765005,21.3862857 37.9873429,21.697128 37.9873429,22.0805714 C37.9873429,22.4640148 37.6765005,22.7748571 37.2930571,22.7748571 L30.3502,22.7748571 C29.9667566,22.7748571 29.6559143,22.4640148 29.6559143,22.0805714 C29.6559143,21.697128 29.9667566,21.3862857 30.3502,21.3862857 L37.2930571,21.3862857 Z M20.6336714,18.5397143 C21.0171148,18.5397143 21.3279571,18.8505566 21.3279571,19.234 C21.3279571,19.6174434 21.0171148,19.9282857 20.6336714,19.9282857 L19.2451,19.9282857 C18.8616566,19.9282857 18.5508143,19.6174434 18.5508143,19.234 C18.5508143,18.8505566 18.8616566,18.5397143 19.2451,18.5397143 L20.6336714,18.5397143 Z M16.4714286,18.5397143 C16.854872,18.5397143 17.1657143,18.8505566 17.1657143,19.234 C17.1657143,19.6174434 16.854872,19.9282857 16.4714286,19.9282857 L13.6942857,19.9282857 C13.3108423,19.9282857 13,19.6174434 13,19.234 C13,18.8505566 13.3108423,18.5397143 13.6942857,18.5397143 L16.4714286,18.5397143 Z M37.2895857,18.5397143 C37.6730291,18.5397143 37.9838714,18.8505566 37.9838714,19.234 C37.9838714,19.6174434 37.6730291,19.9282857 37.2895857,19.9282857 L30.3467286,19.9282857 C29.9632852,19.9282857 29.6524429,19.6174434 29.6524429,19.234 C29.6524429,18.8505566 29.9632852,18.5397143 30.3467286,18.5397143 L37.2895857,18.5397143 Z M35.9044857,15.6931429 C36.2879291,15.6931429 36.5987714,16.0039852 36.5987714,16.3874286 C36.5987714,16.770872 36.2879291,17.0817143 35.9044857,17.0817143 L34.5159143,17.0817143 C34.1324709,17.0817143 33.8216286,16.770872 33.8216286,16.3874286 C33.8216286,16.0039852 34.1324709,15.6931429 34.5159143,15.6931429 L35.9044857,15.6931429 Z M31.7422429,15.6931429 C32.1256863,15.6931429 32.4365286,16.0039852 32.4365286,16.3874286 C32.4365286,16.770872 32.1256863,17.0817143 31.7422429,17.0817143 L26.1879571,17.0817143 C25.8045137,17.0817143 25.4936714,16.770872 25.4936714,16.3874286 C25.4936714,16.0039852 25.8045137,15.6931429 26.1879571,15.6931429 L31.7422429,15.6931429 Z M23.4142857,15.6931429 C23.7977291,15.6931429 24.1085714,16.0039852 24.1085714,16.3874286 C24.1085714,16.770872 23.7977291,17.0817143 23.4142857,17.0817143 L13.6942857,17.0817143 C13.3108423,17.0817143 13,16.770872 13,16.3874286 C13,16.0039852 13.3108423,15.6931429 13.6942857,15.6931429 L23.4142857,15.6931429 Z M34.5193857,12.8465714 C34.9028291,12.8465714 35.2136714,13.1574137 35.2136714,13.5408571 C35.2136714,13.9243006 34.9028291,14.2351429 34.5193857,14.2351429 L20.6336714,14.2351429 C20.250228,14.2351429 19.9393857,13.9243006 19.9393857,13.5408571 C19.9393857,13.1574137 20.250228,12.8465714 20.6336714,12.8465714 L34.5193857,12.8465714 Z M17.86,12.8465714 C18.2434434,12.8465714 18.5542857,13.1574137 18.5542857,13.5408571 C18.5542857,13.9243006 18.2434434,14.2351429 17.86,14.2351429 L13.6942857,14.2351429 C13.3108423,14.2351429 13,13.9243006 13,13.5408571 C13,13.1574137 13.3108423,12.8465714 13.6942857,12.8465714 L17.86,12.8465714 Z M30.3571428,10 C30.7405862,10 31.0514285,10.3108423 31.0514285,10.6942857 C31.0514285,11.0777291 30.7405862,11.3885714 30.3571428,11.3885714 L13.6942857,11.3885714 C13.3108423,11.3885714 13,11.0777291 13,10.6942857 C13,10.3108423 13.3108423,10 13.6942857,10 L30.3571428,10 Z"/>
  </defs>
  <use xlink:href="#prettier-a"/>
</svg>
