<svg xmlns="http://www.w3.org/2000/svg" width="50" height="50" viewBox="0 0 50 50">
  <path d="M14.3188477,22.6577148 C14.3188477,22.0213184 14.1514502,21.5675469 13.8166504,21.2963867 C13.4818505,21.0252265 13.0128611,20.8896484 12.409668,20.8896484 L10.0273438,20.8896484 L10.0273438,24.4921875 L12.409668,24.4921875 C13.0128611,24.4921875 13.4818505,24.3455418 13.8166504,24.0522461 C14.1514502,23.7589504 14.3188477,23.2941113 14.3188477,22.6577148 Z M16.8505859,22.6411133 C16.8505859,24.0854564 16.4853552,25.1064423 15.7548828,25.7041016 C15.0244104,26.3017608 13.9812893,26.6005859 12.6254883,26.6005859 L10.0273438,26.6005859 L10.0273438,31 L7.48730469,31 L7.48730469,18.7646484 L12.8164062,18.7646484 C14.044928,18.7646484 15.0244104,19.080075 15.7548828,19.7109375 C16.4853552,20.3418 16.8505859,21.3185155 16.8505859,22.6411133 Z M20.4365234,18.7646484 L22.0551758,25.7705078 L22.4038086,27.7211914 L22.7607422,25.8120117 L24.1386719,18.7646484 L26.8364258,18.7646484 L28.2890625,25.7705078 L28.6625977,27.7211914 L29.0361328,25.8452148 L30.6713867,18.7646484 L33.2695312,18.7646484 L29.824707,31 L27.3842773,31 L25.9067383,23.8447266 L25.4750977,21.4790039 L25.043457,23.8447266 L23.565918,31 L21.1918945,31 L17.722168,18.7646484 L20.4365234,18.7646484 Z M37.2290039,26.3764648 L40.3334961,26.3764648 L38.8061523,21.5620117 L37.2290039,26.3764648 Z M37.3867188,18.7646484 L40.2753906,18.7646484 L44.6083984,31 L41.8359375,31 L41.0473633,28.4848633 L36.5400391,28.4848633 L35.6933594,31 L33.0205078,31 L37.3867188,18.7646484 Z"/>
</svg>
