<svg xmlns="http://www.w3.org/2000/svg" xmlns:xlink="http://www.w3.org/1999/xlink" width="50" height="50" viewBox="0 0 50 50">
  <defs>
    <path id="prometheus-a" d="M25.30009,10.18009 C16.85044,10.18009 10,17.02972 10,25.47964 C10,33.92929 16.85044,40.77946 25.30009,40.77946 C33.74974,40.77946 40.59991,33.92929 40.59991,25.47964 C40.59991,17.02972 33.74947,10.18009 25.30009,10.18009 Z M25.30009,38.81494 C22.89601,38.81494 20.94688,37.20898 20.94688,35.22853 L29.6533,35.22853 C29.6533,37.20871 27.70417,38.81494 25.30009,38.81494 Z M32.49019,34.0408 L18.10918,34.0408 L18.10918,31.43314 L32.49046,31.43314 L32.49046,34.0408 L32.49019,34.0408 Z M32.43862,30.09097 L18.15022,30.09097 C18.1027,30.03616 18.0541,29.98216 18.0082,29.92654 C16.53616,28.13914 16.18948,27.20602 15.8527766,26.25508 C15.84712,26.22376 17.63776,26.62093 18.90757,26.90659 C18.90757,26.90659 19.56097,27.05779 20.51623,27.23194 C19.59904,26.1568 19.05445,24.79006 19.05445,23.39308 C19.05445,20.32615 21.40669,17.64613 20.55808,15.47992 C21.38401,15.54715 22.26745,17.22304 22.32712,19.84339 C23.20516,18.63001 23.57263,16.41412 23.57263,15.05548 C23.57263,13.64878 24.49954,12.01474 25.42672,11.95885 C24.60025,13.321 25.64083,14.48875 26.56585,17.38558 C26.9128,18.47368 26.86852,20.30482 27.13636,21.46609 C27.22519,19.05418 27.63991,15.535 29.17,14.32 C28.495,15.85009 29.2699,17.76466 29.79991,18.68509 C30.655,20.17009 31.1734,21.29518 31.1734,23.42305 C31.1734,24.84973 30.64663,26.19298 29.75806,27.24301 C30.7684,27.05347 31.46608,26.88256 31.46608,26.88256 L34.7471201,26.24239 C34.74739,26.24212 34.27057,28.20286 32.43862,30.09097 Z"/>
  </defs>
  <use xlink:href="#prometheus-a"/>
</svg>
