<svg xmlns="http://www.w3.org/2000/svg" width="50" height="50" viewBox="0 0 50 50">
  <g transform="translate(11 10)">
    <path d="M25.5895744,7.50140326 C25.7175781,7.49503799 29.8136982,7.35007925 29.8136982,14.8675074 C29.8136982,22.5042633 24.970573,21.9550104 24.970573,21.9550104 L14.8793226,21.9550104 L14.8793226,22.9759479 L22.1018229,22.9759479 L22.1102604,26.3762605 C22.1102604,26.3762605 22.5828927,29.6584482 15.0143226,29.6584482 C7.10482564,29.6584482 7.71588427,25.7012605 7.71588427,25.7012605 L7.71588427,19.1621978 C7.71588427,15.4710982 11.2218344,15.2816987 11.6892944,15.2728503 L18.9040103,15.2725074 C23.1996861,15.2725074 23.0636979,11.0453197 23.0636979,11.0453197 L23.0636979,7.50157041 Z M18.9968228,24.7731355 C18.2782366,24.7731355 17.6974477,25.3539244 17.6974477,26.0725105 C17.6974477,26.7910967 18.2782366,27.3718856 18.9968228,27.3718856 C19.7154089,27.3718856 20.2961978,26.7910967 20.2961978,26.0725105 C20.2961978,25.3539244 19.7154089,24.7731355 18.9968228,24.7731355 Z"/>
    <path d="M14.7993756,-1.42108547e-14 C22.708872,-1.42108547e-14 22.0978134,3.95718712 22.0978134,3.95718766 L22.0978134,3.95718766 L22.0978134,10.4962504 C22.0978134,14.1873475 18.5918632,14.3767468 18.1244032,14.3855952 L10.9096879,14.3859381 C6.61401422,14.3859381 6.75000027,18.6131257 6.75000027,18.6131257 L6.75000027,18.6131257 L6.75000027,22.1568759 L4.22718767,22.1568759 C4.22718767,22.1568759 -1.77635684e-14,22.4276913 -1.77635684e-14,14.7909381 C-1.77635684e-14,7.15418326 4.84312519,7.70343781 4.84312519,7.70343781 L14.9343756,7.70343781 L14.9343756,6.68250027 L7.71187531,6.68250027 L7.70343781,3.28218763 C7.70343781,3.28218763 7.23080765,-1.42108547e-14 14.7993756,-1.42108547e-14 Z M10.8168754,2.28656259 C10.0982896,2.28656259 9.51750038,2.86735178 9.51750038,3.58593764 C9.51750038,4.3045235 10.0982896,4.88531269 10.8168754,4.88531269 C11.5354613,4.88531269 12.1162505,4.3045235 12.1162505,3.58593764 C12.1162505,2.86735178 11.5354613,2.28656259 10.8168754,2.28656259 Z"/>
  </g>
</svg>
