<svg xmlns="http://www.w3.org/2000/svg" width="21" height="21" viewBox="0 0 21 21" fill="#0035ee">
  <path fill-rule="evenodd" d="M10.2879993,1 C15.4176196,1 19.5759985,5.15837891 19.5759985,10.2879993 C19.5759985,15.4176196 15.4176196,19.5759985 10.2879993,19.5759985 C5.15837891,19.5759985 1,15.4176196 1,10.2879993 C1,5.15837891 5.15837891,1 10.2879993,1 Z M10.2879993,1.77399994 C5.58584728,1.77399994 1.77399994,5.58584728 1.77399994,10.2879993 C1.77399994,14.9901513 5.58584728,18.8019986 10.2879993,18.8019986 C14.9901513,18.8019986 18.8019986,14.9901513 18.8019986,10.2879993 C18.8019986,5.58584728 14.9901513,1.77399994 10.2879993,1.77399994 Z M14.2787429,16.0929988 C14.5914997,16.0929988 14.8464881,16.3403346 14.858779,16.6500772 C14.8590075,16.6577977 14.8592429,16.6656207 14.8592429,16.6734988 C14.8592429,16.9620399 14.648725,17.201412 14.3729031,17.2464009 L14.2787429,17.2539987 L14.2787429,17.2539987 C13.9581417,17.2539987 13.698243,16.9941 13.698243,16.6734988 L13.7,16.65 L13.7058408,16.5793387 C13.7508298,16.3035167 13.9902018,16.0929988 14.2787429,16.0929988 Z M16.0531666,12.5835993 C16.2464286,12.6748797 16.329101,12.9055469 16.2378206,13.0988089 C15.2802388,15.1262331 13.3560355,16.5263788 11.1323455,16.8138059 C8.90865539,17.1012329 6.69168341,16.2363622 5.25006905,14.5190504 C5.11264876,14.3553496 5.13395336,14.1112426 5.2976542,13.9738224 C5.46135504,13.8364021 5.70546194,13.8577067 5.84288223,14.0214075 C7.11489491,15.5366826 9.07104665,16.2998039 11.0331261,16.0461918 C12.9952056,15.7925797 14.693032,14.557157 15.5379571,12.7682532 C15.6292375,12.5749913 15.8599047,12.4923189 16.0531666,12.5835993 Z M10.0944993,12.9969991 C10.3830404,12.9969991 10.6224125,13.207517 10.6674015,13.4833389 L10.6749992,13.577499 L10.6749992,13.577499 C10.6749992,13.8660401 10.4644813,14.1054122 10.1886594,14.1504012 L10.0944993,14.157999 L10.0944993,14.157999 C9.77389801,14.157999 9.51399933,13.8981003 9.51399933,13.577499 L9.515,13.554 L9.52159709,13.4833389 C9.56658609,13.207517 9.80595814,12.9969991 10.0944993,12.9969991 Z M14.0616236,9.42795187 C14.4592937,11.17171 13.6102459,12.9608258 12.0079438,13.7554715 C11.8164642,13.8504339 11.584257,13.7721913 11.4892946,13.5807117 C11.3943322,13.389232 11.4725749,13.1570249 11.6640545,13.0620625 C12.9458962,12.4263459 13.6251345,10.9950533 13.3069984,9.60004678 C13.2594757,9.39166277 13.3898795,9.1842094 13.5982635,9.13668671 C13.8066475,9.08916401 14.0141009,9.21956787 14.0616236,9.42795187 Z M11.5781915,6.63911851 C11.7796644,6.71046946 11.8851491,6.93163691 11.8137982,7.13310984 C11.7424472,7.33458277 11.5212798,7.44006749 11.3198069,7.36871654 C9.84763759,6.84735286 8.21765324,7.50409797 7.51816274,8.90045589 C6.81867223,10.2968138 7.26871536,11.9955264 8.56780707,12.8623961 C8.74559357,12.9810311 8.79354534,13.2213282 8.67491035,13.3991147 C8.55627536,13.5769012 8.31597826,13.624853 8.13819176,13.506218 C6.51432712,12.4226308 5.9517732,10.2992401 6.82613634,8.5537927 C7.70049947,6.80834529 9.73797991,5.98741391 11.5781915,6.63911851 Z M4.67649971,12.2229991 C4.98925648,12.2229991 5.24424488,12.4703349 5.25653579,12.7800775 C5.25676427,12.787798 5.25699966,12.795621 5.25699966,12.8034991 C5.25699966,13.0920402 5.04648173,13.3314123 4.77065982,13.3764013 L4.67649971,13.383999 L4.67649971,13.383999 C4.35589844,13.383999 4.09599976,13.1241003 4.09599976,12.8034991 L4.097,12.78 L4.10359752,12.709339 C4.14858652,12.433517 4.38795856,12.2229991 4.67649971,12.2229991 Z M16.2864988,10.6749992 C16.5750399,10.6749992 16.814412,10.8855172 16.859401,11.1613391 L16.8669987,11.2554992 L16.8669987,11.2554992 C16.8669987,11.5440403 16.6564808,11.7834124 16.3806589,11.8284014 L16.2864988,11.8359991 L16.2864988,11.8359991 C15.9658975,11.8359991 15.7059988,11.5761005 15.7059988,11.2554992 L15.707,11.232 L15.7135966,11.1613391 C15.7585856,10.8855172 15.9979576,10.6749992 16.2864988,10.6749992 Z M10.287266,3.70897756 C11.4426044,3.70680032 12.5779275,4.01050228 13.5778564,4.58923447 C13.7628415,4.69629894 13.8260087,4.93305192 13.7189442,5.11803705 C13.6118798,5.30302219 13.3751268,5.36618937 13.1901417,5.25912491 C12.3084765,4.74884061 11.3074292,4.48105776 10.2882943,4.48298844 C8.62254602,4.48425854 7.03747449,5.20046541 5.93563166,6.44972033 C4.83378704,7.69897726 4.32117922,9.36109456 4.52799333,11.0139504 C4.55452996,11.2260308 4.404117,11.4194682 4.19203657,11.4460048 C3.97995614,11.4725414 3.7865188,11.3221285 3.75998217,11.110048 C3.52561489,9.23698759 4.10651578,7.3534318 5.35515558,5.93774042 C6.60379278,4.52205198 8.40003637,3.71042804 10.287266,3.70897756 Z M15.9672651,4.60873339 C16.0995064,4.74097467 16.1160366,4.94510962 16.0168556,5.09532431 L15.9672651,5.156034 L10.5616496,10.5616496 C10.4105167,10.7127825 10.1654819,10.7127825 10.014349,10.5616496 C9.88210768,10.4294083 9.86557752,10.2252733 9.96475848,10.0750586 L10.014349,10.014349 L15.4199645,4.60873339 C15.5710974,4.4576005 15.8161323,4.4576005 15.9672651,4.60873339 Z M15.9851426,6.9980153 C16.4246313,7.75669746 16.7071826,8.59595882 16.8160177,9.46596105 C16.8425485,9.67804221 16.6921302,9.87147542 16.4800491,9.89800623 C16.2679679,9.92453703 16.0745347,9.77411876 16.0480039,9.5620376 C15.9520411,8.79493333 15.702908,8.05493411 15.3153991,7.38598372 C15.2082645,7.20103915 15.2713421,6.96426226 15.4562866,6.85712774 C15.6412312,6.74999322 15.8780081,6.81307073 15.9851426,6.9980153 Z M4.99074368,4.48299972 C5.27928483,4.48299972 5.51865688,4.69351766 5.56364587,4.96933957 L5.57124364,5.06349968 L5.57124364,5.06349968 C5.57124364,5.35204082 5.36072571,5.59141287 5.08490379,5.63640187 L4.99074368,5.64399963 L4.99074368,5.64399963 C4.67014241,5.64399963 4.41024373,5.38410095 4.41024373,5.06349968 C4.41024373,4.74289841 4.67014241,4.48299972 4.99074368,4.48299972 Z"/>
</svg>
