<svg xmlns="http://www.w3.org/2000/svg" width="50" height="50" viewBox="0 0 50 50">
  <g fill="none" transform="translate(9 10)">
    <path fill="#000" d="M4.05345545 13.0319734C3.18842631 13.4388843.898917569 15.2706078.457951707 15.8133222-1.38777878e-17 16.3560366-.135636969 15.5080766.339217319 14.1004163.7122398 12.9641132 1.6621149 11.4207327 3.25628643 10.0979184 4.18900916 9.33472107 6.24121565 8.23238968 7.49616986 7.58784346 7.75062448 7.45212323 11.0407993 6.06144879 13.9748543 5.36611157 14.2293089 5.29825146 13.6696087 5.79009159 13.5847627 6.06144879 13.1437968 7.35037469 4.34163197 12.8792673 4.34163197 12.8792673L4.05345545 13.0319734zM16.4509575 28.5840133C16.6035803 29.4998335 16.4679434 29.5676936 15.5182348 29.686428 14.568443 29.8051624 13.8731057 29.4489592 13.6187344 29.2115737 13.3642798 28.9740216 13.3134888 28.4483764 13.5678601 27.9735221 13.7205662 27.6681932 13.873189 27.5664446 13.958035 27.1933389 14.0427977 26.837219 14.1106578 26.752373 14.1784346 26.6167361 14.2462115 26.4979184 14.2632806 26.379184 14.2801832 25.5482098 14.297169 24.7172356 14.2801832 23.1568693 14.3650291 22.4955037 14.4498751 21.8171524 17.3839301 22.8007494 17.3839301 22.8007494 17.3839301 22.8007494 16.6885096 24.5306411 16.5019983 24.9546211 16.3154038 25.3786844 16.3323897 26.1926728 16.3323897 26.3622814 16.3323897 26.5318901 16.2646128 26.8710241 16.2136553 26.88801 16.162781 26.9049126 16.3832639 27.3458784 16.2814321 27.6003331 16.213572 27.8378018 16.434055 28.4483764 16.4509575 28.5840133zM17.570358 2.65253955C17.4685262 2.0080766 17.570358.735970025 17.705995.532556203 18.1300583-.0441298918 20.3686928-.111906744 20.8436303.566444629 21.0471274.871690258 21.0301415 1.58401332 20.9962531 2.04196503 20.9623647 2.49983347 20.8436303 3.48351374 20.8266445 3.80582848 20.8097419 4.04329725 18.3505412 4.41631973 17.8078268 3.77185679 17.6551207 3.60233139 17.570358 2.65253955 17.570358 2.65253955zM22.5565362 26.9388843C23.5910908 27.685179 24.3881765 27.820816 24.9139051 28.0921732 25.4396336 28.3636137 25.3039967 28.8893422 24.4220649 29.041965 23.7097419 29.177602 22.5904246 28.9062448 21.8442132 28.9062448 21.0980017 28.9062448 19.4358868 28.9910908 18.9949209 28.6858451 18.4861782 28.3297252 18.7065779 27.6681932 18.7065779 27.6681932 18.8422981 27.2951707 19.1814321 26.46403 19.0796836 25.7856786 18.9779351 25.1073272 18.8422148 24.7342215 18.5878435 24.1066611 18.3334721 23.479184 18.1469609 21.9358868 18.3844296 21.8510408 18.6218984 21.7661948 18.553955 21.8510408 18.8592839 21.9188177 19.1645296 21.9865945 19.5037469 22.0884263 20.1651957 22.0884263 20.8266445 22.0884263 21.5558701 21.9865945 21.8103247 21.9358035 22.0646961 21.8849292 22.2681932 21.8339717 22.1833472 22.3597835 22.0985845 22.8855121 21.8442132 23.8691923 21.8272273 24.6323897 21.8103247 25.395587 21.8103247 26.2775187 21.861199 26.4301415 21.91199 26.5827644 22.285179 26.752373 22.5565362 26.9388843z"/>
    <g transform="translate(.416 .25)">
      <g fill="#000" transform="translate(0 3.997)">
        <path d="M18.5108243,0.102081599 C16.6452956,1.71332223 13.032806,2.15420483 7.67360533,4.22331391 C6.29983347,4.74904246 2.63655287,6.32631141 1.75462115,7.97144047 C4.72256453,6.25853455 5.82497918,8.61590341 6.0623647,11.0411324 C6.28276436,13.3137386 7.41915071,14.5009992 10.3362198,14.4330558 C13.3381349,14.3652789 14.253955,16.1120733 15.0849292,18.1642798 C16.6960866,10.3118235 19.2740216,8.78551207 20.93597,7.44571191 C24.4636969,4.57943381 20.1219817,-0.474604496 18.5108243,0.102081599 Z"/>
        <path d="M18.5108243,0.102081599 C14.0334721,1.6623647 9.60691091,2.05245629 4.40033306,5.25786844 C3.16228143,6.02106578 0.550457952,7.75087427 0.0416319734,11.0581182 C1.94104913,8.95503747 6.33363863,6.30940883 11.7099084,4.63039134 C14.4234804,3.78234804 16.4078268,3.22273106 18.8160699,2.28992506 C18.6465445,1.20441299 18.6465445,0.780432973 18.5108243,0.102081599 Z"/>
      </g>
      <path fill="#000" d="M24.2262281 13.3926728C24.2262281 13.3926728 23.9039967 14.4950874 23.2595337 14.8512906 23.2595337 14.8512906 22.7846794 15.0208993 21.8349709 14.4951707 21.5636137 14.3425479 21.3601166 13.8168193 21.3770192 13.6471274 21.394005 13.24005 21.6483764 13.0535387 21.6483764 13.0535387 21.6483764 13.0535387 21.9198168 12.595587 22.241965 12.6125729 22.5642798 12.6294754 23.1069942 12.6803497 23.2766028 12.5277269 23.4291424 12.3581182 24.2601998 12.8329725 24.2262281 13.3926728zM17.3066611 2.72497918C17.3066611 2.72497918 17.2388843 3.59000833 17.1201499 4.13263947 17.103164 4.23447127 16.5944213 4.28526228 16.2212323 4.43796836 16.9335554 6.47310575 21.2243963 6.4561199 21.7840966 5.45553705 21.5127394 5.26902581 20.970025 4.98068276 20.7156536 4.87893422 20.461199 4.77710241 20.4781848 4.79408826 20.461199 4.31923397 20.4442964 3.84429642 20.4103247 2.96244796 20.376353 2.72497918 20.3424646 2.48751041 17.7136553 2.48751041 17.3066611 2.72497918z"/>
      <path fill="#EFEFEF" d="M17.4762698,2.72497918 C17.4762698,2.72497918 17.4762698,3.21681932 17.4253955,3.69167361 C17.4084929,3.91215654 17.3915071,4.04779351 17.3576187,4.21740216 C17.3406328,4.31923397 17.9342215,4.72614488 18.1038301,5.62506245 C18.9179017,7.4397169 20.8004996,6.5408826 21.5805995,5.67593672 C21.3092423,5.48934221 20.8682764,5.23497086 20.3595337,5.03147377 C20.1050791,4.92964197 20.2238135,4.7092423 20.2069109,4.23438801 C20.1899251,3.75953372 20.1220649,3.06411324 20.0881765,2.80974188 C20.0541216,2.55537052 17.8833472,2.48751041 17.4762698,2.72497918 Z"/>
      <path fill="#000" d="M17.3066611,2.72497918 C17.3066611,2.72497918 17.2896753,3.03030808 17.2388843,3.38642798 C17.4592839,3.60682764 17.747627,3.91215654 17.9681932,4.09875104 C18.120816,4.23447127 18.4938385,4.21748543 18.8331391,4.21748543 C19.1383847,4.21748543 19.4097419,4.25137386 19.5284763,4.183597 C19.7999167,4.04787677 20.1899251,3.70874271 20.410408,3.45428809 C20.3935054,3.14904246 20.3765196,2.86069942 20.359617,2.72497918 C20.3424646,2.48751041 17.7136553,2.48751041 17.3066611,2.72497918 Z"/>
      <path fill="#000" d="M18.8500416,4.01390508 C18.6464613,4.01390508 18.4089925,3.9970025 18.2224813,3.96303081 C18.1376353,3.94612823 18.0528726,3.89525396 17.9850125,3.86128226 C17.8662781,3.7764363 17.7475437,3.67477102 17.61199,3.57293922 C17.3405495,3.36944213 17.323647,3.25070774 17.323647,3.19991674 C17.4423813,2.13139051 17.2896753,1.2325562 17.2896753,1.2325562 C17.2896753,1.2325562 17.1709409,0.774604496 17.8154038,0.655870108 C18.4598668,0.53713572 18.8499584,0.520233139 18.8499584,0.520233139 C18.8499584,0.520233139 19.2570358,0.520233139 19.8845129,0.655870108 C20.5289759,0.774604496 20.4102415,1.2325562 20.4102415,1.2325562 C20.4102415,1.2325562 20.2576187,2.13139051 20.376353,3.19991674 C20.376353,3.25070774 20.3594505,3.36944213 20.08801,3.57293922 C19.8505412,3.74254788 19.66403,3.92905912 19.4775187,3.96303081 C19.2909242,3.9970025 19.0534555,4.01390508 18.8500416,4.01390508 Z"/>
      <path fill="#000" d="M18.8500416.0792672773C17.7307244.0792672773 17.5101582.384512906 17.1879267.723730225 17.1201499.808492923 17.1709409 1.3173189 17.2897585 2.40274771L17.4423813 2.40274771C17.4423813 2.40274771 17.3405495 2.09741882 17.3575354 1.74129892 17.3745212 1.38517902 17.4423813 1.40216486 17.3914238 1.3173189 17.323647 1.21548709 17.1879267 1.04587843 17.4932556.876353039 17.7985012.70674438 18.2733555 1.01199001 18.8500416 1.02897585 19.4266445 1.01199001 19.9184846.70674438 20.2237302.876353039 20.5289759 1.04587843 20.3933389 1.21548709 20.325562 1.3173189 20.2577019 1.41906744 20.3424646 1.38509575 20.3594505 1.74129892 20.376353 2.09741882 20.2746045 2.40274771 20.2746045 2.40274771L20.4272273 2.40274771C20.5289759 1.3173189 20.596836.842464613 20.5459617.757618651 20.2576187.384512906 19.9693589.0961698585 18.8500416.0792672773zM24.2262281 13.443547C24.2262281 13.443547 23.9039967 14.4781016 23.2765196 14.8342215 23.1407993 14.7664446 23.1577852 14.6646961 23.0390508 14.51199 23.0050791 14.461199 22.8863447 14.427144 22.8355537 14.376353 22.7846794 14.3254788 22.8016653 14.2406328 22.7168193 14.172856 22.6489592 14.1049958 22.5980849 14.1558701 22.5302248 14.1049958 22.462448 14.037219 22.4453789 13.952373 22.3945878 13.901582 22.3606162 13.8676103 22.2249792 13.8507077 22.1910908 13.8167361 22.1062448 13.7318901 21.3601166 13.5792673 21.394005 13.4096586 21.4617818 13.155204 21.5975021 12.9686928 21.5975021 12.9686928 21.5975021 12.9686928 21.9197336 12.4938385 22.2418818 12.510741 22.5641132 12.5277269 22.8694421 12.595587 23.0390508 12.4429642 23.2256453 12.2732723 24.2771857 12.9008326 24.2262281 13.443547z"/>
      <path fill="#000" d="M22.0214821,5.94737719 C22.0214821,5.94737719 23.0899251,5.69292256 23.819234,6.38834305 C24.5485429,7.10066611 24.4975853,7.98251457 24.2771857,8.52522898 C24.4636969,8.74571191 24.8029142,9.35620316 24.5485429,10.0855121 C25.6678601,11.0352206 25.17602,12.4938385 24.1754371,13.4605329 C24.1754371,13.4605329 23.9379684,12.5786012 22.9882598,12.5277269 C23.0221482,12.1885928 22.1063281,11.9171524 22.5303081,11.0352206 C21.8858451,10.8825978 21.902831,10.441632 21.8010824,9.89900083 C21.7162365,9.35620316 22.0214821,5.94737719 22.0214821,5.94737719 Z"/>
      <path fill="#FFF" d="M21.6313905,6.42223147 C21.6313905,6.42223147 22.8694421,5.79475437 23.598751,6.50707744 C24.3279767,7.2194005 24.1243963,7.99950042 23.9039967,8.54221482 C24.0905079,8.76261449 24.5314738,9.39025812 24.2601166,10.1363863 C24.2092423,10.305995 23.8361366,10.305995 23.5646961,10.7469609 C24.2430475,10.356786 24.6671107,10.4586178 24.8197336,10.9503747 C25.0572023,11.713572 24.5313905,12.6293922 24.0735221,13.1382182 C24.0735221,13.1212323 24.0565362,13.1042465 24.0565362,13.0873439 C23.9887594,13.3417985 23.9039134,13.8335554 23.3951707,14.3762698 C23.1407161,14.647627 22.937219,14.6137386 22.6488759,14.5458784 C22.3097419,14.4610325 22.1910075,14.3083264 21.7161532,14.0540383 C21.444796,13.9014155 21.5974188,13.714821 21.5974188,13.5621982 C21.5974188,13.5283097 21.6313072,13.4773522 21.6822648,13.4095754 C21.7161532,13.3247294 21.8179017,13.1891757 21.9705246,13.0364696 C21.9705246,13.0364696 22.1910075,12.731224 22.5133222,12.7481266 C22.8355537,12.7651124 23.1746878,12.6973356 23.2595337,12.6124896 L23.2595337,12.6124896 C23.2595337,12.0189009 22.5811823,12.0019151 22.8185679,10.9843464 C22.8355537,10.9334721 22.9203997,10.8486261 23.1916736,10.8147377 C22.7845962,10.7298918 22.5980849,10.7129059 22.3097419,10.441632 C22.1062448,10.2551207 21.953622,10.017652 21.9026644,9.71240633 C21.8009992,9.18667777 21.6313905,6.42223147 21.6313905,6.42223147 Z"/>
      <path fill="#000" d="M18.0528726,5.35378851 C17.9511241,5.21806828 17.4253955,4.5397169 16.4247294,4.2683597 C16.1363863,4.18351374 15.9498751,4.42098251 15.6616153,4.59059117 C15.5767694,4.5397169 15.2036636,4.37010824 15.0001665,4.48875937 C14.7966694,4.60741049 14.6610325,4.72622814 14.4574521,4.81099084 C14.3556203,4.76011657 14.0843464,4.76011657 13.8638634,4.84487927 C13.6433805,4.91273938 13.3041632,5.0653622 12.9819317,5.50632806 C12.7784346,6.23563697 16.5773522,5.6928393 16.5773522,5.6928393 L18.0528726,5.35378851 Z"/>
      <path fill="#000" d="M18.0868443 5.35378851C17.5440466 5.167194 17.6288926 4.5397169 16.4247294 4.43796836 16.1872606 4.42098251 16.0346378 4.60749376 15.8650291 4.72622814 15.9498751 4.8110741 16.0346378 4.94671107 16.0855121 5.08234804 15.9328893 4.91282265 15.6615321 4.69225645 15.3900916 4.64138218 15.1357202 4.59059117 14.9661116 4.77710241 14.6947544 4.91282265 14.7455454 4.96361366 14.7965029 5.04845962 14.8642798 5.15029142 14.626811 4.99766861 14.4572856 4.94679434 14.1350541 5.06544546 13.9145712 5.13322231 13.4905912 5.31981682 13.1683597 5.77776853 12.9648626 6.50707744 16.5942548 5.69292256 16.5942548 5.69292256L18.0868443 5.35378851zM21.2752706 5.62514571C21.2752706 5.62514571 21.2752706 5.43855121 21.2582848 5.26902581 21.2582848 5.23513739 21.1226478 5.15029142 21.1226478 5.116403L21.0887594 5.08243131C21.0887594 5.08243131 21.3601166 4.92980849 21.5636137 5.01465445 21.7840133 5.08243131 21.9027477 5.37077435 21.9027477 5.37077435 22.2928393 5.23513739 22.3267277 5.3877602 22.5133222 5.59125729 22.9203997 5.50641132 22.9711907 5.65903414 23.2256453 6.03222315 23.2256453 6.03222315 22.9203997 5.98134888 22.326811 6.08301415 21.7501249 6.16777685 21.2752706 5.60815987 21.2752706 5.62514571z"/>
      <path fill="#88CE02" d="M21.2074105,5.54029975 C21.2074105,5.54029975 21.309159,5.45545379 21.2751873,5.43846794 C21.4616986,5.3367194 21.7161532,5.21806828 21.8348876,5.54029975 C22.2249792,5.40457952 22.2758535,5.59117402 22.4623647,5.79475437 C22.937219,5.57427144 22.9711074,5.84554538 23.0050791,5.96427977 C22.8524563,5.96427977 22.6320566,5.98126561 22.3267277,6.01515404 C21.7501249,6.1 21.1904246,5.52331391 21.2074105,5.54029975 Z"/>
      <path fill="#000" d="M15.4411324 5.11631973C15.4411324 5.11631973 16.4078268 5.45545379 17.2218984 5.40457952 18.03597 5.33680266 19.4266445 5.26894255 20.172856 5.70990841 20.172856 5.70990841 20.9360533 5.43846794 21.6483764 5.62506245 22.3607827 5.81157369 23.6666112 7.03272273 23.2766028 8.32164863 23.2426311 8.40649459 23.0221482 8.54213156 22.7677769 8.62697752 22.7677769 8.62697752 22.9034971 9.20358035 22.6660283 9.67843464 22.4285595 10.1363863 21.902831 11.0183181 21.8858451 12.2393838L21.8858451 12.2393838C21.8689425 12.4428809 21.8350541 12.8668609 21.8010824 13.070358 20.4781848 13.019567 18.4430475 12.5276436 16.4417985 12.5616153 16.4587011 12.3412157 16.4756869 12.2054954 16.4926728 11.9850125L16.5434638 11.9850125C16.4417152 11.4253122 16.4078268 11.1369692 16.305995 10.7129892 15.6615321 10.305995 14.9830974 9.83114072 14.4065779 8.93222315 13.8468776 8.03330558 15.4411324 5.11631973 15.4411324 5.11631973zM21.9875937 14.2746045C21.9875937 14.2746045 23.0391341 18.0397169 21.8010824 19.6169858 21.8010824 19.6169858 21.9875937 20.3462115 21.5636137 21.1263947 21.4957535 21.4655287 21.4109076 21.7708576 21.3601166 22.1099917 21.1396336 23.517652 20.7664446 24.1112406 20.6646961 26.3668609L19.6470441 26.3499584C19.6470441 26.3499584 19.5283097 24.7218152 19.1721898 23.8568693 18.968776 23.3651124 18.1715237 22.7035803 18.2055787 22.0422148 18.2394671 21.5333888 18.3412157 21.1094088 19.2062448 20.4309742 19.2740216 19.4473772 18.2903414 18.5144879 18.4430475 14.8512073L21.9875937 14.2746045z"/>
      <path fill="#FFF" d="M21.682348 14.1218984C21.9537052 15.8517902 22.5811823 18.4127394 21.4448793 19.6676936 21.4956703 19.9051624 21.529642 20.2443797 21.4617818 20.634388 21.4278934 20.8378851 21.3600333 21.058368 21.2752706 21.2957535 21.1056619 21.702831 21.0378018 22.2964197 20.9869276 22.6525396 20.7664446 24.0601998 20.7664446 24.1281432 20.6646961 26.3837635L19.6470441 26.3667777C19.6470441 26.3667777 19.5283097 24.7386345 19.1721898 23.8737719 18.968776 23.3819317 18.5447127 22.9579517 18.5108243 22.2965029 18.4769359 21.7877602 18.8330558 20.7701915 19.6810991 20.8040799 19.6302248 18.7519567 18.680433 19.1589509 18.4260616 14.8850958L21.682348 14.1218984zM15.4411324 5.11631973C15.4411324 5.11631973 15.8142381 5.23505412 16.2212323 5.26894255 16.6283097 5.30283097 17.0692756 5.26894255 17.4592839 5.2519567 18.2733555 5.18417985 19.4266445 5.09933389 20.1898418 5.54029975 20.1898418 5.54029975 20.6138218 5.40457952 21.0717735 5.43846794 21.2752706 5.45545379 21.478851 5.62506245 21.7162365 5.69292256 22.462448 5.87943381 23.174771 7.11748543 22.8524563 8.23688593 22.8185679 8.32173189 22.5810991 8.23688593 22.3097419 8.32173189 22.3605329 8.55920067 22.3945878 9.10191507 22.1231474 9.6785179 21.8348876 10.255204 21.4617818 11.0014155 21.5295587 12.4260616 19.7487927 12.3412157 18.9517069 12.2225645 17.1878435 12.1377186 17.0352206 11.5101582 16.9333888 10.8826811 16.9164863 10.5604496 17.153955 10.4417152 17.2895087 10.34005 17.4761865 10.1364696 16.9674438 10.2213156 16.7638634 10.1873439 16.4585346 10.0177352 16.1532889 9.84812656 15.6105745 9.30541216 15.3392173 8.94929226 15.3053289 8.91532057 15.1188177 9.47493755 14.6948376 9.49200666 14.5421316 9.27152373 15.1865945 8.64396336 15.0678601 8.40657785 14.6439634 7.54154871 15.4411324 5.11631973 15.4411324 5.11631973z"/>
      <path fill="#000" d="M21.8179017,12.7142381 C21.8179017,12.7142381 21.8517902,13.3248127 21.8517902,13.4774355 C21.8517902,13.6470441 21.9875104,14.1557868 22.004413,14.3932556 C21.8179017,14.7154871 21.0038301,15.444796 19.5283097,15.7161532 C18.0697752,16.0213988 16.1363863,13.7318901 16.1363863,13.7318901 C16.1872606,13.5114072 16.3568693,12.8668609 16.4756037,12.5277269 C16.4925895,12.4938385 16.5264779,12.4089925 16.5264779,12.3751041 C16.679184,12.1546211 21.8179017,12.7142381 21.8179017,12.7142381 Z"/>
      <path fill="#FFF" d="M21.4448793,12.7651957 C21.4448793,13.1891757 21.5126561,13.4945046 21.5636137,13.7658618 C21.6483764,14.2577019 21.7840133,14.5799334 21.7840133,14.9021649 C21.7840133,15.8857619 20.4950874,15.7161532 19.4095754,15.7501249 C17.9510408,16.0554538 16.7129892,13.7658618 16.7129892,13.7658618 C16.8147377,13.3757702 16.8825978,12.9348876 17.0352206,12.5616986 L17.0352206,12.5616986 C17.0521232,12.3582015 17.0860949,12.1038301 17.1029975,11.9850958 C19.1721066,11.9850958 20.6306411,12.1038301 21.4786844,12.1885096 C21.5126561,12.3751041 21.4787677,12.6973356 21.4448793,12.7651957 L21.4448793,12.7651957 Z"/>
      <path fill="#000" d="M19.8166528,14.9529559 C19.8166528,14.9529559 18.9178185,12.9517069 16.221149,13.5453789 C15.5767694,15.3600333 14.7117402,17.4461282 15.2714405,19.7017485 C14.7117402,20.4649459 14.0672773,20.8890092 14.0672773,22.2965862 C14.0672773,23.7042465 14.1351374,23.9417152 14.1351374,23.9417152 L16.1194005,24.043547 C16.1194005,24.043547 16.7638634,23.2125729 17.0182348,22.3136553 C17.0860949,22.0592007 17.153955,21.6013322 17.1030808,21.0756037 C17.1708576,20.9738551 17.4592007,20.7364696 17.4931724,20.2785179 C17.4931724,20.2785179 18.4598668,19.7697752 19.019567,18.5317236 C19.5453789,17.4121565 19.4096586,16.4454621 19.8166528,14.9529559 Z"/>
      <path fill="#FFF" d="M19.8166528,14.9529559 C19.7658618,14.7664446 19.0874271,12.9348043 16.5773522,13.4774355 C15.1019151,17.4121565 15.6446295,19.0402998 15.8650291,19.7525396 C14.864363,21.0244796 14.4064946,21.2958368 14.6100749,23.8737719 L15.9329725,23.8737719 C16.5434638,22.9070774 16.679184,22.5508743 16.7130724,21.2789342 C16.7130724,21.22806 16.5265612,21.3806828 16.390841,21.5502914 C16.4926728,21.0245629 16.7809326,20.9228143 17.0014155,20.6005828 C17.103164,20.4648626 17.1879267,20.2613655 17.1879267,19.9900083 C18.3751041,19.1929226 18.8160699,18.1922565 19.0704413,17.1577019 C19.2740216,16.4454621 19.5114072,15.2751873 19.8166528,14.9529559 Z"/>
      <path fill="#000" d="M15.6276436 12.2224813C15.6276436 12.2224813 16.0855953 12.2393838 16.4926728 12.3751041 16.8827644 12.510741 16.8827644 12.5955037 17.0353872 12.7651957 17.18801 12.9348876 17.5611157 13.1891757 17.4933389 13.443547 17.4593672 13.5792673 17.3746045 13.6131557 17.2558701 13.7318901 17.2049958 13.7827644 16.8318068 14.1897585 16.7470441 14.2406328 16.6961699 14.2745212 16.6283097 14.3254788 16.5774355 14.3593672 16.5266445 14.3932556 16.3740216 14.4950874 16.3230641 14.5289759 16.1534555 14.6138218 16.0347211 14.6646961 15.8482098 14.6477102 15.8482098 14.6477102 15.4242298 14.6307244 15.1527893 14.3424646 15.1527893 14.3424646 15.1189009 14.2067444 15.186761 14.1389675 15.186761 14.1389675 14.8305579 13.8336386 14.7288093 13.6301415 14.6269775 13.4267277 14.6269775 13.1383847 14.6949209 12.9857619 14.7288093 12.8329725 15.3901749 12.4089925 15.6276436 12.2224813zM16.0517069 28.7243131L16.0008326 29.1483764C16.0008326 29.1483764 15.8482098 29.3348876 14.7119067 29.317985 13.5586178 29.3009992 13.2533722 28.9448793 13.1516236 28.7582848L13.0838468 28.3173189C13.0838468 28.3173189 13.3043297 27.9950874 13.355204 27.9950874 13.7283097 28.0289759 15.0003331 28.5378018 15.8822648 28.6734388 15.9668609 28.6734388 15.9837635 28.7073272 16.0517069 28.7243131zM18.5108243 27.8593672C18.5108243 28.0458784 18.4938385 28.0458784 18.4938385 28.2324729 18.6973356 28.3850958 19.2062448 28.4699417 20.172856 28.4528726 21.5805162 28.4189842 22.886428 28.8769359 24.4805995 28.6054954L24.4975853 28.3002498 24.3449625 28.2833472 18.6973356 27.8253955 18.5108243 27.8593672z"/>
      <path fill="#000" d="M19.7488759 28.4529559C19.8845962 28.4529559 20.0202331 28.4529559 20.172856 28.4529559 21.0887594 28.4190674 21.9537052 28.6225645 22.886428 28.6734388 23.3782681 28.656453 23.9888426 28.5377186 23.9379684 28.1815987L19.1213988 27.7745212C18.8330558 28.0967527 19.0534555 28.3681099 19.7488759 28.4529559zM14.2199833 21.3129059C14.3726062 21.4146545 15.4071607 22.025229 17.0861782 21.940383 17.0522065 22.2626145 17.0691923 22.8901749 16.3229808 23.9925062 15.9498751 24.5352206 15.6275604 25.4850125 15.5597835 26.6891757 15.5767694 26.9605329 15.7293922 27.1979184 15.5258951 27.5541216 15.5936719 27.7745212 15.8650291 28.2154871 16.0007494 28.4868443 16.1363863 28.7582848 16.2042465 29.0635304 15.3053289 29.0805162 14.3895087 29.0974188 12.9139883 28.9956703 13.1175687 28.2834305 13.2194005 27.9103247 13.5076603 27.5202331 13.541632 27.3675271 13.5755204 27.2149042 13.5755204 26.7570358 13.8637802 26.4517069 14.1182348 25.6037469 14.0333888 24.7896753 13.9825978 24.0264779 13.8977519 23.2293089 13.880766 21.9573689 14.2199833 21.3129059zM15.7972523 7.49067444C17.0014155 5.87943381 15.9837635 4.59059117 14.050458 4.9805995 13.2702748 5.13322231 12.4901749 5.67601998 12.4392173 6.65961699 12.184846 6.69350541 11.6082431 6.72739384 11.3199001 7.77893422 11.0995004 8.59300583 10.980766 8.74562864 10.5905912 9.15262281 10.3362198 9.44096586 10.607577 10.0345545 10.7940883 10.4586178 11.4216486 11.9171524 13.3550375 12.0527893 14.6609492 13.155204 15.1019151 13.0364696 15.5597835 12.5447127 15.6955037 12.2224813 14.5930891 10.9164863 14.8304746 10.4077435 14.3895087 9.72939217 14.8644463 9.55970025 15.9498751 8.89833472 15.7972523 7.49067444z"/>
      <path fill="#FFF" d="M15.5597835,7.3889259 C15.6275604,7.28709409 15.7462948,7.06669442 15.7972523,6.98184846 C15.8142381,6.96486261 16.0007494,7.28709409 16.0177352,7.27019151 C16.4756037,6.52389675 16.5943381,5.43846794 16.0685262,5.3367194 C15.9497918,5.31973356 15.7293922,5.26894255 15.5427977,5.20099917 C15.2036636,5.08226478 14.898418,5.08226478 14.3556203,5.18409659 C13.6094088,5.31973356 12.8631973,5.86244796 12.8631973,6.64263114 C12.8631973,6.69350541 13.3888426,6.84612823 13.5415487,7.47368859 C13.2870941,7.11748543 12.8461282,6.72739384 12.3203997,7.06661116 C11.7606994,7.42273106 12.0490425,8.23680266 11.302831,9.0847627 C11.0483764,9.37310575 11.082348,9.71232306 11.353622,10.3906744 C11.7945878,11.4592007 13.8806828,12.0358035 15.0169858,13.0533722 C15.288343,12.9346378 15.4748543,12.6632806 15.6105745,12.4597835 C14.8473772,11.6626978 14.5420483,10.916403 14.3216486,10.3736886 C14.0502914,9.74621149 13.7449625,9.39009159 13.1513739,8.91507077 C13.4567027,9.03380516 13.6941715,9.15253955 13.8297252,9.25428809 C13.982348,9.35603664 14.202831,9.37302248 14.4064113,9.30516236 C15.1358035,9.05095754 15.5258951,8.03330558 15.5597835,7.3889259 Z"/>
      <path fill="#000" d="M22.9373022,7.6602831 C22.886428,8.30474604 22.4115737,7.98251457 22.1572023,7.86378018 C21.6483764,7.64329725 21.1395504,7.49067444 20.5459617,7.49067444 C19.952373,7.49067444 19.1891757,7.54154871 18.5278102,7.71115737 C17.61199,7.96552873 17.3405495,7.94862614 16.9335554,7.7450458 C16.5265612,7.52456286 15.8143214,6.98184846 15.8143214,6.98184846 C15.8143214,6.98184846 15.7973356,7.15145712 15.9669442,7.37194005 C16.1873439,7.64329725 16.6792673,7.98251457 17.3406328,8.20291424 C17.6628643,8.30474604 17.9173189,8.23680266 18.2056619,8.16902581 C19.7150708,7.79592007 21.3092423,7.72805995 22.6490425,8.54213156 C22.7169026,8.57601998 22.9543714,8.47427144 23.0561199,8.32164863 C23.1916736,8.10124896 22.9373022,7.6602831 22.9373022,7.6602831 Z"/>
      <path fill="#001423" d="M15.2206495,14.1218984 C15.3562864,14.2067444 15.5258951,14.2576187 15.7124063,14.4102415 C15.7124063,14.4102415 15.5597835,14.4102415 15.4920067,14.3424646 C15.4071607,14.2915903 15.237552,14.1389675 15.2206495,14.1218984 L15.2206495,14.1218984 Z"/>
      <path fill="#FFF" d="M20.1219817,0.672855953 C20.0711074,0.520233139 19.6979184,0.248792673 18.8330558,0.248792673 C17.9002498,0.248792673 17.6288926,0.53713572 17.61199,0.689758535 C17.61199,0.740632806 17.5441299,1.28343047 17.527144,1.50383014 C17.527144,1.50383014 17.527144,1.77518734 17.5440466,2.18218152 C17.5610325,2.45353872 17.6288926,2.60616153 17.662781,2.9623647 C17.6966694,3.33538718 17.7985012,3.57285595 17.9850125,3.87818485 C18.0698585,3.92897585 18.1376353,3.97993339 18.2224813,3.99691923 C18.5616986,4.06469609 19.1552873,4.08168193 19.4775187,3.99691923 C19.66403,3.94604496 19.9014988,3.62381349 19.952373,3.33547044 C20.0201499,2.97935054 20.08801,2.72489592 20.1049958,2.50449625 C20.1388843,2.28409659 20.1558701,1.79217319 20.1727727,1.65645296 C20.2237302,1.28343047 20.1388843,0.70674438 20.1219817,0.672855953 Z"/>
      <path fill="#000" d="M18.3412157,21.6351374 C18.3412157,21.6351374 19.2401332,22.025229 21.4618651,21.6860117 C21.4618651,21.6860117 20.834388,24.8405495 21.1227311,26.4177352 C21.1227311,26.4177352 21.4109908,26.8248127 23.54796,27.6049126 C23.54796,27.6049126 24.4976686,27.8423813 24.4637802,28.3173189 C24.4637802,28.3173189 24.4976686,28.4190674 23.3444629,28.3850958 C22.1912573,28.3511241 21.1057452,28.147627 20.3425479,28.147627 C19.5793505,28.147627 18.7652789,28.1815154 18.629642,27.9611157 C18.4770192,27.7576187 18.6635304,27.2318068 18.8840133,26.9264779 C19.1215654,26.6043297 19.053622,26.3667777 19.0367194,25.7902581 C18.9856786,24.2808493 17.8323897,22.7205662 18.3412157,21.6351374 Z"/>
      <path fill="#000" d="M18.1546211,21.9234804 C18.0358868,22.0930891 18.1715237,22.7374688 18.3411324,23.3650291 C18.510741,23.9925062 18.8839301,24.3656953 18.9686928,25.4001665 C19.0534555,26.4177352 19.0704413,26.5534555 18.7820983,27.1469609 C18.4937552,27.7404663 18.4089925,28.2832639 19.4095754,28.3002498 C20.4101582,28.3172356 20.9529559,28.2832639 21.9705246,28.43597 C22.9881765,28.5885928 23.3442964,28.6394671 23.9039967,28.5547044 C24.4636969,28.4699417 24.582348,28.2832639 24.3449625,28.1137386 C24.1074938,27.9441299 23.1238135,27.7576187 22.6998335,27.4183181 C22.292756,27.1130724 21.1395504,26.6042465 21.1226478,26.4686095 C21.0717735,26.0106578 21.0547877,24.3486261 21.1395504,23.8059117 C21.2243963,23.2631141 21.3430475,22.4830142 21.3770192,22.2795171 C21.4109908,22.07602 21.5805162,21.8724396 21.2921732,21.9402998 C21.0039134,22.0080766 19.9184846,22.1607827 19.104413,22.1099084 C18.2903414,22.0591174 18.2055787,21.8725229 18.1546211,21.9234804 Z"/>
      <path fill="#000" d="M18.7313072 27.16403C19.019567 27.2996669 19.4436303 27.4014988 19.7658618 27.4014988 19.7658618 27.4014988 19.6470441 27.961199 19.8336386 28.3003331 20.0201499 28.6395504 18.4768526 28.4360533 18.4768526 28.4360533L18.4090758 27.2318901 18.7313072 27.16403zM23.2256453 28.6225645C23.4970025 28.5377186 23.683597 28.2324729 23.4631141 27.9442132 23.2256453 27.6558701 23.0221482 27.6049958 23.3273938 27.5880933 23.6327227 27.5711074 24.75204 28.2494588 24.75204 28.2494588L24.1753539 28.7751873 23.2256453 28.6225645zM18.1037469 22.584846C18.4938385 22.7205662 19.0874271 22.7544546 19.5962531 22.7374688 20.1049958 22.7205662 20.8681932 22.6526228 21.3601166 22.4830974 21.8518734 22.3134888 21.6483764 22.6696087 21.6483764 22.6696087L21.3770192 22.9240633C21.3770192 22.9240633 20.7325562 23.1784346 19.6810991 23.1615321 18.4430475 23.1445462 18.0698585 23.0089092 18.0698585 23.0089092L18.1037469 22.584846zM18.1376353 23.4328893C18.5278102 23.5686095 19.1213156 23.6024979 19.6301415 23.5855121 20.1388843 23.5686095 20.8173189 23.5686095 21.309159 23.382015 21.5126561 23.3142381 21.394005 23.6024979 21.394005 23.6024979L21.309159 23.7551207C21.309159 23.7551207 20.6477102 23.9925895 19.6131557 23.9755204 18.3751041 23.9586178 18.1546211 23.856786 18.1546211 23.856786L18.1376353 23.4328893z" opacity=".3"/>
      <path d="M18.3412157,21.6351374 C18.3412157,21.6351374 19.8167361,22.1608659 21.478851,21.804746 C21.478851,21.804746 20.834388,24.8405495 21.1227311,26.4008326 C21.1227311,26.4008326 21.4109908,26.8078268 23.54796,27.58801 C23.54796,27.58801 24.4976686,27.8254788 24.4637802,28.3003331 C24.4637802,28.3003331 24.4976686,28.4021649 23.3444629,28.3681099 C22.191174,28.3342215 21.1057452,28.1306411 20.3425479,28.1306411 C19.5793505,28.1306411 18.7652789,28.1646128 18.629642,27.9441299 C18.4770192,27.7406328 18.6635304,27.214821 18.8840133,26.9095754 C19.1215654,26.5873439 19.053622,26.3498751 19.0367194,25.7732723 C18.9856786,24.2808493 17.8323897,22.7205662 18.3412157,21.6351374 Z"/>
      <path d="M18.3412157,21.6351374 C18.3412157,21.6351374 19.8167361,22.1438801 21.478851,21.7877602 C21.478851,21.7877602 20.834388,24.8405495 21.1227311,26.4008326 C21.1227311,26.4008326 21.4109908,26.8078268 23.54796,27.58801 C23.54796,27.58801 24.4976686,27.8254788 24.4637802,28.3003331 C24.4637802,28.3003331 24.4976686,28.4021649 23.3444629,28.3681099 C22.191174,28.3342215 21.0887594,28.01199 20.3425479,28.1306411 C19.5454621,28.2663614 18.7652789,28.2154871 18.629642,27.9441299 C18.5109076,27.7237302 18.6635304,27.214821 18.8840133,26.9095754 C19.1215654,26.5873439 19.053622,26.3498751 19.0367194,25.7732723 C18.9856786,24.2808493 17.8323897,22.7205662 18.3412157,21.6351374 Z"/>
      <path fill="#000" d="M17.0183181,11.5441299 C17.0183181,11.6628643 18.3412157,12.3242298 19.0704413,12.45995 C19.7997502,12.595587 21.3261449,12.45995 21.5635304,12.4090758 L21.5295587,12.6465445 C21.5295587,12.6465445 19.7149042,12.9179017 18.3242298,12.544796 C16.9334721,12.1716903 17.0861782,12.0868443 17.0861782,12.0868443 L17.0183181,11.5441299 Z"/>
      <path fill="#FFF" d="M.863780183 4.5286428C1.06727727 4.6304746 1.79658618 4.81698585 2.27144047 4.7152373 2.33921732 4.69825146 2.27144047 3.54496253 2.45803497 3.01923397 2.72939217 2.28992506 3.17035803 1.69633639 3.37377186.407493755 2.66144879.339633639 1.84746045.153039134 1.42339717.0173189009.880766028 1.67943381 1.06736053 3.10399667.863780183 4.5286428zM2.00016653 5.59716903C2.11890092 5.63105745 2.20366361 5.76669442 2.2376353 5.68201499 2.30541216 5.52930891 2.11890092 5.24104913 2.10191507 5.03755204 2.10191507 5.02056619 2.10191507 5.03755204 2.10191507 5.02056619 1.94929226 4.88492923.914737719 4.86794338.982597835 4.93572023.863863447 5.15620316.677352206 5.12231474.609575354 5.5632806.575686928 5.78368027.84704413 5.59716903 1.10133222 5.58018318.64346378 5.88542881.117735221 6.27560366.032889259 6.61473772-.0688592839 7.08959201.100749376 7.22531224.609575354 7.47976686 1.05054122 7.5815154 1.57626978 7.59850125 1.98326395 7.5815154 2.44121565 7.49666944 2.52606162 7.27626978 2.39034138 6.97094088 2.18667777 6.51298918 2.0510408 5.9194005 2.00016653 5.59716903z" transform="translate(13.322 21.482)"/>
      <path fill="#000" d="M15.5089092 5.04845962C16.0686095 5.37069109 16.8487927 5.28592839 17.1370525 5.26894255 17.2049126 5.26894255 17.8833472 5.15020816 17.9172356 5.16711074 17.9850125 5.18409659 17.9850125 5.23497086 17.9850125 5.23497086 17.9850125 5.23497086 17.7306411 5.37060783 17.1540383 5.40449625 16.6113239 5.43838468 15.9668609 5.40449625 15.610741 5.23497086 15.1866778 5.04845962 15.5089092 5.04845962 15.5089092 5.04845962zM21.2752706 5.37069109C21.3770192 5.43846794 22.0384679 5.69292256 22.326811 5.99816819 22.5811823 6.26960866 22.4455454 6.25262281 22.3945878 6.1847627 22.326811 6.09991674 21.8009992 5.74379684 21.5975021 5.65903414 21.394005 5.57427144 21.1395504 5.42156536 21.1395504 5.38767694 21.1395504 5.35378851 21.2752706 5.37069109 21.2752706 5.37069109z"/>
      <path fill="#FFF" d="M15.4240633,12.4089925 C15.9159034,12.3751041 16.4247294,12.4938385 16.7469609,12.8329725 C16.9165695,13.0025812 17.1879267,13.1890924 17.1540383,13.3587011 C17.1540383,13.4095754 17.0522065,13.5452956 16.9675271,13.6470441 C16.9166528,13.714821 16.76403,13.8674438 16.7130724,13.9184013 C16.6452956,13.9692756 16.4078268,14.1558701 16.3569525,14.1897585 C16.3060783,14.2237302 16.2382182,14.3085762 16.1873439,14.3254788 C16.0178185,14.4103247 15.831224,14.3424646 15.6616153,14.2577019 C15.4920899,14.172856 15.695587,14.1558701 15.5089925,14.0202331 C15.0511241,13.6980017 14.7966694,13.4774355 14.9832639,12.8499584 C15.0001665,12.731224 15.1866778,12.5955037 15.4240633,12.4089925 Z"/>
    </g>
    <path fill="#000" d="M11.5157369 8.77502082C9.98934221 9.38559534 6.10549542 11.3190674 5.00316403 11.9126561L5.00316403 11.9126561C5.91898418 12.489259 6.3429642 13.8799334 6.47868443 15.2875937 6.49558701 15.4233139 6.51257286 15.5420483 6.5295587 15.6776853 6.54646128 15.7964197 6.56344713 15.8811823 6.58034971 15.9321399 6.58034971 15.9491257 6.58034971 15.9830142 6.59733555 15.9999167 7.59800167 13.2694421 11.1764363 10.3862614 11.3121565 10.1657785 11.3799334 10.06403 11.2273106 9.62306411 11.4647794 9.19916736 11.7701082 8.65628643 12.3637802 8.41881765 11.5157369 8.77502082zM15.1451291 21.5796836C15.925229 20.0194005 15.9422148 18.5268943 15.925229 16.7800167 15.925229 16.0507077 16.4509575 15.0161532 16.1796836 15.3044963 15.1620316 16.4407161 12.6011657 18.5777685 10.7525396 18.6964197 13.3473772 18.611657 14.3649459 19.9175687 15.1451291 21.5796836z"/>
    <path fill="#000" d="M3.51065779 13.3541216C4.47735221 12.6587843 9.48051624 9.99616986 10.6846794 9.62298085 11.8887594 9.23288926 11.5156536 8.77493755 11.5156536 8.77493755 11.5156536 8.77493755 6.63122398 10.8779351 3.71415487 12.6926728M17.7568693 8.45278934C17.3667777 8.30016653 17.0615321 8.75811823 17.1632806 9.1990841 17.2651124 9.64004996 18.1809326 10.1318068 18.129975 11.7430475 18.0960866 13.065945 17.8077435 13.6085762 17.8077435 13.6085762L17.1632806 12.7945878C17.1632806 12.7945878 17.0615321 10.9628643 16.8410491 10.6915071 16.6206495 10.4201499 15.925229 9.92830974 15.6538718 9.67393838 15.3825146 9.41948376 15.9591174 9.08034971 15.925229 8.60541216 15.8913405 8.14754371 16.213572 7.23172356 16.213572 7.23172356L17.7568693 8.45278934zM20.1143214 15.677602C20.080433 16.949542 20.368776 18.8321399 20.4874271 19.7310575 20.6061615 20.6298918 20.7587843 20.6977519 20.4874271 21.1048293 20.2160699 21.4949209 19.85995 22.1393838 19.85995 22.1393838L18.6896753 22.037552C18.6896753 22.037552 19.6224813 20.8503747 19.6732723 20.6298918 19.7241465 20.4094921 19.198418 18.7304746 19.198418 18.7304746L20.1143214 15.677602z"/>
    <path fill="#000" d="M17.8587011,3.80582848 C18.0961699,4.33147377 18.3844296,4.56894255 18.8422981,4.72164863 C19.1136553,4.82339717 20.1820983,4.9591174 20.6061615,4.48417985 C20.7926728,4.26369692 20.6739384,3.67010824 20.6739384,3.67010824 L19.707244,4.45020816 L18.4013322,4.21282265 L18.2487094,3.82273106 L17.8587011,3.80582848 Z" opacity=".4"/>
    <path fill="#000" stroke="#000" stroke-linejoin="round" stroke-width="3.172" d="M17.9603664,4.97601998 C18.4013322,5.26436303 19.5037469,5.53572023 19.8089925,5.5865945 C20.1142381,5.65437136 20.6060783,5.26436303 20.843547,5.16261449 C21.0980017,5.0438801 21.5389675,4.97601998 22.0477102,5.43397169 C22.0985845,5.48484596 21.9289759,5.70532889 21.9289759,5.70532889 C21.91199,5.68834305 21.8102415,5.68834305 21.6745212,5.62048293 C21.5388843,5.55270608 21.4201499,5.50174854 21.2166528,5.51873439 C20.3686095,5.62048293 20.2329725,5.90882598 19.486761,5.73913405 C18.7405495,5.56944213 18.553955,5.43388843 17.8247294,5.46777685"/>
    <path fill="#000" d="M17.8077435 5.02689425C18.3674438 5.26436303 19.4528726 5.51873439 19.7581182 5.5865945 20.0633639 5.65445462 20.555204 5.34912573 20.7926728 5.19650291 21.2167361 4.92514571 21.7593672 5.14562864 22.0138218 5.43397169 22.1833472 5.62048293 22.2512906 5.73921732 22.2512906 5.79009159 22.2512906 5.85786844 22.0477935 5.79009159 22.0477935 5.79009159 21.9290591 5.73921732 21.7933389 5.72231474 21.6916736 5.65437136 21.5559534 5.5865945 21.4202331 5.48484596 21.2168193 5.50174854 20.368776 5.60358035 20.1991674 5.89184013 19.4699417 5.72223147 18.7407161 5.55262281 18.5541216 5.4 17.7740216 5.45079101M15.1790175 20.8672773C15.1451291 20.8333888 15.2129059 20.7995004 15.1790175 20.7995004 14.9586178 20.7995004 14.6532889 20.6298918 14.483597 20.392423 13.7543714 19.3409659 12.6858451 18.6456286 10.7524563 18.6965029 7.85228976 18.7642798 6.69900083 17.5771857 6.47860117 15.3045795 6.35986678 14.0665279 6.02064946 12.8623647 5.32531224 12.1839301L4.9182348 12.4383847C5.69833472 13.1167361 5.95278934 14.2191507 6.122398 15.7285595 6.3937552 18.0011657 8.2253955 19.0527061 10.3623647 19.0865945 12.5840966 19.1204829 13.3811823 19.5784346 14.2121565 20.6978351 14.4835137 21.053955 14.7888426 21.1726894 15.0262281 21.2235637L15.1790175 20.8672773zM23.0483764 9.96219817C23.0992506 10.2165695 23.2348876 10.7084097 23.5062448 10.9457952 23.6250624 11.0645296 23.641965 11.098418 23.5402165 11.098418 23.4383847 11.098418 22.6921732 11.0645296 22.6921732 11.0645296L22.4886761 10.7084097 23.0483764 9.96219817z"/>
  </g>
</svg>
