<svg xmlns="http://www.w3.org/2000/svg" xmlns:xlink="http://www.w3.org/1999/xlink" width="50" height="50" viewBox="0 0 50 50">
  <defs>
    <path id="reactnative-a" d="M41,25.0032044 C41,22.9203479 38.3452915,20.9464408 34.2751733,19.7223621 C35.2144313,15.6463722 34.7969833,12.4035248 32.9576029,11.365301 C32.5336323,11.121767 32.0379128,11.0064088 31.4965349,11.0064088 L31.4965349,12.4355688 C31.7965756,12.4355688 32.0379128,12.4932479 32.2401141,12.6021973 C33.1271912,13.1020829 33.5120261,15.0054932 33.2119853,17.4536507 C33.1402364,18.0560769 33.0228292,18.690547 32.8793314,19.3378347 C31.6008969,19.0302129 30.205055,18.7930877 28.7374643,18.6392767 C27.8569099,17.4536507 26.9437424,16.3769741 26.0240522,15.4348821 C28.150428,13.493019 30.1463514,12.42916 31.5030575,12.42916 L31.5030575,11 C31.5030575,11 31.5030575,11 31.5030575,11 C29.7093355,11 27.3611904,12.2561227 24.9869547,14.435111 C22.6127191,12.2689403 20.264574,11.0256352 18.470852,11.0256352 L18.470852,12.4547951 C19.8210355,12.4547951 21.8234815,13.5122454 23.9498573,15.4412909 C23.0366898,16.3833829 22.1235222,17.4536507 21.256013,18.6392767 C19.7818997,18.7930877 18.3860579,19.0302129 17.1076233,19.3442435 C16.9576029,18.7033646 16.8467183,18.0817121 16.7684468,17.4856947 C16.4618834,15.0375372 16.8401957,13.1341268 17.7207501,12.6278325 C17.9164289,12.5124743 18.1708113,12.4612039 18.470852,12.4612039 L18.470852,11.0320439 C18.470852,11.0320439 18.470852,11.0320439 18.470852,11.0320439 C17.9229515,11.0320439 17.427232,11.1474022 16.9967387,11.3909361 C15.163881,12.42916 14.7529556,15.6655985 15.6987362,19.7287709 C11.6416633,20.9592584 9,22.9267567 9,25.0032044 C9,27.0860609 11.6547085,29.059968 15.7248267,30.2840467 C14.7855687,34.3600366 15.2030167,37.602884 17.0423971,38.6411078 C17.4663677,38.8846418 17.9620872,39 18.5099878,39 C20.3037097,39 22.6518549,37.7438773 25.0260905,35.564889 C27.4003261,37.7310597 29.7484713,38.9743648 31.5421932,38.9743648 C32.0900938,38.9743648 32.5858133,38.8590066 33.0163066,38.6154726 C34.8491643,37.5772488 35.2600897,34.3408103 34.314309,30.2776379 C38.3583367,29.0535592 41,27.0796521 41,25.0032044 Z M32.5075418,20.728542 C32.2662046,21.5552758 31.9661639,22.4076448 31.6269874,23.2600137 C31.3595597,22.7473106 31.0790868,22.2346075 30.7725234,21.7219043 C30.4724827,21.2092012 30.152874,20.7093156 29.8332654,20.2222477 C30.7594782,20.3568322 31.6530779,20.5234607 32.5075418,20.728542 Z M29.5201794,27.5539025 C29.0114146,28.419089 28.4896046,29.2394141 27.9482267,30.00206 C26.9763555,30.0853742 25.9914391,30.1302358 25,30.1302358 C24.0150836,30.1302358 23.0301671,30.0853742 22.0648186,30.0084688 C21.5234407,29.2458228 20.995108,28.4319066 20.4863433,27.5731289 C19.9906237,26.7335775 19.5405626,25.8812085 19.1296372,25.0224308 C19.53404,24.163653 19.9906237,23.3048753 20.4798206,22.4653239 C20.9885854,21.6001373 21.5103954,20.7798123 22.0517733,20.0171664 C23.0236445,19.9338521 24.0085609,19.8889906 25,19.8889906 C25.9849164,19.8889906 26.9698329,19.9338521 27.9351814,20.0107576 C28.4765593,20.7734035 29.004892,21.5873198 29.5136567,22.4460975 C30.0093763,23.2856489 30.4594374,24.1380179 30.8703628,24.9967956 C30.4594374,25.8555734 30.0093763,26.7143511 29.5201794,27.5539025 Z M31.6269874,26.7207599 C31.9792091,27.5795377 32.2792499,28.4383154 32.5271097,29.271458 C31.6726457,29.4765393 30.7725234,29.6495766 29.839788,29.7841611 C30.1593967,29.2906844 30.4790053,28.78439 30.7790461,28.2652781 C31.0790868,27.752575 31.3595597,27.233463 31.6269874,26.7207599 Z M25.0130453,33.558938 C24.4064411,32.9436942 23.7998369,32.2579538 23.1997554,31.5081254 C23.7867917,31.5337606 24.3868732,31.552987 24.9934774,31.552987 C25.6066042,31.552987 26.2132083,31.5401694 26.8067672,31.5081254 C26.2197309,32.2579538 25.6131268,32.9436942 25.0130453,33.558938 Z M20.160212,29.7841611 C19.2339992,29.6495766 18.3403995,29.482948 17.4859356,29.2778668 C17.7272727,28.451133 18.0273135,27.598764 18.36649,26.7463951 C18.6339177,27.2590982 18.9143905,27.7718013 19.2209539,28.2845045 C19.5275173,28.7972076 19.8406033,29.2970932 20.160212,29.7841611 Z M24.9804321,16.4474708 C25.5870363,17.0627146 26.1936404,17.748455 26.793722,18.4982834 C26.2066857,18.4726482 25.6066042,18.4534218 25,18.4534218 C24.3868732,18.4534218 23.7802691,18.4662394 23.1867102,18.4982834 C23.7737464,17.748455 24.3803506,17.0627146 24.9804321,16.4474708 Z M20.1536894,20.2222477 C19.8340807,20.7157244 19.5144721,21.2220188 19.2144313,21.7411307 C18.9143905,22.2538338 18.6339177,22.766537 18.36649,23.2792401 C18.0142682,22.4204623 17.7142275,21.5616846 17.4663677,20.728542 C18.3208316,20.5298695 19.2209539,20.3568322 20.1536894,20.2222477 Z M14.2507134,28.2460517 C11.941704,27.2783246 10.4480228,26.0093843 10.4480228,25.0032044 C10.4480228,23.9970245 11.941704,22.7216754 14.2507134,21.7603571 C14.8116592,21.5232319 15.424786,21.3117418 16.0574806,21.1130694 C16.4292703,22.369192 16.9184672,23.676585 17.5250713,25.016022 C16.9249898,26.3490501 16.4423155,27.6500343 16.0770485,28.8997482 C15.4313086,28.7010758 14.8181818,28.4831769 14.2507134,28.2460517 Z M17.7598859,37.4042115 C16.8728088,36.9043259 16.4879739,35.0009155 16.7880147,32.5527581 C16.8597636,31.9503319 16.9771708,31.3158618 17.1206686,30.668574 C18.3991031,30.9761959 19.794945,31.2133211 21.2625357,31.3671321 C22.1430901,32.5527581 23.0562576,33.6294347 23.9759478,34.5715267 C21.849572,36.5133898 19.8536486,37.5772488 18.4969425,37.5772488 C18.2034244,37.57084 17.9555646,37.5131609 17.7598859,37.4042115 Z M33.2315532,32.5207141 C33.5381166,34.9688716 33.1598043,36.872282 32.2792499,37.3785763 C32.0835711,37.4939345 31.8291887,37.5452049 31.529148,37.5452049 C30.1789645,37.5452049 28.1765185,36.4877546 26.0501427,34.5587091 C26.9633102,33.6166171 27.8764778,32.5463493 28.743987,31.3607233 C30.2181003,31.2069123 31.6139421,30.9697871 32.8923767,30.6557565 C33.0423971,31.3030442 33.1598043,31.9246967 33.2315532,32.5207141 Z M33.9164289,21.1066606 C34.5621688,21.305333 35.1752956,21.5232319 35.7492866,21.7603571 C38.058296,22.7280842 39.5519772,23.9970245 39.5519772,25.0032044 C39.5454545,26.0093843 38.0517733,27.2847333 35.742764,28.2460517 C35.1818182,28.4831769 34.5686914,28.694667 33.9359967,28.8933394 C33.5642071,27.6372168 33.0750102,26.3298238 32.468406,24.9903868 C33.0684876,23.6573587 33.5511618,22.3563745 33.9164289,21.1066606 Z M25,22 C26.6568542,22 28,23.3431458 28,25 C28,26.6568542 26.6568542,28 25,28 C23.3431458,28 22,26.6568542 22,25 C22,23.3431458 23.3431458,22 25,22 Z"/>
  </defs>
  <use xlink:href="#reactnative-a"/>
</svg>
