<?xml version="1.0" encoding="UTF-8"?><svg id="a" xmlns="http://www.w3.org/2000/svg" width="50" height="50" viewBox="0 0 50 50"><path d="M29.5,27.7c-.31,.07-.64,.11-.96,.14h0l-2.5,.24,3.4,3.73c1.02,1.13,1.59,2.58,1.59,4.11h2.81c0-2.22-.83-4.36-2.33-6.01l-2.01-2.21Z"/><path d="M20.72,22.24c.25-.05,.51-.08,.77-.11h0l2.71-.26-3.39-3.72c-1.02-1.13-1.59-2.58-1.59-4.11h-2.82c0,2.22,.83,4.36,2.33,6.01l2,2.19Z"/><path d="M16.06,30.51c.46,2.3,2.27,3.97,4.59,4.27l.43,.06c1.45,.18,2.55,1.43,2.55,2.89v1.5c-1.29,.54-2.2,1.81-2.2,3.29,0,1.97,1.59,3.56,3.56,3.56s3.56-1.59,3.56-3.56c0-1.45-.87-2.7-2.11-3.25v-1.54c0-2.88-2.15-5.33-5.01-5.68l-.43-.06c-1.34-.17-2.01-1.16-2.19-2.03s.05-2.04,1.22-2.72c.57-.33,1.2-.53,1.86-.59l6.46-.61c1.07-.1,2.07-.43,3-.96,2.03-1.18,3.05-3.42,2.58-5.72-.46-2.3-2.27-3.97-4.59-4.27l-.43-.06c-1.45-.18-2.55-1.43-2.55-2.89v-1.36c1.29-.54,2.19-1.81,2.19-3.29,0-1.97-1.59-3.56-3.56-3.56s-3.56,1.59-3.56,3.56c0,1.45,.87,2.71,2.12,3.26v1.39c0,2.88,2.15,5.33,5.01,5.68l.43,.06c1.34,.17,2.01,1.16,2.19,2.03,.18,.87-.05,2.04-1.22,2.72-.57,.33-1.2,.53-1.86,.59l-6.46,.61c-1.07,.1-2.07,.43-3,.96-2.03,1.18-3.04,3.42-2.58,5.72Z"/></svg>