<svg xmlns="http://www.w3.org/2000/svg" width="50" height="50" viewBox="0 0 50 50">
  <path d="M9.945 18.305L1.31 18.305C.623510056 18.305.067 18.8615101.067 19.548.067 20.2344899.623510056 20.791 1.31 20.791L12.695 20.791C11.6483069 20.118616 10.7192552 19.2787533 9.945 18.305zM34.145 14.004L32.374 15.775 34.904 18.305 19.009 18.305C15.1510452 18.2143548 11.9287417 15.338089 11.4022765 11.5151496 10.8758113 7.69221018 13.2007203 4.05202575 16.8905679 2.92195643 20.5804154 1.79188712 24.5450927 3.5057945 26.2497745 6.96788804 27.9544562 10.4299816 26.8955204 14.617439 23.75 16.853L27.347 16.853C30.8463238 12.4005322 30.1229867 5.96345302 25.7227604 2.39866061 21.3225341-1.16613181 14.875461-.538077448 11.2459797 3.80894478 7.61649845 8.15596701 8.14913277 14.6116238 12.442 18.305L12.442 18.305C13.9995022 19.7400389 15.9953026 20.6081152 18.107 20.769 18.338 20.769 18.58 20.769 18.822 20.769L34.904 20.769 32.374 23.299 34.145 25.07 39.7 19.559 34.145 14.004z" transform="translate(5 12)"/>
</svg>
