<svg xmlns="http://www.w3.org/2000/svg" width="50" height="50" viewBox="0 0 50 50">
  <g transform="matrix(1 0 0 -1 5.008 42.217)">
    <path d="M18.7418033,33.192623 C16.9344262,33.0122951 15.4508197,32.6557377 14.0245902,32.0491803 C10.7336066,30.6434426 8.40163934,28.2295082 7.3647541,25.1434426 C7.25409836,24.8155738 7.14754098,24.5532787 7.12704918,24.557377 C7.10655738,24.5614754 6.97131148,24.647541 6.82786885,24.7459016 C6.49180328,24.9836066 6.27868852,25.0901639 5.86065574,25.2295082 C3.20491803,26.1270492 0.516393443,23.8442623 0.0491803279,20.2909836 C-0.0327868852,19.6680328 -0.00819672131,18.4303279 0.0942622951,17.8483607 C0.581967213,15.1434426 2.39344262,13.1762295 4.5,13.0655738 C4.73770492,13.0532787 5.03688525,13.0614754 5.16803279,13.0860656 C5.43852459,13.1270492 5.43032787,13.1434426 5.33606557,12.7377049 C5.07377049,11.5983607 5.10245902,10.192623 5.42213115,8.93442623 C6.04508197,6.45901639 7.87704918,4.13114754 10.4713115,2.50819672 C11.4672131,1.8852459 13.0532787,1.17622951 14.295082,0.803278689 C16.8114754,0.0409836066 19.8319672,-0.18852459 22.6557377,0.168032787 C27.295082,0.75 31.1803279,2.92622951 33.3032787,6.12704918 C34.2909836,7.61065574 34.8278689,9.33196721 34.8278689,11 C34.8278689,11.557377 34.75,12.2868852 34.647541,12.7377049 C34.5532787,13.1434426 34.545082,13.1270492 34.8196721,13.0860656 C34.9467213,13.0614754 35.2459016,13.057377 35.4836066,13.0696721 C36.192623,13.1065574 36.7663934,13.3032787 37.4180328,13.7336066 C38.6639344,14.557377 39.5614754,16.0614754 39.8934426,17.8688525 C40,18.454918 40,20.0286885 39.8934426,20.6147541 C39.2704918,24.0204918 36.6803279,26.0942623 34.1229508,25.2295082 C33.7090164,25.0901639 33.454918,24.9631148 33.1065574,24.7172131 C32.9590164,24.6147541 32.8319672,24.545082 32.8155738,24.5614754 C32.8032787,24.5778689 32.7213115,24.8114754 32.6393443,25.0819672 C31.4057377,29 27.7459016,32.0040984 23.0860656,32.9262295 C21.9713115,33.147541 21.5532787,33.1844262 20.1762295,33.1967213 C19.4795082,33.204918 18.8319672,33.2008197 18.7418033,33.192623 Z M15.9139344,27.9098361 C16.7295082,27.7786885 17.4221311,27.4508197 17.9754098,26.9344262 C18.5204918,26.4180328 19.204918,25.5327869 19.545082,24.897541 C19.6762295,24.647541 19.7336066,24.6106557 19.9918033,24.6106557 C20.2581967,24.6106557 20.295082,24.6434426 20.5286885,25.0491803 C20.8319672,25.5901639 21.1598361,26.0286885 21.602459,26.4877049 C22.3770492,27.2868852 23.0819672,27.6967213 24.0286885,27.8893443 C26.4508197,28.3934426 28.6680328,27.204918 29.8114754,24.7991803 C30.2131148,23.942623 30.4631148,23.0163934 30.5696721,21.9713115 C30.6270492,21.3811475 30.5983607,20.3852459 30.5081967,19.8770492 C30.3565574,19.045082 29.9631148,17.9180328 29.5327869,17.1065574 L29.3196721,16.7090164 L29.4631148,16.5901639 C30.5614754,15.6803279 31.3196721,14.7745902 31.7090164,13.9016393 C32.0901639,13.057377 32.2213115,12.3565574 32.2213115,11.1680328 C32.2254098,10.4098361 32.2090164,10.2213115 32.1311475,9.81967213 C31.7254098,7.81147541 30.5327869,6.11885246 28.6229508,4.85245902 C26.0040984,3.11065574 22.1598361,2.33606557 18.0327869,2.70901639 C12.6762295,3.19672131 8.79918033,5.79918033 7.92213115,9.5 C7.7704918,10.1352459 7.72131148,10.6885246 7.75,11.4344262 C7.81147541,13.0901639 8.25409836,14.2131148 9.31557377,15.4344262 C9.56967213,15.7254098 10.4590164,16.5696721 10.6147541,16.6639344 C10.6434426,16.6803279 10.5491803,16.9180328 10.3688525,17.2786885 C9.5204918,19.0081967 9.24180328,20.454918 9.43852459,22.1188525 C9.76639344,24.9262295 11.2745902,27.0614754 13.4303279,27.7663934 C13.6229508,27.8278689 13.9221311,27.9016393 14.0901639,27.9262295 C14.2581967,27.9508197 14.442623,27.9795082 14.5,27.9877049 C14.6762295,28.0204918 15.5245902,27.9713115 15.9139344,27.9098361 Z M6.19672131,22.5040984 C6.35245902,22.4467213 6.55737705,22.3483607 6.65163934,22.2868852 L6.82377049,22.1803279 L6.84836066,21.4385246 C6.89344262,20.0819672 7.12295082,18.8401639 7.57377049,17.5040984 L7.69262295,17.1557377 L7.44672131,16.8647541 C7.31557377,16.704918 7.16393443,16.5163934 7.11065574,16.4508197 C6.9795082,16.2704918 6.50819672,15.9713115 6.16803279,15.8483607 C5.77868852,15.7090164 5.13114754,15.6762295 4.74180328,15.7745902 C3.61885246,16.057377 2.76639344,17.0532787 2.48360656,18.4221311 C2.38114754,18.9180328 2.40163934,19.6598361 2.53278689,20.1844262 C2.71311475,20.9139344 3.20491803,21.6967213 3.73360656,22.0901639 C4.04098361,22.3237705 4.2295082,22.4221311 4.60245902,22.5491803 C4.85655738,22.6352459 4.95081967,22.6434426 5.40163934,22.6311475 C5.83606557,22.6188525 5.95491803,22.5983607 6.19672131,22.5040984 Z M35.4631148,22.5 C36.4016393,22.1229508 37.0860656,21.2909836 37.3770492,20.1844262 C37.5081967,19.6803279 37.5081967,18.7213115 37.3770492,18.2008197 C37.1434426,17.2745902 36.5819672,16.4795082 35.8688525,16.0614754 C35.045082,15.5778689 33.9877049,15.6147541 33.1967213,16.1557377 C33.102459,16.2213115 32.8606557,16.4754098 32.6598361,16.7213115 L32.2991803,17.1680328 L32.4385246,17.5819672 C32.8688525,18.8483607 33.0942623,20.0983607 33.1434426,21.454918 L33.1680328,22.2131148 L33.4754098,22.3688525 C33.9385246,22.5983607 34.1598361,22.6434426 34.704918,22.6311475 C35.1065574,22.6188525 35.2172131,22.5983607 35.4631148,22.5 Z"/>
    <path d="M16.1393443 20.9385246C15.8237705 20.852459 15.6106557 20.7172131 15.3483607 20.4303279 14.3565574 19.3606557 14.647541 17.3565574 15.8811475 16.7704918 16.1270492 16.6557377 16.2008197 16.6393443 16.5081967 16.6393443 16.807377 16.6393443 16.8893443 16.6557377 17.102459 16.7581967 17.5983607 17 18.0204918 17.5696721 18.1680328 18.1885246 18.2459016 18.5204918 18.2459016 19.1188525 18.1680328 19.4262295 17.8934426 20.5081967 16.9959016 21.1803279 16.1393443 20.9385246zM23.204918 20.9631148C22.5737705 20.8319672 22.0163934 20.2131148 21.8155738 19.4262295 21.7377049 19.1147541 21.7377049 18.5163934 21.8155738 18.1803279 21.9631148 17.5655738 22.3852459 17 22.8811475 16.7581967 23.0942623 16.6557377 23.1762295 16.6393443 23.4754098 16.6393443 23.7827869 16.6393443 23.8565574 16.6557377 24.0983607 16.7704918 25.1229508 17.2540984 25.5409836 18.7581967 24.9836066 19.9385246 24.8032787 20.3114754 24.3606557 20.7540984 24.0368852 20.8729508 23.7581967 20.9795082 23.4385246 21.0122951 23.204918 20.9631148zM16.147541 13.1188525C15.9303279 12.8811475 15.8155738 12.704918 15.8606557 12.6639344 15.8852459 12.6393443 16.7622951 12.5245902 17.5122951 12.4508197 18.4303279 12.3647541 21.3360656 12.3483607 22.204918 12.4303279 22.8565574 12.4918033 24.102459 12.6434426 24.1270492 12.6639344 24.1598361 12.7008197 23.9180328 13.0532787 23.7459016 13.2090164 23.5286885 13.4098361 23.5696721 13.4057377 22.647541 13.3155738 21.0245902 13.1639344 18.9221311 13.1639344 17.2663934 13.3196721 16.3565574 13.4098361 16.4344262 13.4221311 16.147541 13.1188525z"/>
  </g>
</svg>
