<svg xmlns="http://www.w3.org/2000/svg" width="50" height="50" viewBox="0 0 50 50">
  <defs>
    <radialGradient id="seleniumwebdriver-a" cx="40.352%" cy="82.157%" r="78.393%" fx="40.352%" fy="82.157%" gradientTransform="scale(.65341 1) rotate(-38.198 .51 .512)">
      <stop offset="0%" stop-opacity=".4"/>
      <stop offset="100%" stop-color="#FFF" stop-opacity="0"/>
    </radialGradient>
  </defs>
  <g fill="none" transform="translate(10 11)">
    <path fill="#000" stroke="#000" stroke-width=".6" d="M22.6517533,27.637243 L4.66384522,27.1245466 C2.48609432,27.0314389 -0.0253929867,24.4413543 0.00604594921,22.2793229 L0.0918984281,4.20556227 C0.123337364,2.0362757 2.58766626,-0.0169286578 4.75816203,0.00585494139 L22.5042322,0.659008464 C24.6662636,0.6904474 27.1475212,2.68923821 27.1160822,4.85126965 L27.1160822,23.305925 C27.1160822,25.6614268 25.241838,27.637243 22.6517533,27.637243 L22.6517533,27.637243 Z"/>
    <polygon fill="#FFF" stroke="#0C0000" stroke-width=".6" points="12.48 7.433 17.698 14.005 29.993 3.77 28.297 .364 18.087 9.058 14.447 4.944"/>
    <polygon fill="url(#seleniumwebdriver-a)" points="12.768 7.363 17.862 11.982 26.207 5.41 25.243 3.201 18.065 9.313 14.449 5.238" opacity="0"/>
    <path fill="#FFF" stroke="#000" stroke-width=".5" d="M16.8972189,15.2176542 C21.7749563,15.2176542 21.4529386,20.3416961 21.4393393,20.5314754 L21.4389359,20.5368803 L15.4897219,20.5356711 C15.4897219,20.5356711 15.4667473,21.2817412 15.5598549,21.6009674 C15.6529625,21.9201935 16.0423216,22.8996372 17.2551391,22.8996372 C18.4073156,22.8996372 18.6962787,21.8399909 18.8290777,21.4541094 L18.8488513,21.3990326 L21.4389359,21.7025393 C21.4389359,21.7025393 20.9419589,24.8911729 17.146312,24.8911729 C13.3506651,24.8911729 12.573156,21.47763 12.573156,20.1475212 C12.573156,19.8295042 12.4026602,15.2176542 16.8972189,15.2176542 Z M6.63966143,11.6324063 C8.91051995,11.6324063 9.85973398,12.3555018 10.3796856,12.7750907 C10.9008464,13.1946796 11.732769,14.6964933 11.732769,14.6964933 L9.11970979,15.637243 C8.67593712,14.3385732 7.85247884,13.8948005 6.72430472,13.8948005 C5.59613059,13.8948005 5.33252721,14.6106409 5.33252721,15.0374849 C5.33252721,15.4655381 5.58162031,15.9782346 6.6541717,16.2587666 C7.7267231,16.5392987 9.50060459,16.9818622 10.3482467,17.5259976 C11.1958888,18.070133 11.9733978,19.1983071 11.9733978,20.5126965 C11.9733978,21.8270859 11.4607013,22.5429262 11.0169287,23.0326481 C10.573156,23.5151149 9.50060459,24.6348247 7.2140266,24.6348247 C5.01451028,24.6275695 2.79081016,23.6553809 1.55380895,20.8633615 L4.41596131,20.171705 C4.53204353,20.5139057 4.99153567,21.3615478 5.39540508,21.7037485 C5.79927449,22.0459492 6.93470375,22.2321644 7.68923821,22.1620314 C8.44377267,22.0918984 8.81741233,21.4304716 8.85610641,20.9407497 C8.88754534,20.458283 8.6541717,20.1160822 8.21039903,19.8911729 C7.76662636,19.6662636 7.26964933,19.5332527 6.56952842,19.3240629 C5.8694075,19.1221282 4.61789601,18.8415961 3.62998791,18.1729141 C2.65054414,17.5042322 2.40870617,15.9721886 2.40145103,15.4280532 C2.39419589,14.8839178 2.52599758,14.0822249 2.87545345,13.4993954 C3.2261185,12.9081016 4.3688029,11.6324063 6.63966143,11.6324063 Z M17.1390568,16.9818622 C15.5833045,16.9818622 15.4725264,18.5878174 15.4666476,18.9319507 L15.4667473,18.9963724 L18.764208,18.9963724 C18.764208,18.9963724 18.8814994,16.9818622 17.1390568,16.9818622 Z"/>
  </g>
</svg>
