<svg xmlns="http://www.w3.org/2000/svg" width="50" height="50" viewBox="0 0 50 50">
  <path d="M9.09979022,4.75675676 L10.7234043,0 L0,0 L0,4.75675676 L9.09979022,4.75675676 Z M28,4.75675676 L28,0 L15.8412439,0 L14.2978723,4.75675676 L28,4.75675676 Z M6.3160504,13.0810811 L7.74468085,8.32432432 L0,8.32432432 L0,13.0810811 L6.3160504,13.0810811 Z M28,13.0810811 L28,8.32432432 L12.7663461,8.32432432 L11.3191489,13.0810811 L28,13.0810811 Z M3.35106383,22 L4.76595745,17.2432432 L0,17.2432432 L0,22 L3.35106383,22 Z M28,22 L28,17.2432432 L9.89950202,17.2432432 L8.34042553,22 L28,22 Z" transform="translate(11 14)"/>
</svg>
