<?xml version="1.0" encoding="UTF-8"?><svg id="a" xmlns="http://www.w3.org/2000/svg" width="50" height="50" viewBox="0 0 50 50"><defs><style>.b{fill:#010101;}</style></defs><path class="b" d="M45.2,24.42c-.02-.14-.06-.44-.08-.66-.21-1.78-.93-3.55-1.97-4.84-1.31-1.63-3.43-2.7-5.84-2.97-.37-.04-1.54-.06-1.85-.02-2.63,.27-4.95,1.45-7.75,3.94-.23,.21-.93,.88-1.54,1.48-.82,.82-1.13,1.1-1.18,1.1s-.36-.29-1.2-1.12c-.62-.61-1.33-1.3-1.59-1.53-.91-.82-1.73-1.48-2.54-2.01l-2.52,1.02,.93,2.16c.56,.38,1.13,.84,1.74,1.4,.42,.38,2.64,2.54,2.68,2.6,.02,.02,.02,.07,0,.09-.06,.1-1.93,1.96-2.43,2.4-2.3,2.06-4.23,2.99-6.22,2.99s-3.82-1.07-4.67-2.89c-.39-.83-.59-1.87-.56-2.78,.05-1.04,.4-2.09,1.02-2.97,.27-.38,.85-.97,1.24-1.24,.5-.36,1.25-.7,1.89-.86,.51-.13,.44-.17,1.06-.11l.9-1.72,1-1.79c-.45-.08-.14-.04-.6-.11-.2-.02-.61-.04-1.2-.04-.77,0-.96,0-1.32,.07-1.64,.27-3.11,.91-4.38,1.91-.42,.33-1.24,1.16-1.54,1.56-.99,1.31-1.59,2.73-1.79,4.25-.14,1.03-.16,1.37-.1,1.83,.02,.12,.04,.4,.07,.59,.09,.92,.34,1.92,.69,2.77,.62,1.49,1.73,2.84,3.06,3.73,2.32,1.54,5.28,1.87,8.21,.93,1.59-.51,3.14-1.45,4.86-2.92,.64-.55,1.21-1.08,2.27-2.13,.72-.71,.98-.96,1.04-.96s.36,.29,1.21,1.13c1.53,1.51,2.32,2.22,3.32,2.97,.86,.64,1.49,1.03,2.25,1.4,1.04,.5,1.9,.77,3.03,.93,.29,.04,.58,.06,1.23,.06,.98,0,1.4-.05,2.24-.26,3.65-.93,6.38-3.97,6.84-7.66,.02-.21,.07-.51,.08-.64,.04-.32,.04-.75,0-1.07v-.02Zm-3.86,1.12c-.24,2.16-1.69,3.98-3.71,4.64-.63,.21-.96,.26-1.74,.26s-1.12-.05-1.86-.29c-1.26-.41-2.56-1.28-4.15-2.75-.8-.75-2.4-2.32-2.41-2.38-.02-.11,1.89-2,2.82-2.79,1.83-1.56,3.39-2.38,5.01-2.59,.42-.06,1.13-.07,1.5-.02,1.64,.2,2.97,1.04,3.77,2.39,.59,.99,.9,2.4,.78,3.54h0Z"/><polygon class="b" points="17.36 25.73 16.19 17.3 24.64 16.3 24.94 18.88 19.13 19.57 19.93 25.37 17.36 25.73"/></svg>