<svg xmlns="http://www.w3.org/2000/svg" width="50" height="50" viewBox="0 0 50 50">
  <path d="M18.0201117,4.50502793 C15.5212291,4.50502793 13.5150838,6.51117318 13.5150838,9.01005587 C13.5150838,10.6642458 14.4301676,12.1072626 15.7675978,12.8815642 L15.7675978,13.5150838 C15.7675978,15.7675978 13.5150838,18.0201117 11.2625698,18.0201117 C9.3972067,18.0201117 7.91899441,18.4072626 6.7575419,19.0407821 L6.7575419,8.37653631 C8.09497207,7.60223464 9.01005587,6.15921788 9.01005587,4.50502793 C9.01005587,2.00614525 7.00391061,0 4.50502793,0 C2.00614525,0 0,2.00614525 0,4.50502793 C0,6.15921788 0.915083799,7.60223464 2.25251397,8.37653631 L2.25251397,23.1234637 C0.915083799,23.8977654 0,25.3407821 0,26.9949721 C0,29.4938547 2.00614525,31.5 4.50502793,31.5 C7.00391061,31.5 9.01005587,29.4938547 9.01005587,26.9949721 C9.01005587,25.798324 8.55251397,24.7424581 7.81340782,23.9329609 C8.48212291,23.1234637 9.53798883,22.4899441 11.2625698,22.4899441 C15.7675978,22.4899441 20.2726257,17.9849162 20.2726257,13.4798883 L20.2726257,12.8463687 C21.6100559,12.072067 22.5251397,10.6290503 22.5251397,8.97486034 C22.5251397,6.47597765 20.5189944,4.4698324 18.0201117,4.4698324 L18.0201117,4.50502793 Z M4.50502793,2.25251397 C5.73687151,2.25251397 6.7575419,3.27318436 6.7575419,4.50502793 C6.7575419,5.73687151 5.73687151,6.7575419 4.50502793,6.7575419 C3.27318436,6.7575419 2.25251397,5.73687151 2.25251397,4.50502793 C2.25251397,3.27318436 3.27318436,2.25251397 4.50502793,2.25251397 Z M4.50502793,29.2826816 C3.27318436,29.2826816 2.25251397,28.2620112 2.25251397,27.0301676 C2.25251397,25.798324 3.27318436,24.7776536 4.50502793,24.7776536 C5.73687151,24.7776536 6.7575419,25.798324 6.7575419,27.0301676 C6.7575419,28.2620112 5.73687151,29.2826816 4.50502793,29.2826816 Z M18.0201117,11.2625698 C16.7882682,11.2625698 15.7675978,10.2418994 15.7675978,9.01005587 C15.7675978,7.77821229 16.7882682,6.7575419 18.0201117,6.7575419 C19.2519553,6.7575419 20.2726257,7.77821229 20.2726257,9.01005587 C20.2726257,10.2418994 19.2519553,11.2625698 18.0201117,11.2625698 Z" transform="translate(13 10)"/>
</svg>
