<svg xmlns="http://www.w3.org/2000/svg" xmlns:xlink="http://www.w3.org/1999/xlink" width="50" height="50" viewBox="0 0 50 50">
  <defs>
    <path id="solr-a" d="M7.73466316,13.4439334 C7.28999858,13.2072911 6.78764209,13.0406925 6.24160243,12.948506 C5.70535382,12.858127 5.15961541,12.8126362 4.61990228,12.8126362 C4.17524756,12.8122952 3.73141592,12.7744022 3.29313886,12.6993612 C2.86534503,12.6266062 2.47822173,12.4923934 2.14125877,12.3004887 C1.81348434,12.1140067 1.54234741,11.8528115 1.33507828,11.5241333 C1.13067116,11.2007271 1.02718722,10.7718789 1.02718722,10.2544592 C1.03712891,9.79759349 1.14317358,9.4067044 1.34306176,9.09248682 C1.54126234,8.77751241 1.81057257,8.51341297 2.12935887,8.32140349 C2.45653078,8.12407606 2.83416428,7.97901779 3.2518658,7.89029576 C3.9628471,7.73936287 4.71404705,7.71104412 5.47925574,7.81799258 C5.77780763,7.8600188 6.07319626,7.93443083 6.35698626,8.03942108 C6.63565477,8.14260375 6.89775381,8.28434811 7.13545053,8.45968333 C7.36983335,8.63306034 7.57680121,8.85072305 7.75093138,9.10634493 L7.84839004,9.24944498 L8.56645103,8.94727792 L8.41401182,8.73202532 C8.2255506,8.46408577 8.00985066,8.21638167 7.77036286,7.9928759 C7.53402183,7.77461067 7.2562571,7.58918313 6.94460025,7.44201603 C6.63685983,7.29695776 6.2848337,7.18518909 5.89771041,7.11002391 C5.51450354,7.03561188 5.06773012,6.99810461 4.57004321,6.99810461 C4.09254093,6.99810461 3.59937297,7.05278389 3.10439743,7.16078677 C2.6023422,7.27074786 2.13643856,7.45240961 1.72039399,7.7009518 C1.29973739,7.95070664 0.943134635,8.29513725 0.678926891,8.70686984 C0.408693744,9.12758399 0.271468327,9.64666059 0.271468327,10.2499403 C0.271468327,10.8831957 0.398752056,11.4221556 0.649403091,11.851757 C0.898397179,12.2786471 1.23249814,12.624648 1.64221618,12.8798179 C2.04334821,13.1301677 2.51136069,13.3100219 3.03344993,13.4145602 C3.55593786,13.5177541 4.08732214,13.5692175 4.61990228,13.5682045 C5.05131127,13.5682045 5.50832764,13.6008916 5.9781477,13.6659644 C6.43516407,13.7290791 6.8605478,13.8563628 7.24239899,14.0445017 C7.61445912,14.2282723 7.92430838,14.4835929 8.16321015,14.8036851 C8.39442971,15.1138357 8.51177175,15.532441 8.51177175,16.0479024 C8.51177175,16.5107934 8.39879803,16.9055989 8.17631511,17.2219254 C7.94660187,17.548796 7.6482006,17.8185773 7.28924542,18.0237375 C6.92260803,18.2331155 6.50746726,18.3875129 6.05512046,18.4821096 C5.59524209,18.5785138 5.14033456,18.6271679 4.70290031,18.6271679 C3.9685711,18.6271679 3.24312916,18.4869298 2.54660849,18.2100689 C1.85596612,17.936943 1.23252471,17.5177528 0.718994905,16.981216 L0.579660646,16.8361577 L0.00680854976,17.332489 L0.167683133,17.4932129 C0.680131944,18.0061136 1.31655059,18.4525858 2.05871264,18.8207295 C2.81006322,19.1936934 3.69984427,19.3825855 4.70290031,19.3825855 C5.17995068,19.3825855 5.68607297,19.3280568 6.20786094,19.2206565 C6.7367286,19.1111473 7.23321046,18.9245147 7.68284588,18.6648258 C8.13971162,18.401371 8.51990586,18.0565752 8.81318564,17.6400788 C9.11444891,17.2121343 9.26718938,16.6767895 9.26718938,16.0479024 C9.26718938,15.4107306 9.12408933,14.8711681 8.84165502,14.4441274 C8.56268524,14.0232627 8.19032385,13.6864503 7.73451253,13.4439334 L7.73466316,13.4439334 Z M14.4894374,18.7101659 C13.9714152,18.7101659 13.4978294,18.6032174 13.0816342,18.3923331 C12.6599038,18.1792699 12.2838229,17.8859268 11.9744917,17.528762 C11.6599729,17.1672461 11.4102256,16.7444231 11.2318778,16.2718917 C11.0533008,15.8011214 10.9513353,15.3047709 10.9298613,14.8017269 C10.9298613,14.3413967 11.0152695,13.8708234 11.1832237,13.4031122 C11.3480807,12.9418582 11.594178,12.5138408 11.9098707,12.1393128 C12.2234858,11.7683071 12.6051863,11.4610186 13.0444282,11.2254307 C13.4762891,10.9942112 13.9623773,10.8768691 14.4894374,10.8768691 C14.9850155,10.8768691 15.453028,10.9866796 15.8806712,11.2026853 C16.3104626,11.4192997 16.6950923,11.7157467 17.0140236,12.0761982 C17.3333626,12.4378647 17.5886833,12.860989 17.7727551,13.3335204 C17.955261,13.8015556 18.0488629,14.2995178 18.0488629,14.8018776 C18.0488629,15.2617559 17.9636054,15.7324798 17.7958017,16.2004923 C17.6309611,16.6618772 17.3848081,17.0900048 17.0690041,17.4645929 C16.7537214,17.8367434 16.3689755,18.1439262 15.9362543,18.3689852 C15.5040921,18.5955352 15.0174013,18.7101659 14.4894374,18.7101659 L14.4894374,18.7101659 Z M17.6322158,11.624002 C17.2563899,11.1849108 16.7996748,10.821738 16.2744223,10.5444251 C15.7417888,10.2634971 15.1412205,10.1213009 14.4894374,10.1213009 C13.8956475,10.1213009 13.3283688,10.2485846 12.8034176,10.4992356 C12.2845443,10.7466929 11.8192074,11.0934567 11.4337241,11.5199156 C11.0475046,11.9462031 10.737806,12.4485596 10.5133649,13.012675 C10.2886225,13.577393 10.1744437,14.1794677 10.1744437,14.8018776 C10.1744437,15.3900941 10.2795846,15.9659588 10.4873056,16.5132035 C10.6902415,17.0529547 10.9870377,17.5525616 11.3639817,17.9889416 C11.7405608,18.4233633 12.198029,18.778402 12.724336,19.0442668 C13.2545593,19.3123911 13.8472948,19.4541355 14.4856716,19.4657341 L14.4936551,19.4657341 C15.097688,19.4541355 15.6696363,19.3181151 16.1936837,19.062192 C16.7112571,18.810028 17.1756989,18.4609936 17.5618708,18.0339805 C17.9480903,17.6073917 18.2550776,17.1106086 18.4737947,16.5576399 C18.6931144,16.0033155 18.8044312,15.4125382 18.8044312,14.8018776 C18.8044312,14.2489088 18.7023029,13.6852453 18.501059,13.1268538 C18.2995139,12.5684624 18.0072886,12.0629426 17.6322158,11.624002 L17.6322158,11.624002 Z M22.716184,18.5006373 C22.5892015,18.5322699 22.4774329,18.556371 22.3840413,18.571886 C22.2777891,18.5894934 22.1713355,18.6058632 22.0647022,18.620992 C21.9591094,18.6360551 21.8545711,18.6437373 21.7540998,18.6437373 C21.5005867,18.6437373 21.3141048,18.5598355 21.1835072,18.3869104 C21.039202,18.196512 20.9690077,18.0074693 20.9690077,17.8087862 L20.9690077,6.74895989 L20.2135901,6.74895989 L20.2135901,17.8087862 C20.2135901,18.223927 20.3446396,18.5910163 20.6031235,18.8996605 C20.8709465,19.2203552 21.2526471,19.3825855 21.7373797,19.3825855 C21.8895176,19.3825855 22.0404505,19.3736982 22.1862619,19.3562249 C22.3132268,19.3411566 22.439971,19.3242842 22.5664562,19.3056127 C22.6821413,19.2881395 22.8160528,19.2619295 22.9645756,19.2278868 L23.2206493,19.1686886 L22.8844395,18.4586111 L22.716184,18.5007879 L22.716184,18.5006373 Z M24.9389044,10.2543086 L24.9389044,11.9293323 C25.2359499,11.509522 25.5830052,11.1587009 25.9761538,10.8824425 C26.5691905,10.4654941 27.278063,10.2540073 28.083189,10.2540073 L28.083189,10.2540073 L28.2948265,10.2540073 L28.2948265,10.9993326 L28.0937333,11.009425 C27.6760317,11.0303628 27.2913186,11.1120051 26.9504392,11.25149 C26.608656,11.3912762 26.30197,11.579867 26.0383646,11.8122916 C25.7711115,12.0494625 25.5445226,12.3288186 25.367602,12.6392592 C25.1875972,12.9530249 25.0435933,13.2990258 24.9389044,13.6679226 L24.9389044,13.6679226 L24.9389044,19.2997381 L24.1834867,19.2997381 L24.1834867,10.2543086 L24.9389044,10.2543086 Z M30.9884213,11.7767425 L34.6584104,12.2122185 C34.0241118,12.4869683 33.3490725,12.6559062 32.6601312,12.7123156 L32.6601312,12.7121649 L30.9884213,11.7767425 Z M37.7037301,9.44285599 C37.2160677,10.3254066 36.5267178,11.0802025 35.691894,11.645693 L35.691894,11.645693 L31.1518567,10.744012 Z M38.4386618,5.54194862 C38.4740603,5.81323619 38.4940979,6.08904271 38.4940979,6.37012133 C38.4950134,7.23375318 38.3195582,8.08847579 37.9784822,8.8819038 L37.9784822,8.8819038 L30.9884213,9.71143219 Z M36.7699646,2.01596338 C37.5907372,2.88882043 38.1476984,3.97616114 38.376451,5.15226459 L38.376451,5.15226459 L30.5136304,8.77977555 Z M33.4214235,0.135628721 C34.6183424,0.382664598 35.6914421,0.966814066 36.5397995,1.78308688 L36.5397995,1.78308688 L29.7743304,8.04062613 Z M26.3251673,3.75304736 L26.7775141,7.56598586 L25.7889187,5.79907682 C25.8515666,5.09180359 26.03285,4.40012601 26.3251673,3.75304736 L26.3251673,3.75304736 Z M32.1281003,0.00397289996 C32.4325516,0.00424965653 32.7365955,0.0262475294 33.0379153,0.0698026982 L33.0379153,0.0698026982 L28.8428244,7.56583523 L29.6822945,0.491571267 C30.4572651,0.168795009 31.2885985,0.00306082108 32.1281003,0.00397289996 Z M29.1306814,0.753218412 L27.8102445,7.40209864 L26.8874752,2.75661912 C27.4653343,1.92000453 28.2343297,1.23321704 29.1306814,0.753218412 L29.1306814,0.753218412 Z"/>
  </defs>
  <use transform="translate(6 15)" xlink:href="#solr-a"/>
</svg>
