<svg xmlns="http://www.w3.org/2000/svg" width="50" height="50" viewBox="0 0 50 50">
  <path d="M13.6446762,0 C15.0975815,0 16.5504868,0.249795918 17.8770526,0.686938776 C18.0455053,0.728571429 18.2139581,0.797959184 18.3824109,0.858095238 L18.6350901,0.936734694 L18.8245995,1.06163265 C19.3931277,1.24897959 19.8984861,1.49877551 20.4038444,1.81102041 C24.7625604,4.30897959 27.2893523,9.4922449 26.9735033,14.5506122 C26.4752627,22.8624835 19.406912,29.1711807 11.3984916,30.5441873 L11.0547145,30.6 L11.0547145,26.7281633 C4.73773478,25.5416327 3.55271368e-15,20.0461224 3.55271368e-15,13.4889796 C3.55271368e-15,6.05755102 6.12747031,0 13.6446762,0 Z M12.0022614,16.6114286 C10.8652051,16.8612245 9.85448833,17.6106122 9.34912996,18.7346939 C9.15962057,19.0469388 9.09645077,19.4840816 9.09645077,19.7963265 C9.03328097,21.1702041 10.9283749,21.9820408 11.7495822,20.8579592 C12.0022614,20.5457143 12.128601,20.2334694 12.3181104,19.8587755 C12.8234688,18.8595918 12.6339594,17.6106122 12.0022614,16.6114286 Z M15.0975815,16.7363265 C14.4027137,17.6730612 14.2763741,18.8595918 14.7817325,20.0461224 C14.9712419,20.3583673 15.0975815,20.6706122 15.3502607,20.9204082 C16.2978076,21.9195918 18.1929015,21.1702041 18.1297317,19.9212245 C18.1297317,19.6089796 18.0665619,19.1718367 17.8770526,18.8595918 C17.3085244,17.6730612 16.2346378,16.9861224 15.0975815,16.7363265 Z M7.76988503,14.1134694 C7.32769645,14.1134694 6.82233808,14.2383673 6.4433193,14.4257143 C6.00113072,14.6130612 5.68528173,14.8004082 5.43260254,15.0502041 C4.35871599,15.9244898 5.05358376,17.6106122 6.56965889,17.5481633 C7.01184747,17.5481633 7.39086625,17.4857143 7.76988503,17.2983673 C8.90694138,16.7987755 9.79131854,15.7995918 9.91765813,14.7379592 C9.28596016,14.3008163 8.5279226,14.1134694 7.76988503,14.1134694 Z M19.1404485,14.0510204 C18.3824109,14.0510204 17.6243734,14.2383673 16.9926754,14.6755102 C17.2453546,15.7371429 18.0665619,16.7363265 19.2667881,17.2359184 C19.7089767,17.4232653 20.0248257,17.4857143 20.4670142,17.4857143 C21.9830894,17.5481633 22.6779571,15.7371429 21.5409008,14.9253061 C21.2250518,14.6755102 20.9092028,14.5506122 20.530184,14.3632653 C20.0879955,14.1134694 19.6458069,14.0510204 19.1404485,14.0510204 Z M6.3169797,9.05510204 C4.99041396,9.11755102 4.42188579,10.7412245 5.49577234,11.6155102 C5.81162133,11.8653061 6.12747031,12.0526531 6.50648909,12.24 C7.64354544,12.7395918 9.03328097,12.5522449 10.0439977,11.9277551 C9.79131854,10.8661224 8.97011118,9.86693878 7.76988503,9.36734694 C7.32769645,9.18 7.01184747,9.11755102 6.56965889,9.11755102 C6.50648909,9.05510204 6.3801495,9.05510204 6.3169797,9.05510204 Z M15.1607513,5.4955102 C14.9080721,5.8077551 14.7817325,6.12 14.5922231,6.49469388 C14.0868647,7.61877551 14.2763741,8.8677551 15.0344117,9.8044898 C16.171468,9.55469388 17.1821848,8.80530612 17.6875432,7.68122449 C17.8770526,7.36897959 17.9402224,6.93183673 17.9402224,6.61959184 C18.0033922,5.68285714 17.2453546,5.05836735 16.487317,4.99591837 C15.9819586,4.93346939 15.4766003,5.12081633 15.1607513,5.4955102 Z M10.4230165,5.05836735 C9.66497894,5.12081633 8.97011118,5.74530612 8.97011118,6.55714286 C8.97011118,6.86938776 9.03328097,7.30653061 9.22279036,7.61877551 C9.72814874,8.74285714 10.8020353,9.4922449 11.9390916,9.74204082 C12.6339594,8.80530612 12.760299,7.61877551 12.2549406,6.4322449 C12.0654312,6.12 11.9390916,5.8077551 11.6864124,5.55795918 C11.3705635,5.24571429 10.8652051,4.99591837 10.4230165,5.05836735 Z" transform="translate(12 10)"/>
</svg>
