<svg xmlns="http://www.w3.org/2000/svg" xmlns:xlink="http://www.w3.org/1999/xlink" width="50" height="50" viewBox="0 0 50 50">
  <defs>
    <path id="splunk-a" d="M13.658902,21.6688852 C14.0515808,21.6688852 14.4109818,21.7420965 14.737105,21.8885192 C15.0632281,22.0349418 15.3427622,22.2412646 15.5823629,22.5074876 C15.8219636,22.7737105 16.0016641,23.0865225 16.12812,23.4592347 C16.2612314,23.8386024 16.3277872,24.2445924 16.3277872,24.6971715 C16.3277872,25.1697172 16.2545759,25.6089851 16.1081532,26.001664 C15.9617306,26.4009984 15.7620634,26.7470883 15.502496,27.0399336 C15.2429286,27.3394344 14.9367722,27.5657239 14.5840268,27.7321133 C14.2312813,27.8985026 13.845258,27.9783695 13.439268,27.9783695 C13.2529119,27.9783695 13.079867,27.9650584 12.9201332,27.9317805 C12.7603995,27.8985026 12.6073212,27.845258 12.4608986,27.7720467 C12.314476,27.6988354 12.1747089,27.5990018 12.0349419,27.4792015 C11.8951748,27.3594011 11.7487522,27.2129785 11.595674,27.033278 L11.595674,30.846922 L10.0449252,30.846922 L10.0449252,21.8153079 L11.5890184,21.8153079 L11.595674,22.6938436 C11.8752081,22.3410982 12.1813645,22.0815308 12.5141432,21.9151415 C12.8469219,21.7487521 13.2262896,21.6688852 13.658902,21.6688852 Z M25.379368,21.8086523 L25.379368,27.8386025 L23.7953414,27.8386025 L23.7886858,27.033278 C23.4825294,27.3727123 23.1697174,27.6123129 22.8502499,27.7653911 C22.5307823,27.9118138 22.1514146,27.9850251 21.7254578,27.9850251 C21.2529121,27.9850251 20.8535776,27.8918471 20.5274545,27.705491 C20.2013313,27.5191349 19.9683862,27.2396008 19.8219636,26.8668886 C19.7820302,26.7803662 19.7487523,26.6871881 19.7287856,26.5873545 C19.7088189,26.4875209 19.6888521,26.3810317 19.675541,26.2545758 C19.6622298,26.1281199 19.6489187,25.9883528 19.6489187,25.8286191 C19.6455909,25.7487522 19.643927,25.6589019 19.6430951,25.5599003 L19.6422631,21.8153079 L21.2329453,21.8153079 L21.2329453,25.2562397 C21.2329453,25.5623961 21.2462565,25.7953412 21.2728788,25.955075 C21.2995011,26.1148088 21.3527457,26.2612314 21.425957,26.3876873 C21.6123131,26.7271216 21.9384362,26.8935109 22.4043264,26.8935109 C23.0033281,26.8935109 23.4159737,26.6472547 23.6356076,26.1480866 C23.6888522,26.0216307 23.7354412,25.8752081 23.7554079,25.7221299 C23.7820302,25.5690517 23.7886858,25.3427622 23.7886858,25.0499169 L23.7886858,21.8086523 L25.379368,21.8086523 Z M7.44259571,21.6755408 C7.75540769,21.6755408 8.05490853,21.7154743 8.34775379,21.8019967 C8.64059906,21.8885192 8.9134776,22.0083195 9.15973384,22.1680533 L8.68718807,22.9267887 C8.36772052,22.7004992 8.02828623,22.5873545 7.67554081,22.5873545 C7.45590686,22.5873545 7.28286193,22.6405991 7.14309487,22.7537438 C7.00332782,22.8668886 6.9301165,23.0066556 6.9301165,23.173045 C6.9301165,23.3327788 6.99001667,23.4792014 7.11647258,23.6056573 C7.24292849,23.7321132 7.45590686,23.9184693 7.75540769,24.1447588 C8.06156411,24.3710483 8.31447592,24.56406 8.51414315,24.7371049 C8.71381037,24.9034943 8.87354415,25.063228 8.99334449,25.2163062 C9.11314482,25.3627289 9.19301171,25.5158071 9.23294515,25.6688853 C9.2995009,25.8219635 9.31946762,25.9883528 9.31946762,26.1747089 C9.31946762,26.4409319 9.26622303,26.6871881 9.15307826,26.9068221 C9.0399335,27.1331116 8.8868553,27.3194677 8.6805325,27.4792015 C8.48086528,27.6389352 8.24126461,27.7587356 7.96173049,27.845258 C7.68219638,27.9317805 7.38269554,27.9783695 7.04991684,27.9783695 C6.65723796,27.9783695 6.30449253,27.9251249 5.99168055,27.8186357 C5.67886856,27.7121466 5.36605658,27.5324461 5.05324459,27.2861898 L5.57237938,26.4475875 C5.81863562,26.6539103 6.04492514,26.8069885 6.24459236,26.9068221 C6.44425959,27.0000001 6.65058239,27.0532447 6.85690519,27.0532447 C7.11647258,27.0532447 7.32279538,26.986689 7.47587358,26.8535775 C7.62895179,26.720466 7.70881868,26.5407655 7.70881868,26.314476 C7.70881868,26.2212979 7.69550753,26.1281199 7.66888523,26.0415974 C7.64226293,25.955075 7.58901834,25.8685525 7.50915145,25.7820301 C7.43594014,25.6955076 7.32945095,25.595674 7.19633947,25.4958404 C7.06322798,25.3893512 6.89683863,25.2628953 6.68386026,25.1098171 C6.52412648,24.9966723 6.3643927,24.8835275 6.21797007,24.7637272 C6.06489186,24.6439269 5.92512481,24.517471 5.80532447,24.3777039 C5.67886856,24.2379369 5.57903495,24.0915142 5.50582363,23.9184693 C5.43261232,23.7520799 5.39267887,23.5590683 5.39267887,23.3394343 C5.39267887,23.0931781 5.44592347,22.860233 5.54575708,22.6605658 C5.65224627,22.454243 5.79201332,22.2811981 5.97171382,22.1347754 C6.15141433,21.9883528 6.3643927,21.875208 6.61730452,21.7953411 C6.87021633,21.7154743 7.14309487,21.6755408 7.44259571,21.6755408 Z M34.9301169,19 L34.9301169,24.1913478 L35.0965063,24.1913478 L37.22629,21.7221298 L38.4309489,22.2412646 L36.3810321,24.4309485 L38.8036611,27.439268 L37.319468,27.9584028 L34.9301169,24.6306157 L34.9301169,27.8319469 L33.3261236,27.8319469 L33.3261236,19 L34.9301169,19 Z M18.6039935,19 L18.6039935,27.8319469 L17.0133113,27.8319469 L17.0133113,19 L18.6039935,19 Z M30.1447591,21.6555741 C30.6173049,21.6555741 31.0166393,21.7554077 31.3427625,21.9484193 C31.6688856,22.1480866 31.9018307,22.4209651 32.0482533,22.7870217 C32.0815312,22.8735442 32.1081535,22.9667222 32.1347758,23.0599002 C32.1613981,23.1530783 32.1813648,23.2595675 32.1946759,23.3793678 C32.2079871,23.4991681 32.2212982,23.6389352 32.2279538,23.8053245 C32.2329455,23.9301165 32.2341934,24.0736274 32.2345054,24.235857 L32.2346094,27.8186357 L30.6439272,27.8186357 L30.6439272,24.3910151 C30.6439272,24.0848586 30.630616,23.8519135 30.6039937,23.6921798 C30.5773714,23.532446 30.5241268,23.3860234 30.4509155,23.2595675 C30.2645594,22.9201332 29.9384363,22.7537438 29.4725461,22.7537438 C29.1730453,22.7537438 28.9201335,22.813644 28.7071551,22.9400999 C28.4941767,23.0665558 28.3344429,23.2462563 28.2279538,23.485857 C28.1680536,23.625624 28.1347757,23.7653911 28.114809,23.9251249 C28.0948423,24.0782031 28.0815311,24.297837 28.0815311,24.5773711 L28.0815311,27.8252913 L26.4775378,27.8252913 L26.4775378,21.8086523 L28.0815311,21.8086523 L28.0815311,22.6139768 C28.3876875,22.2745425 28.7004995,22.0349418 29.0199671,21.8818636 C29.3394346,21.735441 29.7188024,21.6555741 30.1447591,21.6555741 Z M40.1747093,21.875208 L44.993345,24.2911814 L44.993345,25.2762064 L40.1747093,27.6722131 L40.1747093,26.6139768 L43.9084864,24.7703828 L40.1747093,22.9600666 L40.1747093,21.875208 Z M13.1530783,22.6272879 C12.6672214,22.6272879 12.2878537,22.8269551 12.001664,23.2329452 C11.7154743,23.6389352 11.5757073,24.1846923 11.5757073,24.876872 C11.5757073,25.549085 11.7154743,26.0815309 11.9950084,26.4675542 C12.2745425,26.8535775 12.6539103,27.0465891 13.1397672,27.0465891 C13.4326124,27.0465891 13.6722131,26.9733778 13.8585692,26.8269552 C14.0515808,26.6805326 14.204659,26.4875209 14.3178038,26.2612314 C14.4376041,26.0349419 14.517471,25.7820301 14.56406,25.5158071 C14.6173046,25.2429285 14.6439269,24.9900167 14.6439269,24.7570716 C14.6439269,24.0981698 14.5108154,23.579035 14.2445925,23.1996673 C13.9783695,22.8202996 13.6123129,22.6272879 13.1530783,22.6272879 Z M40.6472551,20.3178037 C40.9401004,20.3178037 41.179701,20.5574043 41.179701,20.8569052 C41.179701,21.1630616 40.9467559,21.4026623 40.6472551,21.4026623 C40.3544098,21.4026623 40.1148092,21.1630616 40.1148092,20.8569052 C40.1081536,20.5574043 40.3477543,20.3178037 40.6472551,20.3178037 Z M40.6405995,20.4043261 C40.4009989,20.4043261 40.2079872,20.6106489 40.2079872,20.8635608 C40.2079872,21.1231282 40.4009989,21.3227954 40.6405995,21.3227954 C40.8802002,21.3227954 41.0732119,21.1231282 41.0732119,20.8635608 C41.0798674,20.6039934 40.8868558,20.4043261 40.6405995,20.4043261 Z M40.6206328,20.5507488 C40.7138108,20.5507488 40.773711,20.5707155 40.8069889,20.5973378 C40.8402668,20.6239601 40.8602335,20.6638935 40.8602335,20.7237937 C40.8602335,20.8036606 40.8069889,20.8502496 40.7404331,20.8702163 L40.7404331,20.8768719 C40.7936777,20.8835275 40.8269556,20.9367721 40.8402668,21.0232945 C40.8535779,21.1164726 40.8668891,21.156406 40.8802002,21.1697172 L40.7803666,21.1697172 C40.7670554,21.1497504 40.7537443,21.0965059 40.7404331,21.016639 C40.727122,20.9367721 40.6871886,20.9101498 40.6139772,20.9101498 L40.5474215,20.9101498 L40.5474215,21.1697172 L40.4475879,21.1697172 L40.4475879,20.5640599 C40.5008325,20.5574043 40.5474215,20.5507488 40.6206328,20.5507488 Z M40.6073217,20.6239601 C40.5740438,20.6239601 40.5540771,20.6239601 40.5407659,20.6306157 L40.5407659,20.8369385 L40.6073217,20.8369385 C40.6871886,20.8369385 40.7537443,20.8103162 40.7537443,20.7304493 C40.7537443,20.6772047 40.7138108,20.6239601 40.6073217,20.6239601 Z"/>
  </defs>
  <use xlink:href="#splunk-a"/>
</svg>
