<svg xmlns="http://www.w3.org/2000/svg" width="50" height="50" viewBox="0 0 50 50">
  <g transform="matrix(1 0 0 -1 8.02 39.962)">
    <path d="M7.02387914,22.9683236 C3.14863548,19.6730019 -0.0102339181,16.9678363 0.00336726473,16.954191 C0.0989278752,16.8654971 11.7997076,7.76754386 11.8338207,7.75711078 C11.8576998,7.74707602 12.5024366,8.13255361 13.2631579,8.61013645 C14.0272904,9.0911306 14.6652047,9.48684211 14.6788499,9.49366472 C14.6959064,9.49707602 14.9517544,9.30263158 15.2451267,9.06042885 L15.7807018,8.62037037 L17.3806043,9.69152047 C18.2607212,10.2816764 18.9805068,10.7729045 18.9805068,10.7865497 C18.9805068,10.7967836 17.1076998,12.3011696 14.8153021,14.122807 C12.5263158,15.9478558 10.6569201,17.4488304 10.6637427,17.4624756 C10.6705653,17.4761209 13.0380117,19.6184211 15.9273879,22.2246589 C18.8167641,24.8274854 21.2353801,27.0107212 21.2967836,27.0721248 L21.4161793,27.1846979 L19.6150097,28.0750487 C18.0969786,28.8221248 17.8036062,28.9551657 17.7592593,28.9210526 C17.7285575,28.8971735 17.4454191,28.6413255 17.1281676,28.3581871 C16.8109162,28.0716374 16.541423,27.8430799 16.5277778,27.8499025 C16.452729,27.8976608 14.1296296,28.9619883 14.1023392,28.9619883 C14.0852827,28.9619883 10.8991228,26.2670565 7.02387914,22.9683236 Z"/>
    <path d="M21.6617934,20.3620858 C20.8942495,19.874269 20.2563353,19.4717349 20.2426901,19.4683236 C20.2290448,19.4649123 19.9766082,19.6593567 19.6832359,19.9015595 L19.1442495,20.3382066 L18.6973684,20.0346004 C18.4483431,19.8640351 17.7285575,19.3796296 17.0974659,18.9532164 C16.462963,18.5268031 15.9444444,18.168616 15.9478558,18.1549708 C15.9478558,18.1413255 17.8274854,16.6505848 20.1267057,14.8391813 C22.4225146,13.0311891 24.3021442,11.5404483 24.3021442,11.5302144 C24.3021442,11.5165692 21.8903509,9.3162768 18.9463938,6.63499025 C15.9990253,3.95711501 13.5974659,1.75682261 13.604274,1.75 C13.6418129,1.71247563 17.1895712,0 17.2134503,0.00682261209 C17.2270955,0.0136452242 17.5102339,0.262670565 17.8445419,0.562865497 C18.1754386,0.863060429 18.458577,1.10526316 18.4722222,1.10185185 C18.4892788,1.09502924 19.038499,0.846003899 19.6934698,0.545808967 C20.3518519,0.245614035 20.8976608,0 20.911306,0 C20.9624756,0 34.9795322,12.0555556 34.9556835,12.0760234 C34.9078947,12.1203704 23.128655,21.2046784 23.0911306,21.2251462 C23.0706628,21.2387914 22.4259259,20.8499025 21.6617934,20.3620858 Z"/>
  </g>
</svg>
