<svg xmlns="http://www.w3.org/2000/svg" xmlns:xlink="http://www.w3.org/1999/xlink" width="50" height="50" viewBox="0 0 50 50">
  <defs>
    <path id="spring-a" d="M38.6039662,10.6384915 C38.1615735,11.6953186 37.6003901,12.6988947 36.9245124,13.6205462 C33.9670351,10.6630689 29.9527308,9 25.7704811,9 C17.1192458,9 10,16.1274382 10,24.7909623 C10,29.1124837 11.7695709,33.2496749 14.8990897,36.2317295 L15.4807542,36.7478544 C18.3235371,39.1441482 21.9241222,40.4631339 25.6394018,40.4631339 C33.8646294,40.4631339 40.7790637,34.0156697 41.3648244,25.7986346 C41.7949285,21.7761378 40.6152146,16.6886216 38.6039662,10.6384915 Z M17.1397269,36.3218466 C16.8857607,36.6372562 16.496619,36.8215865 16.0910923,36.8215865 C15.3496749,36.8215865 14.743433,36.2112484 14.743433,35.4698309 C14.743433,34.7284135 15.3537711,34.1180754 16.0910923,34.1180754 C16.3983095,34.1180754 16.7014304,34.2245774 16.9390117,34.4211964 C17.51658,34.8881664 17.606697,35.7442783 17.1397269,36.3218466 Z M38.5384265,31.5947984 C34.6470091,36.7847204 26.3357607,35.0356307 21.006567,35.2855007 C21.006567,35.2855007 20.0603381,35.3428479 19.110013,35.4985046 C19.110013,35.4985046 19.4663849,35.3469441 19.9292588,35.1708062 C23.6691157,33.8682055 25.4386866,33.6142393 27.7120936,32.446814 C31.9926528,30.2676203 36.2240572,25.4996099 37.1047464,20.5390767 C35.4744473,25.3111834 30.5343953,29.4115085 26.0326398,31.0786736 C22.9481795,32.2174252 17.3773082,33.323407 17.3773082,33.323407 L17.1520156,33.2046164 C13.3589077,31.3572172 13.2442133,23.1360858 20.1381664,20.4817295 C23.1570871,19.3184005 26.0449285,19.9574122 29.3055267,19.1791287 C32.7873212,18.3516905 36.8139142,15.7382965 38.4524057,12.3302341 C40.2875163,17.7823147 42.4953836,26.3188557 38.5384265,31.5947984 L38.5384265,31.5947984 Z"/>
  </defs>
  <use xlink:href="#spring-a"/>
</svg>
