<svg xmlns="http://www.w3.org/2000/svg" xmlns:xlink="http://www.w3.org/1999/xlink" width="50" height="50" viewBox="0 0 50 50">
  <defs>
    <path id="storybook-a" d="M31.36736,8.57096 L31.19888,12.3758 C31.1947014,12.4740619 31.2479096,12.565823 31.3352664,12.6110075 C31.4226233,12.6561921 31.5282596,12.646592 31.60604,12.5864 L33.09428,11.4632 L34.35788,12.446 C34.4334055,12.496646 34.5303174,12.5028111 34.6116519,12.4621438 C34.6929864,12.4214766 34.7462015,12.340248 34.751,12.24944 L34.6106,8.3744 L36.47792,8.234 C36.9438781,8.2028657 37.4018564,8.36652874 37.7425482,8.68592727 C38.0832399,9.0053258 38.276079,9.45180405 38.2750442,9.9188 L38.2750442,40.2452 C38.2756177,40.7070226 38.0865959,41.1488363 37.7521724,41.467335 C37.4177488,41.7858336 36.9672453,41.9530915 36.506,41.93 L13.9016,40.91912 C13.0199501,40.8828192 12.3156662,40.1724111 12.287,39.29048 L11.234,11.49128 C11.2071603,11.0442549 11.3593975,10.6049371 11.6570832,10.2703701 C11.9547688,9.93580304 12.3734061,9.73351841 12.82052,9.7082 L31.35332,8.54288 L31.36736,8.57096 Z M27.05708,21.2912 C27.05708,21.95108 31.49372,21.62816 32.09744,21.17888 C32.09744,16.68608 29.68256,14.31332 25.274,14.31332 C20.8514,14.31332 18.3944,16.7282 18.3944,20.33648 C18.3944,26.58428 26.8184,26.6966 26.8184,30.10832 C26.8184,31.09112 26.36912,31.65272 25.3442,31.65272 C23.99636,31.65272 23.4488,30.96476 23.519,28.62008 C23.519,28.11464 18.3944,27.94616 18.22592,28.62008 C17.84684,34.2782 21.35684,35.92088 25.38632,35.92088 C29.30348,35.92088 32.3642,33.82892 32.3642,30.05216 C32.3642,23.35508 23.7998,23.5376 23.7998,20.22416 C23.7998,18.86228 24.81068,18.67976 25.38632,18.67976 C26.01812,18.67976 27.14132,18.77804 27.05708,21.30524 L27.05708,21.2912 Z"/>
  </defs>
  <use xlink:href="#storybook-a"/>
</svg>
