<?xml version="1.0" encoding="UTF-8"?>
<svg id="Ebene_1" xmlns="http://www.w3.org/2000/svg" viewBox="0 0 50 50">
  <defs>
    <style>
      .cls-1 {
        isolation: isolate;
      }
    </style>
  </defs>
  <path d="M40.58,9.15h-24.54v12.31h12.08c.43,0,.78.35.78.78v11.91h12.47V9.93c0-.21-.08-.41-.23-.55-.15-.15-.34-.23-.55-.23Z"/>
  <path class="cls-1" d="M16.04,9.15v12.31H4.52c-.16,0-.3-.1-.36-.24-.06-.15-.03-.31.09-.43l11.79-11.64h0ZM29.56,45.79c-.11.11-.28.14-.42.08-.14-.06-.24-.2-.24-.36v-11.37h12.47l-11.8,11.65h0Z"/>
  <path class="cls-1" d="M16.04,21.46h12.47c.21,0,.39.17.39.39v12.3h-12.08c-.43,0-.78-.35-.78-.78v-11.91h0Z"/>
</svg>