<?xml version="1.0" encoding="UTF-8"?>
<svg id="Ebene_1" xmlns="http://www.w3.org/2000/svg" viewBox="0 0 50 50">
  <defs>
    <style>
      .cls-1 {
        fill-rule: evenodd;
      }
    </style>
  </defs>
  <path class="cls-1" d="M27.78,29.64v-13.79h-.98v13.79h.98ZM13.89,20.56v-3.01h-.31l-.66.85v2.16h-2.45v.79h2.45v6.54c0,.61.2,1.08.6,1.42.4.34.9.51,1.5.51s1.24-.15,1.88-.46v-.93c-.63.3-1.18.44-1.66.44-.62,0-1-.14-1.14-.41-.14-.27-.21-.84-.21-1.71v-5.4h2.55v-.79h-2.55ZM9.95,22.2v-1.05h0c-.88-.51-1.68-.77-2.43-.77-.82,0-1.51.24-2.08.73-.57.48-.85,1.07-.85,1.76,0,.49.15.93.46,1.33.31.4.97.8,2,1.21,1.03.41,1.66.75,1.9,1.01.23.27.35.56.35.87,0,.46-.18.84-.54,1.14-.36.3-.82.44-1.38.44-.83,0-1.78-.28-2.85-.83v.95c.9.55,1.81.83,2.72.83.84,0,1.55-.24,2.12-.73.57-.48.86-1.08.86-1.78,0-.53-.16-1-.47-1.43-.32-.43-.99-.84-2.02-1.23s-1.66-.72-1.89-.98c-.23-.26-.34-.54-.34-.85,0-.43.19-.8.56-1.1.38-.3.84-.44,1.38-.44.74,0,1.57.31,2.49.93ZM25.51,20.56l-6.79,13.73h-.99l3.17-6.41-3.82-7.33h1.02l3.3,6.36,3.13-6.36h.99ZM37.55,24.77h-7.16c-.02.16-.03.32-.03.47,0,1.01.36,1.87,1.09,2.58.72.7,1.58,1.06,2.57,1.06,1.15,0,2.28-.45,3.38-1.35v1.1c-1.04.8-2.2,1.2-3.49,1.2s-2.39-.45-3.25-1.36-1.28-2.06-1.28-3.47c0-1.33.39-2.43,1.18-3.3.79-.87,1.78-1.31,2.98-1.31,1.13,0,2.08.39,2.85,1.18.78.79,1.16,1.85,1.16,3.2h0ZM36.41,23.99h-5.88c.18-.84.54-1.5,1.08-1.96.54-.46,1.19-.7,1.93-.7,1.57,0,2.53.89,2.87,2.66Z"/>
  <path class="cls-1" d="M43.39,25.01c2.52-5.05,2.41-9.43-.25-11.71-1.61-1.42-4-1.34-6.78-.32h-.03s1.38-.26,1.38-.26h.06s.12-.03.12-.03l.12-.02h.06s.11-.03.11-.03c1.76-.29,3.2-.19,4.5.98,2.26,2.04,2.12,6.01.22,10.27.17.37.33.75.48,1.13ZM42.4,26.79c-.14-.35-.29-.7-.43-1.05l-.03.05c-.87,1.56-1.97,3.13-3.26,4.63-5.68,6.29-11.2,9.47-15.39,5.68l-.03-.03-.07-.07-.03-.03-.06-.07-.03-.03-.06-.07-.06-.06-.06-.06-.05-.06-.05-.06-.05-.06-.05-.06-.05-.06-.02-.03-.04-.06c-.12-.16-.21-.3-.29-.43.26.57.55,1.03.88,1.38,3.39,3.47,8.93,2.27,16.11-5.16,1.23-1.44,2.27-2.88,3.11-4.28Z"/>
  <path class="cls-1" d="M44.12,27.77c-.58-2.05-1.56-4.34-2.99-6.86h0c-5.45-9.56-11.23-10.85-15.04-9.56-.5.17-.99.54-1.46,1.01l-.07.07s-.02.02-.03.03l-.07.07-.03.03c.3-.28.66-.5,1.06-.67,4.22-1.71,9.85.58,14.75,9.67,1.27,2.37,2.24,4.53,2.88,6.44.21-.18.48-.27.75-.27.08,0,.17,0,.25.03ZM42.15,38c1.04-.62,1.35-.88,1.94-2.12.71-1.49.94-3.53.51-6.05-.21.16-.46.25-.72.25-.06,0-.11,0-.17-.01.99,4.29,0,7.07-3.14,7.92-1.48.41-4.23-.12-5.5-.53l.38.16c2.52.74,5.36,1.17,6.7.37Z"/>
  <circle cx="22.08" cy="34.16" r=".47"/>
  <circle cx="43.88" cy="28.92" r=".92"/>
</svg>