<svg xmlns="http://www.w3.org/2000/svg" xmlns:xlink="http://www.w3.org/1999/xlink" width="50" height="50" viewBox="0 0 50 50">
  <defs>
    <path id="svelte-a" d="M37.218,13.2795 C34.2558509,8.97821233 28.4525368,7.73464503 23.988,10.4445 L16.428,15.2505 C14.362582,16.5441004 12.9442074,18.6544848 12.5265,21.0555 C12.1600789,23.0502459 12.4788378,25.1102843 13.431,26.901 C12.7787553,27.877927 12.341597,28.9823271 12.1485,30.141 C11.7153718,32.5790464 12.2796019,35.0888975 13.7145,37.107 C16.6803248,41.3997083 22.4696255,42.6520877 26.9445,39.969 L34.5045,35.163 C36.5647902,33.8666277 37.9779805,31.756656 38.3925,29.358 C38.7557866,27.3676035 38.4371101,25.3128535 37.488,23.526 C39.4944557,20.3746079 39.3876374,16.3208502 37.218,13.2795 L37.218,13.2795 Z M23.232,37.5255 C20.8007359,38.1576715 18.2335551,37.2030686 16.806,35.136 C15.9285,33.921 15.6045,32.4225 15.861,30.9375 L16.0095,30.222 L16.1445,29.7765 L16.5495,30.0465 C17.4405,30.7215 18.4395,31.2075 19.506,31.5315 L19.776,31.626 L19.749,31.896 C19.722,32.274 19.83,32.6925 20.046,33.0165 C20.4915,33.651 21.261,33.9615 22.0035,33.759 C22.1655,33.705 22.3275,33.651 22.4625,33.57 L29.9955,28.764 C30.3735,28.521 30.6165,28.1565 30.711,27.7245 C30.792,27.279 30.684,26.82 30.441,26.4555 C29.9955,25.8345 29.226,25.551 28.4835,25.74 C28.3215,25.794 28.146,25.8615 28.011,25.9425 L25.1625,27.7515 C22.4652402,29.353842 18.9882686,28.599516 17.1975,26.0235 C16.3290571,24.8087672 15.9882649,23.2946764 16.2525,21.825 C16.5129573,20.368166 17.382107,19.091449 18.642,18.315 L26.1615,13.509 C26.634,13.212 27.147,12.996 27.7005,12.834 C30.1305,12.1995 32.6955,13.158 34.1265,15.21 C35.1419105,16.6356773 35.4269872,18.456167 34.896,20.124 L34.761,20.5695 L34.3695,20.2995 C33.4690101,19.6427156 32.4652215,19.1408213 31.3995,18.8145 L31.1295,18.7335 L31.1565,18.4635 C31.1835,18.072 31.0755,17.6535 30.8595,17.3295 C30.414,16.695 29.6445,16.425 28.902,16.614 C28.74,16.668 28.578,16.722 28.443,16.803 L20.8965,21.6495 C20.5185,21.906 20.2755,22.257 20.1945,22.7025 C20.1135,23.1345 20.2215,23.607 20.4645,23.958 C20.8965,24.5925 21.6795,24.8625 22.4085,24.6735 C22.584,24.6195 22.746,24.5655 22.881,24.4845 L25.7565,22.6485 C26.229,22.338 26.7555,22.1085 27.2955,21.96 C29.739,21.3255 32.2905,22.284 33.7215,24.3495 C34.599,25.5645 34.9365,27.063 34.6935,28.5345 C34.439402,29.9865929 33.5806328,31.2624786 32.331,32.0445 L24.798,36.837 C24.3080002,37.1333129 23.7815997,37.3647476 23.232,37.5255 L23.232,37.5255 Z"/>
  </defs>
  <use xlink:href="#svelte-a"/>
</svg>
