<?xml version="1.0" encoding="UTF-8"?>
<svg xmlns="http://www.w3.org/2000/svg" viewBox="0 0 32 32"><path d="M22.155 21.472l1.941-2.699a.533.533 0 0 0-.864-.619l-.001.001-1.899 2.688a.533.533 0 0 0 .127.746l.002.001a.554.554 0 0 0 .745-.116l.001-.001zM7.979 16.533h17.333a.534.534 0 0 0 .533-.511v-.214l.001-.059c0-.304-.092-.586-.25-.821l.003.005-3.445-4.757a.542.542 0 0 0-.748-.116l.002-.001a.534.534 0 0 0-.127.748l-.001-.002 3.371 4.661H7.979a.534.534 0 0 0-.001 1.066h.001z" style="fill: #0035ee;"/></svg>
