<?xml version="1.0" encoding="UTF-8"?>
<svg id="Ebene_1" xmlns="http://www.w3.org/2000/svg" viewBox="0 0 50 50">
  <defs>
    <style>
      .cls-1 {
        fill-rule: evenodd;
      }
    </style>
  </defs>
  <path class="cls-1" d="M25,13.54c-5.09,0-8.28,2.55-9.55,7.64,1.91-2.55,4.14-3.5,6.69-2.87,1.45.36,2.49,1.42,3.64,2.58,1.87,1.9,4.04,4.1,8.78,4.1,5.09,0,8.28-2.55,9.55-7.64-1.91,2.55-4.14,3.5-6.69,2.87-1.45-.36-2.49-1.42-3.64-2.58-1.87-1.9-4.04-4.1-8.78-4.1ZM15.45,25c-5.09,0-8.28,2.55-9.55,7.64,1.91-2.55,4.14-3.5,6.69-2.87,1.45.36,2.49,1.42,3.64,2.58,1.87,1.9,4.04,4.1,8.78,4.1,5.09,0,8.28-2.55,9.55-7.64-1.91,2.55-4.14,3.5-6.69,2.87-1.45-.36-2.49-1.42-3.64-2.58-1.87-1.9-4.04-4.1-8.78-4.1Z"/>
</svg>