<svg xmlns="http://www.w3.org/2000/svg" xmlns:xlink="http://www.w3.org/1999/xlink" width="50" height="50" viewBox="0 0 50 50">
  <defs>
    <path id="teamcity-a" d="M18.7868077,10.4652308 C19.1581384,10.55184 19.5202538,10.6732665 19.868376,10.8277822 L20.1267692,10.9498462 L23.6428448,12.8769913 L23.6571923,12.8592308 C23.6571923,12.8592308 24.4592846,11.9304923 24.5859308,11.78696 L24.6021923,11.7688462 C25.5838573,10.5226907 27.2126286,9.97976694 28.7456538,10.3876923 C29.6380147,10.5914943 30.4133743,11.1403444 30.9021923,11.9142308 C31.6806748,13.045479 31.8442365,14.4902741 31.3383462,15.7669231 C31.3300906,15.7834341 31.2852701,15.8955768 31.2288002,16.0391452 L34.1975769,16.0407308 L34.1978826,18.6375346 C35.525614,19.3659955 36.7549251,20.0388077 36.7660385,20.0388077 C37.6083658,20.5053218 38.3237762,21.1708198 38.8498846,21.9772692 C41.2269231,25.6845769 39.7464231,29.9491923 36.5503846,31.6211154 C36.5388907,31.6326093 35.610066,32.1293481 34.1990493,32.8808309 L34.1975769,35.4253462 L29.4141224,35.4249248 L28.6131606,35.8503213 C24.4180164,38.0781721 20.1224926,40.3560229 20.0976923,40.3684231 C19.0667832,40.912514 17.9174237,41.2366256 16.6646124,41.2607653 L16.3543006,41.2609747 C15.5695223,41.2471389 14.7468776,41.1173741 13.8921923,40.8530385 C12.6289738,40.4696991 11.5238509,39.6876121 10.7421923,38.6238077 C8.20842483,35.1665175 8.63681882,31.2001058 10.7608819,28.6243111 L10.9118077,28.4468846 L12.9399631,26.0235639 C11.6833181,23.2691435 10.4881004,20.6546004 10.4756538,20.6421538 C7.93142308,15.0933077 12.5595,8.98715385 18.7868077,10.4652308 Z M23.8510385,31.5484231 L16.7514231,31.5484231 L16.7514231,32.8326538 L23.8510385,32.8326538 L23.8510385,31.5484231 Z M28.2368077,18.4565385 C25.6441154,18.4565385 23.8510385,20.4192308 23.8510385,22.8423077 C23.8249369,23.9940103 24.2709622,25.1062892 25.0855481,25.920875 C25.9001339,26.7354609 27.0124128,27.1814862 28.1641154,27.1553846 C29.7875769,27.1553846 30.7325769,26.5738462 31.6048846,25.6530769 L31.6048846,25.6530769 L30.4175769,24.4657692 C29.7633462,25.0715385 29.1818077,25.4592308 28.2125769,25.4592308 C26.7587308,25.4592308 25.7652692,24.2719231 25.7652692,22.8180769 L25.7652692,22.8180769 L25.7652692,22.7938462 C25.7652692,21.3642308 26.8071923,20.1769231 28.2125769,20.1769231 C29.0606538,20.1769231 29.7148846,20.5403846 30.3691154,21.1219231 L30.3691154,21.1219231 L31.5564231,19.765 C30.7810385,18.9896154 29.8118077,18.4565385 28.2368077,18.4565385 Z M23.8510385,18.6334231 L16.7514231,18.6334231 L16.7514231,20.3295769 L19.3683462,20.3295769 L19.3683462,27.0148462 L21.2583462,27.0148462 L21.2583462,20.3295769 L23.8510385,20.3295769 L23.8510385,18.6334231 Z"/>
  </defs>
  <use xlink:href="#teamcity-a"/>
</svg>
