<?xml version="1.0" encoding="UTF-8"?>
<svg id="Ebene_1" xmlns="http://www.w3.org/2000/svg" viewBox="0 0 50 50">
  <path d="M24.7,27.92c-1.88-.85-2.99-2.66-2.93-4.58l-4.02-2.32c-.3,2.22.18,4.55,1.39,6.57,1.28,2.15,3.14,3.74,5.57,4.67v-4.34h0Z"/>
  <path d="M24.7,37.75v-4.98c-2.6-.95-4.59-2.66-5.96-4.95-1.29-2.16-1.79-4.67-1.42-7.05l-3.74-2.16c-2.14,7.81,2.66,16.13,11.12,19.14Z"/>
  <path d="M25.25,32.72v5.03c8.3-3.07,13.28-11.38,11.18-19.11l-3.72,2.16c.46,2.57.06,5.07-1.18,7.17-1.28,2.15-3.51,3.77-6.28,4.75Z"/>
  <path d="M28.28,23.36c.02,1.87-1.08,3.51-3.03,4.56v4.34c2.59-.94,4.68-2.49,5.88-4.51,1.16-1.95,1.55-4.29,1.16-6.69l-4.01,2.31Z"/>
  <path d="M28.86,16.69c1.57.76,2.84,1.99,3.69,3.54.01.02.02.04.03.06l3.64-2.1c-.06-.07-.11-.15-.16-.22-1.34-2.16-3.1-3.79-5.25-4.84-6.06-2.96-13.49-.73-17.03,5.07l3.64,2.1c2.47-3.97,7.44-5.56,11.44-3.61Z"/>
  <path d="M22.22,23.6c.05,1.58.93,3.05,2.47,3.81v-2.34l-2.47-1.47Z"/>
  <path d="M27.74,23.09s-.03-.05-.04-.08c-.3-.56-.76-1.01-1.32-1.28-1.44-.7-3.21-.12-4.14,1.35l2.76,1.59,2.74-1.58Z"/>
  <path d="M26.58,21.32c.65.32,1.18.83,1.52,1.48.01.02.02.04.03.07l4.05-2.34s-.02-.05-.04-.07c-.8-1.47-2.01-2.63-3.49-3.35-3.78-1.85-8.49-.34-10.84,3.42l4.03,2.32c1.05-1.68,3.08-2.34,4.74-1.53Z"/>
  <path d="M41.12,15.9l-4.29,2.5c2.26,8.04-2.93,16.71-11.59,19.84v5.45l15.88-9.25V15.9Z"/>
  <path d="M8.88,15.89v18.53l15.82,9.26v-5.45c-8.82-3.05-13.83-11.73-11.53-19.86l-4.09-2.36-.2-.12Z"/>
  <path d="M25.25,25.08v2.33c1.54-.89,2.49-2.3,2.56-3.78l-2.56,1.44Z"/>
  <path d="M9.1,15.5l.47.27,3.81,2.2c3.67-6,11.36-8.31,17.63-5.25,2.23,1.09,4.06,2.77,5.44,5.01.04.07.1.15.17.23l4.26-2.46-15.89-9.18-15.9,9.18Z"/>
</svg>