<svg xmlns="http://www.w3.org/2000/svg" width="50" height="50" viewBox="0 0 50 50">
  <path d="M18.5349721,4.63374302 C15.9646927,4.63374302 13.9012291,6.6972067 13.9012291,9.26748603 C13.9012291,10.9689385 14.8424581,12.4531844 16.2181006,13.2496089 L16.2181006,13.9012291 C16.2181006,16.2181006 13.9012291,18.5349721 11.5843575,18.5349721 C9.66569832,18.5349721 8.1452514,18.9331844 6.95061453,19.5848045 L6.95061453,8.61586592 C8.32625698,7.81944134 9.26748603,6.33519553 9.26748603,4.63374302 C9.26748603,2.06346369 7.20402235,0 4.63374302,0 C2.06346369,0 0,2.06346369 0,4.63374302 C0,6.33519553 0.94122905,7.81944134 2.31687151,8.61586592 L2.31687151,23.7841341 C0.94122905,24.5805587 0,26.0648045 0,27.766257 C0,30.3365363 2.06346369,32.4 4.63374302,32.4 C7.20402235,32.4 9.26748603,30.3365363 9.26748603,27.766257 C9.26748603,26.535419 8.79687151,25.4493855 8.03664804,24.6167598 C8.72446927,23.7841341 9.81050279,23.132514 11.5843575,23.132514 C16.2181006,23.132514 20.8518436,18.4987709 20.8518436,13.8650279 L20.8518436,13.2134078 C22.227486,12.4169832 23.1687151,10.9327374 23.1687151,9.23128492 C23.1687151,6.66100559 21.1052514,4.5975419 18.5349721,4.5975419 L18.5349721,4.63374302 Z M4.63374302,2.31687151 C5.90078212,2.31687151 6.95061453,3.36670391 6.95061453,4.63374302 C6.95061453,5.90078212 5.90078212,6.95061453 4.63374302,6.95061453 C3.36670391,6.95061453 2.31687151,5.90078212 2.31687151,4.63374302 C2.31687151,3.36670391 3.36670391,2.31687151 4.63374302,2.31687151 Z M4.63374302,30.1193296 C3.36670391,30.1193296 2.31687151,29.0694972 2.31687151,27.8024581 C2.31687151,26.535419 3.36670391,25.4855866 4.63374302,25.4855866 C5.90078212,25.4855866 6.95061453,26.535419 6.95061453,27.8024581 C6.95061453,29.0694972 5.90078212,30.1193296 4.63374302,30.1193296 Z M18.5349721,11.5843575 C17.267933,11.5843575 16.2181006,10.5345251 16.2181006,9.26748603 C16.2181006,8.00044693 17.267933,6.95061453 18.5349721,6.95061453 C19.8020112,6.95061453 20.8518436,8.00044693 20.8518436,9.26748603 C20.8518436,10.5345251 19.8020112,11.5843575 18.5349721,11.5843575 Z" transform="translate(14 9)"/>
</svg>
