<svg xmlns="http://www.w3.org/2000/svg" xmlns:xlink="http://www.w3.org/1999/xlink" width="50" height="50" viewBox="0 0 50 50">
  <defs>
    <path id="typescript-a" d="M12,25.608 L12,39.216 L39.216,39.216 L39.216,12 L12,12 L12,25.608 Z M33.932694,24.523896 C34.624434,24.696264 35.15061,25.003578 35.634828,25.504806 C35.885442,25.77243 36.257394,26.26005 36.286878,26.377986 C36.29595,26.412006 35.112054,27.205806 34.395366,27.651468 C34.369284,27.668478 34.264956,27.556212 34.149288,27.383844 C33.797748,26.873544 33.431466,26.653548 32.870136,26.614992 C32.044584,26.558292 31.513872,26.990346 31.518408,27.71157 C31.5108892,27.8889303 31.5508178,28.0650859 31.634076,28.22187 C31.815516,28.597224 32.153448,28.82289 33.210336,29.279892 C35.159682,30.119052 35.993172,30.67131 36.51141,31.457172 C37.08975,32.333754 37.22016,33.734244 36.826662,34.775256 C36.395742,35.906988 35.324112,36.67584 33.815892,36.929856 C33.349818,37.012638 32.244168,37.000164 31.74294,36.909444 C30.649764,36.714396 29.613288,36.174612 28.973712,35.465862 C28.723098,35.1903 28.234344,34.467942 28.264962,34.416912 C28.277436,34.398768 28.389702,34.329594 28.514442,34.257018 C28.636914,34.187844 29.093916,33.923622 29.52597,33.673008 L30.30843,33.219408 L30.47286,33.462084 C30.701928,33.811356 31.202022,34.291038 31.5048,34.450932 C32.373444,34.909068 33.565278,34.84443 34.15269,34.31712 C34.3921425,34.1154166 34.5234691,33.8133235 34.507632,33.50064 C34.507632,33.185388 34.467942,33.04704 34.303512,32.8089 C34.092588,32.507256 33.660534,32.25324 32.433546,31.72026 C31.029654,31.115838 30.425232,30.740484 29.87184,30.144 C29.5264423,29.7503529 29.2713739,29.2858884 29.124534,28.7832 C29.02134,28.398774 28.995258,27.434874 29.076906,27.047046 C29.366076,25.689648 30.390078,24.745026 31.86768,24.463794 C32.347362,24.373074 33.462084,24.407094 33.932694,24.523896 L33.932694,24.523896 Z M27.543738,25.660164 L27.55281,26.774886 L24.00906,26.774886 L24.00906,36.84027 L21.50292,36.84027 L21.50292,26.774886 L17.962572,26.774886 L17.962572,25.68171 C17.962572,25.076154 17.975046,24.57039 17.992056,24.55905 C18.005664,24.540906 20.161398,24.531834 22.774134,24.53637 L27.531264,24.549978 L27.543738,25.660164 Z"/>
  </defs>
  <use xlink:href="#typescript-a"/>
</svg>
