<svg xmlns="http://www.w3.org/2000/svg" xmlns:xlink="http://www.w3.org/1999/xlink" width="50" height="50" viewBox="0 0 50 50">
  <defs>
    <path id="typo3-a" d="M23.2870678,15.3451786 C22.9349103,15.6465142 22.6843966,15.9981923 22.6843966,17.0532265 C22.6843966,19.9172333 26.3013828,28.5224387 28.7638485,28.5224387 C29.0639855,28.5224387 29.2934033,28.4931921 29.5813143,28.4083291 C27.4209034,31.8745277 24.7942253,34.4367194 23.2369651,34.4367194 C19.8704925,34.4367194 15.0975474,24.2883977 15.0975474,19.8165484 C15.0975474,19.113432 15.2483351,18.5608635 15.4993282,18.2089457 C16.6552871,16.8022334 20.2727528,15.696617 23.2870678,15.3451786 Z M28.0095266,15.0434844 C31.1245266,15.0434844 34.240006,15.5459501 34.240006,17.3043405 C34.240006,20.8717035 31.9791498,25.1925253 30.8234307,25.1925253 C28.7637047,25.1925253 26.2012732,19.4652309 26.2012732,16.6012241 C26.2012732,15.294957 26.703739,15.0434844 28.0095266,15.0434844 Z"/>
  </defs>
  <use xlink:href="#typo3-a"/>
</svg>
