<svg xmlns="http://www.w3.org/2000/svg" width="50" height="50" viewBox="0 0 50 50">
  <path fill="none" stroke="#000" stroke-linejoin="round" stroke-width="1.62" d="M0,2.94986381 L0,2.94986381 C0,1.32069891 1.56980157,0 3.50624968,0 L5.10000037,0 L5.10000037,0 L12.7500014,0 L27.0937495,0 C28.0236671,0 28.9154948,0.310787722 29.5730457,0.863994963 C30.2305925,1.4172022 30.6000012,2.16751198 30.6000012,2.94986381 L30.6000012,10.3245242 L30.6000012,10.3245242 L30.6000012,14.749319 L30.6000012,14.749319 C30.6000012,16.3784848 29.0302007,17.6991828 27.0937505,17.6991828 L12.7500025,17.6991828 L2.75622006,25.200001 L5.1000014,17.6991828 L3.50625071,17.6991828 C1.5698026,17.6991828 0,16.3784848 0,14.749319 L0,14.749319 L0,10.3245242 L0,10.3245242 L0,2.94986381 Z" transform="translate(10 12)"/>
</svg>
