<svg xmlns="http://www.w3.org/2000/svg" xmlns:xlink="http://www.w3.org/1999/xlink" width="50" height="50" viewBox="0 0 50 50">
  <defs>
    <path id="umbraco-a" d="M12.0000019,25.4678644 C12.0077474,18.0201459 18.0549726,11.990619 25.5037956,12.000011 C32.9526186,12.0094249 38.9799316,18.0549922 38.9699879,25.5027108 C38.9600194,32.9504293 32.926069,38.9700001 25.4849896,38.9700001 C18.033401,38.9661283 11.9961319,32.9216673 12.0000019,25.4700769 L12.0000019,25.4678644 Z M25.21175,30.085284 C24.165602,30.1158623 23.119524,30.0220978 22.0954903,29.80596 C21.339918,29.6519886 20.7055621,29.141907 20.392997,28.4369957 C20.0880453,27.7337998 19.9405475,26.649322 19.9505036,25.1835624 C19.9560838,24.4176383 20.0040942,23.6526116 20.094314,22.8919992 C20.1820752,22.1511913 20.2698363,21.5407347 20.3575975,21.0606293 L20.449968,20.5832894 C20.4510745,20.569299 20.4510745,20.555243 20.449968,20.5412525 C20.4495292,20.4082698 20.3545058,20.2944275 20.2237433,20.2702253 L18.4841912,19.999198 L18.4465792,19.999198 C18.3199892,20.0004342 18.2104007,20.0874671 18.1805301,20.2104886 C18.1506618,20.321112 18.1335152,20.4046327 18.0815222,20.6701288 C17.9819612,21.182315 17.8901438,21.6817795 17.7878172,22.4102344 C17.6805463,23.201425 17.6151873,23.9977344 17.5920139,24.7958274 C17.5538484,25.3517932 17.5538484,25.9097215 17.5920139,26.4656872 C17.6329445,27.9406655 17.886272,29.1195419 18.3519963,30.0023165 C18.8177206,30.885091 19.606465,31.5197004 20.7182296,31.9061447 C21.8299943,32.2936952 23.3787211,32.4834143 25.3644102,32.475302 L25.6144189,32.475302 C27.6023205,32.4834143 29.1510473,32.2936952 30.2605995,31.9061447 C31.3701517,31.5185942 32.1588961,30.8839847 32.6268329,30.0023165 C33.0925572,29.1195419 33.346069,27.9406655 33.3873684,26.4656872 C33.4249797,25.9097027 33.4249797,25.351812 33.3873684,24.7958274 C33.3640095,23.9977247 33.2984658,23.2014153 33.1910119,22.4102344 C33.0892385,21.6911825 32.996868,21.1933773 32.8978601,20.6701288 C32.8425484,20.4046327 32.8281674,20.3222183 32.7982991,20.2104886 C32.7695027,20.0867837 32.6592622,19.999198 32.5322499,19.999198 L32.4874475,19.999198 L30.7478953,20.2702253 C30.6155322,20.2922243 30.5187289,20.4070756 30.5194581,20.5412525 C30.5183517,20.555243 30.5183517,20.569299 30.5194581,20.5832894 L30.6112755,21.0606293 C30.6990367,21.5422097 30.7877197,22.1526663 30.8773246,22.8919992 C30.9662603,23.6527014 31.0135301,24.4176979 31.0189225,25.1835624 C31.0336723,26.6467408 30.8861745,27.7302968 30.5764291,28.4342302 C30.2663982,29.1380505 29.6356574,29.6489053 28.8827857,29.80596 C27.8595629,30.0226302 26.8142194,30.1169525 25.7687385,30.0869433 L25.21175,30.085284 Z"/>
  </defs>
  <use xlink:href="#umbraco-a"/>
</svg>
