<?xml version="1.0" encoding="UTF-8"?><svg id="a" xmlns="http://www.w3.org/2000/svg" width="50" height="50" viewBox="0 0 50 50"><path d="M35.35,17.58l-9.88,14.28c-.1,.15-.26,.26-.43,.32-.18,.06-.36,.06-.54,0-.17-.06-.33-.17-.43-.32-.1-.15-.15-.33-.15-.52l.4-7.88-6.38-1.35c-.14-.03-.26-.09-.37-.18-.11-.09-.19-.2-.24-.33s-.07-.27-.05-.41c.02-.14,.07-.27,.14-.38L27.29,6.53c.1-.15,.26-.26,.43-.32,.18-.06,.36-.06,.54,0,.17,.06,.33,.17,.43,.32,.1,.15,.15,.33,.15,.52l-.4,7.88,6.38,1.35c.14,.03,.26,.09,.37,.18,.11,.09,.19,.2,.24,.33,.05,.13,.07,.27,.05,.41-.02,.14-.07,.27-.14,.38h0Z"/><path d="M25,43.84c-.26,0-.52-.05-.77-.15-.24-.1-.46-.25-.65-.43l-9.33-9.33c-.37-.38-.58-.88-.58-1.41,0-.53,.21-1.04,.59-1.41,.37-.37,.88-.59,1.41-.59,.53,0,1.04,.21,1.41,.58l7.92,7.92,17.25-17.25c.38-.37,.88-.58,1.41-.57,.53,0,1.03,.21,1.41,.59,.37,.37,.58,.88,.59,1.41,0,.53-.2,1.03-.57,1.41l-18.66,18.66c-.19,.19-.41,.33-.65,.43-.24,.1-.5,.15-.77,.15Z"/><path d="M25,43.84c.26,0,.52-.05,.77-.15,.24-.1,.46-.25,.65-.43l9.33-9.33c.37-.38,.58-.88,.58-1.41,0-.53-.21-1.04-.59-1.41-.37-.37-.88-.59-1.41-.59-.53,0-1.04,.21-1.41,.58l-7.92,7.92L7.75,21.77c-.38-.37-.88-.58-1.41-.57-.53,0-1.03,.21-1.41,.59-.37,.37-.58,.88-.59,1.41,0,.53,.2,1.03,.57,1.41l18.66,18.66c.19,.19,.41,.33,.65,.43,.24,.1,.5,.15,.77,.15Z"/></svg>