<svg xmlns="http://www.w3.org/2000/svg" width="50" height="50" viewBox="0 0 50 50">
  <path fill-rule="evenodd" d="M24.7319352,8.13217199 C33.9560264,8.13217199 41.4332674,15.6097355 41.4332674,24.8338267 C41.4332674,34.0579179 33.9560264,41.5354814 24.7322577,41.5354814 C15.5081664,41.5354814 8.03092541,34.0579179 8.03092541,24.8338267 C8.03092541,15.6097355 15.5081664,8.13217199 24.7319352,8.13217199 Z M21.0431049,26.2637156 L16.0905251,26.2637156 L16.0905251,29.4816993 L18.1024502,29.4816993 L18.7499811,30.9267124 L17.3920365,32.1237417 L19.8770332,34.7661065 L21.2972156,33.3349599 L22.8351016,33.9953899 L22.8351016,35.8670381 L26.6290267,35.8670381 L26.6290267,33.9953899 L28.1669127,33.3349599 L29.5870951,34.7661065 L32.0720919,32.1237417 L30.7144697,30.9267124 L31.3620007,29.4816993 L33.3736033,29.4816993 L33.3736033,26.2637156 L28.4213459,26.2637156 L28.4213459,27.1144062 C28.4213459,29.1434225 26.7609192,30.8035267 24.7322254,30.8035267 C22.7032091,30.8035267 21.0431049,29.1434225 21.0431049,27.1144062 L21.0431049,26.2637156 Z M27.2034202,13.8005831 L22.2705114,13.8005831 L22.2705114,22.005329 L21.2379446,22.005329 L21.2379446,15.2062541 C16.1392834,17.6619055 17.2092573,23.2039707 17.2092573,23.2039707 L16.0905896,23.2039707 L16.0905896,24.7847459 L33.3736678,24.7847459 L33.3736678,23.2039707 L32.255,23.2039707 C32.2053388,23.4303485 32.8548046,17.4358502 28.2263127,15.2062541 L28.2263127,22.005329 L27.2034202,22.005329 L27.2034202,13.8005831 Z"/>
</svg>
