<svg xmlns="http://www.w3.org/2000/svg" width="50" height="50" viewBox="0 0 50 50">
  <path d="M17.4067383,31 L14.4350586,31 L18.3696289,24.7661133 L14.6259766,18.7646484 L17.6806641,18.7646484 L19.8637695,22.7407227 L22.1049805,18.7646484 L25.0600586,18.7646484 L21.3164062,24.6665039 L25.2924805,31 L22.1879883,31 L19.8637695,26.8330078 L17.4067383,31 Z M33.6845703,22.6577148 C33.6845703,22.0213184 33.5171729,21.5675469 33.182373,21.2963867 C32.8475732,21.0252265 32.3785837,20.8896484 31.7753906,20.8896484 L29.3930664,20.8896484 L29.3930664,24.4921875 L31.7753906,24.4921875 C32.3785837,24.4921875 32.8475732,24.3455418 33.182373,24.0522461 C33.5171729,23.7589504 33.6845703,23.2941113 33.6845703,22.6577148 Z M36.2163086,22.6411133 C36.2163086,24.0854564 35.8510779,25.1064423 35.1206055,25.7041016 C34.3901331,26.3017608 33.347012,26.6005859 31.9912109,26.6005859 L29.3930664,26.6005859 L29.3930664,31 L26.8530273,31 L26.8530273,18.7646484 L32.1821289,18.7646484 C33.4106507,18.7646484 34.3901331,19.080075 35.1206055,19.7109375 C35.8510779,20.3418 36.2163086,21.3185155 36.2163086,22.6411133 Z"/>
</svg>
