<svg xmlns="http://www.w3.org/2000/svg" xmlns:xlink="http://www.w3.org/1999/xlink" width="50" height="50" viewBox="0 0 50 50">
  <defs>
    <path id="yarn-a" d="M25.3000002,10 C33.7474906,10 40.6000003,16.8525097 40.6000003,25.3000002 C40.6000003,33.7474906 33.7474906,40.6000003 25.3000002,40.6000003 C16.8525097,40.6000003 10,33.7474906 10,25.3000002 C10,16.8525097 16.8525097,10 25.3000002,10 Z M25.8611971,15.310695 C25.3708882,15.4879151 24.9514674,15.960502 24.5556758,16.7993437 C24.4966024,16.9233978 24.4434365,17.0415445 24.3961778,17.1596912 C23.6459461,17.2128572 22.4644789,17.4845947 21.4661391,18.5656372 C21.3420851,18.7015059 21.0998843,18.8019306 20.8458688,18.896448 L20.8517762,18.896448 C20.3319306,19.0795754 20.0956372,19.5049036 19.8061777,20.2728572 C19.4044789,21.3479924 19.8179924,22.4054056 20.2255986,23.0906565 C19.670309,23.5868728 18.931892,24.3784557 18.5420078,25.3059075 C18.0576063,26.4519307 18.0044402,27.5743245 18.0221622,28.1827802 C17.6086487,28.6199229 16.9706564,29.4410426 16.8997684,30.3625871 C16.805251,31.6503863 17.2719306,32.5246721 17.4786873,32.8436682 C17.5377607,32.9381855 17.6027414,33.0149809 17.6736294,33.0917763 C17.6500001,33.2512743 17.6440928,33.4225871 17.6795368,33.5998071 C17.7563321,34.0133207 18.0162549,34.3500388 18.4120464,34.562703 C19.1918148,34.9762164 20.2787646,35.1534366 21.1176063,34.7340158 C21.4188804,35.0530118 21.9682627,35.3601934 22.9666024,35.3601934 L23.0256758,35.3601934 C23.2796912,35.3601934 26.5050967,35.1888806 27.4443631,34.9584945 C27.863784,34.8580697 28.1532434,34.6808497 28.3422781,34.5213516 C28.9448264,34.3323169 30.6106952,33.7652126 32.1820466,32.7491508 C33.2926257,32.0284558 33.6766025,31.874865 34.5036296,31.6740157 C35.3070273,31.4790735 35.8091508,30.7465639 35.7087262,29.9372589 C35.602394,29.0984172 34.8935137,28.5194983 33.9837841,28.531313 C32.6250967,28.5490349 31.4849809,29.2520079 30.728842,29.7186874 C30.4334751,29.9018149 30.1794597,30.0376836 29.9608882,30.1381084 C30.0081469,29.4528573 29.9667956,28.5549423 29.6123554,27.5684172 C29.1811199,26.3869499 28.602201,25.6603477 28.1886874,25.2409269 C28.6671816,24.5438611 29.3228959,23.5277993 29.6300775,21.956448 C29.8959076,20.6154827 29.8132048,18.5301931 29.2047492,17.3605406 C29.0806952,17.1242472 28.8739384,16.9529344 28.6140157,16.8820464 C28.5076836,16.8525097 28.3068341,16.7934364 27.9110426,16.9056758 C27.3144018,15.6710425 27.107645,15.5410811 26.9481469,15.4347491 C26.617336,15.222085 26.2274519,15.1748263 25.8611971,15.310695 Z M26.4873747,16.1849808 C26.7059461,16.3267568 27.4916218,18.0753283 27.4916218,18.0753283 C27.4916218,18.0753283 28.3304635,17.5850194 28.4249808,17.7681468 C28.9330117,18.7546719 28.9920852,20.6391121 28.7676064,21.7851353 C28.3895368,23.6754827 27.4443631,24.6915446 27.0662936,25.3295368 C26.9776835,25.4772202 28.0823554,25.9438998 28.779421,27.8755986 C29.4233207,29.6418921 28.8503091,31.1246335 28.9507338,31.2900388 C28.9684557,31.3195756 28.9743631,31.3313902 28.9743631,31.3313902 C28.9743631,31.3313902 29.7127802,31.3904636 31.1955215,30.4748265 C31.9871045,29.9845176 32.9263709,29.4351354 33.9955987,29.4233207 C35.0293825,29.4055986 35.0825486,30.6166025 34.3027802,30.8056373 C33.3576065,31.0301161 32.8791122,31.2368728 31.7094597,31.9989191 C29.8840929,33.1803863 27.8874133,33.7297686 27.8874133,33.7297686 C27.8874133,33.7297686 27.7220079,33.9778767 27.2435136,34.0901161 C26.4164867,34.2909655 23.3033206,34.4622782 23.0197685,34.4683124 C22.2577222,34.4740929 21.7910426,34.2732435 21.6610812,33.9601547 C21.2652897,33.0149809 22.2281854,32.6014674 22.2281854,32.6014674 C22.2281854,32.6014674 22.0155214,32.471506 21.8914673,32.3533593 C21.7792279,32.2411199 21.6610812,32.0166412 21.6256372,32.0993439 C21.4779538,32.4596913 21.4011584,33.3398844 21.0053669,33.7356759 C20.461892,34.2850582 19.4340155,34.1019308 18.8255599,33.7829346 C18.158031,33.4284945 18.8728186,32.5955601 18.8728186,32.5955601 L18.8488021,32.60752 C18.7636203,32.6456152 18.4679389,32.7409715 18.2230117,32.3710813 C17.9630889,31.9693825 17.7208881,31.2841314 17.7858688,30.4393825 C17.8567568,29.4764867 18.931892,28.5431276 18.931892,28.5431276 C18.931892,28.5431276 18.7428572,27.1194597 19.3631275,25.6603477 C19.9243244,24.3311971 21.4366024,23.2619693 21.4366024,23.2619693 C21.4366024,23.2619693 20.1665252,21.8560233 20.6391121,20.5918534 C20.9462936,19.7648264 21.0703476,19.7707337 21.1707723,19.7352897 C21.5252125,19.5994209 21.867838,19.4517376 22.1218534,19.1740928 C23.3919307,17.8035908 25.0105407,18.0635136 25.0105407,18.0635136 C25.0105407,18.0635136 25.7784944,15.7301159 26.4873747,16.1849808 Z"/>
  </defs>
  <use xlink:href="#yarn-a"/>
</svg>
