<?xml version="1.0" encoding="UTF-8"?>
<svg id="Ebene_1" xmlns="http://www.w3.org/2000/svg" viewBox="0 0 50 50">
  <path d="M34.65,25.55s-.08,0-.11-.06c-.03-.05-.03-.11,0-.12-.03.02-.03.07,0,.12.03.05.08.08.11.06Z"/>
  <path d="M14.85,28.46s-.02,0-.03.01c0,0,.02,0,.03,0,0,0,0,0,0,0Z"/>
  <path d="M18.43,28.01s0-.02.01-.03c0,.02-.01.03-.03.04,0,0,.01,0,.02-.01Z"/>
  <path d="M33.88,26.23s-.02.09,0,.11c0,0,0,0,0,0h0s-.03-.06,0-.11Z"/>
  <path d="M13.17,30.49s0,0,0,0c0,0-.02,0-.02,0,0,0,.01,0,.02,0Z"/>
  <path d="M30.38,28.38s.03.02.04.03c0,0,0-.02-.01-.03,0,0-.02,0-.03,0Z"/>
  <path d="M18.38,28.04s-.02,0-.03,0c.01,0,.02,0,.03,0Z"/>
  <path d="M15.56,31.7s0,0,0,0c0,0-.01,0-.02.01,0,0,.01,0,.02,0Z"/>
  <path d="M29.97,28.63s0,0,.01,0c-.01,0-.01-.01-.02-.02,0,0,0,.01,0,.02Z"/>
  <path d="M35.01,25.03s-.02-.03-.03-.05c0,.01-.01.03,0,.04,0,0,.02.01.03.02Z"/>
  <path d="M13.62,27.55s-.02.02-.02.03c0-.01.02-.02.03-.03,0,0,0,0,0,0Z"/>
  <path d="M16.86,27.28s.04-.01.06-.01c-.02,0-.04-.01-.05,0,0,0,0,0-.01.01Z"/>
  <path d="M17.31,28.08s.02,0,.03-.01c0,0-.02,0-.02,0,0,0,0,0,0,0Z"/>
  <path d="M26.07,26.11s0-.02,0-.02c0,0-.01,0,0,.01,0,0,0,0,0,.01Z"/>
  <path d="M29.9,30.31s0,0,0,0c0-.01.02,0,.03,0-.01,0-.03,0-.03,0Z"/>
  <path d="M8.32,18.19s-.01.02-.02.03c0,0,.02-.02.02-.03Z"/>
  <path d="M6.14,22.09s.02,0,.03.01c0,0-.01-.02-.02-.01,0,0,0,0,0,0Z"/>
  <path d="M42.03,25.18s-.02-.06-.05-.08c-.4-.19-.88-.38-1.44-.56-.06-.02-.1-.04-.14-.08l-.62-.59c-.26-.47-.39-.97-.39-1.5,0-.06.02-.14.07-.24.01-.03.02-.05.01-.08-.04-.24,0-.5.13-.76.23-.5.52-.98.86-1.43.03-.04.03-.08,0-.12-.19-.27-.35-.55-.49-.85-.1-.21-.28-.49-.54-.85-.27-.34-.53-.68-.79-1.03-.28-.37-.56-.7-.84-.99-.64-.66-1.14-1.14-1.49-1.45-.49-.43-1.1-.86-1.82-1.3-.58-.35-.94-.57-1.09-.66-.37-.21-.75-.4-1.14-.57-.49-.21-1.03-.42-1.6-.63-.62-.23-1.28-.4-1.96-.53-.23-.04-.43-.07-.6-.07.07.04.15.06.24.05.06,0,.06.02.02.07-.03.03-.12.04-.28.02l-1.93-.21c-.56,0-1.12,0-1.67-.06l-.6-.06s-.06,0-.08.01c-.06.03-.13.05-.19.06-.17-.02-.33,0-.5.02-.26.05-.42.08-.48.09-1.02.09-2.03.28-3.02.56-.77.1-1.36.23-1.76.39-.19.07-.27,0-.24-.21-.04,0-.07,0-.09.02.05.15.02.26-.1.32-.11.05-.27.1-.49.13.03.16.09.31.18.44.11.22.23.44.36.66.01.03.02.05,0,.08-.04.08-.11.09-.2.02-.14-.1-.23-.24-.28-.41-.01-.05-.05-.08-.1-.09-.13-.02-.15-.08-.08-.2.04-.05.04-.11.01-.16-.01-.02-.04-.03-.07-.02-.04.01-.08.02-.12.01-.03,0-.06-.02-.09-.06-.07-.09-.14-.18-.21-.27-.03-.04-.07-.06-.12-.05l-.43.09c-.16.03-.18-.02-.06-.15.06-.06.13-.11.21-.14.05-.02.07-.08.05-.12,0,0,0-.02-.01-.02-.72-.9-1.53-1.7-2.43-2.4l-.24-.02c-.29-.04-.57-.11-.84-.21-.18-.01-.36-.04-.53-.09-.02,0-.05,0-.08,0-.08.04-.21.04-.38.01-.09-.01-.18,0-.27.02-.25.09-.52.2-.8.33-.21.1-.38.21-.52.35-.17.16-.3.31-.41.48-.22.32-.48.77-.79,1.34-.15.27-.3.69-.45,1.27-.03.12-.09.5-.18,1.14,0,.08-.02.15-.08.19,0,.14-.02.28-.04.41.01.16-.05.21-.18.15-.02,0-.04,0-.05,0,0,0,0,0,0,.01,0,.05.04.08.14.09.05,0,.09.05.09.1.01.36.03.7.06,1.03.02.28.08.58.17.9.15.54.23.84.23.89,0,.21.08.42.24.64.12.17.21.41.26.7.11.24.21.49.28.75.13.17.21.35.26.56,0,.03,0,.05-.03.06h0c-.06.01-.1-.02-.11-.12-.01-.1-.05-.18-.12-.24-.12-.1-.18-.15-.19-.16-.2-.27-.36-.56-.46-.89-.02-.05-.04-.1-.08-.13-.13.32-.31.61-.52.88-.04.2-.11.39-.23.56l-.11.21c-.04.16-.1.31-.18.45-.09.16-.15.29-.19.4-.11.34-.24.66-.41.97-.23.55-.39,1.13-.49,1.72,0,.02-.01.03-.02.04-.01,0-.03,0-.03-.02,0,0,0,0,0-.01-.01-.15,0-.29.04-.43.15-.51.23-.78.23-.8,0-.19.07-.36.17-.51.18-.53.32-.86.4-.98.09-.14.13-.27.12-.39,0-.03,0-.05.02-.08l.19-.27c-.02-.13,0-.25.08-.35.05-.22.17-.38.36-.49l-.02-.19s0-.05.03-.07c.12-.12.18-.26.2-.42-.08.03-.14.09-.17.17-.04.09-.1.14-.19.15-.03,0-.04.02-.05.05-.03.25-.12.48-.28.67-.1.12-.17.23-.21.31-.05.12-.1.23-.15.35-.18.31-.32.63-.43.97-.28.64-.54,1.29-.77,1.96-.15.42-.23.8-.26,1.12-.06.14-.1.28-.14.43-.01.04-.02.13-.03.28,0,.07-.02.17-.04.28-.11.56-.18,1.29-.23,2.2,0,.05,0,.11.03.2.01.07.02.13,0,.2-.04.26-.03.51.03.77.01.06.01.11,0,.14-.01.05-.03.09-.06.14-.01.02-.02.05,0,.07.07.12.1.25.1.39,0,.23,0,.35,0,.38.05.31.1.61.16.91-.02.23.02.45.11.66.08.18.13.38.15.58.2.74.36,1.21.46,1.43.12.25.18.47.18.66,0,.03,0,.06.02.08.08.12.16.25.23.37.1.12.14.26.12.42,0,.03,0,.06.02.08l.16.15s.04.05.05.06l.46.92s.05.07.09.11c.18.15.29.31.33.48.05.19.18.41.41.65.17.19.31.4.43.62.06.08.13.15.21.21.1.07.17.14.21.2.05.08.1.15.15.23.05.08.11.14.18.2.23.18.44.39.62.63.21.16.41.33.61.51.06-.01.1-.04.1-.09,0-.03,0-.07-.04-.11-.21-.25-.45-.47-.72-.65-.08-.05-.09-.08-.03-.09.02,0,.05,0,.08.02.29.18.49.32.62.44.11.1.22.18.32.24.13.08.2.11.2.11,1.62,1.05,3.44,1.98,5.46,2.78.35.14.62.22.81.24.17.02.5.09.99.22.7.18,1.41.26,2.13.24.19.06.4.09.63.08.2,0,.4.02.62.09.66.01,1.32.03,1.98.06.33-.03.67-.04,1-.05.42,0,.75-.02,1-.05.66-.08,1.31-.2,1.96-.35.67-.19,1.34-.36,2.02-.52.01-.27.08-.53.19-.77.03-.22.1-.41.21-.6.04-.07.1-.12.17-.15.23-.09.28,0,.16.28,0,.02-.03.04-.06.05-.08.03-.1.09-.07.18.04.12,0,.21-.09.28-.02.02-.03.04-.02.06.06.19,0,.35-.15.49.28.03.52-.07.74-.31.09-.1.22-.18.4-.23.17-.05.25-.08.25-.08.42-.16.81-.38,1.17-.65.64-.41,1.26-.86,1.84-1.36.31-.19.59-.41.86-.65.02-.01.04-.03.07-.03.05,0,.09-.04.13-.08.16-.18.36-.36.6-.53,0,0,.03-.02.09-.05.04-.02.07-.05.09-.09.01-.03.03-.05.05-.07.27-.26.55-.52.82-.78.83-.73,1.54-1.57,2.14-2.5.05-.08.21-.28.49-.6.03-.04.08-.12.16-.26.03-.06.08-.12.13-.17.06-.06.11-.11.13-.16.23-.4.41-.83.55-1.27,0-.03.03-.05.05-.05.08-.02.11.03.07.14-.22.63-.41,1.07-.56,1.31-.12.19-.2.36-.26.51-.08.21-.14.35-.18.42-.45.76-.93,1.5-1.45,2.22,0,0-.02.03-.06.07-.07.08-.04.13.08.17.15-.15.27-.31.37-.49.04-.07.1-.14.17-.22s.13-.16.15-.25c.03-.14.11-.25.21-.34.17-.14.28-.32.34-.53.05-.18.15-.33.3-.45.06-.05.11-.15.14-.3,0-.02.02-.05.05-.06.03-.02.05-.05.05-.08.05-.34.24-.54.58-.57.08,0,.09-.03.03-.05-.02,0-.04,0-.06,0-.09.03-.15.02-.2-.04-.02-.02-.02-.05,0-.07.18-.3.27-.5.28-.61.01-.26.13-.41.36-.46.03,0,.03-.02,0-.03-.11-.08-.14-.18-.08-.32.09-.11.16-.23.21-.36.02-.06.05-.18.09-.38.02-.11.05-.24.09-.38.16-.57.31-1.21.43-1.92.02-.11.05-.33.08-.64.02-.22.06-.43.1-.64-.02-.22-.02-.44-.01-.66.02-.4.04-.62.04-.66,0-.69-.03-1.38-.11-2.06ZM36.47,16.35c.12-.2.29-.31.52-.32.03,0,.05,0,.08.02.42.34.62.76.6,1.27,0,.26-.07.45-.2.59-.12.13-.28.19-.48.17-.15-.02-.29-.09-.41-.22-.41-.43-.45-.93-.11-1.51ZM28.45,12.69c.12-.19.24-.23.36-.14.06.05.11.14.14.26.18.8.27,1.21.27,1.22-.02.14,0,.26.08.37.02.02.02.05.01.07-.05.11-.14.17-.27.16-.03,0-.05-.02-.06-.04-.09-.22-.15-.44-.17-.67-.16-.36-.28-.72-.38-1.09-.01-.05,0-.11.02-.15ZM25.72,13.82s0,0,.01,0h.03s.03.02.05.01c.05-.02.1-.02.14,0,.02.01.03.04.03.07-.02.14.01.25.09.35.12.15.17.23.18.24.05.12.1.27.13.45.01.05.03.1.07.14.12.15.19.31.21.49,0,.08-.03.11-.1.06-.07-.04-.12-.09-.15-.16-.05-.11-.08-.18-.09-.18-.07-.11-.14-.23-.19-.35-.23-.33-.37-.7-.41-1.1,0-.02,0-.04.02-.04ZM23.97,16.18c.01.09-.01.11-.09.05-.37-.28-.72-.58-1.03-.92-.02-.02-.03-.05-.03-.07-.02-.15-.1-.28-.24-.37-.04-.03-.05-.09-.02-.13,0,0,.01-.02.02-.02.27-.21.48-.15.65.17.04.07.09.13.16.18.05.03.07.09.04.16-.03.08,0,.17.06.23.28.25.44.5.48.73ZM22.57,11.61s0,0,0,0c.16-.06.3-.02.43.11.18.19.33.4.44.64,0,.02.03.04.05.06.06.06.11.14.13.26.04.16.1.31.19.45.02.03.01.08-.02.1,0,0-.02,0-.03.01-.15.03-.26-.01-.34-.12-.1-.14-.15-.21-.16-.22-.32-.34-.58-.73-.76-1.17-.02-.05,0-.1.05-.12ZM17.75,18.01c.07.13.16.23.28.31.15.1.22.15.22.15.21.17.42.34.63.51.06.03.1.08.14.15.02.04,0,.09-.04.1-.01,0-.02,0-.04,0-.38-.02-.68-.18-.88-.5-.01-.02-.04-.04-.06-.05-.22-.07-.38-.21-.49-.41-.01-.02-.03-.04-.06-.05-.06-.02-.11-.05-.15-.08-.02-.02-.03-.05-.02-.07.08-.34.23-.36.47-.07ZM18.11,35.29l-.03-.05s-.02-.05-.02-.07c.04-.17.1-.32.18-.47.11-.29.31-.43.62-.41.08,0,.09.04.03.09-.16.15-.27.34-.32.56,0,.04-.05.08-.13.14-.02.02-.04.04-.04.07-.06.26-.18.48-.36.66-.02.02-.05.03-.07.02-.11-.04-.14-.12-.09-.25.04-.12.11-.2.22-.23.02,0,.03-.02.03-.04,0,0,0,0,0,0ZM16.5,21.8c.01-.05.02-.13.01-.23,0-.1.03-.18.1-.23.19-.14.39-.26.59-.35.08-.04.17-.04.26-.01.26.08.39.2.37.37,0,.04.01.08.05.1.13.08.19.19.16.3-.02.08,0,.24.06.47.05.2.02.38-.09.55-.12.2-.28.37-.48.49-.02.01-.05.02-.08.01l-.55-.13s-.05-.02-.07-.04c-.33-.38-.43-.82-.32-1.31ZM12.04,19.38c-.13-.08-.23-.17-.32-.29-.15.15-.34.23-.56.21-.02.05-.02.1,0,.15.01.05.02.09,0,.12-.02.12-.07.13-.14.03-.03-.04-.05-.07-.05-.07-.35-.46-.61-.97-.78-1.52,0,0-.03-.07-.08-.18-.03-.07-.04-.14-.02-.22,0-.03,0-.05,0-.08l-.21-.8s0-.03.02-.04c0,0,0,0,.01,0h.12s.04,0,.04-.02c0,0,0,0,0,0-.02-.1-.08-.15-.18-.17-.03,0-.05-.02-.06-.04-.07-.14-.1-.28-.1-.43,0-.02,0-.05-.03-.07-.04-.05-.04-.1,0-.15.02-.03.05-.05.09-.06.24-.09.24-.03.01.18-.03.03-.03.08,0,.11,0,0,0,0,0,0,.06.05.1.12.11.19,0,.03.02.06.04.07.05.05.1.08.15.09.07.02.11.09.09.15,0,0,0,0,0,0-.1.31-.11.59-.05.83.03.12.06.2.08.23.05.07.14.09.27.06,0-.09-.03-.18-.05-.26-.03-.1-.05-.18-.06-.26-.02-.41-.08-.82-.18-1.22-.02-.09-.04-.25-.05-.47-.05.01-.09.02-.14.02-.21,0-.27-.07-.17-.24.01-.02.04-.03.06-.02.07.02.12,0,.15-.06.04-.1,0-.14-.13-.12-.03,0-.06,0-.08-.02-.09-.07-.14-.16-.16-.26-.02-.08,0-.17.06-.26.05-.08.1-.16.15-.24.01-.02.04-.04.06-.05.07-.03.09-.08.08-.16,0-.03-.02-.05-.05-.06-.1-.05-.13,0-.11.14,0,.03,0,.05-.03.06-.13.05-.18,0-.14-.15,0-.03,0-.06,0-.08-.03-.12-.02-.21.04-.27.07-.07.1-.15.1-.25-.01-.34.08-.62.26-.83.03-.04.06-.08.09-.13.15-.34.35-.57.59-.68.05-.02.1-.06.14-.11.35-.44.79-.69,1.33-.74.11-.01.21,0,.3.02.09.03.19.07.28.12.03.02.06.03.1.04.21.06.36.14.44.22.02.02.04.04.07.05.05.02.1.04.14.06.04.02.08.06.11.1.06.08.12.16.19.24.03.04.1.1.2.18.06.05.13.11.2.19.63.72,1.19,1.49,1.69,2.31.12.19.09.35-.07.47-.02.01-.05.01-.06,0,0,0,0,0,0,0-.02-.03-.02-.07,0-.12.1-.2.02-.31-.22-.32-.02,0-.04-.02-.04-.05h0c.01-.31-.09-.56-.31-.74-.02-.02-.04-.04-.05-.07-.07-.2-.13-.33-.2-.39-.15-.12-.26-.27-.32-.45-.09-.13-.25-.26-.47-.4-.02-.02-.05-.03-.07-.05-.12-.09-.19-.1-.21-.03,0,.02,0,.05.02.07.08.08.18.12.29.12.11,0,.11.03.02.08-.09.05-.13.12-.13.22l.95,1.07.64.94s.02.05,0,.08c-.09.16-.2.28-.35.37-.02.01-.05,0-.06-.01,0,0,0,0,0,0l-.06-.13c-.15.06-.21.18-.18.36.02.02.03.04.02.07.06-.13.13-.18.21-.14.04.02.09.07.14.14.15.24.22.49.21.75,0,.04-.03.07-.07.07-.01,0-.02,0-.03-.01-.29-.18-.46-.41-.52-.7l-.39.36s-.09.03-.13,0c0,0-.02-.02-.02-.03l-.14-.39s-.03-.04-.05-.04c-.18,0-.23.1-.15.28.07.17.11.34.11.52,0,.03,0,.06-.02.08-.17.24-.38.45-.62.63-.02.02-.05.02-.07,0-.02-.03-.03-.08-.03-.14,0-.04-.03-.08-.07-.08,0,0-.02,0-.02,0-.31.08-.33.22-.06.42.06-.04.11-.05.17-.05.03,0,.05.02.07.04.17.17.28.38.33.61,0,.02,0,.05-.03.05,0,0,0,0-.01,0-.22-.02-.36-.1-.43-.24-.06-.12-.12-.19-.2-.21l-.62.58c0,.1.04.19.12.27.12.12.18.27.2.43,0,.03,0,.06-.02.08-.14.2-.28.17-.42-.07-.07-.13-.14-.27-.21-.41-.05.26-.21.39-.47.41,0,.2.08.35.24.45.04.03.07.05.08.08.03.06.01.1-.06.11-.03,0-.06,0-.1-.02ZM14.96,16.8s0,.08-.04.1c0,0,0,0,0,0-.19.07-.34.01-.45-.16-.03-.05-.06-.15-.08-.31-.03-.19.04-.28.21-.29.03,0,.05.01.06.04l.3.62ZM14.08,35.56c-.1.13-.19.27-.26.42-.09.16-.17.3-.26.41-.18.22-.35.45-.51.69-.04.04-.07.04-.09,0-.01-.02,0-.05,0-.08.24-.52.58-1.02,1.02-1.51.02-.02.05-.03.08-.03.06,0,.07.04.03.11ZM15.38,39.79c-.12.32-.29.6-.5.83-.03.03-.06.12-.11.25-.03.06-.1.17-.21.31-.18.23-.26.18-.24-.13.21-.38.34-.64.4-.8.1-.27.27-.47.52-.59.16-.08.2-.03.14.13ZM16.89,31.76c-.41.12-.84.18-1.28.18-.03,0-.05,0-.08.02-.14.07-.29.1-.45.07-.35.02-.7-.03-1.03-.16-.23-.09-.47-.23-.71-.42-.17-.13-.36-.33-.56-.58-.32-.41-.49-.62-.49-.64-.05-.16-.07-.32-.04-.49,0-.03,0-.06,0-.08-.06-.16-.09-.32-.09-.49,0-.09.01-.22.04-.39.09-.64.31-1.24.64-1.79.1-.16.34-.37.73-.64.15-.21.35-.35.6-.43.28-.08.56-.14.84-.17.39-.04.67-.06.85-.06.4,0,.8.09,1.21.27.12.05.21.12.26.2.02.03.04.05.06.06.25.17.47.36.68.57.11.12.1.18-.05.19-.03,0-.05.02-.06.04-.02.09,0,.16.08.22.02.02.04.04.06.05.07.08.09.06.07-.06,0-.03,0-.06.01-.08.04-.07.09-.09.15-.03.03.02.05.06.08.11.19.36.32.74.4,1.14,0,.03,0,.05-.02.08-.08.13-.08.25,0,.37.02.02.03.05.02.08-.02.36-.12.69-.3.99-.01.02-.02.05-.02.08,0,.22-.06.41-.19.58-.1.14-.2.28-.29.42-.04.06-.24.23-.61.5-.18.13-.36.23-.54.28ZM18.52,42.18c-.1.12-.17.21-.19.27-.08.17-.15.34-.22.52-.03.08-.07.13-.12.15-.06.03-.13.02-.22-.01-.04-.02-.06-.07-.05-.11.18-.45.43-.87.73-1.25.03-.04.06-.06.09-.07.07-.02.1,0,.11.09.02.16-.02.3-.13.43ZM19.57,38.3c-.05.16-.14.3-.25.41-.16.17-.29.36-.38.57,0,.02-.01.05,0,.08.03.12-.04.22-.21.31-.11.06-.17.02-.19-.1-.01-.1.01-.23.09-.39.21-.48.36-.76.44-.85.12-.12.25-.18.39-.18.06,0,.1.05.1.11,0,.01,0,.02,0,.03ZM20.38,14.07c-.15-.08-.28-.17-.41-.28-.14-.12-.34-.4-.6-.83-.02-.03-.02-.06-.01-.08l.13-.27s.04-.04.07-.02c0,0,.01,0,.02.01.17.16.32.35.45.54.06.09.15.21.28.38.1.13.18.26.24.41.08.19.03.23-.17.13ZM20.6,17.05s0-.06,0-.08l.19-.19s.08-.02.11.01c0,0,0,0,0,0,.24.33.48.63.74.9.1.08.19.17.28.27.07.07.1.14.1.2,0,.09-.07.14-.19.16-.03,0-.05,0-.08-.02-.25-.15-.51-.4-.81-.72-.18-.2-.3-.38-.36-.54ZM22.54,41.25c-.04.06-.06.15-.07.27-.02.1-.08.18-.16.24-.02.02-.04.04-.05.06-.16.33-.37.63-.63.88,0,0-.03.04-.08.1-.04.05-.09.07-.16.04-.06-.03-.09-.11-.06-.17,0,0,0,0,0-.01l.66-.98c.07-.07.12-.16.15-.26.04-.14.12-.25.23-.33.02-.02.05-.03.08-.03.12,0,.14.07.06.19ZM22.54,33.77c-.31.5-.48.8-.52.92-.05.21-.17.39-.34.51-.04.03-.08.05-.12.05-.1,0-.11-.05-.05-.17.1-.11.18-.24.22-.39.1-.33.22-.64.37-.95.02-.1.09-.13.2-.1.06.02.13.02.19,0,.11-.04.13,0,.05.14ZM24.08,37.17c-.16.3-.3.61-.43.91-.17.42-.42.76-.74,1.02-.09.07-.13.05-.1-.06.03-.17.11-.28.22-.32.02,0,.03-.03.03-.05,0,0,0,0,0,0l-.05-.13s-.01-.05,0-.08c.18-.44.41-.85.67-1.25.05-.07.1-.12.16-.12.07,0,.14,0,.22.03.02,0,.03.03.02.05,0,0,0,0,0,0ZM25.55,41.78c-.22.36-.44.71-.68,1.06-.05.08-.09.07-.12-.01-.04-.12-.03-.24.05-.36.13-.31.31-.6.51-.86.11-.07.22-.08.34-.04,0,.04-.04.11-.1.22ZM27.11,38.11s-.07.18-.14.4c-.05.14-.11.27-.19.39-.09.14-.16.23-.19.27-.08.08-.18.14-.3.17-.1.02-.13,0-.07-.1.02-.03.05-.06.1-.09.02-.01.04-.04.04-.06.05-.28.15-.54.3-.78.05-.16.11-.32.2-.46.05-.17.16-.29.31-.38.12-.06.16-.03.13.1-.05.17-.11.35-.19.54ZM29.62,39.65c-.11.22-.24.42-.39.62-.06.08-.13.21-.21.38-.08.18-.2.33-.36.46-.02.02-.05.02-.07,0-.07-.06-.08-.14-.05-.23l.67-1.4s.06-.09.11-.1c.34-.09.44,0,.3.27ZM30.94,36.29c-.07.12-.13.3-.16.53l-.08.3s-.03.05-.05.05l-.29.05s-.05,0-.07-.03c-.06-.09-.07-.19-.03-.3.03-.06.08-.09.15-.09.01,0,.02-.01.02-.03,0,0,0,0,0,0-.04-.09-.03-.19.04-.3.1-.16.17-.32.2-.5.03-.08.1-.13.19-.14h.02s.12.06.12.06c.03.01.04.03.04.05,0,.11-.04.23-.12.36ZM32.86,37.96l-.06.19c-.03.14-.07.27-.12.41-.04.12-.08.26-.1.4-.05.31-.16.61-.33.89-.09.14-.17.14-.22-.02-.06-.17-.04-.38.05-.63.06-.16.11-.33.16-.5.08-.22.12-.37.13-.45.03-.2.17-.32.42-.36.03,0,.07.02.07.05,0,.01,0,.02,0,.03ZM34.62,34.24s-.02-.04.02-.04c.12,0,.22-.03.32-.08.06-.03.1-.05.12-.06.09-.02.12.02.09.12-.01.04-.03.08-.06.11-.14.17-.3.15-.48-.05ZM35.66,36.44c-.05.34-.13.68-.24,1.04-.05.16-.13.14-.24-.03-.04-.06-.05-.13-.04-.2.02-.08.04-.19.06-.34-.03-.22,0-.44.07-.65,0-.01,0-.03.01-.05,0-.03.02-.04.04-.03.02,0,.03.03.03.05,0,.12.08.17.25.15.03,0,.06.02.06.05,0,0,0,.01,0,.02ZM35.75,35.92c-.02.13-.1.22-.23.28-.03.01-.07,0-.09-.04,0,0,0,0,0,0-.11-.29-.09-.39.04-.3.03.02.05.03.08.03h.16s.04,0,.04.02c0,0,0,0,0,0ZM39.31,26.36c-.02.29-.06.56-.11.82-.08.35-.17.72-.29,1.1-.12.39-.26.74-.42,1.06-.17.32-.38.7-.64,1.13-.34.57-.72,1.07-1.12,1.49-.32.33-.63.62-.95.86-.31.24-.66.47-1.08.71-.89.5-1.74.83-2.57.99-.67.13-1.1.22-1.29.27-.03,0-.06,0-.08,0-.08-.03-.16-.05-.25-.05-.16,0-.26,0-.29,0-.16-.02-.33-.05-.49-.08-.42.03-.83,0-1.23-.09-.2.02-.39,0-.58-.06-.4-.13-.8-.26-1.19-.41-.25-.09-.45-.18-.63-.27-.2-.11-.4-.22-.59-.35-.28-.13-.54-.31-.77-.51-.03-.03-.09-.07-.18-.12-.06-.04-.12-.08-.16-.15-.45-.41-.87-.85-1.25-1.32-.01-.01-.07-.07-.18-.16-.08-.07-.1-.15-.08-.26,0-.03,0-.06,0-.08-.1-.2-.27-.39-.52-.58-.08-.06-.06-.09.07-.07.08.03.16.05.24.07.03,0,.03,0,.01-.02-.2-.23-.4-.46-.61-.68-.05-.09-.05-.17,0-.24,0,0,0-.02,0-.02-.02-.13,0-.2.06-.21.05-.07,0-.1-.14-.1-.06,0-.11-.03-.14-.07-.04-.05-.11-.09-.21-.1l-.07-.09s0-.04.02-.06l.14-.15s.04-.04.06-.05c.08-.03.13-.08.15-.16,0-.03,0-.05-.03-.06-.08-.03-.13,0-.14.1,0,.06-.03.09-.07.08-.02,0-.04-.03-.06-.06-.03-.06-.07-.12-.12-.17,0,0-.03-.02-.09-.07-.05-.03-.05-.08-.03-.15.07-.06.08-.14.04-.22-.09-.19-.14-.39-.15-.6,0-.1-.05-.18-.15-.22-.06-.03-.08-.09-.06-.15,0,0,0,0,0,0,.08-.17.08-.34,0-.52-.06-.12-.06-.23,0-.33.04-.07.06-.12.06-.15,0-.04,0-.08-.03-.12-.01-.03-.02-.06-.02-.08l.04-.19s0-.06,0-.08c-.05-.16-.02-.3.09-.43.02-.02.03-.05.02-.07-.02-.09-.05-.18-.09-.26-.02-.09,0-.12.07-.1.03,0,.05.02.07.05.06.08.11.15.16.23.02.02.04.04.07.04h.14c.01.16,0,.32-.05.47,0,.02-.03.05-.05.06-.07.05-.07.09,0,.14.03.02.04.04.05.06l.06.65s-.01.05-.05.02c-.11-.07-.21-.09-.3-.05-.1.04-.09.06.01.06.25,0,.37.11.36.32-.01.17-.02.25-.02.26.01.13.04.26.09.39.07.16.11.39.13.68,0,.03,0,.06.02.09.5,1.76,1.4,3.22,2.69,4.38.68.61,1.45,1.08,2.3,1.4.25.09.49.2.73.31.29.05.58.13.85.25.02.01.05.01.08.01.13-.01.31,0,.53.03.49.08,1.03.07,1.63-.04.03,0,.05,0,.08,0,.07.02.15.02.21,0,.12-.03.18-.05.19-.05,1.74-.26,3.24-.96,4.5-2.11,1.89-1.71,2.88-3.86,2.98-6.47,0-.05.01-.15.04-.3.01-.09.01-.19,0-.3-.03-.13-.04-.27-.05-.4,0-.04,0-.08-.02-.12-.04-.2-.05-.35-.01-.44.01-.03.02-.06.01-.08-.17-.85-.42-1.67-.76-2.46-.14-.19-.26-.4-.35-.63,0-.03,0-.05.02-.06l.32-.15s.05-.03.06-.05c.03-.06,0-.09-.11-.07-.1.02-.2.05-.3.11-.06.03-.13.03-.15-.01-.51-.84-1.13-1.57-1.88-2.2-.34-.28-.6-.49-.8-.62-.28-.19-.58-.35-.89-.48-.04.05-.09.06-.16.02-.27-.06-.53-.14-.79-.24-.76-.1-1.53-.15-2.29-.15-.05-.02-.11-.04-.16-.07-.02-.01-.05-.01-.08,0-.29.08-.58.13-.88.14-.5.12-1,.23-1.5.34-1.23.43-2.34,1.07-3.33,1.91-.26.17-.49.38-.68.63-.2.32-.42.64-.65.94-.17.34-.36.67-.58.98-.21.51-.42,1.02-.64,1.53,0,.02-.02.04-.04.05-.04.03-.06,0-.06-.06-.15.38-.25.76-.32,1.16-.1,0-.16-.06-.16-.16,0-.2.03-.43.13-.68.01-.03,0-.06-.01-.08-.02-.01-.04-.02-.06-.02-.03,0-.05.02-.06.05l-.13.52s-.02.06-.03.08c-.06.06-.09.02-.08-.12-.03-.19-.02-.37.04-.55.07-.22.12-.44.14-.67.06-.12.14-.22.26-.28.08-.05.06-.08-.06-.09-.03,0-.06-.03-.05-.06,0,0,0-.01,0-.01.19-.53.44-1.04.74-1.52,0-.02.03-.02.05-.01,0,0,0,0,0,0,.09.11.18.17.26.19.12.03.13,0,.04-.11-.18-.21-.2-.4-.07-.6.12-.17.18-.25.18-.26.26-.45.58-.85.97-1.21.03-.02.06-.02.09,0,.08.08.15.08.2.02.11-.13.14-.21.09-.26-.05-.05-.06-.09,0-.14.03-.03.05-.04.05-.04.17-.17.31-.3.44-.37.06-.03.1-.02.13.04.01.03.04.04.06.04.08,0,.12-.05.14-.12,0-.02,0-.05-.02-.08-.03-.05,0-.09.05-.13.96-.68,2-1.16,3.11-1.45.11-.03.33-.06.65-.09.24-.02.47-.08.71-.16.04-.01.05,0,.04.03l-.09.29s-.03.04-.06.04c-.11.01-.26.05-.45.13-.13.05-.31.07-.54.06-.28.09-.57.16-.85.23-.02,0-.04.02-.06.05-.04.05-.1.08-.19.1-.19.03-.39.13-.58.3-.02.02-.05.03-.07.02-.19-.01-.35.02-.48.11-.04.03-.1.04-.15.03-.2-.03-.31.04-.31.21,0,.14-.07.26-.21.38-.02.02-.05.02-.08.02-.21-.02-.3.09-.27.31.16-.1.33-.18.51-.26.21-.2.44-.37.7-.51.57-.21,1.14-.44,1.7-.69.22-.02.44-.07.66-.13.83-.25,1.65-.33,2.45-.22.43.06.78.09,1.05.08-.31-.12-.62-.19-.92-.19-.1,0-.19-.01-.28-.03-.15-.03-.24-.05-.27-.05-.23-.02-.45,0-.68.06-.19.05-.25-.03-.19-.23.04-.14.14-.19.28-.16.18.04.35.06.53.07.29.01.57.06.83.15.08.03.16.04.23.03.05,0,.1-.02.15-.03.05-.01.1-.02.15-.01.3.03.6.09.89.18.27.08.56.17.86.28.38.13.74.31,1.08.52.14.06.25.14.35.26.02.02.04.04.07.05.18.07.36.17.54.31.83.62,1.53,1.35,2.09,2.18.2.29.39.66.59,1.1.17.38.33.76.49,1.15.07.17.11.34.14.51-.08.14-.13.15-.18.02-.01-.04-.03-.07-.04-.09-.06-.07-.1-.05-.12.06,0,.02,0,.05.02.08.09.11.09.21,0,.31-.02.02-.03.05-.02.07.02.08.06.1.11.04.01-.01.03-.04.05-.09.04-.08.09-.09.13-.01.01.02.01.05,0,.08-.02.07,0,.13.04.17.03.02.04.04.05.07.2.59.28,1.18.23,1.79-.04.53-.07.79-.07.8ZM29.92,25.89c-.13-.24-.19-.5-.19-.77,0-.02,0-.05-.02-.08-.04-.09-.02-.17.04-.24.03-.03.05-.06.05-.1l-.09-.07s-.04-.04-.05-.06c-.03-.14-.05-.27-.05-.41,0-.17-.01-.31-.03-.41-.08-.36-.13-.72-.17-1.09,0-.02-.02-.04-.05-.05-.35-.03-.56-.04-.62-.02-.11.04-.23.05-.34.03-.22-.04-.32-.05-.33-.05-.25-.02-.49-.08-.72-.18-.16-.07-.29-.17-.39-.29-.08-.1-.12-.23-.11-.37.03-.4.19-.72.5-.95.69-.53,1.5-.86,2.43-1,.2-.03.4-.03.58.01.19.04.38.1.57.17.31.12.51.22.6.3.19.17.26.41.21.72-.07.38-.24.66-.52.86-.39.28-.68.44-.87.48-.28.07-.55.14-.82.22-.03,0-.03.02,0,.03.16.06.24.14.25.25.17.64.26,1.28.29,1.94v.38c.1.11.13.23.09.37,0,.13.05.25.13.34.11.02.19,0,.27-.04.11-.08.17-.13.18-.13.36-.18.74-.33,1.12-.47.31-.18.62-.31.92-.41.06-.02.11-.05.16-.09.46-.38.94-.63,1.45-.74.06-.01.12,0,.18.04.02.01.05.02.08.02.28-.04.5.08.67.35.13.21.22.36.25.44.08.19.07.38-.03.55,0,.02-.03.02-.06.01-.04-.01-.08,0-.12.03-.06.04-.05.06.02.05.07,0,.11,0,.14.04.02.03.02.07,0,.12-.09.25-.17.5-.24.76-.23.38-.5.74-.81,1.06-.06.1-.13.18-.23.25-.11.08-.19.14-.23.2-.06.08-.13.17-.19.25.16-.02.29-.09.38-.19.07-.07.11-.08.14-.02,0,.02,0,.05-.02.07-.5.38-1.04.71-1.61.98-.06.03-.24.1-.52.21-.18.07-.35.15-.51.24-.12.07-.15.02-.09-.15.01-.04.06-.08.12-.13l.27-.19-.25.06c-.24.06-.36.09-.39.09-.18-.02-.35,0-.51.07-.14.05-.25.09-.35.1-.24.03-.48.08-.71.15-.03,0-.05.03-.04.05,0,0,0,0,0,0,0,.02.04.02.08.02.13-.02.18.03.16.15,0,.02-.02.05-.05.07-.07.05-.09.12-.08.2,0,.03.03.05.05.05.05,0,.08-.03.09-.1.01-.07.04-.09.07-.07.02.01.03.04.04.07.1.48.12.97.05,1.46.07.45.01.88-.17,1.28-.01.03-.04.07-.1.13-.04.04-.06.09-.07.15-.02.13-.09.24-.18.3-.04.03-.14.07-.3.14-.49.19-.96.15-1.42-.12-.15-.09-.25-.22-.32-.41-.17-.45-.27-.92-.3-1.43-.03-.5-.04-.97-.03-1.38,0-.03.01-.05.03-.07.1-.11.13-.23.09-.37,0-.02-.03-.04-.05-.04-.5-.04-1-.13-1.48-.25-.14-.04-.17-.13-.08-.27.02-.04.02-.06-.03-.05-.02,0-.04.02-.05.04,0,.02-.02.03-.04.04-.02.01-.05.01-.08,0-.2-.11-.38-.24-.55-.4-.09-.04-.14-.1-.16-.2-.01-.01-.02-.03-.02-.04-.13-.16-.22-.35-.26-.55-.04-.18-.05-.33-.05-.45,0-.16.04-.31.13-.44.09-.13.17-.27.23-.41.05-.1.11-.18.19-.25.04-.03.12-.1.25-.19.17-.13.37-.21.59-.23l.43-.02c.16-.06.31-.04.44.05.03.02.05.03.08.03.29.03.58.07.86.12.08.01.19.01.33,0,.16-.02.33,0,.48.08h.04c.16-.07.34-.1.52-.07.02,0,.29-.02.79-.07.02,0,.03-.02.03-.03,0,0,0,0,0-.01ZM31.43,29.44c-.09.1-.21.14-.35.12-.3.07-.61.1-.92.1-.03,0-.05-.01-.07-.03-.08-.12-.04-.2.13-.24.21-.01.41-.04.62-.09.09-.02.19-.03.27-.02.09.01.18.03.28.04.09.01.1.05.04.12Z"/>
  <path d="M6.09,22.21s-.02-.02-.03-.03c0,0,0,.02.02.03,0,0,0,0,0,0Z"/>
  <path d="M17.22,27.11s-.01-.01-.02-.02c0,0,0,.02.01.02,0,0,0,0,0,0Z"/>
  <path d="M36.54,40.03s.01.01.02.02c0,0,0-.02-.02-.02,0,0,0,0,0,0Z"/>
  <path d="M14.89,28.17s.01.02.02.03c0-.01,0-.02,0-.03,0,0,0,0,0,0Z"/>
  <path d="M29.96,30.38s-.02,0-.03-.01c.01,0,.02.02.03.01,0,0,0,0,0,0Z"/>
  <path d="M30.99,20.66s0,.02,0,.03c0-.01.01-.02,0-.03,0,0,0,0,0,0Z"/>
  <path d="M33.69,25.94s0,0,0,.02c0,0,0,0,0-.01,0,0,0,0,0,0Z"/>
  <path d="M31.41,26.18s0,0,0,0c.01,0,.02,0,.03.01,0,0-.01-.01-.02-.01Z"/>
  <path d="M30.11,20.61s0,0-.01-.02c0,0,0,.01,0,.01,0,0,0,0,0,0Z"/>
  <path d="M29.11,26.29s-.02-.04-.02-.06c0,.01-.01.03,0,.04,0,0,.02.01.02.02Z"/>
  <path d="M29.38,26.09s0,0-.01,0c.02,0,.02.02.03.03,0,0,0-.02-.02-.03Z"/>
  <path d="M32.28,26.11s.01-.01.02-.02c0,0-.02,0-.02.01,0,0,0,0,0,0Z"/>
  <path d="M27.57,31.17s0,.02,0,.03c0-.01,0-.02,0-.03,0,0,0,0,0,0Z"/>
  <path d="M28.1,28.42s0,.02,0,.04c0-.01.01-.02,0-.03,0,0,0,0,0,0Z"/>
  <path d="M32.52,25.97s-.08.05-.1.04h0s.06,0,.1-.04Z"/>
  <path d="M29.47,29.21s0,0,0,0c.01,0,.02,0,.03.01,0,0-.01-.01-.03-.01Z"/>
  <path d="M25.22,28.07s0,0,0,0c0,.01-.02,0-.03,0,0,0,.02,0,.03,0Z"/>
  <path d="M21.62,27.78s0,0,0,0c-.01,0-.02-.01-.03-.02,0,0,.01.01.02.02Z"/>
  <path d="M25.32,28.26s0,0,0,.01c0,0,0-.01,0-.02,0,0-.01,0-.01.01Z"/>
  <path d="M25.78,28.77s0,0,0,0c0,0,0-.02,0-.03,0,0,0,.01,0,.02Z"/>
  <path d="M26.2,28.82l.32.14s.06.06.04.1c.02-.04,0-.08-.04-.1l-.32-.14Z"/>
  <path d="M27.39,26.29s0,0,0,0c.01,0,0,.02.01.02,0,0,0-.02,0-.02Z"/>
  <path d="M26.15,25.96s0,0,0,0c.01,0,.02,0,.03.01,0,0,0-.01-.02-.01Z"/>
  <path d="M28.33,26.76s.01,0,.02.02c0,0,0-.01,0-.01,0,0,0,0-.01,0Z"/>
  <path d="M39.06,26.04s.06-.02.08,0c.02.01.02.04.01.08,0-.04,0-.06-.01-.08-.02-.01-.05-.01-.08,0Z"/>
  <path d="M21.57,27.74s0-.02,0-.03c0,.01,0,.02,0,.03Z"/>
  <path d="M16.56,27.97s0,.01-.01.02c0,0,.01,0,.01,0,0,0,0,0,0-.01Z"/>
  <path d="M42.13,24.06s0,0,0,.01c0,0,0-.01.02-.02,0,0-.01,0-.01,0Z"/>
  <path d="M42.61,23.24s.02,0,.03,0c0,0-.01-.02-.02-.01,0,0,0,0,0,0Z"/>
  <path d="M33.12,26.95s0,.01.01.02c0,0,0-.02,0-.02,0,0,0,0,0,0Z"/>
  <path d="M12.31,17.38s.02,0,.03,0c0,0-.01,0-.02,0,0,0,0,0,0,0Z"/>
  <path d="M42.62,21.92s.02,0,.03,0c-.01,0-.02-.01-.03,0,0,0,0,0,0,0Z"/>
  <path d="M40.28,22.56h0s.06.01.08.03c-.02-.02-.05-.03-.08-.03Z"/>
  <path d="M40.26,21.85s.01.02.02.03c0,0,0-.02,0-.02,0,0,0,0-.01,0Z"/>
  <path d="M42.11,21.42s.01.01.02.02c0,0,0-.02,0-.02,0,0,0,0,0,0Z"/>
  <path d="M44.52,22.17s-.01-.02-.02-.03c0,.01,0,.03.02.03,0,0,0,0,0,0Z"/>
  <path d="M44.79,22.26s-.01,0-.02.01c0,0,.02,0,.02,0,0,0,0,0,0,0Z"/>
  <path d="M30.65,11.03s-.04.02-.06.03c.01,0,.03.01.04,0,0,0,.01-.02.02-.03Z"/>
  <path d="M43.65,22.47s-.02,0-.02.01c0,0,.02,0,.02,0,0,0,0,0,0,0Z"/>
  <path d="M34.3,26.53s.02,0,.03,0c0,0-.01-.01-.02,0,0,0,0,0,0,0Z"/>
  <path d="M37.1,14.68s-.01,0-.02,0c0,0,.01,0,.02,0,0,0,0,0,0,0Z"/>
  <path d="M44.19,20.09s0,0,0,0c0,.01-.01.01-.02.02,0,0,.02,0,.02-.02Z"/>
  <path d="M44.33,21.09s-.02,0-.03,0c.01,0,.02,0,.03,0,0,0,0,0,0,0Z"/>
  <path d="M35.3,12.35h0s0,.08-.04.09c.03,0,.05-.05.04-.09Z"/>
  <path d="M17.61,27.28s0,.02-.01.03c0,0,.01,0,.01-.02,0,0,0,0,0-.01Z"/>
  <path d="M42.3,21.09s0,0,0,0c0,0,.01,0,.02.01,0,0,0-.02-.02-.02Z"/>
  <path d="M27.42,30.14s.02-.01.02-.02c0,0-.02,0-.02.02,0,0,0,0,0,0Z"/>
  <path d="M42.37,23.13s0,0,0,.01c0,0,.01-.01.02-.01,0,0-.01,0-.02,0Z"/>
  <path d="M12.99,28.93s-.02,0-.03,0c0,0,.01,0,.02,0,0,0,0,0,0,0Z"/>
  <path d="M16.3,28.91s.01,0,.02,0c0,0-.02,0-.02,0,0,0,0,0,0,0Z"/>
  <path d="M41.84,22.87s.01-.01.02-.02c0,0-.02,0-.02.01,0,0,0,0,0,0Z"/>
  <path d="M44.83,23.12s.01-.01.02-.01c0,0-.01,0-.02,0,0,0,0,0,0,.01Z"/>
  <path d="M30.27,9.76s.06-.01.08,0c.25.07.47.2.64.4.28-.68.7-1.26,1.26-1.73.22-.18.44-.37.66-.55.56-.45,1.2-.65,1.93-.6.76.06,1.37.38,1.84.95.02.02.03.05.02.08,0,.11-.04.2-.1.28-.04.05-.02.08.04.08.1,0,.18.05.23.17.03.06.07.12.13.15.05.03.06.07.03.13-.03.04-.02.09.01.13.06.06.08.14.08.23-.02.2,0,.4.03.59.03.18.04.33.03.45-.03.28-.07.55-.12.81,0,.05-.05.08-.1.07-.01,0-.02,0-.03-.01-.15-.1-.17-.2-.07-.3.07-.06.1-.19.11-.38,0-.03.02-.05.04-.06.09-.06.1-.13.04-.21-.02-.03-.04-.05-.04-.07l-.02-.49s-.01-.05-.03-.07c-.05-.05-.07-.11-.05-.16.02-.08,0-.11-.07-.09-.02,0-.04.03-.06.05-.04.06-.1.1-.17.12l.08.62s.02.05.04.07c.06.08.07.17,0,.26-.1.15-.13.34-.09.55.01.08,0,.16-.05.22-.06.08-.07.16-.04.25.08,0,.13.04.13.11,0,.03-.01.05-.03.07-.05.05-.11.08-.18.1l-.06.3s.07-.04.1-.01c.03.03.05.05.06.05.07.03.13.04.18.04.04,0,.07.02.08.06,0,0,0,.02,0,.02-.05.23-.13.29-.24.2-.01-.01-.03-.04-.04-.07-.02-.07-.07-.07-.14.01-.05.05-.09.04-.12-.03-.03.09-.02.17.03.26.11-.02.15.02.14.11,0,.02-.02.04-.05.07-.04.04-.04.09.02.14.2.19.17.23-.09.14l-.03.11s-.02.05-.03.08c-.05.07-.03.12.04.14.03,0,.06,0,.08-.01l.47-.35s.1-.03.14,0c.15.14.32.23.52.27.13-.51.24-1.02.33-1.53.02-.12.03-.26.02-.42,0-.2,0-.34.04-.43.06-.14.08-.28.06-.43-.02-.11-.01-.22.01-.32.04-.16.11-.25.2-.27v-.08c-.16-.04-.24-.14-.24-.28,0-.22.03-.44.07-.66,0-.04,0-.08,0-.12-.1-.54-.22-1.05-.35-1.51-.04-.15-.11-.26-.21-.34,0,.07,0,.11-.05.1-.02,0-.04-.02-.05-.05-.04-.06-.08-.11-.13-.15-.57-.62-1.25-.95-2.05-.98-.33-.01-.67.05-1.04.18-.69.26-1.31.62-1.87,1.11-.14.11-.28.21-.41.32-.25.27-.51.53-.79.77-.01.01-.02.02-.03.02-.02,0-.03-.01-.02-.04-.21.14-.42.36-.63.66-.02.03-.05.11-.09.22l-.16.46c.03.07.09.09.16.06Z"/>
  <path d="M17.02,28.57s0-.01,0-.02c0,.02-.03.02-.04.03.01,0,.03,0,.04-.01Z"/>
  <path d="M15.84,27.09s0,.01-.01.02c0,0,.01,0,.01-.01,0,0,0,0,0,0Z"/>
  <path d="M17.62,28.69s.03,0,.05,0c-.01,0-.02-.02-.03-.01,0,0-.02,0-.02.01Z"/>
  <path d="M42.58,23.27s-.01,0-.02,0c0,0,.01,0,.02,0,0,0,0,0,0,0Z"/>
  <path d="M43.41,21.78s.03-.02.05-.03c-.01,0-.03,0-.04,0,0,0,0,.01-.01.02Z"/>
  <path d="M13.98,29.69s-.01,0-.02,0c0,0,0,0,0,0,0,0,0,0,0,0Z"/>
  <path d="M8.32,18.1s0,.03,0,.05c0,0,0-.01,0-.02,0-.01,0-.02-.01-.03Z"/>
  <path d="M43.43,21.19s0-.02-.01-.03c0,0,0,.02,0,.03,0,0,0,0,0,0Z"/>
  <path d="M42.84,23.9s0,0,0,0c0,0-.01,0-.02,0,0,0,.01,0,.02,0Z"/>
  <path d="M30.55,11.07s.02-.01.04-.02c-.02,0-.05.02-.06,0,0,0,.02.01.03.02Z"/>
  <path d="M37.06,14.69s.01,0,.02,0c0,0-.01,0-.02,0,0,0,0,0,0,0Z"/>
  <path d="M35.22,12.29s.07.01.08.05h0s-.05-.06-.08-.05Z"/>
  <path d="M12.34,17.37s.02,0,.03,0c0,0,0,0,0,0,0,0-.01,0-.02,0Z"/>
  <path d="M8.28,18.23s0-.01.01-.02c-.01.01-.02.02-.04.03.01,0,.02,0,.03-.01Z"/>
  <path d="M8.32,18.15s0,.02,0,.03c0-.01,0-.02,0-.03Z"/>
  <path d="M44.75,22.28s.01,0,.02,0c0,0-.02.01-.02,0,0,0,0,0,0,0Z"/>
  <path d="M44.15,20.13s.01-.01.02-.02c0,0-.01.02-.02.02h0Z"/>
  <path d="M30.09,20.57s0,0,0,.01c0,0,0,0,0,.01,0,0-.01-.01,0-.02Z"/>
  <path d="M30.99,20.72s0-.02,0-.03c0,.01,0,.02,0,.03,0,0,0,0,0,0Z"/>
  <path d="M44.26,21.1s.02,0,.03,0c-.01,0-.02.01-.03,0,0,0,0,0,0,0Z"/>
  <path d="M43.41,21.14s0,.02.01.03c0-.01-.01-.02,0-.03,0,0,0,0,0,0Z"/>
  <path d="M42.33,21.12s-.01,0-.02-.01c0,0,.02,0,.02.02,0,0,0,0,0,0Z"/>
  <path d="M42.14,21.46s0-.01-.01-.02c0,0,.01.02,0,.03,0,0,0,0,0-.01Z"/>
  <path d="M43.49,21.74s-.02.01-.03.02c.02,0,.04-.02.05,0,0,0-.01,0-.02-.01Z"/>
  <path d="M42.68,21.93s-.02,0-.03,0c.01,0,.02,0,.03,0,0,0,0,0,0,0Z"/>
  <path d="M40.29,21.9s0-.01-.01-.02c0,.01.01.02,0,.03,0,0,0,0,0-.01Z"/>
  <path d="M44.49,22.11s.01.02.02.03c0-.01-.02-.02-.02-.03h0Z"/>
  <path d="M6.04,22.16s.02.02.02.02c0,0-.03-.02-.02-.03,0,0,0,0,0,0Z"/>
  <path d="M6.16,22.1s.02,0,.02.01c0,0,0,0,0,0,0,0-.02,0-.02-.01Z"/>
  <path d="M43.6,22.5s.01,0,.02-.01c0,0-.02.01-.03.01,0,0,0,0,0,0Z"/>
  <path d="M41.88,22.83s0,.01-.01.02c0,0,.01-.02.02-.02,0,0,0,0,0,0Z"/>
  <path d="M44.87,23.09s0,0-.01,0c0,0,.02,0,.03,0,0,0,0,0-.01,0Z"/>
  <path d="M42.54,23.27s.01,0,.02,0c0,0-.02,0-.02,0,0,0,0,0,0,0Z"/>
  <path d="M42.67,23.26s-.01,0-.02,0c.01,0,.02,0,.03.02,0,0,0,0,0-.01Z"/>
  <path d="M42.4,23.12s0,0-.01,0c0,0,.02-.01.03,0,0,0,0,0-.01,0Z"/>
  <path d="M42.8,23.91s.01,0,.02,0c0,0-.02,0-.02,0,0,0,0,0,0,0Z"/>
  <path d="M42.15,24.04s0,0,0,0c0,0,.01-.01.02,0,0,0,0,0-.01,0Z"/>
  <path d="M34.99,24.92s-.01.02-.02.03c0,.01.01.02.02.03,0-.02-.02-.04,0-.06Z"/>
  <path d="M33.68,25.97s0,0,0-.01c0,0,0,.01,0,.01,0,0,0,0,0,0Z"/>
  <path d="M34.75,25.8c.09-.1.13-.21.1-.23.03.03-.01.13-.1.23Z"/>
  <path d="M26.2,25.99s-.02,0-.02,0c0,0,.02,0,.02.02,0,0,0,0,0,0Z"/>
  <path d="M26.08,26.07s0,.01,0,.02c0,0,0-.02.02-.02,0,0,0,0-.01,0Z"/>
  <path d="M29.09,26.17s-.01.02-.02.02c0,.01.01.02.01.04,0-.02-.01-.05,0-.06Z"/>
  <path d="M29.42,26.14s-.02-.01-.02-.02c0,.01.02.02.02.04,0,0,0,0,0-.01Z"/>
  <path d="M32.32,26.07s-.01.01-.02.02c0,0,.01-.02.02-.01,0,0,0,0,0,0Z"/>
  <path d="M31.46,26.2s-.02,0-.03-.01c0,0,.03,0,.03.01,0,0,0,0,0,0Z"/>
  <path d="M33.99,26.29s-.07.06-.09.05c.03.02.07,0,.09-.05Z"/>
  <path d="M27.41,26.33s0-.01-.01-.02c0,0,.01.02,0,.03,0,0,0,0,0,0Z"/>
  <path d="M25.79,28.73s0,.01,0,.02c0,0,0-.02,0-.03,0,0,0,0,0,0Z"/>
  <path d="M25.34,28.23s0,0,0,.02c0,0,0-.02.02-.02,0,0,0,0-.01,0Z"/>
  <path d="M15.53,31.71s0,0,.01,0c0,0-.02.01-.02,0,0,0,0,0,0,0Z"/>
  <path d="M17.36,28.06s-.02,0-.02.01c0,0,.02-.02.03,0,0,0,0,0,0,0Z"/>
  <path d="M16.95,28.61s.02-.01.03-.02c-.02,0-.03.02-.05.02,0,0,.01,0,.02,0Z"/>
  <path d="M16.54,27.99s-.01.01-.02.01c0,0,0,0,.01,0,0,0,0,0,0-.01Z"/>
  <path d="M13.71,27.54s-.06,0-.08.01c.04-.02.08-.02.11.01,0-.01-.02-.02-.03-.02Z"/>
  <path d="M12.94,28.93s.01,0,.02,0c0,0-.02,0-.03,0,0,0,0,0,0,0Z"/>
  <path d="M34.35,26.55s-.02,0-.03,0c.01,0,.02,0,.03.01,0,0,0,0,0,0Z"/>
  <path d="M15.81,27.12s0,0,0,0c0,0,0,0,.01-.01,0,0-.01.02-.02.01Z"/>
  <path d="M28.35,26.8s0,0,0-.01c0,0,0,0,0,0,0,0,.01.02,0,.02Z"/>
  <path d="M28.1,28.48s0-.02,0-.03c0,.01,0,.03-.01.03,0,0,0,0,0,0Z"/>
  <path d="M33.15,26.99s0-.01,0-.02c0,0,.01.02,0,.03,0,0,0,0,0-.01Z"/>
  <path d="M17.18,27.07s.01.01.02.02c0,0-.02-.01-.02-.02,0,0,0,0,0,0Z"/>
  <path d="M17.59,27.33s0-.01,0-.02c0,0,0,.02-.02.02,0,0,0,0,.01,0Z"/>
  <path d="M25.16,28.08s.02,0,.03,0c-.01,0-.02.01-.03,0,0,0,0,0,0,0Z"/>
  <path d="M21.51,27.22h0s-.07-.05-.09-.03c.03-.02.07,0,.09.03Z"/>
  <path d="M25,27.24s.1-.04.13,0c-.03-.03-.09-.03-.13,0Z"/>
  <path d="M16.97,27.25s-.03,0-.05.01c.02,0,.05-.02.06,0,0,0,0,0-.01-.01Z"/>
  <path d="M21.6,27.76s-.02,0-.03-.02c0,0,.02.01.03.02Z"/>
  <path d="M21.55,27.69s0,.02,0,.03c0-.01-.01-.02,0-.03,0,0,0,0,0,0Z"/>
  <path d="M18.41,28.02s-.02.02-.03.02c.01,0,.02-.01.03-.02Z"/>
  <path d="M18.33,28.05s.01,0,.02,0c-.02,0-.03,0-.05,0,0,0,.02,0,.03.01Z"/>
  <path d="M14.92,28.23s0-.02-.01-.03c0,.01.02.02.01.03,0,0,0,0,0,0Z"/>
  <path d="M14.79,28.48s.02,0,.02-.01c-.01,0-.02.01-.03,0,0,0,0,0,0,0Z"/>
  <path d="M30.44,28.45s0-.02,0-.02c0-.01-.02-.01-.02-.02,0,.01.02.03.02.04Z"/>
  <path d="M29.96,28.59s0,0,0,.02c0,0-.01-.02,0-.03,0,0,0,0,0,.01Z"/>
  <path d="M17.96,29.3s0,0,0,0c0,0,0,0,0,0Z"/>
  <path d="M17.72,28.71s0-.02-.01-.02c0,0-.02,0-.03,0,.02,0,.04,0,.05.02Z"/>
  <path d="M16.34,28.89s-.01,0-.02,0c0,0,.02-.01.03,0,0,0,0,0,0,0Z"/>
  <path d="M29.53,29.24s-.02-.01-.03-.01c.01,0,.03,0,.03.01h0Z"/>
  <path d="M13.95,29.69s0,0,0,0c0,0-.01,0-.02,0,0,0,0,0,0,0Z"/>
  <path d="M13.13,30.49s.01,0,.02,0c0,0-.02,0-.02,0,0,0,0,0,0,0Z"/>
  <path d="M27.47,30.1s-.01.01-.02.02c0,0,.01-.02.03-.02,0,0,0,0,0,0Z"/>
  <path d="M29.93,30.37s-.03,0-.03-.01c0,0,0,0,0,0,0,.01.02,0,.03.01Z"/>
  <path d="M29.96,30.29s-.02,0-.03,0c.01,0,.02-.01.03,0,0,0,0,0,0,0Z"/>
  <path d="M27.58,31.24s0,0,0,0c0,0,0-.02,0-.03,0,.01.01.02,0,.03Z"/>
  <path d="M36.58,40.07s-.01-.01-.02-.02c0,0,.02.01.02.02,0,0,0,0,0,0Z"/>
</svg>