<?xml version="1.0" encoding="UTF-8"?>
<!-- Generator: https://ezgif.com/png-to-svg -->
<svg version="1.1" xmlns="http://www.w3.org/2000/svg" width="128" height="128">
<path d="M0 0 C42.24 0 84.48 0 128 0 C128 42.24 128 84.48 128 128 C85.76 128 43.52 128 0 128 C0 85.76 0 43.52 0 0 Z " fill="#2C4B7B" transform="translate(0,0)"/>
<path d="M0 0 C2.97 0 5.94 0 9 0 C9 11.22 9 22.44 9 34 C22.2 34 35.4 34 49 34 C49 22.78 49 11.56 49 0 C52.3 0 55.6 0 59 0 C59 26.07 59 52.14 59 79 C55.7 79 52.4 79 49 79 C49 66.79 49 54.58 49 42 C35.8 42 22.6 42 9 42 C9 53.88 9 65.76 9 78 C6.03 78 3.06 78 0 78 C0 52.26 0 26.52 0 0 Z " fill="#FAFBFC" transform="translate(35,25)"/>
<path d="M0 0 C0.33 0 0.66 0 1 0 C1 2.64 1 5.28 1 8 C-1.64 8 -4.28 8 -7 8 C-6.22 7.42 -5.43 6.84 -4.62 6.25 C-2.2 4.17 -1.14 2.91 0 0 Z " fill="#000000" transform="translate(127,120)"/>
<path d="M0 0 C0.58 0.76 1.16 1.53 1.75 2.31 C3.72 4.66 5.48 6.29 8 8 C5.36 8 2.72 8 0 8 C0 5.36 0 2.72 0 0 Z " fill="#000000" transform="translate(0,120)"/>
<path d="M0 0 C2.64 0 5.28 0 8 0 C8 2.64 8 5.28 8 8 C7.42 7.24 6.84 6.47 6.25 5.69 C4.28 3.34 2.52 1.71 0 0 Z " fill="#000000" transform="translate(120,0)"/>
<path d="M0 0 C2.64 0 5.28 0 8 0 C7.24 0.58 6.47 1.16 5.69 1.75 C3.34 3.72 1.71 5.48 0 8 C0 5.36 0 2.72 0 0 Z " fill="#000000" transform="translate(0,0)"/>
</svg>
