<svg version="1.1" id="Layer_1" xmlns="http://www.w3.org/2000/svg" xmlns:xlink="http://www.w3.org/1999/xlink" x="0px" y="0px"
	 width="100%" viewBox="0 0 500 500" enable-background="new 0 0 500 500" xml:space="preserve">
<path fill="#E5E5E7" opacity="1.000000" stroke="none" 
	d="
M359.000000,501.000000 
	C358.555328,501.000000 358.110687,501.000000 357.329346,500.531342 
	C356.991760,478.258972 356.895721,456.454498 357.070007,434.652191 
	C357.105011,430.271851 355.665649,428.880768 351.312439,428.920563 
	C331.507690,429.101624 311.699097,429.115143 291.894897,428.904144 
	C287.767273,428.860168 286.904602,430.312347 286.929199,434.091370 
	C287.074371,456.393463 287.000275,478.696960 287.000000,501.000000 
	C286.250000,501.000000 285.500000,501.000000 284.376465,500.531342 
	C284.003601,479.340027 284.004364,458.617401 284.004822,437.894745 
	C284.005035,429.018616 284.004730,429.018616 275.001343,428.616302 
	C275.000885,427.499207 275.001038,426.754395 275.456360,426.006622 
	C284.991730,425.882355 283.971313,427.107513 283.991943,418.133423 
	C284.033600,400.002930 283.911407,381.871429 284.081146,363.742462 
	C284.116119,360.006592 282.971252,358.898865 279.255005,358.931763 
	C260.626892,359.096497 241.994308,359.161011 223.368484,358.896301 
	C218.778290,358.831055 217.863037,360.390961 217.904800,364.615753 
	C218.107071,385.073059 218.000473,405.533417 218.002213,426.369080 
	C218.001328,427.498230 218.001572,428.250946 217.999847,429.472107 
	C217.998581,453.627014 217.999283,477.313507 218.000000,501.000000 
	C217.250000,501.000000 216.500000,501.000000 215.374435,500.531342 
	C214.999039,478.268066 215.023880,456.473328 214.956070,434.678925 
	C214.950165,432.781738 214.334244,430.886414 214.001068,428.617737 
	C214.000870,427.499664 214.001251,426.754120 214.291061,425.706970 
	C214.715988,404.286224 214.831619,383.166901 215.009796,362.048096 
	C215.034775,359.089386 213.219421,358.987152 211.051392,358.994873 
	C202.395050,359.025635 193.737762,359.066650 185.082764,358.954376 
	C183.371765,358.932190 181.669357,358.249481 180.113708,357.607727 
	C181.126419,356.835480 181.988419,356.326904 183.151428,356.135315 
	C192.524750,356.632538 201.602417,356.682892 210.666748,357.056396 
	C214.334656,357.207550 215.122635,355.670502 215.057175,352.378784 
	C214.889328,343.938232 215.008896,335.491974 215.385437,327.026245 
	C216.502914,327.003326 217.248505,327.002106 217.993835,327.469513 
	C217.994507,336.257812 218.078918,344.578796 217.951019,352.896515 
	C217.906204,355.810394 218.736374,357.062286 221.887589,357.045074 
	C241.355103,356.938873 260.823639,356.954346 280.291443,357.030762 
	C283.117004,357.041840 284.121735,355.986511 284.041595,353.215271 
	C283.902130,348.393890 283.847015,343.557465 284.094208,338.744659 
	C284.176636,337.139740 285.292725,335.587921 286.182922,334.098022 
	C286.618164,334.467438 286.806763,334.750610 286.999084,335.499756 
	C287.002838,341.735077 287.093964,347.506500 286.963379,353.272888 
	C286.900757,356.038635 287.930450,357.089264 290.707916,357.030212 
	C296.804199,356.900574 302.905090,356.988281 309.283325,357.087311 
	C310.059784,357.785248 310.556976,358.383118 310.581299,358.991669 
	C303.953949,359.003815 297.795197,359.142853 291.646698,358.951324 
	C288.351593,358.848694 286.897705,359.655182 286.927582,363.344208 
	C287.085022,382.804443 287.059235,402.266968 286.946045,421.727814 
	C286.927277,424.950653 287.919373,426.076630 291.211945,426.057648 
	C311.504486,425.940521 331.798309,425.940247 352.090912,426.051392 
	C355.772797,426.071533 357.123444,424.727844 357.040222,421.071594 
	C356.847290,412.592804 356.922424,404.107910 357.091461,395.427795 
	C357.829102,395.056824 358.364136,394.883545 358.932343,395.201874 
	C358.980286,404.175812 359.144409,412.661682 358.939270,421.138672 
	C358.852631,424.719177 359.750580,426.113617 363.631561,426.080170 
	C383.921448,425.905243 404.214050,425.929077 424.504517,426.064636 
	C427.992157,426.087921 429.087799,425.002014 429.062531,421.509613 
	C428.922791,402.217194 428.898468,382.922302 429.077606,363.630554 
	C429.113647,359.749847 427.715607,358.874634 424.136505,358.937469 
	C414.328125,359.109650 404.513641,358.934143 394.746521,358.616913 
	C395.065338,357.854065 395.339203,357.370605 396.113098,356.918213 
	C405.776794,356.962891 414.943634,356.841339 424.102448,357.058014 
	C427.656372,357.142120 429.113220,356.310547 429.078857,352.387695 
	C428.900848,332.062286 428.950134,311.734253 429.046967,291.407745 
	C429.061646,288.327820 428.361664,286.918640 424.908630,286.939911 
	C404.249237,287.067139 383.588379,287.051819 362.928711,286.949371 
	C359.800964,286.933868 358.899170,288.124451 358.960968,291.074707 
	C359.100586,297.736023 358.986877,304.402679 358.702576,310.951172 
	C357.947418,310.226837 357.465942,309.618469 356.984131,308.540955 
	C356.986053,302.289948 356.897156,296.506012 357.030182,290.727173 
	C357.093994,287.954956 356.062408,286.901733 353.278168,286.963135 
	C347.168793,287.097900 341.054596,287.015289 334.726257,287.014435 
	C334.510132,287.007446 334.080750,286.955811 333.948059,286.680603 
	C333.176056,285.621521 332.536713,284.837708 332.372192,284.038300 
	C339.500732,284.016296 346.158600,283.867371 352.806305,284.063568 
	C356.139038,284.161957 357.064148,282.894287 357.047028,279.703583 
	C356.938934,259.576721 356.911194,239.448395 357.066650,219.322159 
	C357.095306,215.616760 355.608002,214.882446 352.333679,214.941879 
	C343.853516,215.095749 335.368256,214.968048 327.026611,214.663208 
	C328.414948,213.206619 329.661652,212.039566 331.203583,211.183502 
	C339.122986,211.653763 346.747101,211.872040 354.371613,211.888977 
	C355.215057,211.890839 356.804108,210.729340 356.793579,210.129379 
	C356.652130,202.075195 356.287750,194.024948 356.122009,185.690308 
	C357.149719,184.907120 358.034149,184.407303 358.945129,184.381256 
	C358.983521,192.507370 359.126862,200.162811 358.946320,207.810623 
	C358.867798,211.135849 360.104034,212.072937 363.301758,212.055954 
	C383.763153,211.947342 404.225708,211.948242 424.687134,212.054764 
	C427.865753,212.071304 429.078125,211.166351 429.057098,207.827637 
	C428.934448,188.364578 428.921326,168.899765 429.066986,149.437012 
	C429.093658,145.871887 427.849579,144.887787 424.444855,144.943481 
	C413.967163,145.114868 403.484833,145.004196 392.978638,144.718597 
	C393.184357,143.930161 393.415771,143.426270 394.137573,142.942993 
	C404.293152,142.973862 413.962738,142.818176 423.621460,143.074203 
	C427.612366,143.179977 429.142822,142.210297 429.095276,137.871384 
	C428.876038,117.876610 428.880280,97.876823 429.095184,77.881966 
	C429.139954,73.715813 427.633026,72.903564 423.881256,72.931358 
	C403.885193,73.079498 383.886200,73.118546 363.891327,72.905289 
	C359.735138,72.860962 358.858887,74.347687 358.933289,78.114609 
	C359.137268,88.442345 358.995911,98.776894 358.719879,109.239517 
	C358.057953,109.459541 357.667450,109.548790 357.200867,109.134422 
	C357.081024,98.312721 356.939545,87.993591 357.050812,77.677177 
	C357.085938,74.418137 356.402924,72.900826 352.680542,72.928978 
	C332.209229,73.083794 311.735840,73.058174 291.263977,72.946068 
	C288.026611,72.928337 286.924652,73.943596 286.943207,77.225830 
	C287.058685,97.697655 287.080597,118.171051 286.927856,138.642380 
	C286.900421,142.320160 288.329712,143.106735 291.637177,143.053009 
	C300.455078,142.909851 309.277679,143.057190 318.051575,143.375717 
	C317.668549,144.108337 317.332397,144.554306 316.527832,145.003998 
	C307.795563,145.007385 299.529510,145.117645 291.269043,144.950729 
	C288.086426,144.886414 286.840363,145.872238 286.942413,149.174255 
	C287.141479,155.613861 286.916718,162.065735 287.051453,168.508698 
	C287.090546,170.379089 287.755035,172.236404 287.978516,174.367798 
	C287.010040,175.264893 286.195892,175.893906 285.170380,176.116791 
	C284.641052,173.776459 284.082214,171.846405 284.048920,169.907318 
	C283.934753,163.262100 283.781067,156.603333 284.088379,149.970413 
	C284.274170,145.960266 282.890900,144.887650 278.990448,144.925476 
	C260.380127,145.106064 241.765610,145.130005 223.156052,144.912872 
	C218.901291,144.863235 217.845337,146.278534 217.887726,150.319977 
	C217.953278,156.569427 217.314331,162.826248 216.711945,168.982239 
	C215.975479,168.598770 215.501205,168.313019 215.017029,167.779037 
	C215.007156,167.530792 214.984009,167.034454 214.987289,166.563080 
	C214.993057,160.311447 214.905701,154.529160 215.037186,148.751831 
	C215.099823,145.999481 214.108917,144.906891 211.306335,144.968323 
	C205.198639,145.102173 199.086121,145.015488 192.702118,144.909637 
	C191.932816,144.207291 191.436951,143.614227 191.413330,143.010345 
	C198.034790,142.997528 204.193558,142.787811 210.329758,143.069580 
	C214.156906,143.245300 215.098801,141.819473 215.071671,138.186188 
	C214.921539,118.077660 214.882385,97.966164 215.096756,77.858803 
	C215.141205,73.690620 213.613113,72.884064 209.884384,72.931396 
	C196.258606,73.104340 182.629242,72.994507 169.000916,72.658173 
	C169.000626,71.880997 169.000656,71.436867 169.423096,70.980721 
	C172.796036,70.648972 175.743774,70.086868 178.697525,70.053497 
	C188.838135,69.938889 198.990738,69.744301 209.118484,70.122856 
	C214.080582,70.308334 215.225479,68.581665 215.104553,63.911259 
	C214.794846,51.948612 215.007309,39.972446 215.381592,28.001112 
	C216.493332,28.001492 217.234421,28.002447 217.980988,28.471813 
	C217.989166,40.911816 218.169678,52.887417 217.899643,64.852852 
	C217.803146,69.128494 219.287048,70.133934 223.318695,70.092155 
	C241.606689,69.902626 259.899384,69.875870 278.186493,70.103401 
	C282.644318,70.158867 284.177521,69.092453 284.118408,64.348305 
	C283.855194,43.234989 284.001617,22.116571 284.000000,1.000000 
	C284.750000,1.000000 285.500000,1.000000 286.624756,1.468657 
	C286.999695,22.893492 287.107697,43.850689 286.909424,64.804985 
	C286.869659,69.006973 288.180084,70.133987 292.278076,70.094429 
	C312.068207,69.903450 331.863129,69.858322 351.651642,70.119698 
	C356.286865,70.180908 357.117340,68.541725 357.080536,64.366745 
	C356.894287,43.245903 356.997955,22.122503 357.000000,1.000000 
	C357.444672,1.000000 357.889313,1.000000 358.669250,1.468653 
	C359.005066,22.893192 359.113251,43.850090 358.915680,64.804108 
	C358.876068,69.006050 360.188019,70.133934 364.285950,70.094421 
	C384.075806,69.903595 403.870483,69.858025 423.658722,70.119873 
	C428.296509,70.181236 429.122040,68.537872 429.085052,64.365921 
	C428.897766,43.245358 428.999542,22.122229 429.000000,1.000000 
	C429.750000,1.000000 430.500000,1.000000 431.621826,1.468649 
	C431.992981,22.872381 432.092621,43.808361 431.905457,64.741776 
	C431.868774,68.845718 433.012054,70.137146 437.198669,70.098228 
	C458.464264,69.900536 479.732605,70.002800 501.000000,70.000000 
	C501.000000,70.750000 501.000000,71.500000 500.531342,72.625580 
	C479.106750,73.001236 458.149780,73.108917 437.195709,72.910789 
	C432.994537,72.871063 431.865845,74.180969 431.905426,78.279747 
	C432.096497,98.069611 432.141693,117.864326 431.880371,137.652588 
	C431.819153,142.288574 433.459930,143.117294 437.634033,143.080505 
	C458.754639,142.894287 479.877747,142.997955 501.000000,143.000000 
	C501.000000,143.444656 501.000000,143.889328 500.531342,144.669586 
	C479.107086,145.005539 458.150452,145.113419 437.196716,144.915726 
	C432.995880,144.876099 431.862671,146.186020 431.905396,150.285233 
	C432.101318,169.076706 432.148895,187.873611 431.879944,206.663269 
	C431.813538,211.303421 433.464783,212.124695 437.635010,212.087585 
	C458.755249,211.899567 479.878082,212.000412 501.000000,212.000000 
	C501.000000,212.750000 501.000000,213.500000 500.531342,214.625000 
	C479.105316,214.999664 458.146942,215.107437 437.191467,214.908096 
	C432.984558,214.868088 431.865112,216.186905 431.905640,220.280838 
	C432.098206,239.739334 432.144409,259.202850 431.881622,278.659698 
	C431.819061,283.289581 433.448425,284.129730 437.629730,284.091949 
	C458.751709,283.900970 479.876312,284.001617 501.000000,284.000000 
	C501.000000,284.750000 501.000000,285.500000 500.531342,286.625854 
	C479.233185,287.001190 458.402557,287.114166 437.575134,286.906647 
	C433.289398,286.863953 431.822357,287.868378 431.883301,292.417267 
	C432.139984,311.576935 431.990540,330.742065 431.995300,349.905182 
	C431.997009,356.715271 432.236542,356.978790 439.011444,356.984772 
	C459.674286,357.002991 480.337158,356.996735 501.000000,357.000000 
	C501.000000,357.444672 501.000000,357.889313 500.531342,358.670654 
	C479.258240,359.008209 458.452911,359.107697 437.649994,358.930206 
	C433.273407,358.892883 431.871033,360.330048 431.914215,364.686676 
	C432.100586,383.492065 432.115631,402.301758 431.899139,421.106506 
	C431.851593,425.238159 433.312744,426.096558 437.089203,426.070343 
	C458.391968,425.922394 479.696228,425.999542 501.000000,426.000000 
	C501.000000,426.750000 501.000000,427.500000 500.531342,428.625000 
	C479.127258,429.000031 458.190918,429.100861 437.257172,428.913757 
	C433.151245,428.877075 431.867950,430.021942 431.904205,434.206787 
	C432.097076,456.469788 431.997986,478.735352 432.000000,501.000000 
	C431.250000,501.000000 430.500000,501.000000 429.373566,500.531342 
	C428.996796,478.108917 428.892944,456.154266 429.086823,434.202209 
	C429.123932,430.001129 427.818848,428.874298 423.720184,428.913940 
	C403.930389,429.105408 384.135712,429.150970 364.347595,428.888367 
	C359.708801,428.826813 358.889252,430.469299 358.923340,434.640533 
	C359.104034,456.759094 359.003265,478.879944 359.000000,501.000000 
M359.006104,263.499847 
	C359.006683,268.833130 359.185394,274.174500 358.944702,279.496857 
	C358.786316,282.999634 359.999756,284.094635 363.503082,284.071014 
	C383.835358,283.933838 404.169434,283.933289 424.501709,284.069855 
	C428.004547,284.093384 429.086365,282.991486 429.062469,279.499634 
	C428.925812,259.500732 428.925995,239.499893 429.063843,219.500992 
	C429.087952,216.006775 428.002380,214.909286 424.501892,214.932800 
	C404.169617,215.069443 383.835541,215.069382 363.503265,214.932587 
	C360.003021,214.909027 358.899506,216.004715 358.938995,219.500961 
	C359.100891,233.832352 359.006317,248.166656 359.006104,263.499847 
M252.500000,142.993896 
	C261.649780,142.993301 270.800690,142.910141 279.948639,143.039581 
	C282.908203,143.081467 284.070465,142.169312 284.055298,139.061829 
	C283.954742,118.433754 283.944183,97.804604 284.063416,77.176720 
	C284.082733,73.839905 282.874146,72.929756 279.693939,72.948059 
	C260.563202,73.058105 241.431259,73.058167 222.300568,72.947151 
	C219.115204,72.928665 217.916519,73.848915 217.935745,77.180420 
	C218.054871,97.808304 218.044891,118.437447 217.944473,139.065521 
	C217.929337,142.176804 219.100021,143.076859 222.054977,143.039383 
	C231.868591,142.914856 241.684799,142.993301 252.500000,142.993896 
z"/>
<path fill="#F3F4F5" opacity="1.000000" stroke="none" 
	d="
M214.001663,428.990234 
	C214.334244,430.886414 214.950165,432.781738 214.956070,434.678925 
	C215.023880,456.473328 214.999039,478.268066 214.999435,500.531342 
	C191.979111,501.000000 168.958206,501.000000 145.471558,500.531342 
	C145.006348,478.132233 145.102600,456.200989 144.921814,434.272034 
	C144.888077,430.179077 146.007568,428.871124 150.204849,428.909363 
	C171.468948,429.103088 192.735779,428.993500 214.001663,428.990234 
z"/>
<path fill="#F3F4F5" opacity="1.000000" stroke="none" 
	d="
M143.000000,501.000000 
	C119.979103,501.000000 96.958214,501.000000 73.469795,500.531342 
	C73.002487,478.108673 73.106323,456.153778 72.912209,434.201477 
	C72.875053,429.999176 74.182617,428.873657 78.280037,428.913269 
	C98.070045,429.104584 117.864906,429.150482 137.653290,428.888489 
	C142.290131,428.827087 143.113739,430.466461 143.079453,434.639801 
	C142.897659,456.758606 142.997650,478.879700 143.000000,501.000000 
z"/>
<path fill="#F3F4F5" opacity="1.000000" stroke="none" 
	d="
M359.468658,501.000000 
	C359.003265,478.879944 359.104034,456.759094 358.923340,434.640533 
	C358.889252,430.469299 359.708801,428.826813 364.347595,428.888367 
	C384.135712,429.150970 403.930389,429.105408 423.720184,428.913940 
	C427.818848,428.874298 429.123932,430.001129 429.086823,434.202209 
	C428.892944,456.154266 428.996796,478.108917 428.998566,500.531342 
	C405.979095,501.000000 382.958221,501.000000 359.468658,501.000000 
z"/>
<path fill="#F3F4F5" opacity="1.000000" stroke="none" 
	d="
M287.468658,501.000000 
	C287.000275,478.696960 287.074371,456.393463 286.929199,434.091370 
	C286.904602,430.312347 287.767273,428.860168 291.894897,428.904144 
	C311.699097,429.115143 331.507690,429.101624 351.312439,428.920563 
	C355.665649,428.880768 357.105011,430.271851 357.070007,434.652191 
	C356.895721,456.454498 356.991760,478.258972 356.996338,500.531342 
	C333.979095,501.000000 310.958221,501.000000 287.468658,501.000000 
z"/>
<path fill="#F3F4F5" opacity="1.000000" stroke="none" 
	d="
M432.468658,501.000000 
	C431.997986,478.735352 432.097076,456.469788 431.904205,434.206787 
	C431.867950,430.021942 433.151245,428.877075 437.257172,428.913757 
	C458.190918,429.100861 479.127258,429.000031 500.531342,429.000000 
	C501.000000,452.925293 501.000000,476.850616 501.000000,501.000000 
	C478.312927,501.000000 455.625122,501.000000 432.468658,501.000000 
z"/>
<path fill="#F4F4F5" opacity="1.000000" stroke="none" 
	d="
M70.000000,501.000000 
	C47.071587,501.000000 24.143175,501.000000 1.000000,501.000000 
	C1.000000,477.312866 1.000000,453.625092 1.468657,429.468658 
	C22.872561,429.000031 43.808704,429.100830 64.742279,428.913635 
	C68.849030,428.876892 70.131531,430.023499 70.095367,434.207367 
	C69.902901,456.470184 70.001892,478.735535 70.000000,501.000000 
z"/>
<path fill="#F4F5F6" opacity="1.000000" stroke="none" 
	d="
M215.010956,28.001686 
	C215.007309,39.972446 214.794846,51.948612 215.104553,63.911259 
	C215.225479,68.581665 214.080582,70.308334 209.118484,70.122856 
	C198.990738,69.744301 188.838135,69.938889 178.697525,70.053497 
	C175.743774,70.086868 172.796036,70.648972 169.120300,70.694778 
	C165.595795,70.283112 162.796799,70.033646 159.997177,70.026268 
	C145.007385,69.986763 145.008255,70.007629 145.007080,55.269722 
	C145.005630,37.179813 145.002441,19.089907 145.000000,1.000000 
	C168.020889,1.000000 191.041794,1.000000 214.530975,1.468655 
	C215.003174,10.625436 215.007065,19.313560 215.010956,28.001686 
z"/>
<path fill="#F4F4F5" opacity="1.000000" stroke="none" 
	d="
M356.531342,1.000000 
	C356.997955,22.122503 356.894287,43.245903 357.080536,64.366745 
	C357.117340,68.541725 356.286865,70.180908 351.651642,70.119698 
	C331.863129,69.858322 312.068207,69.903450 292.278076,70.094429 
	C288.180084,70.133987 286.869659,69.006973 286.909424,64.804985 
	C287.107697,43.850689 286.999695,22.893492 286.999756,1.468657 
	C310.020905,1.000000 333.041779,1.000000 356.531342,1.000000 
z"/>
<path fill="#F4F4F5" opacity="1.000000" stroke="none" 
	d="
M428.531342,1.000000 
	C428.999542,22.122229 428.897766,43.245358 429.085052,64.365921 
	C429.122040,68.537872 428.296509,70.181236 423.658722,70.119873 
	C403.870483,69.858025 384.075806,69.903595 364.285950,70.094421 
	C360.188019,70.133934 358.876068,69.006050 358.915680,64.804108 
	C359.113251,43.850090 359.005066,22.893192 359.002258,1.468653 
	C382.020905,1.000000 405.041779,1.000000 428.531342,1.000000 
z"/>
<path fill="#F3F4F5" opacity="1.000000" stroke="none" 
	d="
M501.000000,142.531342 
	C479.877747,142.997955 458.754639,142.894287 437.634033,143.080505 
	C433.459930,143.117294 431.819153,142.288574 431.880371,137.652588 
	C432.141693,117.864326 432.096497,98.069611 431.905426,78.279747 
	C431.865845,74.180969 432.994537,72.871063 437.195709,72.910789 
	C458.149780,73.108917 479.106750,73.001236 500.531342,73.000580 
	C501.000000,96.020897 501.000000,119.041786 501.000000,142.531342 
z"/>
<path fill="#F4F5F6" opacity="1.000000" stroke="none" 
	d="
M1.000000,143.000000 
	C1.000000,119.979103 1.000000,96.958214 1.468657,73.469131 
	C22.742184,73.001053 43.548996,73.153137 64.350449,72.886604 
	C69.115158,72.825554 70.151764,74.386520 70.101234,78.833687 
	C69.881874,98.138107 69.879845,117.447891 70.098808,136.752319 
	C70.152367,141.473618 68.821953,143.145630 63.912819,143.091721 
	C42.944073,142.861481 21.971302,142.997559 1.000000,143.000000 
z"/>
<path fill="#F4F5F6" opacity="1.000000" stroke="none" 
	d="
M73.000000,1.000000 
	C96.020897,1.000000 119.041786,1.000000 142.529785,1.468655 
	C142.995453,22.742159 142.895279,43.547844 143.072403,64.351173 
	C143.109665,68.730072 141.666641,70.126320 137.313324,70.086586 
	C117.508728,69.905823 97.700325,69.891068 77.896332,70.101433 
	C73.767227,70.145302 72.903450,68.691223 72.929726,64.912071 
	C73.077858,43.608913 73.000488,22.304190 73.000000,1.000000 
z"/>
<path fill="#F4F4F5" opacity="1.000000" stroke="none" 
	d="
M1.000000,357.000000 
	C1.000000,333.979095 1.000000,310.958221 1.468657,287.469116 
	C22.742058,287.001129 43.548752,287.153473 64.350075,286.886902 
	C69.114830,286.825867 70.150421,288.387085 70.099892,292.833313 
	C69.880516,312.137604 69.878288,331.447296 70.097038,350.751617 
	C70.150536,355.471680 68.822937,357.145752 63.912453,357.091797 
	C42.943832,356.861328 21.971182,356.997559 1.000000,357.000000 
z"/>
<path fill="#F3F4F5" opacity="1.000000" stroke="none" 
	d="
M501.000000,356.531342 
	C480.337158,356.996735 459.674286,357.002991 439.011444,356.984772 
	C432.236542,356.978790 431.997009,356.715271 431.995300,349.905182 
	C431.990540,330.742065 432.139984,311.576935 431.883301,292.417267 
	C431.822357,287.868378 433.289398,286.863953 437.575134,286.906647 
	C458.402557,287.114166 479.233185,287.001190 500.531342,287.000854 
	C501.000000,310.020905 501.000000,333.041779 501.000000,356.531342 
z"/>
<path fill="#E6E7E9" opacity="1.000000" stroke="none" 
	d="
M1.000000,357.333313 
	C21.971182,356.997559 42.943832,356.861328 63.912453,357.091797 
	C68.822937,357.145752 70.150536,355.471680 70.097038,350.751617 
	C69.878288,331.447296 69.880516,312.137604 70.099892,292.833313 
	C70.150421,288.387085 69.114830,286.825867 64.350075,286.886902 
	C43.548752,287.153473 22.742058,287.001129 1.468657,287.000427 
	C1.000000,286.250000 1.000000,285.500000 1.468656,284.376160 
	C22.894014,284.002319 43.851746,283.894012 64.806549,284.093353 
	C69.015427,284.133392 70.131401,282.811249 70.091148,278.719513 
	C69.899719,259.261597 69.853691,239.798676 70.118004,220.342453 
	C70.180946,215.708618 68.545601,214.876373 64.368355,214.913696 
	C43.247002,215.102432 22.123045,215.000198 1.000000,215.000000 
	C1.000000,214.250000 1.000000,213.500000 1.468657,212.375244 
	C22.741938,212.000290 43.548504,211.848221 64.349716,212.114578 
	C69.112846,212.175583 70.155762,210.617249 70.101028,206.169022 
	C69.875755,187.863724 69.873833,169.552399 70.099037,151.247101 
	C70.157135,146.524292 68.820007,144.854523 63.912106,144.908356 
	C42.943592,145.138397 21.971064,145.002441 1.000000,145.000000 
	C1.000000,144.555557 1.000000,144.111099 1.000000,143.333328 
	C21.971302,142.997559 42.944073,142.861481 63.912819,143.091721 
	C68.821953,143.145630 70.152367,141.473618 70.098808,136.752319 
	C69.879845,117.447891 69.881874,98.138107 70.101234,78.833687 
	C70.151764,74.386520 69.115158,72.825554 64.350449,72.886604 
	C43.548996,73.153137 22.742184,73.001053 1.468657,73.000473 
	C1.000000,72.250000 1.000000,71.500000 1.468652,70.377617 
	C22.872030,70.005806 43.807655,69.905983 64.740715,70.093071 
	C68.844566,70.129753 70.135666,68.986946 70.096809,64.800247 
	C69.899475,43.535030 70.002312,22.267027 70.000000,1.000000 
	C70.750000,1.000000 71.500000,1.000000 72.625000,1.000000 
	C73.000488,22.304190 73.077858,43.608913 72.929726,64.912071 
	C72.903450,68.691223 73.767227,70.145302 77.896332,70.101433 
	C97.700325,69.891068 117.508728,69.905823 137.313324,70.086586 
	C141.666641,70.126320 143.109665,68.730072 143.072403,64.351173 
	C142.895279,43.547844 142.995453,22.742159 142.998444,1.468655 
	C143.444443,1.000000 143.888901,1.000000 144.666672,1.000000 
	C145.002441,19.089907 145.005630,37.179813 145.007080,55.269722 
	C145.008255,70.007629 145.007385,69.986763 159.997177,70.026268 
	C162.796799,70.033646 165.595795,70.283112 168.697876,70.706787 
	C169.000656,71.436867 169.000626,71.880997 168.532135,72.662071 
	C161.907272,73.000145 155.745850,73.150223 149.596451,72.943260 
	C146.225861,72.829826 144.847183,73.774574 144.935654,77.400620 
	C145.171021,87.045670 145.055466,96.699280 144.881470,106.543060 
	C144.157288,106.917572 143.631104,107.098503 143.071930,106.794273 
	C143.023209,96.663208 142.913803,87.016037 143.045670,77.372162 
	C143.088257,74.257271 142.286377,72.922142 138.879471,72.942566 
	C118.257515,73.066223 97.634239,73.047409 77.011963,72.954704 
	C74.004082,72.941193 72.938538,73.919334 72.952888,76.973824 
	C73.049797,97.596077 73.064255,118.219337 72.943665,138.841339 
	C72.924011,142.202393 74.176292,143.085770 77.333931,143.048386 
	C87.309975,142.930283 97.288994,143.063110 107.196815,143.434235 
	C106.944359,144.186691 106.761940,144.603760 106.137230,145.018158 
	C96.199883,145.012939 86.702766,145.122025 77.210876,144.947281 
	C73.897148,144.886276 72.928413,146.076477 72.947044,149.293320 
	C73.059952,168.782562 73.063271,188.273148 72.945610,207.762314 
	C72.925842,211.036148 74.007408,212.074585 77.258995,212.056412 
	C97.581154,211.942719 117.904610,211.937027 138.226730,212.053482 
	C142.048737,212.075363 143.151138,210.452209 143.038773,206.924210 
	C142.869171,201.599457 143.011261,196.264755 143.292145,191.053772 
	C144.047852,191.777939 144.532288,192.382645 145.015915,193.456665 
	C145.012634,198.533035 145.157562,203.146530 144.956940,207.744949 
	C144.818588,210.915848 145.868515,212.194382 149.158279,212.054047 
	C154.085327,211.843842 159.028183,212.003693 164.249435,212.128021 
	C165.353897,213.165390 166.173233,214.080887 166.524673,214.999527 
	C160.572266,215.002106 155.081818,215.155396 149.605438,214.944046 
	C146.253998,214.814697 144.909012,215.749649 144.936203,219.380112 
	C145.086761,239.488861 145.090714,259.599945 144.934631,279.708588 
	C144.905670,283.441528 146.453217,284.104675 149.691772,284.057220 
	C159.162537,283.918488 168.637039,284.033600 177.965210,284.336334 
	C176.576218,285.789246 175.332092,286.955017 173.791351,287.811218 
	C164.876129,287.344360 156.255844,287.073517 147.641373,287.199402 
	C146.746201,287.212524 145.172745,289.555450 145.127182,290.859772 
	C144.877701,298.002960 144.930191,305.160675 145.051483,312.310486 
	C145.089401,314.545685 145.663940,316.771759 145.904083,319.315247 
	C144.925278,320.845032 144.035248,322.061615 143.100800,322.793976 
	C143.035126,312.328949 142.848450,302.344391 143.074112,292.369202 
	C143.164215,288.386444 142.208786,286.857910 137.877701,286.905426 
	C117.917755,287.124359 97.953171,287.100800 77.992508,286.917999 
	C74.039879,286.881775 72.883011,288.045624 72.919556,291.994232 
	C73.102768,311.788544 73.110405,331.586456 72.921257,351.380646 
	C72.878937,355.809174 74.416344,357.119781 78.718079,357.070557 
	C94.851974,356.885925 110.989441,357.012482 127.081741,357.356934 
	C126.508888,358.682617 125.979851,359.673737 125.167114,360.295990 
	C124.127510,359.636078 123.372604,359.094025 122.615555,359.091034 
	C107.144241,359.029388 91.672462,359.070679 76.201370,358.983917 
	C72.899094,358.965393 72.992165,361.016998 72.994125,363.294067 
	C73.010918,382.758789 73.058380,402.223785 72.948898,421.687897 
	C72.931015,424.867004 73.837166,426.077911 77.175674,426.058411 
	C97.637871,425.938721 118.101639,425.924500 138.563522,426.069031 
	C142.139160,426.094269 143.095993,424.852448 143.056183,421.443970 
	C142.900757,408.136566 143.048431,394.825775 142.921951,381.517761 
	C142.906342,379.874573 141.920258,378.240601 141.640411,376.382812 
	C142.928314,375.757324 143.959671,375.351349 144.998047,375.417419 
	C145.005676,390.839630 145.140747,405.791809 144.919205,420.738708 
	C144.858261,424.850067 146.034683,426.127289 150.214996,426.089569 
	C171.475723,425.897705 192.739166,426.005585 214.001648,426.008545 
	C214.001251,426.754120 214.000870,427.499664 214.001068,428.617737 
	C192.735779,428.993500 171.468948,429.103088 150.204849,428.909363 
	C146.007568,428.871124 144.888077,430.179077 144.921814,434.272034 
	C145.102600,456.200989 145.006348,478.132233 145.002899,500.531342 
	C144.555557,501.000000 144.111099,501.000000 143.333328,501.000000 
	C142.997650,478.879700 142.897659,456.758606 143.079453,434.639801 
	C143.113739,430.466461 142.290131,428.827087 137.653290,428.888489 
	C117.864906,429.150482 98.070045,429.104584 78.280037,428.913269 
	C74.182617,428.873657 72.875053,429.999176 72.912209,434.201477 
	C73.106323,456.153778 73.002487,478.108673 73.001137,500.531342 
	C72.250000,501.000000 71.500000,501.000000 70.375000,501.000000 
	C70.001892,478.735535 69.902901,456.470184 70.095367,434.207367 
	C70.131531,430.023499 68.849030,428.876892 64.742279,428.913635 
	C43.808704,429.100830 22.872561,429.000031 1.468657,429.000000 
	C1.000000,428.250000 1.000000,427.500000 1.468657,426.375000 
	C22.741701,425.999847 43.548031,425.847839 64.349007,426.114166 
	C69.112106,426.175140 70.154968,424.616486 70.100159,420.168335 
	C69.874603,401.863251 69.872360,383.552124 70.097290,365.247040 
	C70.155312,360.524963 68.820168,358.854370 63.911366,358.908295 
	C42.943104,359.138611 21.970818,359.002441 1.000000,359.000000 
	C1.000000,358.555542 1.000000,358.111115 1.000000,357.333313 
M73.003212,266.498718 
	C73.003845,270.992889 73.135895,275.492218 72.959091,279.979401 
	C72.840492,282.989166 73.906029,284.066101 76.971741,284.051453 
	C97.444733,283.953705 117.918625,283.953918 138.391678,284.045349 
	C141.891785,284.060974 143.046936,282.636749 143.032776,279.268433 
	C142.948837,259.294678 142.910278,239.319763 143.065063,219.346848 
	C143.093597,215.663132 141.648544,214.926422 138.350891,214.944626 
	C118.044495,215.056824 97.736633,215.075974 77.430672,214.930374 
	C73.849609,214.904678 72.907791,216.153580 72.940010,219.559464 
	C73.084824,234.871582 73.003189,250.185837 73.003212,266.498718 
z"/>
<path fill="#F3F4F5" opacity="1.000000" stroke="none" 
	d="
M501.000000,283.531342 
	C479.876312,284.001617 458.751709,283.900970 437.629730,284.091949 
	C433.448425,284.129730 431.819061,283.289581 431.881622,278.659698 
	C432.144409,259.202850 432.098206,239.739334 431.905640,220.280838 
	C431.865112,216.186905 432.984558,214.868088 437.191467,214.908096 
	C458.146942,215.107437 479.105316,214.999664 500.531342,215.000000 
	C501.000000,237.687561 501.000000,260.375122 501.000000,283.531342 
z"/>
<path fill="#F4F5F6" opacity="1.000000" stroke="none" 
	d="
M69.531342,1.000000 
	C70.002312,22.267027 69.899475,43.535030 70.096809,64.800247 
	C70.135666,68.986946 68.844566,70.129753 64.740715,70.093071 
	C43.807655,69.905983 22.872030,70.005806 1.468652,70.002617 
	C1.000000,47.073147 1.000000,24.146292 1.000000,1.000000 
	C23.687090,1.000000 46.374886,1.000000 69.531342,1.000000 
z"/>
<path fill="#F4F5F6" opacity="1.000000" stroke="none" 
	d="
M1.000000,215.468658 
	C22.123045,215.000198 43.247002,215.102432 64.368355,214.913696 
	C68.545601,214.876373 70.180946,215.708618 70.118004,220.342453 
	C69.853691,239.798676 69.899719,259.261597 70.091148,278.719513 
	C70.131401,282.811249 69.015427,284.133392 64.806549,284.093353 
	C43.851746,283.894012 22.894014,284.002319 1.468656,284.001160 
	C1.000000,261.312439 1.000000,238.624878 1.000000,215.468658 
z"/>
<path fill="#F4F4F5" opacity="1.000000" stroke="none" 
	d="
M501.000000,69.531342 
	C479.732605,70.002800 458.464264,69.900536 437.198669,70.098228 
	C433.012054,70.137146 431.868774,68.845718 431.905457,64.741776 
	C432.092621,43.808361 431.992981,22.872381 431.996826,1.468649 
	C454.926849,1.000000 477.853699,1.000000 501.000000,1.000000 
	C501.000000,23.687090 501.000000,46.374886 501.000000,69.531342 
z"/>
<path fill="#F3F4F5" opacity="1.000000" stroke="none" 
	d="
M275.001953,428.988556 
	C284.004730,429.018616 284.005035,429.018616 284.004822,437.894745 
	C284.004364,458.617401 284.003601,479.340027 284.001465,500.531342 
	C262.312439,501.000000 240.624878,501.000000 218.468658,501.000000 
	C217.999283,477.313507 217.998581,453.627014 218.468292,429.470764 
	C237.626465,428.996826 256.314209,428.992676 275.001953,428.988556 
z"/>
<path fill="#F3F4F5" opacity="1.000000" stroke="none" 
	d="
M501.000000,211.531342 
	C479.878082,212.000412 458.755249,211.899567 437.635010,212.087585 
	C433.464783,212.124695 431.813538,211.303421 431.879944,206.663269 
	C432.148895,187.873611 432.101318,169.076706 431.905396,150.285233 
	C431.862671,146.186020 432.995880,144.876099 437.196716,144.915726 
	C458.150452,145.113419 479.107086,145.005539 500.531342,145.002594 
	C501.000000,167.020889 501.000000,189.041794 501.000000,211.531342 
z"/>
<path fill="#F4F5F6" opacity="1.000000" stroke="none" 
	d="
M1.000000,145.468658 
	C21.971064,145.002441 42.943592,145.138397 63.912106,144.908356 
	C68.820007,144.854523 70.157135,146.524292 70.099037,151.247101 
	C69.873833,169.552399 69.875755,187.863724 70.101028,206.169022 
	C70.155762,210.617249 69.112846,212.175583 64.349716,212.114578 
	C43.548504,211.848221 22.741938,212.000290 1.468657,212.000244 
	C1.000000,189.979111 1.000000,167.958206 1.000000,145.468658 
z"/>
<path fill="#F3F4F5" opacity="1.000000" stroke="none" 
	d="
M501.000000,425.531342 
	C479.696228,425.999542 458.391968,425.922394 437.089203,426.070343 
	C433.312744,426.096558 431.851593,425.238159 431.899139,421.106506 
	C432.115631,402.301758 432.100586,383.492065 431.914215,364.686676 
	C431.871033,360.330048 433.273407,358.892883 437.649994,358.930206 
	C458.452911,359.107697 479.258240,359.008209 500.531342,359.003662 
	C501.000000,381.020905 501.000000,403.041779 501.000000,425.531342 
z"/>
<path fill="#F4F4F5" opacity="1.000000" stroke="none" 
	d="
M1.000000,359.468658 
	C21.970818,359.002441 42.943104,359.138611 63.911366,358.908295 
	C68.820168,358.854370 70.155312,360.524963 70.097290,365.247040 
	C69.872360,383.552124 69.874603,401.863251 70.100159,420.168335 
	C70.154968,424.616486 69.112106,426.175140 64.349007,426.114166 
	C43.548031,425.847839 22.741701,425.999847 1.468657,426.000000 
	C1.000000,403.979095 1.000000,381.958221 1.000000,359.468658 
z"/>
<path fill="#F4F5F6" opacity="1.000000" stroke="none" 
	d="
M283.531342,1.000000 
	C284.001617,22.116571 283.855194,43.234989 284.118408,64.348305 
	C284.177521,69.092453 282.644318,70.158867 278.186493,70.103401 
	C259.899384,69.875870 241.606689,69.902626 223.318695,70.092155 
	C219.287048,70.133934 217.803146,69.128494 217.899643,64.852852 
	C218.169678,52.887417 217.989166,40.911816 217.988617,28.002813 
	C217.993866,18.376936 217.996933,9.688468 218.000000,1.000000 
	C239.687561,1.000000 261.375122,1.000000 283.531342,1.000000 
z"/>
<path fill="#E6E7E9" opacity="1.000000" stroke="none" 
	d="
M217.625000,1.000000 
	C217.996933,9.688468 217.993866,18.376936 217.983154,27.534403 
	C217.234421,28.002447 216.493332,28.001492 215.381592,28.001112 
	C215.007065,19.313560 215.003174,10.625436 214.999634,1.468655 
	C215.750000,1.000000 216.500000,1.000000 217.625000,1.000000 
z"/>
<path fill="#FEC03D" opacity="1.000000" stroke="none" 
	d="
M286.995361,335.033813 
	C286.806763,334.750610 286.618164,334.467438 286.047974,333.797363 
	C280.886353,328.359711 276.106354,323.308960 271.780823,318.194855 
	C274.515808,318.360352 277.298889,319.547821 278.993500,318.659302 
	C288.545959,313.650635 298.755951,315.346191 308.781647,314.935974 
	C310.843506,314.851593 313.451233,314.581238 314.820099,313.322754 
	C322.616577,306.155060 331.818726,304.135498 341.839783,305.294006 
	C335.285858,311.551788 328.877228,317.511261 322.099823,323.813660 
	C324.536713,325.910248 325.765900,326.967773 327.144348,328.322815 
	C328.135864,330.043457 328.978210,331.466614 330.151489,333.448975 
	C338.074432,325.485931 344.655182,318.786469 351.355621,312.208954 
	C352.710052,310.879364 354.517456,310.011169 356.332581,308.956177 
	C356.549164,308.982117 356.984497,309.010101 356.984497,309.010101 
	C357.465942,309.618469 357.947418,310.226837 358.841125,311.250732 
	C362.183716,314.770416 365.114075,317.874634 367.995026,321.322876 
	C362.987976,327.097137 358.030334,332.527344 352.632568,338.439606 
	C354.353973,339.465240 355.682434,340.256775 357.051727,341.397278 
	C358.814972,345.622650 360.916382,345.704681 363.823212,342.739471 
	C368.121216,338.355164 372.648895,334.196075 377.373230,330.094208 
	C382.001984,334.558533 386.192230,339.028381 390.712708,343.134613 
	C394.896606,346.935089 396.581329,351.375153 395.613037,356.887115 
	C395.339203,357.370605 395.065338,357.854065 394.485901,358.799072 
	C382.419952,371.077118 370.659576,382.893677 358.899200,394.710236 
	C358.364136,394.883545 357.829102,395.056824 356.670715,395.457886 
	C351.043365,396.482178 347.116882,394.743378 343.555206,391.149567 
	C332.825867,380.323303 321.902100,369.689728 311.054169,358.980988 
	C310.556976,358.383118 310.059784,357.785248 309.149445,356.783081 
	C301.489349,349.263794 294.242340,342.148804 286.995361,335.033813 
z"/>
<path fill="#F3F4F5" opacity="1.000000" stroke="none" 
	d="
M359.006104,262.999878 
	C359.006317,248.166656 359.100891,233.832352 358.938995,219.500961 
	C358.899506,216.004715 360.003021,214.909027 363.503265,214.932587 
	C383.835541,215.069382 404.169617,215.069443 424.501892,214.932800 
	C428.002380,214.909286 429.087952,216.006775 429.063843,219.500992 
	C428.925995,239.499893 428.925812,259.500732 429.062469,279.499634 
	C429.086365,282.991486 428.004547,284.093384 424.501709,284.069855 
	C404.169434,283.933289 383.835358,283.933838 363.503082,284.071014 
	C359.999756,284.094635 358.786316,282.999634 358.944702,279.496857 
	C359.185394,274.174500 359.006683,268.833130 359.006104,262.999878 
z"/>
<path fill="#F4F4F5" opacity="1.000000" stroke="none" 
	d="
M252.000000,142.993896 
	C241.684799,142.993301 231.868591,142.914856 222.054977,143.039383 
	C219.100021,143.076859 217.929337,142.176804 217.944473,139.065521 
	C218.044891,118.437447 218.054871,97.808304 217.935745,77.180420 
	C217.916519,73.848915 219.115204,72.928665 222.300568,72.947151 
	C241.431259,73.058167 260.563202,73.058105 279.693939,72.948059 
	C282.874146,72.929756 284.082733,73.839905 284.063416,77.176720 
	C283.944183,97.804604 283.954742,118.433754 284.055298,139.061829 
	C284.070465,142.169312 282.908203,143.081467 279.948639,143.039581 
	C270.800690,142.910141 261.649780,142.993301 252.000000,142.993896 
z"/>
<path fill="#F3F4F4" opacity="1.000000" stroke="none" 
	d="
M214.291077,425.706970 
	C192.739166,426.005585 171.475723,425.897705 150.214996,426.089569 
	C146.034683,426.127289 144.858261,424.850067 144.919205,420.738708 
	C145.140747,405.791809 145.005676,390.839630 145.193085,375.171387 
	C146.068451,373.980347 146.755814,373.507324 147.777695,372.988770 
	C158.729141,367.919312 169.346069,362.895355 179.962982,357.871399 
	C181.669357,358.249481 183.371765,358.932190 185.082764,358.954376 
	C193.737762,359.066650 202.395050,359.025635 211.051392,358.994873 
	C213.219421,358.987152 215.034775,359.089386 215.009796,362.048096 
	C214.831619,383.166901 214.715988,404.286224 214.291077,425.706970 
z"/>
<path fill="#F3F4F5" opacity="1.000000" stroke="none" 
	d="
M218.003342,425.992676 
	C218.000473,405.533417 218.107071,385.073059 217.904800,364.615753 
	C217.863037,360.390961 218.778290,358.831055 223.368484,358.896301 
	C241.994308,359.161011 260.626892,359.096497 279.255005,358.931763 
	C282.971252,358.898865 284.116119,360.006592 284.081146,363.742462 
	C283.911407,381.871429 284.033600,400.002930 283.991943,418.133423 
	C283.971313,427.107513 284.991730,425.882355 274.987579,426.002716 
	C255.376892,425.998718 236.690109,425.995697 218.003342,425.992676 
z"/>
<path fill="#F4F4F5" opacity="1.000000" stroke="none" 
	d="
M318.098419,143.089050 
	C309.277679,143.057190 300.455078,142.909851 291.637177,143.053009 
	C288.329712,143.106735 286.900421,142.320160 286.927856,138.642380 
	C287.080597,118.171051 287.058685,97.697655 286.943207,77.225830 
	C286.924652,73.943596 288.026611,72.928337 291.263977,72.946068 
	C311.735840,73.058174 332.209229,73.083794 352.680542,72.928978 
	C356.402924,72.900826 357.085938,74.418137 357.050812,77.677177 
	C356.939545,87.993591 357.081024,98.312721 356.921204,109.316513 
	C347.263092,113.797493 340.733398,120.961609 334.571930,128.977783 
	C331.834625,131.354218 329.433685,133.690186 326.736694,136.161163 
	C324.964111,137.868607 323.487579,139.441040 321.717163,141.148697 
	C320.315002,141.885635 319.206696,142.487335 318.098419,143.089050 
z"/>
<path fill="#F3F4F4" opacity="1.000000" stroke="none" 
	d="
M358.932343,395.201874 
	C370.659576,382.893677 382.419952,371.077118 394.440948,359.078430 
	C404.513641,358.934143 414.328125,359.109650 424.136505,358.937469 
	C427.715607,358.874634 429.113647,359.749847 429.077606,363.630554 
	C428.898468,382.922302 428.922791,402.217194 429.062531,421.509613 
	C429.087799,425.002014 427.992157,426.087921 424.504517,426.064636 
	C404.214050,425.929077 383.921448,425.905243 363.631561,426.080170 
	C359.750580,426.113617 358.852631,424.719177 358.939270,421.138672 
	C359.144409,412.661682 358.980286,404.175812 358.932343,395.201874 
z"/>
<path fill="#F3F4F4" opacity="1.000000" stroke="none" 
	d="
M393.004303,145.003143 
	C403.484833,145.004196 413.967163,145.114868 424.444855,144.943481 
	C427.849579,144.887787 429.093658,145.871887 429.066986,149.437012 
	C428.921326,168.899765 428.934448,188.364578 429.057098,207.827637 
	C429.078125,211.166351 427.865753,212.071304 424.687134,212.054764 
	C404.225708,211.948242 383.763153,211.947342 363.301758,212.055954 
	C360.104034,212.072937 358.867798,211.135849 358.946320,207.810623 
	C359.126862,200.162811 358.983521,192.507370 358.996368,184.067184 
	C359.695496,182.198898 360.369873,181.118454 361.327118,179.882248 
	C363.080322,178.159027 364.550659,176.591568 366.316895,174.872360 
	C368.770569,172.216721 370.928314,169.712814 373.428925,167.147186 
	C381.095367,160.519669 388.855988,154.334473 393.004303,145.003143 
z"/>
<path fill="#F4F4F5" opacity="1.000000" stroke="none" 
	d="
M145.079453,106.349487 
	C145.055466,96.699280 145.171021,87.045670 144.935654,77.400620 
	C144.847183,73.774574 146.225861,72.829826 149.596451,72.943260 
	C155.745850,73.150223 161.907272,73.000145 168.532440,72.995102 
	C182.629242,72.994507 196.258606,73.104340 209.884384,72.931396 
	C213.613113,72.884064 215.141205,73.690620 215.096756,77.858803 
	C214.882385,97.966164 214.921539,118.077660 215.071671,138.186188 
	C215.098801,141.819473 214.156906,143.245300 210.329758,143.069580 
	C204.193558,142.787811 198.034790,142.997528 191.115280,142.868561 
	C186.334930,138.959061 182.324875,135.180527 178.189987,131.121826 
	C171.654495,124.346283 165.101166,117.983696 158.885422,111.306839 
	C155.019012,107.153587 150.617157,105.399483 145.079453,106.349487 
z"/>
<path fill="#F3F4F4" opacity="1.000000" stroke="none" 
	d="
M396.113098,356.918213 
	C396.581329,351.375153 394.896606,346.935089 390.712708,343.134613 
	C386.192230,339.028381 382.001984,334.558533 377.223755,329.806580 
	C375.216766,327.875427 373.653717,326.385010 371.936127,324.616943 
	C370.535858,323.219116 369.290131,322.098969 368.044403,320.978821 
	C365.114075,317.874634 362.183716,314.770416 359.114807,311.366699 
	C358.986877,304.402679 359.100586,297.736023 358.960968,291.074707 
	C358.899170,288.124451 359.800964,286.933868 362.928711,286.949371 
	C383.588379,287.051819 404.249237,287.067139 424.908630,286.939911 
	C428.361664,286.918640 429.061646,288.327820 429.046967,291.407745 
	C428.950134,311.734253 428.900848,332.062286 429.078857,352.387695 
	C429.113220,356.310547 427.656372,357.142120 424.102448,357.058014 
	C414.943634,356.841339 405.776794,356.962891 396.113098,356.918213 
z"/>
<path fill="#F3F4F4" opacity="1.000000" stroke="none" 
	d="
M358.991272,109.108749 
	C358.995911,98.776894 359.137268,88.442345 358.933289,78.114609 
	C358.858887,74.347687 359.735138,72.860962 363.891327,72.905289 
	C383.886200,73.118546 403.885193,73.079498 423.881256,72.931358 
	C427.633026,72.903564 429.139954,73.715813 429.095184,77.881966 
	C428.880280,97.876823 428.876038,117.876610 429.095276,137.871384 
	C429.142822,142.210297 427.612366,143.179977 423.621460,143.074203 
	C413.962738,142.818176 404.293152,142.973862 394.136505,142.484390 
	C394.649048,134.719177 393.718201,127.809570 389.595428,121.545090 
	C382.250824,110.384995 371.683746,107.124100 358.991272,109.108749 
z"/>
<path fill="#F3F4F4" opacity="1.000000" stroke="none" 
	d="
M310.581299,358.991669 
	C321.902100,369.689728 332.825867,380.323303 343.555206,391.149567 
	C347.116882,394.743378 351.043365,396.482178 356.468140,395.655579 
	C356.922424,404.107910 356.847290,412.592804 357.040222,421.071594 
	C357.123444,424.727844 355.772797,426.071533 352.090912,426.051392 
	C331.798309,425.940247 311.504486,425.940521 291.211945,426.057648 
	C287.919373,426.076630 286.927277,424.950653 286.946045,421.727814 
	C287.059235,402.266968 287.085022,382.804443 286.927582,363.344208 
	C286.897705,359.655182 288.351593,358.848694 291.646698,358.951324 
	C297.795197,359.142853 303.953949,359.003815 310.581299,358.991669 
z"/>
<path fill="#5187C6" opacity="1.000000" stroke="none" 
	d="
M330.908386,210.872498 
	C329.661652,212.039566 328.414948,213.206619 326.732361,214.809494 
	C321.257141,220.258636 316.161255,225.216629 311.193756,230.300110 
	C305.673706,235.949020 300.270721,241.712296 294.511047,247.501770 
	C293.812927,247.721573 293.420563,247.865387 292.747986,247.808563 
	C291.501373,247.163681 290.154236,246.064529 289.624939,246.372223 
	C279.855499,252.051804 269.151855,249.378632 258.830627,250.016052 
	C257.522552,250.096848 256.067108,250.072617 254.952103,250.635834 
	C246.763062,254.772354 238.655350,259.069550 230.490311,263.254272 
	C229.066574,263.983948 227.493317,264.421844 226.138275,264.697052 
	C240.675842,249.948792 255.082840,235.516449 269.442780,221.037460 
	C274.687317,215.749496 279.820099,210.350677 285.300995,204.853561 
	C295.758362,194.369476 305.918579,184.034286 316.403839,173.821167 
	C318.556824,175.588242 320.430328,177.185684 322.204498,178.886749 
	C328.844086,185.252701 335.451141,191.652573 342.025909,198.383331 
	C338.290405,202.775482 334.599396,206.823990 330.908386,210.872498 
z"/>
<path fill="#F3F4F4" opacity="1.000000" stroke="none" 
	d="
M294.816772,247.425812 
	C300.270721,241.712296 305.673706,235.949020 311.193756,230.300110 
	C316.161255,225.216629 321.257141,220.258636 326.590729,215.099030 
	C335.368256,214.968048 343.853516,215.095749 352.333679,214.941879 
	C355.608002,214.882446 357.095306,215.616760 357.066650,219.322159 
	C356.911194,239.448395 356.938934,259.576721 357.047028,279.703583 
	C357.064148,282.894287 356.139038,284.161957 352.806305,284.063568 
	C346.158600,283.867371 339.500732,284.016296 332.106873,283.907837 
	C330.601959,283.175171 329.837158,282.557343 328.926300,281.655273 
	C327.530914,280.244202 326.281586,279.117310 324.890717,277.687897 
	C320.231964,273.097870 315.714752,268.810364 311.116638,264.231995 
	C309.717102,262.605133 308.398499,261.269196 306.929810,259.662354 
	C305.859009,258.588501 304.938354,257.785553 303.882721,256.683075 
	C301.841522,254.582581 299.935333,252.781616 297.887390,250.671661 
	C296.769379,249.383728 295.793060,248.404770 294.816772,247.425812 
z"/>
<path fill="#FEC657" opacity="1.000000" stroke="none" 
	d="
M178.314804,131.401993 
	C182.324875,135.180527 186.334930,138.959061 190.643051,142.879379 
	C191.436951,143.614227 191.932816,144.207291 192.800964,145.170990 
	C193.442566,146.025848 193.711868,146.510056 193.689880,147.151566 
	C188.276230,152.516708 183.153854,157.724564 177.570328,163.401260 
	C179.365417,164.477600 180.680267,165.265991 182.039612,166.403320 
	C183.788940,170.584198 185.884598,170.744385 188.793365,167.777267 
	C193.072418,163.412384 197.568039,159.259827 202.282578,155.138779 
	C206.723831,159.185303 210.853928,163.109879 214.984009,167.034454 
	C214.984009,167.034454 215.007156,167.530792 214.866089,168.074127 
	C211.827545,171.418365 208.930054,174.219269 205.575592,177.013046 
	C199.171234,176.591721 193.668121,177.566025 188.465164,180.886230 
	C185.855072,182.551834 182.520645,183.606918 179.422379,183.872711 
	C173.145004,184.411224 166.495468,183.062653 160.573181,184.642746 
	C153.818130,186.445038 147.620987,190.133469 140.065201,187.172302 
	C129.687881,177.060379 119.505348,167.159515 109.538162,157.046432 
	C106.585419,154.050461 104.716972,150.336578 107.075165,145.912918 
	C109.965874,146.972092 112.365288,148.483887 114.941383,148.898880 
	C120.878326,149.855255 125.917969,147.461014 130.645889,143.956833 
	C132.526031,142.563324 135.024963,142.004715 137.145996,141.433319 
	C135.973160,144.585861 132.717255,147.321045 136.876068,150.568665 
	C138.524918,152.673828 140.154083,154.436340 141.985428,156.440323 
	C143.146194,156.938202 144.104797,157.194611 145.436310,157.598862 
	C153.996521,157.640289 158.460251,152.779175 157.545502,144.761993 
	C157.157089,143.566360 156.679825,142.671066 156.152161,141.484680 
	C156.009781,140.810532 155.917786,140.427475 156.219086,139.885712 
	C159.068420,139.484436 161.519714,139.162262 163.981461,139.015152 
	C169.936066,138.659256 174.870651,136.451279 178.314804,131.401993 
z"/>
<path fill="#F4F4F5" opacity="1.000000" stroke="none" 
	d="
M216.974136,169.079956 
	C217.314331,162.826248 217.953278,156.569427 217.887726,150.319977 
	C217.845337,146.278534 218.901291,144.863235 223.156052,144.912872 
	C241.765610,145.130005 260.380127,145.106064 278.990448,144.925476 
	C282.890900,144.887650 284.274170,145.960266 284.088379,149.970413 
	C283.781067,156.603333 283.934753,163.262100 284.048920,169.907318 
	C284.082214,171.846405 284.641052,173.776459 285.023987,176.396378 
	C275.029968,187.123535 264.970978,197.164978 254.636383,207.010223 
	C251.600449,204.197174 248.840134,201.580322 245.938629,198.673492 
	C244.319778,197.203430 242.842117,196.023346 241.170135,194.568970 
	C239.649933,192.865555 238.324051,191.436432 236.866699,189.700821 
	C232.494293,185.260284 228.253357,181.126236 223.868622,176.701965 
	C222.164078,174.943024 220.603363,173.474319 218.918900,171.730148 
	C218.188156,170.663086 217.581146,169.871521 216.974136,169.079956 
z"/>
<path fill="#F3F4F4" opacity="1.000000" stroke="none" 
	d="
M271.326355,318.258240 
	C276.106354,323.308960 280.886353,328.359711 285.801331,333.711121 
	C285.292725,335.587921 284.176636,337.139740 284.094208,338.744659 
	C283.847015,343.557465 283.902130,348.393890 284.041595,353.215271 
	C284.121735,355.986511 283.117004,357.041840 280.291443,357.030762 
	C260.823639,356.954346 241.355103,356.938873 221.887589,357.045074 
	C218.736374,357.062286 217.906204,355.810394 217.951019,352.896515 
	C218.078918,344.578796 217.994507,336.257812 217.996155,327.081665 
	C217.984283,325.447845 217.969864,324.670502 218.102356,323.598816 
	C221.644012,319.881470 224.987350,316.405518 228.444733,313.046967 
	C234.736954,306.934692 241.096893,300.892151 247.662186,295.080383 
	C248.914276,296.240784 249.932739,297.141357 251.096436,298.341919 
	C257.936554,305.180725 264.631470,311.719482 271.326355,318.258240 
z"/>
<path fill="#FEC143" opacity="1.000000" stroke="none" 
	d="
M271.780823,318.194855 
	C264.631470,311.719482 257.936554,305.180725 251.397644,298.190002 
	C257.005371,292.355743 262.505829,287.021729 267.898346,281.580750 
	C277.975006,271.413513 287.989014,261.184143 298.029114,250.980652 
	C299.935333,252.781616 301.841522,254.582581 303.584869,256.834717 
	C295.627625,265.148102 287.833221,273.010345 279.719940,281.194305 
	C281.330627,282.635742 282.652191,283.818420 284.116302,285.289825 
	C285.104462,286.795288 285.950073,288.012054 287.161407,289.755035 
	C295.725677,280.764648 303.461609,272.643768 311.197571,264.522888 
	C315.714752,268.810364 320.231964,273.097870 324.738342,277.985657 
	C320.646667,282.734497 316.547699,286.865448 312.490326,291.036804 
	C308.927094,294.700195 309.153137,295.679504 314.024109,298.365479 
	C314.902679,299.816193 315.739868,300.926361 317.596069,303.387939 
	C320.316559,300.110321 322.323303,297.252136 324.777100,294.850677 
	C327.676636,292.012970 330.962402,289.569946 334.080750,286.955811 
	C334.080750,286.955811 334.510132,287.007446 334.868561,287.317444 
	C339.162537,291.733429 343.098114,295.839447 346.885986,300.239990 
	C345.153870,302.021576 343.569489,303.508636 341.985107,304.995667 
	C331.818726,304.135498 322.616577,306.155060 314.820099,313.322754 
	C313.451233,314.581238 310.843506,314.851593 308.781647,314.935974 
	C298.755951,315.346191 288.545959,313.650635 278.993500,318.659302 
	C277.298889,319.547821 274.515808,318.360352 271.780823,318.194855 
z"/>
<path fill="#F26949" opacity="1.000000" stroke="none" 
	d="
M358.719849,109.239517 
	C371.683746,107.124100 382.250824,110.384995 389.595428,121.545090 
	C393.718201,127.809570 394.649048,134.719177 393.646118,142.463776 
	C393.415771,143.426270 393.184357,143.930161 392.978638,144.718597 
	C388.855988,154.334473 381.095367,160.519669 373.292847,166.821167 
	C360.178741,154.017014 347.543518,141.477173 334.908325,128.937317 
	C340.733398,120.961609 347.263092,113.797493 356.997284,109.820129 
	C357.667450,109.548790 358.057953,109.459541 358.719849,109.239517 
z"/>
<path fill="#EFB480" opacity="1.000000" stroke="none" 
	d="
M180.113708,357.607727 
	C169.346069,362.895355 158.729141,367.919312 147.585297,372.688721 
	C143.062424,368.287018 139.066452,364.139893 135.400879,359.934631 
	C146.816635,346.927155 157.902023,333.977814 169.326996,320.992035 
	C170.118088,320.903442 170.569565,320.851318 171.415894,320.909973 
	C180.977448,322.669373 180.127167,321.364655 181.245987,329.901062 
	C182.537018,339.751556 182.785828,339.706451 193.123871,341.183136 
	C194.931610,341.441345 196.716797,341.857239 198.370178,342.518890 
	C193.102097,347.164429 187.976257,351.491364 182.850403,355.818298 
	C181.988419,356.326904 181.126419,356.835480 180.113708,357.607727 
z"/>
<path fill="#6B94CC" opacity="1.000000" stroke="none" 
	d="
M254.911987,207.206421 
	C264.970978,197.164978 275.029968,187.123535 285.235382,176.802505 
	C286.195892,175.893906 287.010040,175.264893 288.263916,174.201813 
	C290.118805,172.381210 291.480377,170.934311 292.959808,169.620102 
	C296.601257,166.385391 300.296814,163.211655 304.088745,160.328049 
	C308.164154,164.994797 312.121460,169.346939 316.078766,173.699097 
	C305.918579,184.034286 295.758362,194.369476 284.928467,204.858429 
	C282.507782,205.842529 280.792664,206.762039 278.997894,207.483429 
	C275.919281,208.720810 272.761993,210.885635 269.688812,210.801239 
	C260.771759,210.556366 254.416077,214.678192 249.494644,221.334885 
	C245.522980,226.706909 240.779175,229.704742 234.130554,228.693283 
	C241.146683,221.327408 248.029343,214.266922 254.911987,207.206421 
z"/>
<path fill="#F3F4F4" opacity="1.000000" stroke="none" 
	d="
M183.151428,356.135315 
	C187.976257,351.491364 193.102097,347.164429 198.650909,342.406677 
	C204.373322,336.969543 209.672760,331.963287 214.979660,326.981079 
	C214.987122,327.005127 215.013550,327.047974 215.013550,327.047974 
	C215.008896,335.491974 214.889328,343.938232 215.057175,352.378784 
	C215.122635,355.670502 214.334656,357.207550 210.666748,357.056396 
	C201.602417,356.682892 192.524750,356.632538 183.151428,356.135315 
z"/>
<path fill="#F3F4F4" opacity="1.000000" stroke="none" 
	d="
M303.970642,160.013428 
	C300.296814,163.211655 296.601257,166.385391 292.959808,169.620102 
	C291.480377,170.934311 290.118805,172.381210 288.418213,173.933746 
	C287.755035,172.236404 287.090546,170.379089 287.051453,168.508698 
	C286.916718,162.065735 287.141479,155.613861 286.942413,149.174255 
	C286.840363,145.872238 288.086426,144.886414 291.269043,144.950729 
	C299.529510,145.117645 307.795563,145.007385 316.517883,145.321442 
	C316.974152,146.058395 316.971954,146.481644 316.630981,146.965576 
	C314.484497,149.003250 312.676727,150.980240 310.532959,153.002136 
	C308.121552,155.369156 306.046112,157.691299 303.970642,160.013428 
z"/>
<path fill="#C8CACC" opacity="1.000000" stroke="none" 
	d="
M316.969727,146.904892 
	C316.971954,146.481644 316.974152,146.058395 316.986328,145.317719 
	C317.332397,144.554306 317.668549,144.108337 318.051575,143.375702 
	C319.206696,142.487335 320.315002,141.885635 321.868347,141.442505 
	C335.223694,154.413406 348.133972,167.225708 361.044250,180.037994 
	C360.369873,181.118454 359.695496,182.198898 358.969849,183.593414 
	C358.034149,184.407303 357.149719,184.907120 355.884216,185.709869 
	C355.503143,186.012833 355.025879,186.029602 354.871155,185.730896 
	C350.315857,180.962143 345.905060,176.502060 341.516876,172.019821 
	C333.327545,163.654953 325.151367,155.277252 316.969727,146.904892 
z"/>
<path fill="#F3F4F4" opacity="1.000000" stroke="none" 
	d="
M355.025879,186.029602 
	C355.025879,186.029602 355.503143,186.012833 355.740936,185.993271 
	C356.287750,194.024948 356.652130,202.075195 356.793579,210.129379 
	C356.804108,210.729340 355.215057,211.890839 354.371613,211.888977 
	C346.747101,211.872040 339.122986,211.653763 331.203583,211.183502 
	C334.599396,206.823990 338.290405,202.775482 342.364410,198.357559 
	C344.859283,195.748108 346.971161,193.508057 349.409424,191.167801 
	C351.499176,189.388260 353.262512,187.708923 355.025879,186.029602 
z"/>
<path fill="#F3F4F4" opacity="1.000000" stroke="none" 
	d="
M286.999084,335.499756 
	C294.242340,342.148804 301.489349,349.263794 308.870239,356.683014 
	C302.905090,356.988281 296.804199,356.900574 290.707916,357.030212 
	C287.930450,357.089264 286.900757,356.038635 286.963379,353.272888 
	C287.093964,347.506500 287.002838,341.735077 286.999084,335.499756 
z"/>
<path fill="#F3F4F4" opacity="1.000000" stroke="none" 
	d="
M214.987289,166.563080 
	C210.853928,163.109879 206.723831,159.185303 202.145706,154.846527 
	C200.146835,152.958298 198.595993,151.484283 196.902069,149.731262 
	C195.833038,148.632919 194.907104,147.813583 193.981171,146.994263 
	C193.711868,146.510056 193.442566,146.025848 193.074432,145.280273 
	C199.086121,145.015488 205.198639,145.102173 211.306335,144.968323 
	C214.108917,144.906891 215.099823,145.999481 215.037186,148.751831 
	C214.905701,154.529160 214.993057,160.311447 214.987289,166.563080 
z"/>
<path fill="#F3F4F4" opacity="1.000000" stroke="none" 
	d="
M347.033691,299.945435 
	C343.098114,295.839447 339.162537,291.733429 335.084686,287.324402 
	C341.054596,287.015289 347.168793,287.097900 353.278168,286.963135 
	C356.062408,286.901733 357.093994,287.954956 357.030182,290.727173 
	C356.897156,296.506012 356.986053,302.289948 356.984131,308.540955 
	C356.984497,309.010101 356.549164,308.982117 356.182129,308.666992 
	C354.219879,306.892212 352.624664,305.432526 350.900299,303.680237 
	C349.525299,302.240204 348.279510,301.092834 347.033691,299.945435 
z"/>
<path fill="#E4B049" opacity="1.000000" stroke="none" 
	d="
M216.711945,168.982239 
	C217.581146,169.871521 218.188156,170.663086 218.858856,172.068832 
	C211.269760,180.457993 203.616974,188.232986 195.613342,195.966064 
	C191.356873,194.213821 191.292923,192.095367 194.259186,189.200394 
	C198.298599,185.258102 202.118530,181.090942 206.032562,177.020187 
	C208.930054,174.219269 211.827545,171.418365 214.875977,168.322357 
	C215.501205,168.313019 215.975479,168.598770 216.711945,168.982239 
z"/>
<path fill="#E6E7E9" opacity="1.000000" stroke="none" 
	d="
M218.002213,426.369080 
	C236.690109,425.995697 255.376892,425.998718 274.532440,426.005646 
	C275.001038,426.754395 275.000885,427.499207 275.001343,428.616302 
	C256.314209,428.992676 237.626465,428.996826 218.470276,429.002319 
	C218.001572,428.250946 218.001328,427.498230 218.002213,426.369080 
z"/>
<path fill="#FEC85D" opacity="1.000000" stroke="none" 
	d="
M333.948059,286.680603 
	C330.962402,289.569946 327.676636,292.012970 324.777100,294.850677 
	C322.323303,297.252136 320.316559,300.110321 317.596069,303.387939 
	C315.739868,300.926361 314.902679,299.816193 314.180389,298.068604 
	C319.220947,292.267303 324.146667,287.103394 329.072388,281.939484 
	C329.837158,282.557343 330.601959,283.175171 331.632050,283.923462 
	C332.536713,284.837708 333.176056,285.621521 333.948059,286.680603 
z"/>
<path fill="#E6E7E9" opacity="1.000000" stroke="none" 
	d="
M217.955460,323.893127 
	C217.969864,324.670502 217.984283,325.447845 217.996399,326.613068 
	C217.248505,327.002106 216.502914,327.003326 215.385437,327.026245 
	C215.013550,327.047974 214.987122,327.005127 215.096191,326.692902 
	C216.121994,325.551483 217.038727,324.722290 217.955460,323.893127 
z"/>
<path fill="#F4F4F5" opacity="1.000000" stroke="none" 
	d="
M73.003220,265.999023 
	C73.003189,250.185837 73.084824,234.871582 72.940010,219.559464 
	C72.907791,216.153580 73.849609,214.904678 77.430672,214.930374 
	C97.736633,215.075974 118.044495,215.056824 138.350891,214.944626 
	C141.648544,214.926422 143.093597,215.663132 143.065063,219.346848 
	C142.910278,239.319763 142.948837,259.294678 143.032776,279.268433 
	C143.046936,282.636749 141.891785,284.060974 138.391678,284.045349 
	C117.918625,283.953918 97.444733,283.953705 76.971741,284.051453 
	C73.906029,284.066101 72.840492,282.989166 72.959091,279.979401 
	C73.135895,275.492218 73.003845,270.992889 73.003220,265.999023 
z"/>
<path fill="#F4F4F5" opacity="1.000000" stroke="none" 
	d="
M127.125565,357.022430 
	C110.989441,357.012482 94.851974,356.885925 78.718079,357.070557 
	C74.416344,357.119781 72.878937,355.809174 72.921257,351.380646 
	C73.110405,331.586456 73.102768,311.788544 72.919556,291.994232 
	C72.883011,288.045624 74.039879,286.881775 77.992508,286.917999 
	C97.953171,287.100800 117.917755,287.124359 137.877701,286.905426 
	C142.208786,286.857910 143.164215,288.386444 143.074112,292.369202 
	C142.848450,302.344391 143.035126,312.328949 142.919159,323.092743 
	C141.469055,327.081085 140.257568,330.332611 138.822662,333.482361 
	C135.597366,340.562103 132.261246,347.591400 128.761902,354.864563 
	C128.077576,355.732727 127.601570,356.377563 127.125565,357.022430 
z"/>
<path fill="#F4F5F6" opacity="1.000000" stroke="none" 
	d="
M107.266861,143.098846 
	C97.288994,143.063110 87.309975,142.930283 77.333931,143.048386 
	C74.176292,143.085770 72.924011,142.202393 72.943665,138.841339 
	C73.064255,118.219337 73.049797,97.596077 72.952888,76.973824 
	C72.938538,73.919334 74.004082,72.941193 77.011963,72.954704 
	C97.634239,73.047409 118.257515,73.066223 138.879471,72.942566 
	C142.286377,72.922142 143.088257,74.257271 143.045670,77.372162 
	C142.913803,87.016037 143.023209,96.663208 142.888306,107.054276 
	C130.914047,119.565910 119.090454,131.332382 107.266861,143.098846 
z"/>
<path fill="#F3F4F4" opacity="1.000000" stroke="none" 
	d="
M141.383865,376.602356 
	C141.920258,378.240601 142.906342,379.874573 142.921951,381.517761 
	C143.048431,394.825775 142.900757,408.136566 143.056183,421.443970 
	C143.095993,424.852448 142.139160,426.094269 138.563522,426.069031 
	C118.101639,425.924500 97.637871,425.938721 77.175674,426.058411 
	C73.837166,426.077911 72.931015,424.867004 72.948898,421.687897 
	C73.058380,402.223785 73.010918,382.758789 72.994125,363.294067 
	C72.992165,361.016998 72.899094,358.965393 76.201370,358.983917 
	C91.672462,359.070679 107.144241,359.029388 122.615555,359.091034 
	C123.372604,359.094025 124.127510,359.636078 125.070633,360.610229 
	C122.144516,367.733215 118.889687,374.111084 116.022964,380.658875 
	C115.353699,382.187531 115.298370,385.038513 116.239067,385.926086 
	C117.205429,386.837860 119.982346,386.653595 121.540344,385.972809 
	C128.240402,383.045105 134.783569,379.758331 141.383865,376.602356 
z"/>
<path fill="#FEC450" opacity="1.000000" stroke="none" 
	d="
M205.575623,177.013062 
	C202.118530,181.090942 198.298599,185.258102 194.259186,189.200394 
	C191.292923,192.095367 191.356873,194.213821 195.662567,196.318207 
	C197.726120,200.518066 199.782394,200.788406 202.748322,197.813507 
	C209.751862,190.788818 216.914291,183.922546 224.012451,176.992188 
	C228.253357,181.126236 232.494293,185.260284 236.718231,189.997498 
	C232.515182,194.849136 228.292511,199.062332 224.154877,203.357468 
	C220.952881,206.681366 221.269592,207.726273 225.973846,210.286224 
	C226.984314,211.786987 227.941803,212.942291 229.595139,214.937180 
	C232.206726,211.927216 234.102005,209.364532 236.381561,207.208099 
	C239.459564,204.296310 242.833084,201.696884 246.079803,198.963440 
	C248.840134,201.580322 251.600449,204.197174 254.636383,207.010239 
	C248.029343,214.266922 241.146683,221.327408 233.827148,228.830292 
	C224.664200,237.824524 215.938126,246.376373 207.018646,254.650940 
	C193.547684,241.247894 180.270126,228.122147 166.992569,214.996399 
	C166.173233,214.080887 165.353897,213.165390 164.116821,211.824493 
	C157.471619,205.261871 151.244171,199.124603 145.016739,192.987335 
	C144.532288,192.382645 144.047852,191.777939 143.158798,190.762054 
	C141.950241,189.334641 141.146271,188.318420 140.342316,187.302216 
	C147.620987,190.133469 153.818130,186.445038 160.573181,184.642746 
	C166.495468,183.062653 173.145004,184.411224 179.422379,183.872711 
	C182.520645,183.606918 185.855072,182.551834 188.465164,180.886230 
	C193.668121,177.566025 199.171234,176.591721 205.575623,177.013062 
z"/>
<path fill="#F4F4F5" opacity="1.000000" stroke="none" 
	d="
M140.065201,187.172302 
	C141.146271,188.318420 141.950241,189.334641 142.887543,190.642563 
	C143.011261,196.264755 142.869171,201.599457 143.038773,206.924210 
	C143.151138,210.452209 142.048737,212.075363 138.226730,212.053482 
	C117.904610,211.937027 97.581154,211.942719 77.258995,212.056412 
	C74.007408,212.074585 72.925842,211.036148 72.945610,207.762314 
	C73.063271,188.273148 73.059952,168.782562 72.947044,149.293320 
	C72.928413,146.076477 73.897148,144.886276 77.210876,144.947281 
	C86.702766,145.122025 96.199883,145.012939 106.195236,145.226349 
	C106.695534,145.437241 106.664116,145.867355 106.664116,145.867355 
	C104.716972,150.336578 106.585419,154.050461 109.538162,157.046432 
	C119.505348,167.159515 129.687881,177.060379 140.065201,187.172302 
z"/>
<path fill="#F4F4F5" opacity="1.000000" stroke="none" 
	d="
M166.524673,214.999527 
	C180.270126,228.122147 193.547684,241.247894 206.853485,254.958893 
	C197.291199,265.045807 187.700638,274.547516 178.110077,284.049225 
	C168.637039,284.033600 159.162537,283.918488 149.691772,284.057220 
	C146.453217,284.104675 144.905670,283.441528 144.934631,279.708588 
	C145.090714,259.599945 145.086761,239.488861 144.936203,219.380112 
	C144.909012,215.749649 146.253998,214.814697 149.605438,214.944046 
	C155.081818,215.155396 160.572266,215.002106 166.524673,214.999527 
z"/>
<path fill="#6690CB" opacity="1.000000" stroke="none" 
	d="
M177.965210,284.336334 
	C187.700638,274.547516 197.291199,265.045807 207.046906,255.236176 
	C215.938126,246.376373 224.664200,237.824524 233.693680,229.135681 
	C240.779175,229.704742 245.522980,226.706909 249.494644,221.334885 
	C254.416077,214.678192 260.771759,210.556366 269.688812,210.801239 
	C272.761993,210.885635 275.919281,208.720810 278.997894,207.483429 
	C280.792664,206.762039 282.507782,205.842529 284.631287,205.007324 
	C279.820099,210.350677 274.687317,215.749496 269.442780,221.037460 
	C255.082840,235.516449 240.675842,249.948792 225.842255,264.846924 
	C207.935867,282.688049 190.464844,300.072052 173.042007,317.504211 
	C172.156204,318.390503 171.685211,319.691376 171.021057,320.799194 
	C170.569565,320.851318 170.118088,320.903442 169.037079,320.746460 
	C163.859100,320.575653 161.635773,318.624023 161.570465,313.774078 
	C161.524582,310.366852 160.433273,306.973724 159.917419,303.280884 
	C164.713364,298.031921 169.400650,293.076385 174.087952,288.120819 
	C175.332092,286.955017 176.576218,285.789246 177.965210,284.336334 
z"/>
<path fill="#FEC85D" opacity="1.000000" stroke="none" 
	d="
M107.075165,145.912918 
	C106.664116,145.867355 106.695534,145.437241 106.637527,145.229034 
	C106.761940,144.603760 106.944359,144.186691 107.196808,143.434235 
	C119.090454,131.332382 130.914047,119.565910 142.921280,107.539444 
	C143.631104,107.098503 144.157288,106.917572 144.881470,106.543060 
	C150.617157,105.399483 155.019012,107.153587 158.885422,111.306839 
	C165.101166,117.983696 171.654495,124.346283 178.189987,131.121826 
	C174.870651,136.451279 169.936066,138.659256 163.981461,139.015152 
	C161.519714,139.162262 159.068420,139.484436 155.924255,139.719849 
	C151.834091,138.585327 148.432037,137.457932 144.687683,136.301498 
	C141.977631,137.870316 139.609909,139.468155 137.242172,141.066010 
	C135.024963,142.004715 132.526031,142.563324 130.645889,143.956833 
	C125.917969,147.461014 120.878326,149.855255 114.941383,148.898880 
	C112.365288,148.483887 109.965874,146.972092 107.075165,145.912918 
z"/>
<path fill="#F2BD8E" opacity="1.000000" stroke="none" 
	d="
M159.808777,303.574280 
	C160.433273,306.973724 161.524582,310.366852 161.570465,313.774078 
	C161.635773,318.624023 163.859100,320.575653 168.697479,320.782898 
	C157.902023,333.977814 146.816635,346.927155 135.098541,359.791962 
	C132.633942,358.018707 130.802078,356.329987 128.970215,354.641235 
	C132.261246,347.591400 135.597366,340.562103 138.822662,333.482361 
	C140.257568,330.332611 141.469055,327.081085 142.963593,323.576996 
	C144.035248,322.061615 144.925278,320.845032 146.072876,319.026306 
	C150.823227,313.474182 155.315994,308.524231 159.808777,303.574280 
z"/>
<path fill="#485E78" opacity="1.000000" stroke="none" 
	d="
M128.761902,354.864563 
	C130.802078,356.329987 132.633942,358.018707 134.768158,359.850098 
	C139.066452,364.139893 143.062424,368.287018 147.250793,372.734222 
	C146.755814,373.507324 146.068451,373.980347 145.186066,374.699371 
	C143.959671,375.351349 142.928314,375.757324 141.640411,376.382812 
	C134.783569,379.758331 128.240402,383.045105 121.540344,385.972809 
	C119.982346,386.653595 117.205429,386.837860 116.239067,385.926086 
	C115.298370,385.038513 115.353699,382.187531 116.022964,380.658875 
	C118.889687,374.111084 122.144516,367.733215 125.354340,360.979126 
	C125.979851,359.673737 126.508888,358.682617 127.081741,357.356934 
	C127.601570,356.377563 128.077576,355.732727 128.761902,354.864563 
z"/>
<path fill="#F3F4F4" opacity="1.000000" stroke="none" 
	d="
M159.917419,303.280884 
	C155.315994,308.524231 150.823227,313.474182 146.161652,318.713074 
	C145.663940,316.771759 145.089401,314.545685 145.051483,312.310486 
	C144.930191,305.160675 144.877701,298.002960 145.127182,290.859772 
	C145.172745,289.555450 146.746201,287.212524 147.641373,287.199402 
	C156.255844,287.073517 164.876129,287.344360 173.791351,287.811218 
	C169.400650,293.076385 164.713364,298.031921 159.917419,303.280884 
z"/>
<path fill="#F3F4F4" opacity="1.000000" stroke="none" 
	d="
M145.015915,193.456665 
	C151.244171,199.124603 157.471619,205.261871 163.831696,211.702637 
	C159.028183,212.003693 154.085327,211.843842 149.158279,212.054047 
	C145.868515,212.194382 144.818588,210.915848 144.956940,207.744949 
	C145.157562,203.146530 145.012634,198.533035 145.015915,193.456665 
z"/>
<path fill="#FEC85D" opacity="1.000000" stroke="none" 
	d="
M351.029480,303.972839 
	C352.624664,305.432526 354.219879,306.892212 355.965546,308.641052 
	C354.517456,310.011169 352.710052,310.879364 351.355621,312.208954 
	C344.655182,318.786469 338.074432,325.485931 330.151489,333.448975 
	C328.978210,331.466614 328.135864,330.043457 327.438965,328.164856 
	C335.399384,319.797211 343.214447,311.885010 351.029480,303.972839 
z"/>
<path fill="#E4B049" opacity="1.000000" stroke="none" 
	d="
M350.900299,303.680237 
	C343.214447,311.885010 335.399384,319.797211 327.289734,327.867340 
	C325.765900,326.967773 324.536713,325.910248 322.099823,323.813660 
	C328.877228,317.511261 335.285858,311.551788 341.839783,305.294006 
	C343.569489,303.508636 345.153870,302.021576 346.885986,300.239990 
	C348.279510,301.092834 349.525299,302.240204 350.900299,303.680237 
z"/>
<path fill="#FEC85D" opacity="1.000000" stroke="none" 
	d="
M372.090668,324.894592 
	C373.653717,326.385010 375.216766,327.875427 376.929291,329.653473 
	C372.648895,334.196075 368.121216,338.355164 363.823212,342.739471 
	C360.916382,345.704681 358.814972,345.622650 357.344574,341.235535 
	C362.427948,335.448090 367.259308,330.171326 372.090668,324.894592 
z"/>
<path fill="#E4B049" opacity="1.000000" stroke="none" 
	d="
M371.936127,324.616943 
	C367.259308,330.171326 362.427948,335.448090 357.303772,340.886597 
	C355.682434,340.256775 354.353973,339.465240 352.632568,338.439606 
	C358.030334,332.527344 362.987976,327.097137 367.995026,321.322876 
	C369.290131,322.098969 370.535858,323.219116 371.936127,324.616943 
z"/>
<path fill="#C8CACC" opacity="1.000000" stroke="none" 
	d="
M334.571930,128.977783 
	C347.543518,141.477173 360.178741,154.017014 372.950012,166.882889 
	C370.928314,169.712814 368.770569,172.216721 366.163330,174.573914 
	C352.820160,161.626846 339.926453,148.826492 327.032776,136.026154 
	C329.433685,133.690186 331.834625,131.354218 334.571930,128.977783 
z"/>
<path fill="#B5BABC" opacity="1.000000" stroke="none" 
	d="
M326.736694,136.161163 
	C339.926453,148.826492 352.820160,161.626846 365.867432,174.725647 
	C364.550659,176.591568 363.080322,178.159027 361.327148,179.882263 
	C348.133972,167.225708 335.223694,154.413406 322.162231,141.307281 
	C323.487579,139.441040 324.964111,137.868607 326.736694,136.161163 
z"/>
<path fill="#4B84C4" opacity="1.000000" stroke="none" 
	d="
M171.415909,320.909973 
	C171.685211,319.691376 172.156204,318.390503 173.042007,317.504211 
	C190.464844,300.072052 207.935867,282.688049 225.693085,265.144348 
	C227.493317,264.421844 229.066574,263.983948 230.490311,263.254272 
	C238.655350,259.069550 246.763062,254.772354 254.952103,250.635834 
	C256.067108,250.072617 257.522552,250.096848 258.830627,250.016052 
	C269.151855,249.378632 279.855499,252.051804 289.624939,246.372223 
	C290.154236,246.064529 291.501373,247.163681 292.608398,248.111969 
	C278.894928,262.497467 265.029694,276.367798 251.204254,290.277710 
	C249.821686,291.668732 248.681335,293.300476 247.428574,294.820526 
	C241.096893,300.892151 234.736954,306.934692 228.444733,313.046967 
	C224.987350,316.405518 221.644012,319.881470 218.102356,323.598816 
	C217.038727,324.722290 216.121994,325.551483 215.088745,326.668854 
	C209.672760,331.963287 204.373322,336.969543 198.793152,342.088074 
	C196.716797,341.857239 194.931610,341.441345 193.123871,341.183136 
	C182.785828,339.706451 182.537018,339.751556 181.245987,329.901062 
	C180.127167,321.364655 180.977448,322.669373 171.415909,320.909973 
z"/>
<path fill="#C8CACC" opacity="1.000000" stroke="none" 
	d="
M349.083069,191.268005 
	C346.971161,193.508057 344.859283,195.748108 342.408905,198.013947 
	C335.451141,191.652573 328.844086,185.252701 322.204498,178.886749 
	C320.430328,177.185684 318.556824,175.588242 316.403839,173.821152 
	C312.121460,169.346939 308.164154,164.994797 304.088745,160.328064 
	C306.046112,157.691299 308.121552,155.369156 310.850891,153.142258 
	C317.732117,159.391006 324.018494,165.486160 330.170441,171.714142 
	C336.542572,178.165024 342.784302,184.744690 349.083069,191.268005 
z"/>
<path fill="#E4B049" opacity="1.000000" stroke="none" 
	d="
M247.662186,295.080383 
	C248.681335,293.300476 249.821686,291.668732 251.204254,290.277710 
	C265.029694,276.367798 278.894928,262.497467 292.888550,248.312592 
	C293.420563,247.865387 293.812927,247.721573 294.511047,247.501770 
	C295.793060,248.404770 296.769379,249.383728 297.887390,250.671661 
	C287.989014,261.184143 277.975006,271.413513 267.898346,281.580750 
	C262.505829,287.021729 257.005371,292.355743 251.252441,297.889984 
	C249.932739,297.141357 248.914276,296.240784 247.662186,295.080383 
z"/>
<path fill="#FEC85D" opacity="1.000000" stroke="none" 
	d="
M311.116638,264.231995 
	C303.461609,272.643768 295.725677,280.764648 287.161407,289.755035 
	C285.950073,288.012054 285.104462,286.795288 284.274323,284.995697 
	C290.797272,277.843292 297.345642,271.313293 303.778473,264.671417 
	C305.100433,263.306519 305.990662,261.523529 307.079895,259.933258 
	C308.398499,261.269196 309.717102,262.605133 311.116638,264.231995 
z"/>
<path fill="#E4B049" opacity="1.000000" stroke="none" 
	d="
M306.929810,259.662354 
	C305.990662,261.523529 305.100433,263.306519 303.778473,264.671417 
	C297.345642,271.313293 290.797272,277.843292 284.131775,284.707001 
	C282.652191,283.818420 281.330627,282.635742 279.719940,281.194305 
	C287.833221,273.010345 295.627625,265.148102 303.719849,257.134216 
	C304.938354,257.785553 305.859009,258.588501 306.929810,259.662354 
z"/>
<path fill="#E4B049" opacity="1.000000" stroke="none" 
	d="
M328.926300,281.655273 
	C324.146667,287.103394 319.220947,292.267303 314.138977,297.728088 
	C309.153137,295.679504 308.927094,294.700195 312.490326,291.036804 
	C316.547699,286.865448 320.646667,282.734497 324.879913,278.288208 
	C326.281586,279.117310 327.530914,280.244202 328.926300,281.655273 
z"/>
<path fill="#F3F4F4" opacity="1.000000" stroke="none" 
	d="
M157.456665,145.062317 
	C158.460251,152.779175 153.996521,157.640289 145.417511,157.187988 
	C145.119965,143.396240 143.308502,145.111694 156.469009,145.024551 
	C156.798126,145.022369 157.127441,145.049072 157.456665,145.062317 
z"/>
<path fill="#FEC85D" opacity="1.000000" stroke="none" 
	d="
M197.045151,150.010254 
	C198.595993,151.484283 200.146835,152.958298 201.834549,154.724579 
	C197.568039,159.259827 193.072418,163.412384 188.793365,167.777267 
	C185.884598,170.744385 183.788940,170.584198 182.333466,166.239944 
	C187.403595,160.488480 192.224365,155.249359 197.045151,150.010254 
z"/>
<path fill="#E4B049" opacity="1.000000" stroke="none" 
	d="
M196.902069,149.731262 
	C192.224365,155.249359 187.403595,160.488480 182.288971,165.890991 
	C180.680267,165.265991 179.365417,164.477600 177.570328,163.401260 
	C183.153854,157.724564 188.276230,152.516708 193.689880,147.151566 
	C194.907104,147.813583 195.833038,148.632919 196.902069,149.731262 
z"/>
<path fill="#E5E5E7" opacity="1.000000" stroke="none" 
	d="
M157.545502,144.761993 
	C157.127441,145.049072 156.798126,145.022369 156.469009,145.024551 
	C143.308502,145.111694 145.119965,143.396240 145.044601,157.040131 
	C144.104797,157.194611 143.146194,156.938202 142.299942,156.143585 
	C142.606415,153.839828 142.912674,152.077759 142.967560,150.307907 
	C143.043961,147.844482 143.346024,145.020432 139.595352,145.066467 
	C135.705200,145.114212 137.493118,148.352249 136.856400,150.226013 
	C132.717255,147.321045 135.973160,144.585861 137.145996,141.433319 
	C139.609909,139.468155 141.977631,137.870316 144.682312,136.700867 
	C145.784058,139.038162 146.311646,142.404587 147.359375,142.575119 
	C150.188782,143.035629 153.239594,142.135849 156.202560,141.775772 
	C156.679825,142.671066 157.157089,143.566360 157.545502,144.761993 
z"/>
<path fill="#F3F4F4" opacity="1.000000" stroke="none" 
	d="
M156.152161,141.484680 
	C153.239594,142.135849 150.188782,143.035629 147.359375,142.575119 
	C146.311646,142.404587 145.784058,139.038162 145.024628,136.729889 
	C148.432037,137.457932 151.834091,138.585327 155.530960,139.878571 
	C155.917786,140.427475 156.009781,140.810532 156.152161,141.484680 
z"/>
<path fill="#F3F4F4" opacity="1.000000" stroke="none" 
	d="
M136.876068,150.568665 
	C137.493118,148.352249 135.705200,145.114212 139.595352,145.066467 
	C143.346024,145.020432 143.043961,147.844482 142.967560,150.307907 
	C142.912674,152.077759 142.606415,153.839828 142.097778,155.902100 
	C140.154083,154.436340 138.524918,152.673828 136.876068,150.568665 
z"/>
<path fill="#FEC85D" opacity="1.000000" stroke="none" 
	d="
M223.868622,176.701965 
	C216.914291,183.922546 209.751862,190.788818 202.748322,197.813507 
	C199.782394,200.788406 197.726120,200.518066 196.013428,196.360138 
	C203.616974,188.232986 211.269760,180.457993 218.982605,172.344315 
	C220.603363,173.474319 222.164078,174.943024 223.868622,176.701965 
z"/>
<path fill="#FEC85D" opacity="1.000000" stroke="none" 
	d="
M245.938629,198.673477 
	C242.833084,201.696884 239.459564,204.296310 236.381561,207.208099 
	C234.102005,209.364532 232.206726,211.927216 229.595139,214.937180 
	C227.941803,212.942291 226.984314,211.786987 226.140991,209.999039 
	C231.291611,204.525345 236.328033,199.684296 241.364441,194.843262 
	C242.842117,196.023346 244.319778,197.203430 245.938629,198.673477 
z"/>
<path fill="#E4B049" opacity="1.000000" stroke="none" 
	d="
M241.170120,194.568970 
	C236.328033,199.684296 231.291611,204.525345 226.088043,209.653564 
	C221.269592,207.726273 220.952881,206.681366 224.154877,203.357468 
	C228.292511,199.062332 232.515182,194.849136 236.849701,190.303986 
	C238.324051,191.436432 239.649933,192.865555 241.170120,194.568970 
z"/>
<path fill="#B5BABC" opacity="1.000000" stroke="none" 
	d="
M349.409424,191.167816 
	C342.784302,184.744690 336.542572,178.165024 330.170441,171.714142 
	C324.018494,165.486160 317.732117,159.391006 311.186890,153.097351 
	C312.676727,150.980240 314.484497,149.003250 316.630981,146.965576 
	C325.151367,155.277252 333.327545,163.654953 341.516876,172.019821 
	C345.905060,176.502060 350.315857,180.962143 354.871155,185.730896 
	C353.262512,187.708923 351.499176,189.388260 349.409424,191.167816 
z"/>
</svg>